<?xml version="1.0" encoding="UTF-8"?>
<svg id="_圖層_1" data-name="圖層_1" xmlns="http://www.w3.org/2000/svg" version="1.1" viewBox="0 0 239.97 67.71">
  <!-- Generator: Adobe Illustrator 29.8.2, SVG Export Plug-In . SVG Version: 2.1.1 Build 3)  -->
  <defs>
    <style>
      .st0 {
        fill: #cedd4a;
      }
    </style>
  </defs>
  <path class="st0" d="M1.91,23.1c-.48.03-1.12.03-1.6-.03-.17-.03-.25-.1-.22-.25C.23,15.34.23,6.51.09,1.82.06,1.47.03,1.09,0,.72c-.03-.15.06-.23.22-.25.56,0,1.23.03,1.79.08.2,0,.25.1.22.23l-.06.45h6.58l-.03-.5c0-.15.08-.23.25-.25.42,0,.98,0,1.4.03.2,0,.28.1.28.25-.03.28-.06.63-.06.96v6.83c0,.15-.11.23-.28.25h-1.32c-.17-.03-.25-.1-.25-.25v-.33H2.02c0,4.44.03,9.81.14,14.62,0,.18-.08.25-.25.28ZM8.77,5.3H2.05v1.54h6.72v-1.54ZM2.08,2.56v1.44h6.69v-1.44H2.08ZM21.87.49c.56-.03,1.23,0,1.85.05.17.03.25.1.22.25-.08.48-.11.83-.14,1.18-.14,4.13-.08,12.18-.06,19.08,0,1.21-.53,1.76-1.82,1.87-.76.03-1.32.03-1.79,0-.31-.02-.48-.15-.56-.4-.08-.4-.14-.88-.25-1.23-.03-.13.03-.2.2-.2.5.08,1.04.1,1.65.08.42-.03.64-.15.62-.63v-12.33h-6.92v.33c0,.05,0,.08-.03.1.06-.03.14-.03.22,0,.28.13.62.28.9.43.2.15.2.25.03.43-.08.13-.17.23-.25.33-.11.13-.22.25-.34.4l-1.12,1.44.87.71c.7-.81,1.37-1.61,1.88-2.34.08-.13.22-.15.36-.08.28.13.62.3.9.48.2.15.17.23,0,.43-.08.08-.17.15-.25.2-.14.15-.28.3-.45.48-.64.73-1.51,1.69-2.38,2.6.9-.05,1.79-.15,2.6-.25l-.56-1.11c-.06-.13-.03-.25.14-.33.25-.13.53-.25.81-.33.17-.08.28-.03.34.13.48,1.06,1.09,2.12,1.74,3.13.06.1.03.18-.08.23-.34.15-.64.3-.95.43-.17.05-.28,0-.36-.15l-.45-.81c-1.6.25-3.53.43-5.1.55-.11.03-.22.05-.34.05-.08.03-.2.05-.28.08-.25.08-.39.03-.48-.23l-.03-.08c0,.05-.06.08-.14.1-.31.15-.62.28-.92.38-.14.05-.28,0-.34-.15l-.34-.63c-1.74.25-3.92.43-5.71.55-.11.03-.2.03-.31.05l-.34.08c-.25.08-.36,0-.45-.23-.11-.35-.22-.76-.25-1.11,0-.13.06-.18.2-.18.64,0,1.4,0,2.18-.03l.81-.83c-.87-.81-1.71-1.51-2.6-2.17-.14-.1-.2-.2-.11-.33.2-.25.36-.48.53-.68.14-.13.25-.13.39-.05l.9.66c.56-.66,1.06-1.41,1.48-2.12.06-.1.2-.15.31-.1.31.1.64.28.9.43.2.13.22.23.03.4-.08.13-.17.25-.22.33-.11.15-.22.28-.34.43l-1.15,1.41.87.73c.73-.81,1.4-1.66,1.9-2.39.08-.1.2-.15.34-.1.31.15.62.35.9.5.2.13.2.23,0,.4-.08.1-.17.18-.22.23-.14.18-.28.3-.45.48-.64.76-1.51,1.74-2.41,2.65.78-.05,1.57-.13,2.27-.23l-.39-.91c-.06-.15,0-.25.14-.33.22-.1.53-.2.78-.3.17-.03.31.03.34.18.39.91.87,1.82,1.37,2.72-.11-.3-.17-.6-.2-.86,0-.13.06-.18.2-.18l1.18-.03.78-.78c-.81-.83-1.68-1.56-2.58-2.19-.14-.13-.14-.23-.06-.35.17-.23.34-.45.53-.66.14-.1.25-.13.39-.05l.87.66c.56-.66,1.09-1.39,1.48-2.09v-.03s-.08.05-.14.05h-1.34c-.17-.03-.25-.1-.25-.25V1.72c0-.38,0-.73-.03-1.01,0-.15.08-.23.25-.25.45,0,.98,0,1.4.03.2,0,.28.1.28.25l-.03.48h6.8l-.06-.5c-.03-.15.06-.23.22-.23ZM6.31,20.48c-.36.02-.76.02-1.12,0-.2-.03-.28-.1-.28-.25.03-1.34.03-2.65,0-3.4,0-.13-.03-.28-.06-.48,0-.15.06-.23.22-.25.42,0,.95.03,1.37.05.17.03.25.13.2.25-.03.18-.06.3-.08.43l-.03,1.31h2.77c.06-.58.03-1.26-.03-2.04-.03-.18.06-.25.22-.25.39,0,.81,0,1.26.03.22,0,.31.1.25.33-.03.13-.03.28-.03.38-.03.25-.03.48-.03.78-.06,3.43-1.2,4.76-4.87,5.7-.28.08-.5,0-.7-.18-.17-.18-.34-.38-.76-.73-.11-.08-.08-.13.03-.15,2.63-.5,3.89-1.21,4.4-2.57h-2.49l.03.81c0,.15-.11.23-.28.25ZM18.49,20.86c-.39.05-.84.03-1.18,0-.2,0-.28-.08-.28-.23v-.88h-2.66l.06,2.72c0,.15-.08.25-.25.25-.42.03-.9.03-1.29-.03-.17-.03-.25-.1-.25-.25.06-2.17.06-4.54,0-5.8-.03-.18-.06-.35-.08-.58,0-.15.06-.23.22-.23.5-.03,1.06-.03,1.51.03.17.05.25.13.22.28-.06.2-.08.33-.11.5l-.03,1.74h2.69l-.03-1.56c-.03-.15-.03-.3-.06-.48-.03-.15.06-.25.22-.25.45-.03.98,0,1.43.05.17,0,.22.1.2.23-.06.2-.08.3-.08.45-.06.81-.03,2.29,0,3.81,0,.15-.08.23-.25.23ZM14.87,3.99h6.89v-1.16l-.03-.28h-6.86v1.44ZM21.79,6.84l-.03-1.54h-6.89v1.54h6.92Z"/>
  <path class="st0" d="M49.23,1.52l-.2.5c1.32,3.1,3.84,6.28,6.83,8.44.08.08.08.13,0,.2-.64.48-.87.73-1.18.96-.17.13-.34.1-.53-.02-2.55-2.07-4.65-4.82-6.05-7.46-1.37,2.82-3.36,5.85-5.66,8.02-.17.15-.36.18-.59.08-.22-.15-.45-.3-1.12-.63-.11,2.77-.31,6.88-.87,9.58-.28,1.21-.98,1.69-2.46,1.71-.62-.03-1.18-.1-1.65-.2-.34-.05-.42-.18-.45-.5,0-.2,0-.5-.17-1.18-.06-.13,0-.15.14-.15.59.15,1.15.25,1.76.28.59.03.92-.2,1.09-.78.5-2.17.76-6.15.78-9.25h-3.3c-.45,6.25-1.79,9.18-4.23,11.87-.17.2-.39.23-.59.08-.25-.18-.48-.38-1.18-.76-.08-.05-.11-.13-.03-.23,3.33-3.08,4.54-7.64,4.31-15.96-1.23.03-2.35.05-3.53.1-.17,0-.25-.08-.28-.23-.03-.43-.06-1.01-.06-1.41.03-.15.11-.23.28-.23,1.76.13,3.42.13,5.46.13.03-1.39.03-2.85-.03-3.66,0-.2-.03-.38-.03-.58-.06-.13.03-.23.22-.23.48-.03,1.23,0,1.74.05.17,0,.25.08.22.23-.06.2-.08.33-.08.53-.06.81-.06,2.24-.06,3.66,1.85-.03,3.7-.05,4.7-.1.17,0,.28.08.28.23,0,.38,0,.91-.03,1.31,0,.15-.08.23-.25.23-1.26-.03-3.81-.03-6.1-.03h-.5l-.06.33c0,.28,0,.5-.03.81l-.06,2.12h3.19l-.03-.81c-.03-.15.06-.25.22-.28.48,0,1.06,0,1.54.03.17.03.22.13.22.28-.03.2-.06.4-.06.61,0,.25-.03.48-.03.78l-.06,1.31c3.22-2.92,5.82-7.36,6.83-10.99.03-.15.14-.2.31-.2.45.05,1.04.15,1.54.25.25.08.28.18.14.4-.06.1-.08.2-.11.28-.08.15-.14.3-.22.5ZM43.66,17.15c2.83,1.51,6.92,3.23,10.53,4.39.11.05.14.13.06.23-.25.35-.56.81-.87,1.13-.14.15-.34.2-.53.13-3.5-1.24-7.45-3-10.33-4.54-.14-.08-.17-.2-.08-.33.25-.28.56-.68.84-.96.14-.13.25-.13.39-.05ZM47.13,11.05c1.29,1.24,3.05,2.67,4.84,3.83.08.08.08.15,0,.25-.34.25-.73.61-1.09.86-.2.1-.36.08-.53-.03-1.68-1.21-3.3-2.62-4.65-3.91-.11-.13-.11-.23.03-.33.28-.23.67-.53.98-.73.17-.1.31-.08.42.05Z"/>
  <path class="st0" d="M68.69,23.07c-.5.03-1.09.03-1.54,0-.17-.03-.25-.1-.22-.28l.08-6.43c-1.34,1.82-3.22,3.78-5.1,5.07-.2.13-.39.13-.59,0-.22-.18-.42-.4-1.09-.83-.11-.08-.11-.13,0-.2,2.3-1.36,4.51-3.55,5.94-5.7-1.74,0-3.28,0-4.82.08-.17,0-.25-.08-.28-.23-.03-.38-.06-.96-.06-1.34.03-.15.11-.23.28-.23,1.79.13,3.5.13,5.63.13v-1.39c0-.2,0-.4-.03-.66-.03-.15.03-.25.2-.25.53,0,1.15,0,1.6.05.17.03.25.13.22.25-.03.25-.06.43-.06.61v1.39c1.9-.02,3.81-.05,4.84-.1.17,0,.25.08.25.23.03.35.03.86,0,1.24,0,.15-.08.23-.25.23h-4.9c0,2.02.03,5.8.11,8.12,0,.15-.06.25-.22.25ZM71.69,6.13c-.34.78-.73,1.79-1.18,2.7,1.37,0,2.63-.03,3.39-.08.17-.03.25.05.28.2,0,.38,0,.88-.03,1.26,0,.15-.08.23-.25.23-1.29-.03-4,0-6.44,0s-4.34-.03-6.3.1c-.17,0-.25-.08-.28-.23-.03-.4-.06-.98-.06-1.39.03-.15.11-.23.28-.2,2.02.13,3.89.13,6.36.13h1.18c.64-1.24,1.23-2.75,1.57-4.01.03-.15.11-.2.28-.2.42.08.98.2,1.43.3.22.08.25.18.14.4-.06.1-.08.18-.14.25-.08.15-.14.33-.22.53ZM73.84,2.88v1.21c-.03.15-.11.23-.28.23-1.23-.03-3.75-.03-6.02-.03s-4.06,0-5.88.1c-.17,0-.25-.08-.28-.23-.03-.4-.06-.93-.06-1.31.03-.15.11-.2.28-.2,1.65.1,3.22.1,5.15.1l-.03-1.94c0-.18-.03-.33-.03-.48-.03-.15.06-.25.22-.25.48,0,1.23,0,1.71.03.17.03.25.13.22.28s-.06.28-.08.43c-.06.45-.06,1.18-.06,1.94,1.9,0,3.81-.02,4.84-.08.17,0,.25.05.28.2ZM64.55,8.23c-.25-1.03-.59-1.99-.95-2.9-.08-.15-.03-.25.14-.3.39-.15.81-.25,1.23-.3.17-.03.28.03.34.18.42.98.81,2.02,1.09,2.92.06.15,0,.25-.17.3-.45.18-.92.25-1.37.3-.17.03-.25-.03-.31-.2ZM70.65,16.02c.9.81,1.9,1.64,2.97,2.45.11.08.11.15,0,.23-.31.25-.64.58-.98.83-.14.1-.31.1-.45-.03-1.04-.83-1.96-1.64-2.83-2.47-.11-.13-.11-.23.03-.33.25-.23.56-.5.84-.71.17-.1.31-.1.42.03ZM86.25,8.78c.03.4.03.96,0,1.34-.03.18-.11.25-.28.23h-2.8v.25c0,.81.03,8.52.08,12.28,0,.15-.08.23-.25.23-.48.03-1.06.03-1.51,0-.17-.03-.25-.1-.25-.25.06-4.69.03-11.6.03-12.25v-.25h-3.98l-.03,1.41c-.03,3.66-.73,7.99-2.77,10.87-.17.2-.36.25-.64.15-.25-.13-.45-.3-1.23-.63-.14-.05-.14-.13-.06-.23,2.04-2.57,2.72-6.38,2.8-10.03.06-1.84.03-6.38-.06-8.37-.03-.55-.06-1.13-.11-1.64,0-.15.06-.25.25-.25.5-.03,1.2-.03,1.74.03.17.03.25.1.22.25l-.06.83c2.32-.43,4.96-1.21,6.58-1.99.14-.08.28-.05.42.05.34.3.78.73,1.12,1.11.17.18.11.28-.17.35-.2.05-.34.1-.48.13-.31.13-.56.2-.87.3-1.71.61-4.31,1.34-6.61,1.76l-.03,4.16h4.14c1.54,0,3.44-.03,4.51-.05.17,0,.25.05.28.23Z"/>
  <path class="st0" d="M115.09,5.63c.03.43.03,1.01,0,1.41-.03.15-.11.23-.28.23-1.74-.03-5.38-.03-8.34-.03h-1.01v5.07c3.08,0,6.36-.02,7.87-.1.2-.03.28.05.28.23.03.4.03,1.01,0,1.44,0,.15-.11.23-.28.23-1.48-.05-4.76-.03-7.87-.03l.06,6.1c4.37,0,9.02-.05,11-.13.17,0,.28.08.28.23.03.45.03,1.06,0,1.49-.03.15-.11.23-.28.23-2.16-.02-7.48-.02-12.21-.02-4.98,0-8.4-.05-12.12.15-.2.03-.28-.05-.31-.2-.03-.48-.06-1.24-.06-1.69.03-.15.11-.23.28-.2,3.47.2,6.78.15,11.26.15l.06-6.1c-2.97,0-5.21-.03-7.64.1-.17.03-.25-.05-.28-.2-.06-.45-.06-1.13-.06-1.59,0-.15.08-.23.28-.23,2.46.15,4.73.15,7.7.15v-5.07h-6.55c-.81,1.46-1.76,2.87-2.8,4.03-.14.18-.36.23-.62.15-.28-.15-.59-.35-1.48-.63-.14-.05-.17-.1-.08-.2,2.55-2.57,4.59-6.4,5.38-9.58.06-.15.14-.2.31-.2.5.08,1.2.2,1.71.35.28.08.28.18.17.43-.06.1-.11.2-.17.28-.06.15-.11.28-.2.5-.36.96-.78,2.02-1.29,3.08h5.63l-.08-3.76c-.03-.43-.06-.81-.08-1.18,0-.15.08-.23.25-.23.56-.03,1.34-.03,1.96.05.17.03.25.1.22.25-.06.38-.11.68-.14,1.08l-.08,3.78h1.01c2.94,0,6.64,0,8.34-.05.17,0,.25.08.28.23Z"/>
  <path class="st0" d="M123.6,19.85c-.17.1-.31.15-.45.23-.22.1-.34.05-.45-.2-.17-.43-.39-1.06-.48-1.51-.03-.15,0-.2.14-.25,1.18-.25,2.58-.66,4.03-1.11l.03-8.07c-1.2,0-2.3.02-3.44.08-.17.03-.25-.05-.28-.2-.03-.45-.06-1.06-.03-1.51,0-.15.08-.23.25-.2,1.2.08,2.27.1,3.5.1,0-1.92-.03-3.6-.06-4.86-.03-.38-.06-.68-.08-1.01-.03-.15.06-.23.22-.23.53-.03,1.29-.03,1.82.03.17.02.25.13.22.28-.06.3-.08.58-.11.91-.03,1.26-.06,2.97-.08,4.89,1.15-.02,2.3-.05,3.02-.08.2,0,.28.05.31.23,0,.4,0,.98-.03,1.39,0,.15-.11.23-.28.23l-3.02-.02.03,7.41c1.18-.43,2.3-.86,3.22-1.26.14-.05.2,0,.2.1.03.73.11,1.06.17,1.39.03.18-.08.35-.28.43-2.24.91-5.29,1.92-7.76,2.72-.11.05-.2.08-.34.13ZM140.68,18.31c-.45.05-1.04.05-1.46,0-.17,0-.25-.1-.25-.25.06-2.75.08-5.7.08-8.45l-.5.18-3.02,1.03c-.03,2.85,0,5.87.08,8.82,0,.76.39,1.13,1.29,1.21,2.18.2,4.87.2,7,.03,1.04-.15,1.62-.5,1.99-1.34.22-.68.28-1.34.36-1.97.03-.13.08-.15.2-.1.64.25.92.33,1.2.43.28.08.36.25.34.5-.08.58-.22,1.31-.45,2.04-.5,1.39-1.48,2.04-3.44,2.19-2.49.15-5.26.18-7.9-.03-1.71-.18-2.44-.88-2.49-2.5-.06-2.9-.06-5.92-.03-8.65-1.04.35-2.04.73-3,1.13-.2.1-.31.05-.39-.13-.17-.43-.34-1.03-.39-1.44-.06-.18.03-.28.17-.3,1.2-.35,2.41-.71,3.61-1.11,0-2.22,0-4.11-.03-5.39-.03-.45-.06-.98-.08-1.51-.03-.13.03-.23.22-.23.59,0,1.18,0,1.76.05.17.03.25.1.22.25-.03.3-.08.63-.08.93-.03.25-.06.5-.06.78l-.11,4.51,2.35-.81,1.18-.4c0-2.52-.03-4.79-.08-6.4-.03-.33-.06-.63-.08-.98,0-.15.08-.23.25-.23.5-.02,1.15-.02,1.68.05.17.03.22.1.2.25-.08.33-.11.61-.11.96-.06,1.46-.08,3.48-.08,5.75l4.23-1.44-.08-1.61c0-.15.08-.23.25-.25.45-.03,1.04-.03,1.48.03.17.02.25.1.25.25-.03.23-.03.4-.06.58v.76c-.06,2.19-.11,6.86-.62,9.71-.25,1.08-.87,1.54-2.21,1.59-.62,0-1.18-.08-1.65-.18-.34-.05-.42-.15-.45-.48,0-.18-.03-.45-.2-1.11-.06-.1.03-.15.14-.13.62.13,1.15.2,1.79.23.45,0,.7-.18.81-.6.36-1.64.53-4.46.53-6.96l-4.23,1.41c0,2.92.06,6.12.11,9.07,0,.15-.08.23-.25.23Z"/>
  <path class="st0" d="M171.79,5.76l-.03.55h2.13l-.03-.93c0-.15.08-.23.25-.23.5-.03,1.01,0,1.48.05.17.03.25.1.22.25-.11.58-.14,1.11-.2,1.59,0,.28,0,.53-.03.83-.14,3.61.28,6.2,1.15,6.2.56,0,.92-1.18,1.04-2.97.03-.13.08-.15.17-.08.59.38.78.43,1.09.63.2.13.22.23.2.43-.42,2.45-1.34,3.73-2.63,3.73-1.99-.03-2.77-3.55-2.72-7.92v-.15h-2.21c-.11,1.21-.31,2.24-.64,3.15.92.6,1.9,1.18,2.83,1.66.11.1.11.15.06.25-.25.3-.5.66-.78.96-.14.1-.28.13-.45.02-.78-.45-1.57-.96-2.3-1.46-.73,1.18-1.74,2.14-3.19,3.03-.22.15-.45.13-.64-.05-.17-.15-.36-.33-.78-.68-3.22.4-7.28.63-10.78.78-.14.03-.28.03-.42.03-.2.05-.39.08-.56.13-.25.05-.36-.03-.45-.28-.08-.3-.14-.71-.17-1.08.03-.1.08-.15.2-.15,1.62.03,3.64,0,5.71-.1v-1.21c-1.43,0-2.88.03-4.09.08-.17,0-.25-.08-.28-.23-.03-.3-.03-.6-.03-.88,0-.15.08-.23.25-.23,1.29.08,2.6.1,4.12.1v-.35c-.03-.2-.03-.35-.06-.53-.03-.15.06-.23.22-.23.45-.03,1.15-.03,1.6.03.2,0,.25.1.22.25-.03.18-.06.3-.08.48v.35c1.57,0,3.22-.03,4.14-.08.17,0,.28.05.31.2,0,.28,0,.55-.03.81-.03.15-.11.23-.28.23h-4.17v1.08c1.79-.13,3.53-.3,4.93-.5.08-.03.14.03.14.1l-.03.71c1.32-.76,2.27-1.64,2.88-2.72-.73-.55-1.43-1.11-2.04-1.64-.11-.13-.14-.23-.03-.35.17-.23.45-.53.67-.76.11-.1.25-.13.39,0,.5.43,1.04.88,1.62,1.31.22-.68.34-1.41.42-2.22l-3,.08c-.17.03-.28-.05-.28-.2-.06-.38-.06-.86-.06-1.21,0-.15.08-.2.25-.2,1.12.08,2.13.1,3.11.1l-.06-1.71-1.34.03c-.17-.03-.25-.13-.25-.28l.03-1.19h-5.38l.03,1.21c0,.15-.08.23-.25.25-.48.02-1.15.02-1.62-.03l-.06.35v.35c1.54,0,3.14-.05,4.06-.1.17.03.25.1.25.25.03.23.03.5,0,.76,0,.15-.08.23-.28.23h-4.06v1.03c1.9-.02,3.84-.05,4.9-.1.17,0,.28.05.28.23,0,.25,0,.53-.03.78,0,.18-.08.25-.25.25h-3.61l-.03.73c0,.28.11.4.36.43.5.05,1.23.05,1.76,0,.31-.03.5-.1.56-.35.06-.15.08-.3.11-.48.03-.08.08-.13.2-.1.31.08.67.15,1.01.25.17.05.22.15.2.33-.03.18-.08.38-.17.6-.28.61-.67.88-1.79.93-.81.03-1.74,0-2.52-.05-.84-.08-1.2-.43-1.2-1.21l-.03-1.08h-1.96l-.14.53c-.45,1.24-1.6,1.97-4.37,2.37-.25.03-.45-.05-.56-.23s-.2-.38-.5-.73c-.06-.08-.03-.15.08-.15,2.55-.2,3.58-.66,3.84-1.79-1.26,0-2.44.03-3.5.08-.17,0-.25-.08-.28-.23-.03-.3-.06-.63-.03-.91,0-.15.08-.23.25-.2,1.71.1,3.44.1,5.54.1l.03-1.03c-1.54,0-3.08,0-4.37.08-.17,0-.25-.08-.28-.25-.03-.25-.06-.58-.03-.83,0-.15.08-.23.25-.23,1.37.08,2.74.1,4.4.1l-.03-.35c0-.2-.03-.33-.06-.5,0-.18.08-.25.25-.25.45-.03,1.12,0,1.57.03l.03-1.06c-2.66,0-4.98.03-7.28.15-.17,0-.28-.05-.31-.23-.03-.38-.06-.93-.06-1.31,0-.15.11-.23.28-.23,2.35.15,4.68.18,7.36.18l-.03-.83c-.03-.15-.03-.3-.06-.5-.03-.15.03-.23.2-.23.59-.03,1.29-.03,1.88.05.17.03.22.1.2.25-.03.15-.08.28-.08.4l-.03.86h5.32l-.03-.81c0-.15-.03-.33-.06-.5-.03-.15.06-.23.22-.23.59-.05,1.29-.03,1.9.05.17.03.25.1.2.25-.06.15-.08.25-.11.4l-.03.81c3.11-.02,5.94-.05,7.36-.13.2,0,.28.08.31.23,0,.35,0,.81-.03,1.16,0,.15-.08.23-.28.23l-7.36-.03.03,1.08c.34,0,.64-.02,1.01.03.25,0,.31.1.28.33-.06.15-.08.25-.08.4-.03.25-.03.48-.03.76ZM156.86,22.7c-.28.05-.56.08-.81.15-.25.05-.36-.03-.48-.25-.11-.38-.2-.86-.22-1.24.03-.13.08-.18.2-.18,1.29.03,2.8.05,4.4.03.48-.6.92-1.29,1.29-1.94-2.72,0-5.07.02-7.39.15-.17,0-.28-.08-.28-.23-.06-.33-.08-.81-.08-1.13.03-.15.11-.23.28-.23,3.58.2,7.14.15,12.07.15s9.97-.05,12.1-.13c.2-.03.28.05.28.2.03.33.03.71,0,1.01,0,.15-.11.23-.28.23l-5.46-.02c1.23.98,2.91,2.02,4.56,2.82.11.05.14.13.03.2-.36.28-.78.61-1.2.81-.17.08-.34.08-.53-.03-.73-.4-1.46-.83-2.16-1.29-4.82.5-10.61.73-15.79.88-.14,0-.31.03-.5.03ZM174.72,15.81c.03.28,0,.61,0,.91-.03.15-.11.23-.28.23-1.6-.03-5.15-.03-8.32-.03s-5.8,0-8.2.13c-.17,0-.28-.08-.28-.25-.03-.3-.06-.71-.06-1.03,0-.15.08-.2.25-.2,2.49.15,4.98.13,8.29.13,3.08,0,6.69-.05,8.34-.1.17,0,.25.08.25.23ZM163.13,19.82l-.95,1.34c3.19-.08,6.55-.25,9.38-.5l-1.2-.96c-.11-.1-.11-.2.03-.28l.25-.15h-7.08l-.08.1c-.11.15-.22.28-.34.45Z"/>
  <path class="st0" d="M188.7,23.1c-.45.03-.98.03-1.43,0-.2-.03-.25-.1-.25-.25.03-5.07.03-10.61.03-11.29v-.1c-.76.81-1.54,1.59-2.35,2.27-.2.15-.36.13-.53-.05-.14-.2-.25-.45-.78-1.11-.08-.08-.06-.13,0-.18,2.38-1.87,4.68-4.69,5.96-7.01.08-.13.2-.15.34-.08.39.2.87.58,1.23.86.22.15.2.28,0,.45-.08.08-.14.15-.2.23-.11.1-.2.23-.36.43-.42.6-.9,1.29-1.46,1.99,0,.93.03,9.5.08,13.61,0,.15-.11.23-.28.23ZM189.99,2.18c-1.2,1.31-3.05,3.05-4.76,4.16-.22.1-.42.08-.56-.08-.17-.2-.34-.45-.9-1.01-.11-.08-.08-.15.03-.2,2.02-1.13,4-3,5.24-4.69.08-.13.2-.15.34-.08.39.25.84.6,1.2.91.22.15.2.28-.03.43-.08.05-.14.13-.2.18-.11.1-.25.23-.36.38ZM193.6,11.83c-.2,1.99-.76,5.37-1.68,7.71-.03.18-.2.23-.39.18-.22-.08-.48-.18-1.23-.38-.11,0-.14-.08-.08-.18,1.06-2.47,1.88-6.3,1.76-9.02,0-.15.08-.23.25-.23.42.03.92.08,1.34.13.25.05.31.15.22.4-.03.23-.08.45-.11.68-.03.23-.06.45-.08.71ZM201.49,5.73c.03.38.03.96,0,1.36-.03.15-.11.23-.28.23l-4.03-.03c-.03,4.56,0,10.31.11,15.43,0,.15-.08.23-.25.25-.45.03-1.09.03-1.54-.03-.2,0-.28-.08-.25-.23.08-5.12.14-10.84.08-15.43-1.34,0-2.55.03-3.78.08-.2.03-.31-.05-.31-.2-.03-.43-.06-1.06-.06-1.46.03-.15.11-.23.28-.23,1.29.1,2.46.1,3.84.1l-.08-3.78c0-.38-.03-.76-.06-1.11,0-.15.08-.25.25-.28.53,0,1.18,0,1.76.05.17.03.22.13.2.28-.06.38-.11.71-.11,1.13l-.08,3.71c1.54,0,3.14-.02,4.03-.08.17,0,.28.08.28.23ZM199.59.79c.59,1.08,1.32,2.17,2.1,3.13.08.1.06.18-.06.25-.36.2-.73.45-1.09.63-.17.05-.31.05-.42-.1-.78-1.03-1.43-2.09-1.99-3.13-.06-.15-.06-.25.11-.35.28-.18.64-.38.98-.55.17-.08.28-.03.36.13ZM200.4,10.02c.22,2.5.78,5.6,1.51,8.09.03.13-.06.2-.17.23-.42.08-.84.18-1.26.23-.2.03-.31-.05-.36-.23-.64-2.65-1.15-5.65-1.37-8.07-.03-.15.06-.25.22-.28.34-.1.76-.15,1.12-.2.2-.03.28.05.31.23ZM209.42,7.77c0,.4,0,.98-.03,1.39-.03.15-.11.23-.28.23l-2.16-.03-.06.45c-.06,2.32-.03,6.71-.03,11.14-.03,1.29-.56,1.84-1.9,1.94-.84.02-1.46.02-2.02-.03-.31-.03-.5-.18-.56-.43-.11-.43-.2-.86-.34-1.21-.03-.15.03-.23.2-.2.62.1,1.29.13,2.02.1.5-.03.73-.15.73-.68.03-3.68,0-8.24-.03-10.33,0-.23-.03-.4-.03-.58v-.18c-1.04,0-2.04,0-3.05.05-.17,0-.28-.05-.28-.2-.06-.45-.08-1.06-.06-1.46,0-.18.11-.25.28-.23,1.23.1,2.3.1,3.61.1s2.8-.03,3.7-.08c.17,0,.25.08.28.23ZM209.14,1.9c0,.38,0,.93-.03,1.34,0,.15-.08.23-.28.23-.76-.03-2.07-.03-3.25-.03-1.01,0-2.04.03-3.08.08-.17,0-.28-.08-.28-.23-.06-.43-.06-1.01-.06-1.44.03-.15.11-.23.28-.2,1.09.08,2.04.1,3.14.1s2.46-.03,3.28-.08c.17,0,.28.08.28.23Z"/>
  <path class="st0" d="M227.65,2.28c.03.3.03.76,0,1.08,0,.15-.08.23-.25.23-.98-.03-2.49-.03-3.84-.03h-4.09c-.95,1.21-2.1,2.5-3.28,3.53-.2.18-.39.2-.62.1-.25-.13-.53-.28-1.37-.58-.11-.05-.14-.1-.03-.15,2.24-1.82,4.34-4.31,5.24-6.25.08-.15.2-.2.34-.18.5.05,1.09.15,1.62.28.22.08.25.18.08.38-.06.08-.08.13-.14.2-.11.13-.17.25-.28.43l-.48.76h3c1.32,0,2.91,0,3.84-.02.17,0,.25.08.25.23ZM225.1,16.34c.87,1.54,2.07,3.3,3.33,4.84.06.1.06.18-.08.23-.42.18-.87.43-1.29.58-.2.08-.36.03-.48-.15-.42-.58-.84-1.16-1.26-1.76-2.69.63-6.05,1.23-8.96,1.74-.11.03-.22.05-.36.08-.17.05-.34.1-.48.15-.25.1-.36.05-.48-.2-.17-.4-.34-.98-.42-1.44,0-.1.06-.2.22-.2l2.02-.23v-11.49c0-.5-.03-.83-.06-1.08-.03-.15.06-.23.22-.25.5-.03,1.09,0,1.6.05.2.03.25.1.25.25l-.06.45h6.69l-.03-.5c-.03-.15.06-.23.22-.25.48-.03,1.04,0,1.54.03.17.02.25.13.22.28-.03.25-.06.48-.08.86v7.97c0,.15-.08.25-.25.25-.42.03-.95.03-1.34,0-.2,0-.28-.1-.28-.25v-.43h-6.72v3.86c1.9-.3,3.89-.71,5.6-1.11l-.95-1.59c-.08-.13-.03-.23.11-.3.34-.15.78-.35,1.15-.5.2-.05.31,0,.39.15ZM218.8,9.31v1.79h6.72v-1.79h-6.72ZM218.8,12.49v1.92h6.72v-1.92h-6.72ZM222.1,3.82c.59.76,1.32,1.59,2.02,2.27.08.1.06.18-.06.23-.36.2-.76.43-1.15.63-.25.08-.42.03-.59-.15-.59-.6-1.32-1.51-1.88-2.24-.11-.13-.06-.25.08-.33.36-.18.81-.35,1.18-.5.14-.05.28-.03.39.1ZM239.97,2.25v1.08c-.03.15-.11.23-.31.23-1.04-.02-2.86-.02-4.45-.02h-4.82c-.87,1.08-1.88,2.22-2.88,3.15-.2.15-.39.18-.64.1-.22-.15-.48-.33-1.32-.6-.08-.05-.11-.1-.03-.18,2.04-1.71,3.98-3.98,4.79-5.8.06-.13.17-.18.31-.18.5.05,1.09.15,1.62.25.25.08.28.18.11.38-.06.08-.11.15-.17.2-.06.13-.17.25-.25.43l-.5.78h3.78c1.57,0,3.44-.02,4.45-.05.2,0,.28.08.31.23ZM231.12,23.07c-.42.03-.98.03-1.4,0-.17-.03-.25-.1-.25-.25v-14.09c0-.66-.03-1.16-.06-1.51-.03-.15.06-.23.22-.25.48-.03,1.12,0,1.6.05.2.03.28.1.25.25l-.06.81h5.6v-.35c0-.18-.03-.33-.06-.5-.03-.15.06-.23.22-.23.53-.03,1.15,0,1.74.05.17,0,.25.1.22.25-.08.45-.11.73-.14,1.03-.06,2.17-.03,6.23-.03,10.46-.03,1.31-.59,1.92-2.07,2.02-.95.03-1.71,0-2.38-.05-.31-.03-.48-.18-.59-.45-.08-.4-.17-.81-.31-1.13-.03-.18.03-.23.2-.2.73.1,1.54.13,2.46.1.56-.03.78-.18.76-.73.03-2.77,0-6.3,0-8.62h-5.66v13.11c0,.15-.11.23-.28.25ZM233.5,3.79c.76.81,1.65,1.69,2.52,2.42.08.08.08.15-.06.2-.34.2-.73.45-1.09.66-.25.1-.42.05-.59-.1-.73-.66-1.65-1.61-2.38-2.39-.08-.13-.08-.25.08-.33.34-.2.76-.38,1.09-.53.17-.08.31-.03.42.08Z"/>
  <path class="st0" d="M.24,67.21v-25.08h8.99l4.98,21.85h.64v-21.85h4.66v25.08h-8.99l-4.98-21.85h-.65v21.85H.24Z"/>
  <path class="st0" d="M33.99,67.71c-3.15,0-5.66-.87-7.52-2.6s-2.79-4.21-2.79-7.43v-6.02c0-3.22.93-5.7,2.79-7.43,1.86-1.73,4.37-2.6,7.52-2.6s5.66.87,7.52,2.6c1.86,1.73,2.79,4.21,2.79,7.43v6.02c0,3.22-.93,5.7-2.79,7.43s-4.37,2.6-7.52,2.6ZM33.99,63.48c1.77,0,3.14-.51,4.12-1.54.98-1.03,1.47-2.4,1.47-4.12v-6.3c0-1.72-.49-3.09-1.47-4.12-.98-1.03-2.35-1.54-4.12-1.54s-3.11.51-4.1,1.54c-.99,1.03-1.49,2.4-1.49,4.12v6.3c0,1.72.5,3.09,1.49,4.12.99,1.03,2.36,1.54,4.1,1.54Z"/>
  <path class="st0" d="M52.62,67.21l-6.38-25.08h4.87l5.3,22.03h.5l5.3-22.03h4.87l-6.38,25.08h-8.1Z"/>
  <path class="st0" d="M66.73,67.21l6.59-25.08h8.24l6.59,25.08h-4.87l-1.36-5.52h-8.96l-1.36,5.52h-4.87ZM74.08,57.32h6.73l-3.04-12.22h-.65l-3.04,12.22Z"/>
  <path class="st0" d="M99.83,67.21v-25.08h8.99l4.98,21.85h.64v-21.85h4.66v25.08h-8.99l-4.98-21.85h-.65v21.85h-4.66Z"/>
  <path class="st0" d="M133.58,67.71c-3.15,0-5.66-.87-7.52-2.6s-2.79-4.21-2.79-7.43v-6.02c0-3.22.93-5.7,2.79-7.43,1.86-1.73,4.37-2.6,7.52-2.6s5.66.87,7.52,2.6c1.86,1.73,2.79,4.21,2.79,7.43v6.02c0,3.22-.93,5.7-2.79,7.43s-4.37,2.6-7.52,2.6ZM133.58,63.48c1.77,0,3.14-.51,4.12-1.54.98-1.03,1.47-2.4,1.47-4.12v-6.3c0-1.72-.49-3.09-1.47-4.12-.98-1.03-2.35-1.54-4.12-1.54s-3.11.51-4.1,1.54c-.99,1.03-1.49,2.4-1.49,4.12v6.3c0,1.72.5,3.09,1.49,4.12.99,1.03,2.36,1.54,4.1,1.54Z"/>
  <path class="st0" d="M152.21,67.21l-6.38-25.08h4.87l5.3,22.03h.5l5.3-22.03h4.87l-6.38,25.08h-8.1Z"/>
  <path class="st0" d="M166.32,67.21l6.59-25.08h8.24l6.59,25.08h-4.87l-1.36-5.52h-8.96l-1.36,5.52h-4.87ZM173.67,57.32h6.73l-3.04-12.22h-.65l-3.04,12.22Z"/>
</svg>