<?xml version="1.0" encoding="utf-8"?>
<!-- Generator: Adobe Illustrator 27.0.1, SVG Export Plug-In . SVG Version: 6.00 Build 0)  -->
<svg version="1.1" id="圖層_1" xmlns="http://www.w3.org/2000/svg" xmlns:xlink="http://www.w3.org/1999/xlink" x="0px" y="0px"
	 viewBox="0 0 510.2 9.7" style="enable-background:new 0 0 510.2 9.7;" xml:space="preserve">
<style type="text/css">
	.st0{fill:#FFFFFF;}
</style>
<g>
	<g>
		<g>
			<path class="st0" d="M0,9.5V0.2h3.5l1.9,8.1h0.3V0.2h1.8v9.3H4L2.1,1.4H1.8v8.1H0z"/>
			<path class="st0" d="M11.6,9.5V1.8H8.8V0.2h7.6v1.6h-2.9v7.7H11.6z"/>
			<path class="st0" d="M20.9,9.7c-1.2,0-2.2-0.3-2.9-1c-0.7-0.6-1.1-1.6-1.1-2.8V3.7c0-1.2,0.4-2.1,1.1-2.8c0.7-0.6,1.7-1,2.9-1
				c1.2,0,2.1,0.3,2.8,0.9c0.7,0.6,1,1.5,1,2.6v0.1h-1.8V3.5c0-0.5-0.2-1-0.5-1.4s-0.8-0.5-1.5-0.5c-0.7,0-1.2,0.2-1.5,0.6
				C19,2.5,18.8,3,18.8,3.7V6c0,0.6,0.2,1.2,0.6,1.5c0.4,0.4,0.9,0.6,1.5,0.6c0.7,0,1.2-0.2,1.5-0.5s0.5-0.8,0.5-1.3V6h1.8v0.2
				c0,1.1-0.3,1.9-1,2.6C23,9.4,22.1,9.7,20.9,9.7z"/>
			<path class="st0" d="M25.4,9.5L28,0.2h3.2l2.6,9.3h-1.9l-0.5-2h-3.5l-0.5,2H25.4z M28.3,5.8h2.6l-1.2-4.5h-0.3L28.3,5.8z"/>
			<path class="st0" d="M35,9.5V0.2h3.4l1.7,8.1h0.3L42,0.2h3.4v9.3h-1.8v-8h-0.3l-1.7,8h-3.1l-1.7-8h-0.3v8H35z"/>
			<path class="st0" d="M52.4,7.7l-1.1-1.1l1.8-1.7l-1.8-1.7L52.4,2l1.9,1.7L56.2,2l1.1,1.1l-1.8,1.7l1.8,1.7l-1.1,1.1l-1.9-1.7
				L52.4,7.7z"/>
			<path class="st0" d="M65,9.5V1.8h-2.9V0.2h7.6v1.6h-2.9v7.7H65z"/>
			<path class="st0" d="M71,9.5V0.2h6.2v1.6h-4.3V4h4v1.6h-4v3.9H71z"/>
			<path class="st0" d="M77.2,9.5l2.6-9.3H83l2.6,9.3h-1.9l-0.5-2h-3.5l-0.5,2H77.2z M80.1,5.8h2.6l-1.2-4.5h-0.3L80.1,5.8z"/>
			<path class="st0" d="M86.7,9.5V0.2h1.8v9.3H86.7z"/>
		</g>
	</g>
	<g>
		<g>
			<path class="st0" d="M314.8,9.5V0.2h3.5l1.9,8.1h0.3V0.2h1.8v9.3h-3.5l-1.9-8.1h-0.3v8.1H314.8z"/>
			<path class="st0" d="M328,9.7c-1.2,0-2.2-0.3-2.9-1c-0.7-0.6-1.1-1.6-1.1-2.8V3.7c0-1.2,0.4-2.1,1.1-2.8c0.7-0.6,1.7-1,2.9-1
				c1.2,0,2.2,0.3,2.9,1c0.7,0.6,1.1,1.6,1.1,2.8V6c0,1.2-0.4,2.1-1.1,2.8C330.2,9.4,329.2,9.7,328,9.7z M328,8.1
				c0.7,0,1.2-0.2,1.6-0.6s0.6-0.9,0.6-1.5V3.7c0-0.6-0.2-1.1-0.6-1.5c-0.4-0.4-0.9-0.6-1.6-0.6c-0.7,0-1.2,0.2-1.6,0.6
				c-0.4,0.4-0.6,0.9-0.6,1.5V6c0,0.6,0.2,1.1,0.6,1.5S327.3,8.1,328,8.1z"/>
			<path class="st0" d="M335.2,9.5l-2.5-9.3h1.9l2.1,8.2h0.2l2.1-8.2h1.9l-2.5,9.3H335.2z"/>
			<path class="st0" d="M340.6,9.5l2.6-9.3h3.2l2.6,9.3h-1.9l-0.5-2h-3.5l-0.5,2H340.6z M343.5,5.8h2.6l-1.2-4.5h-0.3L343.5,5.8z"/>
			<path class="st0" d="M356.3,9.7c-1,0-1.8-0.3-2.4-0.8c-0.6-0.5-0.9-1.3-0.9-2.2V5.8h1.8v0.9c0,0.4,0.1,0.7,0.4,1
				c0.2,0.2,0.6,0.4,1,0.4c0.4,0,0.7-0.1,1-0.3s0.3-0.6,0.3-1V1.8h-1.7V0.2h4.6v1.6h-1.1v4.9c0,1-0.3,1.7-0.8,2.2
				S357.3,9.7,356.3,9.7z"/>
			<path class="st0" d="M361,9.5l2.6-9.3h3.2l2.6,9.3h-1.9l-0.5-2h-3.5l-0.5,2H361z M363.9,5.8h2.6l-1.2-4.5h-0.3L363.9,5.8z"/>
			<path class="st0" d="M370.6,9.5V0.2h3.4l1.7,8.1h0.3l1.7-8.1h3.4v9.3h-1.8v-8H379l-1.7,8h-3.1l-1.7-8h-0.3v8H370.6z"/>
		</g>
	</g>
	<g>
		<g>
			<path class="st0" d="M447.2,9.5V0.2h3.5l1.9,8.1h0.3V0.2h1.8v9.3h-3.5l-1.9-8.1h-0.3v8.1H447.2z"/>
			<path class="st0" d="M460.4,9.7c-1.2,0-2.2-0.3-2.9-1c-0.7-0.6-1.1-1.6-1.1-2.8V3.7c0-1.2,0.4-2.1,1.1-2.8c0.7-0.6,1.7-1,2.9-1
				c1.2,0,2.2,0.3,2.9,1c0.7,0.6,1.1,1.6,1.1,2.8V6c0,1.2-0.4,2.1-1.1,2.8C462.6,9.4,461.7,9.7,460.4,9.7z M460.4,8.1
				c0.7,0,1.2-0.2,1.6-0.6s0.6-0.9,0.6-1.5V3.7c0-0.6-0.2-1.1-0.6-1.5c-0.4-0.4-0.9-0.6-1.6-0.6c-0.7,0-1.2,0.2-1.6,0.6
				c-0.4,0.4-0.6,0.9-0.6,1.5V6c0,0.6,0.2,1.1,0.6,1.5S459.7,8.1,460.4,8.1z"/>
			<path class="st0" d="M467.7,9.5l-2.5-9.3h1.9l2.1,8.2h0.2l2.1-8.2h1.9l-2.5,9.3H467.7z"/>
			<path class="st0" d="M473.1,9.5l2.6-9.3h3.2l2.6,9.3h-1.9l-0.5-2h-3.5l-0.5,2H473.1z M475.9,5.8h2.6l-1.2-4.5h-0.3L475.9,5.8z"/>
			<path class="st0" d="M486,9.5V0.2h1.8v7.7h4.5v1.6H486z"/>
			<path class="st0" d="M492.9,9.5l2.6-9.3h3.2l2.6,9.3h-1.9l-0.5-2h-3.5l-0.5,2H492.9z M495.8,5.8h2.6l-1.2-4.5H497L495.8,5.8z"/>
			<path class="st0" d="M502.2,9.5V8h1.3V1.7h-1.3V0.2h5c0.6,0,1.1,0.1,1.6,0.3c0.4,0.2,0.8,0.5,1,0.8c0.2,0.4,0.4,0.8,0.4,1.3v0.1
				c0,0.4-0.1,0.8-0.3,1c-0.2,0.3-0.4,0.5-0.6,0.6c-0.2,0.1-0.4,0.2-0.7,0.3v0.2c0.2,0.1,0.4,0.2,0.7,0.3c0.2,0.1,0.5,0.4,0.6,0.6
				c0.2,0.3,0.3,0.6,0.3,1.1V7c0,0.5-0.1,1-0.4,1.3c-0.3,0.4-0.6,0.6-1,0.8c-0.4,0.2-1,0.3-1.5,0.3H502.2z M505.3,4h1.7
				c0.4,0,0.7-0.1,0.9-0.3c0.2-0.2,0.4-0.4,0.4-0.8V2.8c0-0.3-0.1-0.6-0.4-0.8c-0.2-0.2-0.6-0.3-1-0.3h-1.7V4z M505.3,7.9h1.7
				c0.4,0,0.7-0.1,1-0.3c0.2-0.2,0.4-0.5,0.4-0.8V6.7c0-0.3-0.1-0.6-0.4-0.8c-0.2-0.2-0.6-0.3-1-0.3h-1.7V7.9z"/>
		</g>
	</g>
	<g>
		<g>
			<path class="st0" d="M154.8,9.5V0.2h1.8v7.7h4.5v1.6H154.8z"/>
			<path class="st0" d="M162.4,9.5V0.2h1.8v9.3H162.4z"/>
			<path class="st0" d="M169.4,9.7c-0.7,0-1.3-0.1-1.8-0.4s-1-0.7-1.3-1.3c-0.3-0.6-0.5-1.2-0.5-2V3.7c0-1.2,0.4-2.1,1.1-2.8
				c0.7-0.6,1.7-1,2.9-1c1.2,0,2.1,0.3,2.8,0.9c0.7,0.6,1,1.4,1,2.5v0.1h-1.8V3.3c0-0.3-0.1-0.6-0.2-0.9c-0.1-0.3-0.4-0.5-0.7-0.6
				c-0.3-0.2-0.7-0.2-1.1-0.2c-0.7,0-1.2,0.2-1.5,0.6c-0.4,0.4-0.6,0.9-0.6,1.6V6c0,0.6,0.2,1.2,0.6,1.6c0.4,0.4,0.9,0.6,1.6,0.6
				s1.2-0.2,1.5-0.5c0.3-0.3,0.5-0.8,0.5-1.3V6.2h-2.3V4.7h4.1v4.8h-1.7V8.6h-0.3c-0.1,0.2-0.2,0.3-0.3,0.5
				c-0.1,0.2-0.4,0.3-0.7,0.4S170,9.7,169.4,9.7z"/>
			<path class="st0" d="M175.3,9.5V0.2h1.8V4h3.6V0.2h1.8v9.3h-1.8V5.6h-3.6v3.9H175.3z"/>
			<path class="st0" d="M186.8,9.5V1.8h-2.9V0.2h7.6v1.6h-2.9v7.7H186.8z"/>
			<path class="st0" d="M196,9.5V0.2h3.4l1.7,8.1h0.3l1.7-8.1h3.4v9.3h-1.8v-8h-0.3l-1.7,8h-3.1l-1.7-8h-0.3v8H196z"/>
			<path class="st0" d="M207.6,9.5l2.6-9.3h3.2l2.6,9.3h-1.9l-0.5-2h-3.5l-0.5,2H207.6z M210.5,5.8h2.6L212,1.3h-0.3L210.5,5.8z"/>
			<path class="st0" d="M217.2,9.5V0.2h4.3c0.6,0,1.2,0.1,1.6,0.3s0.8,0.5,1.1,0.9c0.3,0.4,0.4,0.8,0.4,1.3v0.2c0,0.6-0.1,1-0.4,1.4
				c-0.3,0.3-0.6,0.6-1,0.8v0.2c0.4,0,0.7,0.1,0.9,0.4c0.2,0.2,0.3,0.5,0.3,0.9v3h-1.8V6.7c0-0.2-0.1-0.4-0.2-0.5
				c-0.1-0.1-0.3-0.2-0.6-0.2H219v3.5H217.2z M219,4.4h2.2c0.4,0,0.8-0.1,1-0.3c0.2-0.2,0.4-0.5,0.4-0.9V3c0-0.4-0.1-0.7-0.4-0.9
				c-0.2-0.2-0.6-0.3-1-0.3H219V4.4z"/>
			<path class="st0" d="M226,9.5V0.2h1.8v3.7h0.3l3.2-3.7h2.4l-4.1,4.6l4.2,4.7h-2.4l-3.2-3.8h-0.3v3.8H226z"/>
			<path class="st0" d="M234.8,9.5V0.2h6.3v1.6h-4.5V4h4.1v1.6h-4.1v2.3h4.5v1.6H234.8z"/>
			<path class="st0" d="M244.8,9.5V1.8H242V0.2h7.6v1.6h-2.9v7.7H244.8z"/>
		</g>
	</g>
</g>
</svg>
