<?xml version="1.0" encoding="UTF-8"?>
<svg id="_圖層_1" data-name="圖層_1" xmlns="http://www.w3.org/2000/svg" version="1.1" viewBox="0 0 574.41 13.83">
  <!-- Generator: Adobe Illustrator 29.8.2, SVG Export Plug-In . SVG Version: 2.1.1 Build 3)  -->
  <defs>
    <style>
      .st0 {
        fill: #fff;
      }
    </style>
  </defs>
  <g>
    <path class="st0" d="M4.08,13.57V2.55H0V.27h10.8v2.28h-4.08v11.02h-2.64Z"/>
    <path class="st0" d="M11.32,13.57V4.14h2.48v1.06h.36c.15-.38.39-.66.73-.84.34-.18.74-.27,1.19-.27h1.2v2.13h-1.24c-.64,0-1.17.16-1.58.48-.41.32-.62.82-.62,1.49v5.36h-2.52Z"/>
    <path class="st0" d="M23.4,13.83c-.99,0-1.86-.2-2.61-.6-.75-.4-1.34-.96-1.76-1.69s-.63-1.59-.63-2.57v-.23c0-.99.21-1.85.62-2.57s.99-1.29,1.74-1.69c.75-.4,1.61-.6,2.6-.6s1.82.21,2.54.62c.72.41,1.28.98,1.68,1.71.4.73.6,1.57.6,2.54v.82h-7.22c.03.65.28,1.17.76,1.58.48.4,1.07.61,1.76.61s1.23-.15,1.56-.44c.33-.29.59-.61.76-.97l2.06,1.03c-.19.33-.46.69-.81,1.07-.35.39-.82.71-1.41.99-.59.27-1.33.41-2.24.41ZM20.98,7.77h4.64c-.05-.54-.28-.98-.69-1.31-.41-.33-.94-.49-1.59-.49s-1.22.16-1.62.49c-.4.33-.65.77-.74,1.31Z"/>
    <path class="st0" d="M33.5,13.83c-.71,0-1.34-.12-1.9-.35-.56-.23-1-.58-1.33-1.03-.33-.45-.49-1-.49-1.64s.16-1.19.49-1.62c.33-.44.78-.77,1.36-.99.58-.22,1.24-.33,1.99-.33h2.72v-.53c0-.44-.15-.81-.44-1.09s-.76-.43-1.4-.43-1.09.13-1.4.41c-.31.27-.51.62-.6,1.05l-2.32-.74c.16-.48.42-.92.77-1.32.35-.4.83-.72,1.42-.97.59-.25,1.32-.37,2.17-.37,1.31,0,2.34.31,3.1.93s1.14,1.52,1.14,2.7v3.51c0,.38.19.57.56.57h.8v1.98h-1.68c-.49,0-.9-.12-1.22-.34-.32-.23-.48-.53-.48-.91v-.02h-.38c-.05.15-.17.35-.36.6-.19.25-.48.47-.88.66-.4.19-.95.29-1.64.29ZM33.94,11.89c.71,0,1.28-.19,1.73-.56.45-.38.67-.87.67-1.49v-.19h-2.54c-.47,0-.83.09-1.1.29-.27.19-.4.46-.4.8s.14.62.42.84c.28.22.69.32,1.22.32Z"/>
    <path class="st0" d="M46.02,13.83c-1.29,0-2.35-.27-3.18-.8-.83-.53-1.33-1.29-1.5-2.28l2.32-.57c.09.44.25.79.47,1.04.22.25.49.43.82.54.33.11.68.16,1.07.16.59,0,1.02-.1,1.3-.29.28-.2.42-.44.42-.73s-.13-.52-.4-.68c-.27-.16-.69-.29-1.28-.39l-.56-.1c-.69-.12-1.33-.3-1.9-.52s-1.03-.53-1.38-.92-.52-.9-.52-1.52c0-.94.36-1.66,1.08-2.16.72-.5,1.67-.75,2.84-.75,1.11,0,2.03.24,2.76.7.73.47,1.21,1.08,1.44,1.84l-2.34.68c-.11-.48-.32-.82-.65-1.03-.33-.2-.73-.3-1.21-.3s-.85.08-1.1.24c-.25.16-.38.38-.38.65,0,.3.13.53.4.68.27.14.63.26,1.08.33l.56.1c.75.13,1.42.29,2.03.5.61.21,1.09.51,1.44.89.35.39.53.91.53,1.57,0,.99-.38,1.75-1.13,2.29-.75.54-1.76.81-3.03.81Z"/>
    <path class="st0" d="M56.16,13.72c-.77,0-1.45-.17-2.03-.5s-1.03-.8-1.35-1.4c-.32-.6-.48-1.28-.48-2.05v-5.62h2.52v5.43c0,.71.18,1.24.55,1.6.37.36.89.53,1.57.53.77,0,1.37-.24,1.8-.73s.64-1.17.64-2.04v-4.79h2.52v9.42h-2.48v-1.24h-.36c-.16.32-.46.63-.9.93-.44.3-1.11.46-2,.46Z"/>
    <path class="st0" d="M64.7,13.57V4.14h2.48v1.06h.36c.15-.38.39-.66.73-.84.34-.18.74-.27,1.19-.27h1.2v2.13h-1.24c-.64,0-1.17.16-1.58.48-.41.32-.62.82-.62,1.49v5.36h-2.52Z"/>
    <path class="st0" d="M76.78,13.83c-.99,0-1.86-.2-2.61-.6-.75-.4-1.34-.96-1.76-1.69s-.63-1.59-.63-2.57v-.23c0-.99.21-1.85.62-2.57s.99-1.29,1.74-1.69c.75-.4,1.61-.6,2.6-.6s1.82.21,2.54.62c.72.41,1.28.98,1.68,1.71.4.73.6,1.57.6,2.54v.82h-7.22c.03.65.28,1.17.76,1.58.48.4,1.07.61,1.76.61s1.23-.15,1.56-.44c.33-.29.59-.61.76-.97l2.06,1.03c-.19.33-.46.69-.81,1.07-.35.39-.82.71-1.41.99-.59.27-1.33.41-2.24.41ZM74.36,7.77h4.64c-.05-.54-.28-.98-.69-1.31-.41-.33-.94-.49-1.59-.49s-1.22.16-1.62.49c-.4.33-.65.77-.74,1.31Z"/>
    <path class="st0" d="M88.8,13.57V.27h4.9l2.42,11.59h.36l2.42-11.59h4.9v13.3h-2.56V2.11h-.36l-2.4,11.46h-4.36l-2.4-11.46h-.36v11.46h-2.56Z"/>
    <path class="st0" d="M109.6,13.83c-.71,0-1.34-.12-1.9-.35-.56-.23-1-.58-1.33-1.03-.33-.45-.49-1-.49-1.64s.16-1.19.49-1.62c.33-.44.78-.77,1.36-.99.58-.22,1.24-.33,1.99-.33h2.72v-.53c0-.44-.15-.81-.44-1.09s-.76-.43-1.4-.43-1.09.13-1.4.41c-.31.27-.51.62-.6,1.05l-2.32-.74c.16-.48.42-.92.77-1.32.35-.4.83-.72,1.42-.97.59-.25,1.32-.37,2.17-.37,1.31,0,2.34.31,3.1.93s1.14,1.52,1.14,2.7v3.51c0,.38.19.57.56.57h.8v1.98h-1.68c-.49,0-.9-.12-1.22-.34-.32-.23-.48-.53-.48-.91v-.02h-.38c-.05.15-.17.35-.36.6-.19.25-.48.47-.88.66-.4.19-.95.29-1.64.29ZM110.04,11.89c.71,0,1.28-.19,1.73-.56.45-.38.67-.87.67-1.49v-.19h-2.54c-.47,0-.83.09-1.1.29-.27.19-.4.46-.4.8s.14.62.42.84c.28.22.69.32,1.22.32Z"/>
    <path class="st0" d="M118.08,13.57V4.14h2.48v1.06h.36c.15-.38.39-.66.73-.84.34-.18.74-.27,1.19-.27h1.2v2.13h-1.24c-.64,0-1.17.16-1.58.48-.41.32-.62.82-.62,1.49v5.36h-2.52Z"/>
    <path class="st0" d="M126,13.57V.27h2.52v7.35h.36l3.28-3.48h3.28l-4.58,4.56,4.74,4.87h-3.24l-3.48-3.74h-.36v3.74h-2.52Z"/>
    <path class="st0" d="M141.2,13.83c-.99,0-1.86-.2-2.61-.6-.75-.4-1.34-.96-1.76-1.69s-.63-1.59-.63-2.57v-.23c0-.99.21-1.85.62-2.57s.99-1.29,1.74-1.69c.75-.4,1.61-.6,2.6-.6s1.82.21,2.54.62c.72.41,1.28.98,1.68,1.71.4.73.6,1.57.6,2.54v.82h-7.22c.03.65.28,1.17.76,1.58.48.4,1.07.61,1.76.61s1.23-.15,1.56-.44c.33-.29.59-.61.76-.97l2.06,1.03c-.19.33-.46.69-.81,1.07-.35.39-.82.71-1.41.99-.59.27-1.33.41-2.24.41ZM138.78,7.77h4.64c-.05-.54-.28-.98-.69-1.31-.41-.33-.94-.49-1.59-.49s-1.22.16-1.62.49c-.4.33-.65.77-.74,1.31Z"/>
    <path class="st0" d="M151.7,13.57c-.65,0-1.18-.19-1.59-.58-.41-.39-.61-.9-.61-1.55v-5.32h-2.48v-1.97h2.48V1.22h2.52v2.93h2.72v1.97h-2.72v4.9c0,.38.19.57.56.57h1.92v1.98h-2.8Z"/>
  </g>
  <g>
    <path class="st0" d="M435.99,13.83c-1.73,0-3.11-.46-4.12-1.38-1.01-.92-1.52-2.23-1.52-3.94v-3.19c0-1.71.51-3.02,1.52-3.94,1.01-.92,2.39-1.38,4.12-1.38s3.05.45,3.99,1.34c.94.89,1.41,2.12,1.41,3.68v.12h-2.6v-.19c0-.79-.23-1.43-.69-1.94s-1.16-.76-2.11-.76-1.67.27-2.2.82c-.53.54-.8,1.29-.8,2.22v3.27c0,.92.27,1.66.8,2.21.53.55,1.27.83,2.2.83s1.65-.26,2.11-.77.69-1.16.69-1.93v-.34h2.6v.27c0,1.56-.47,2.78-1.41,3.68-.94.89-2.27,1.34-3.99,1.34Z"/>
    <path class="st0" d="M448.35,13.83c-.99,0-1.87-.19-2.66-.57-.79-.38-1.41-.93-1.86-1.65-.45-.72-.68-1.59-.68-2.6v-.3c0-1.01.23-1.88.68-2.6.45-.72,1.07-1.27,1.86-1.65.79-.38,1.67-.57,2.66-.57s1.87.19,2.66.57c.79.38,1.41.93,1.86,1.65.45.72.68,1.59.68,2.6v.3c0,1.01-.23,1.88-.68,2.6-.45.72-1.07,1.27-1.86,1.65-.79.38-1.67.57-2.66.57ZM448.35,11.7c.77,0,1.41-.24,1.92-.71.51-.48.76-1.16.76-2.04v-.19c0-.89-.25-1.57-.75-2.04s-1.14-.71-1.93-.71-1.41.24-1.92.71-.76,1.16-.76,2.04v.19c0,.89.25,1.57.76,2.04.51.47,1.15.71,1.92.71Z"/>
    <path class="st0" d="M459.99,13.83c-1.29,0-2.35-.27-3.18-.8-.83-.53-1.33-1.29-1.5-2.28l2.32-.57c.09.44.25.79.47,1.04.22.25.49.43.82.54.33.11.68.16,1.07.16.59,0,1.02-.1,1.3-.29.28-.2.42-.44.42-.73s-.13-.52-.4-.68c-.27-.16-.69-.29-1.28-.39l-.56-.1c-.69-.12-1.33-.3-1.9-.52s-1.03-.53-1.38-.92-.52-.9-.52-1.52c0-.94.36-1.66,1.08-2.16.72-.5,1.67-.75,2.84-.75,1.11,0,2.03.24,2.76.7.73.47,1.21,1.08,1.44,1.84l-2.34.68c-.11-.48-.32-.82-.65-1.03-.33-.2-.73-.3-1.21-.3s-.85.08-1.1.24c-.25.16-.38.38-.38.65,0,.3.13.53.4.68.27.14.63.26,1.08.33l.56.1c.75.13,1.42.29,2.03.5.61.21,1.09.51,1.44.89.35.39.53.91.53,1.57,0,.99-.38,1.75-1.13,2.29-.75.54-1.76.81-3.03.81Z"/>
    <path class="st0" d="M466.35,13.57V4.14h2.48v1.03h.36c.17-.32.46-.59.86-.83.4-.23.93-.35,1.58-.35.71,0,1.27.13,1.7.39s.75.6.98,1.02h.36c.23-.41.55-.74.96-1.01s1-.4,1.76-.4c.61,0,1.17.12,1.67.37.5.25.9.62,1.2,1.12.3.5.45,1.13.45,1.89v6.2h-2.52v-6.02c0-.52-.14-.91-.42-1.17-.28-.26-.67-.39-1.18-.39-.57,0-1.02.18-1.33.52s-.47.85-.47,1.49v5.57h-2.52v-6.02c0-.52-.14-.91-.42-1.17-.28-.26-.67-.39-1.18-.39-.57,0-1.02.18-1.33.52s-.47.85-.47,1.49v5.57h-2.52Z"/>
    <path class="st0" d="M484.69,3.04c-.45,0-.84-.14-1.15-.42-.31-.28-.47-.64-.47-1.1s.16-.82.47-1.1.7-.42,1.15-.42.85.14,1.16.42c.31.28.46.65.46,1.1s-.15.82-.46,1.1c-.31.28-.69.42-1.16.42ZM483.43,13.57V4.14h2.52v9.42h-2.52Z"/>
    <path class="st0" d="M493.41,13.83c-.96,0-1.83-.19-2.61-.57-.78-.38-1.4-.93-1.85-1.65-.45-.72-.68-1.6-.68-2.62v-.27c0-1.03.23-1.9.68-2.62.45-.72,1.07-1.27,1.85-1.65.78-.38,1.65-.57,2.61-.57s1.76.16,2.44.48,1.23.75,1.65,1.3.7,1.18.83,1.87l-2.44.49c-.05-.38-.17-.72-.36-1.03s-.45-.54-.79-.72c-.34-.18-.76-.27-1.27-.27s-.96.11-1.37.31c-.41.21-.73.52-.96.93-.23.41-.35.92-.35,1.51v.19c0,.6.12,1.1.35,1.51.23.41.55.72.96.93.41.21.86.31,1.37.31.76,0,1.34-.19,1.73-.56.39-.37.64-.86.75-1.47l2.44.55c-.17.67-.47,1.28-.89,1.83s-.97.99-1.65,1.3-1.49.47-2.44.47Z"/>
    <path class="st0" d="M510.79,13.83c-1.73,0-3.11-.46-4.12-1.38-1.01-.92-1.52-2.23-1.52-3.94v-3.19c0-1.71.51-3.02,1.52-3.94,1.01-.92,2.39-1.38,4.12-1.38s3.05.45,3.99,1.34c.94.89,1.41,2.12,1.41,3.68v.12h-2.6v-.19c0-.79-.23-1.43-.69-1.94s-1.16-.76-2.11-.76-1.67.27-2.2.82c-.53.54-.8,1.29-.8,2.22v3.27c0,.92.27,1.66.8,2.21.53.55,1.27.83,2.2.83s1.65-.26,2.11-.77.69-1.16.69-1.93v-.34h2.6v.27c0,1.56-.47,2.78-1.41,3.68-.94.89-2.27,1.34-3.99,1.34Z"/>
    <path class="st0" d="M519.69,3.04c-.45,0-.84-.14-1.15-.42-.31-.28-.47-.64-.47-1.1s.16-.82.47-1.1.7-.42,1.15-.42.85.14,1.16.42c.31.28.46.65.46,1.1s-.15.82-.46,1.1c-.31.28-.69.42-1.16.42ZM518.43,13.57V4.14h2.52v9.42h-2.52Z"/>
    <path class="st0" d="M523.75,13.57V4.14h2.48v1.23h.36c.16-.33.46-.64.9-.94.44-.3,1.11-.45,2-.45.77,0,1.45.17,2.03.5s1.03.8,1.35,1.39c.32.59.48,1.28.48,2.06v5.62h-2.52v-5.43c0-.71-.18-1.24-.55-1.6-.37-.35-.89-.53-1.57-.53-.77,0-1.37.24-1.8.73-.43.49-.64,1.17-.64,2.04v4.79h-2.52Z"/>
    <path class="st0" d="M540.59,13.83c-.99,0-1.86-.2-2.61-.6-.75-.4-1.34-.96-1.76-1.69s-.63-1.59-.63-2.57v-.23c0-.99.21-1.85.62-2.57s.99-1.29,1.74-1.69c.75-.4,1.61-.6,2.6-.6s1.82.21,2.54.62c.72.41,1.28.98,1.68,1.71.4.73.6,1.57.6,2.54v.82h-7.22c.03.65.28,1.17.76,1.58.48.4,1.07.61,1.76.61s1.23-.15,1.56-.44c.33-.29.59-.61.76-.97l2.06,1.03c-.19.33-.46.69-.81,1.07-.35.39-.82.71-1.41.99-.59.27-1.33.41-2.24.41ZM538.17,7.77h4.64c-.05-.54-.28-.98-.69-1.31-.41-.33-.94-.49-1.59-.49s-1.22.16-1.62.49c-.4.33-.65.77-.74,1.31Z"/>
    <path class="st0" d="M547.61,13.57V4.14h2.48v1.03h.36c.17-.32.46-.59.86-.83.4-.23.93-.35,1.58-.35.71,0,1.27.13,1.7.39s.75.6.98,1.02h.36c.23-.41.55-.74.96-1.01s1-.4,1.76-.4c.61,0,1.17.12,1.67.37.5.25.9.62,1.2,1.12.3.5.45,1.13.45,1.89v6.2h-2.52v-6.02c0-.52-.14-.91-.42-1.17-.28-.26-.67-.39-1.18-.39-.57,0-1.02.18-1.33.52s-.47.85-.47,1.49v5.57h-2.52v-6.02c0-.52-.14-.91-.42-1.17-.28-.26-.67-.39-1.18-.39-.57,0-1.02.18-1.33.52s-.47.85-.47,1.49v5.57h-2.52Z"/>
    <path class="st0" d="M567.77,13.83c-.71,0-1.34-.12-1.9-.35-.56-.23-1-.58-1.33-1.03-.33-.45-.49-1-.49-1.64s.16-1.19.49-1.62c.33-.44.78-.77,1.36-.99.58-.22,1.24-.33,1.99-.33h2.72v-.53c0-.44-.15-.81-.44-1.09s-.76-.43-1.4-.43-1.09.13-1.4.41c-.31.27-.51.62-.6,1.05l-2.32-.74c.16-.48.42-.92.77-1.32.35-.4.83-.72,1.42-.97.59-.25,1.32-.37,2.17-.37,1.31,0,2.34.31,3.1.93s1.14,1.52,1.14,2.7v3.51c0,.38.19.57.56.57h.8v1.98h-1.68c-.49,0-.9-.12-1.22-.34-.32-.23-.48-.53-.48-.91v-.02h-.38c-.05.15-.17.35-.36.6-.19.25-.48.47-.88.66-.4.19-.95.29-1.64.29ZM568.21,11.89c.71,0,1.28-.19,1.73-.56.45-.38.67-.87.67-1.49v-.19h-2.54c-.47,0-.83.09-1.1.29-.27.19-.4.46-.4.8s.14.62.42.84c.28.22.69.32,1.22.32Z"/>
  </g>
  <g>
    <path class="st0" d="M248.3,13.57V.27h5.02l2.78,11.59h.36V.27h2.6v13.3h-5.02l-2.78-11.59h-.36v11.59h-2.6Z"/>
    <path class="st0" d="M266.5,13.83c-.99,0-1.87-.19-2.66-.57-.79-.38-1.41-.93-1.86-1.65-.45-.72-.68-1.59-.68-2.6v-.3c0-1.01.23-1.88.68-2.6.45-.72,1.07-1.27,1.86-1.65.79-.38,1.67-.57,2.66-.57s1.87.19,2.66.57c.79.38,1.41.93,1.86,1.65.45.72.68,1.59.68,2.6v.3c0,1.01-.23,1.88-.68,2.6-.45.72-1.07,1.27-1.86,1.65-.79.38-1.67.57-2.66.57ZM266.5,11.7c.77,0,1.41-.24,1.92-.71.51-.48.76-1.16.76-2.04v-.19c0-.89-.25-1.57-.75-2.04s-1.14-.71-1.93-.71-1.41.24-1.92.71-.76,1.16-.76,2.04v.19c0,.89.25,1.57.76,2.04.51.47,1.15.71,1.92.71Z"/>
    <path class="st0" d="M275.82,13.57l-3.16-9.42h2.68l2.3,7.68h.36l2.3-7.68h2.68l-3.16,9.42h-4Z"/>
    <path class="st0" d="M287.54,13.83c-.71,0-1.34-.12-1.9-.35-.56-.23-1-.58-1.33-1.03-.33-.45-.49-1-.49-1.64s.16-1.19.49-1.62c.33-.44.78-.77,1.36-.99.58-.22,1.24-.33,1.99-.33h2.72v-.53c0-.44-.15-.81-.44-1.09s-.76-.43-1.4-.43-1.09.13-1.4.41c-.31.27-.51.62-.6,1.05l-2.32-.74c.16-.48.42-.92.77-1.32.35-.4.83-.72,1.42-.97.59-.25,1.32-.37,2.17-.37,1.31,0,2.34.31,3.1.93s1.14,1.52,1.14,2.7v3.51c0,.38.19.57.56.57h.8v1.98h-1.68c-.49,0-.9-.12-1.22-.34-.32-.23-.48-.53-.48-.91v-.02h-.38c-.05.15-.17.35-.36.6-.19.25-.48.47-.88.66-.4.19-.95.29-1.64.29ZM287.98,11.89c.71,0,1.28-.19,1.73-.56.45-.38.67-.87.67-1.49v-.19h-2.54c-.47,0-.83.09-1.1.29-.27.19-.4.46-.4.8s.14.62.42.84c.28.22.69.32,1.22.32Z"/>
    <path class="st0" d="M305.04,13.83c-1.44,0-2.58-.37-3.43-1.12s-1.27-1.79-1.27-3.13v-1.25h2.64v1.25c0,.6.17,1.06.52,1.4s.83.5,1.46.5c.59,0,1.04-.17,1.37-.49.33-.33.49-.8.49-1.41V2.55h-2.4V.27h6.64v2.28h-1.6v7.03c0,1.38-.39,2.44-1.18,3.16-.79.73-1.87,1.09-3.24,1.09Z"/>
    <path class="st0" d="M315.7,13.83c-.71,0-1.34-.12-1.9-.35-.56-.23-1-.58-1.33-1.03-.33-.45-.49-1-.49-1.64s.16-1.19.49-1.62c.33-.44.78-.77,1.36-.99.58-.22,1.24-.33,1.99-.33h2.72v-.53c0-.44-.15-.81-.44-1.09s-.76-.43-1.4-.43-1.09.13-1.4.41c-.31.27-.51.62-.6,1.05l-2.32-.74c.16-.48.42-.92.77-1.32.35-.4.83-.72,1.42-.97.59-.25,1.32-.37,2.17-.37,1.31,0,2.34.31,3.1.93s1.14,1.52,1.14,2.7v3.51c0,.38.19.57.56.57h.8v1.98h-1.68c-.49,0-.9-.12-1.22-.34-.32-.23-.48-.53-.48-.91v-.02h-.38c-.05.15-.17.35-.36.6-.19.25-.48.47-.88.66-.4.19-.95.29-1.64.29ZM316.14,11.89c.71,0,1.28-.19,1.73-.56.45-.38.67-.87.67-1.49v-.19h-2.54c-.47,0-.83.09-1.1.29-.27.19-.4.46-.4.8s.14.62.42.84c.28.22.69.32,1.22.32Z"/>
    <path class="st0" d="M324.18,13.57V4.14h2.48v1.03h.36c.17-.32.46-.59.86-.83.4-.23.93-.35,1.58-.35.71,0,1.27.13,1.7.39s.75.6.98,1.02h.36c.23-.41.55-.74.96-1.01s1-.4,1.76-.4c.61,0,1.17.12,1.67.37.5.25.9.62,1.2,1.12.3.5.45,1.13.45,1.89v6.2h-2.52v-6.02c0-.52-.14-.91-.42-1.17-.28-.26-.67-.39-1.18-.39-.57,0-1.02.18-1.33.52s-.47.85-.47,1.49v5.57h-2.52v-6.02c0-.52-.14-.91-.42-1.17-.28-.26-.67-.39-1.18-.39-.57,0-1.02.18-1.33.52s-.47.85-.47,1.49v5.57h-2.52Z"/>
  </g>
</svg>