<?xml version="1.0" encoding="UTF-8"?>
<svg id="_圖層_1" data-name="圖層_1" xmlns="http://www.w3.org/2000/svg" version="1.1" viewBox="0 0 255.28 110.53">
  <!-- Generator: Adobe Illustrator 29.8.2, SVG Export Plug-In . SVG Version: 2.1.1 Build 3)  -->
  <defs>
    <style>
      .st0 {
        fill: #f093aa;
      }

      .st1 {
        fill: #3e4042;
      }
    </style>
  </defs>
  <path class="st1" d="M18.32,12.92c-1.01,1.41-2.21,2.72-3.64,3.93,3.05,2.07,6.92,3.6,11.34,4.34.11.03.14.08.06.18-.67.73-.84,1.08-1.12,1.39-.14.15-.36.2-.59.15-4.31-.91-8.15-2.52-11.28-4.79-2.88,2.02-6.5,3.68-11,4.84-.25.05-.48,0-.67-.18-.17-.25-.39-.58-1.09-1.24-.11-.08-.08-.15.06-.18,4.51-.98,8.23-2.57,11.12-4.51-1.6-1.39-2.94-2.95-4.03-4.71-.08-.13-.06-.25.08-.33.39-.23.95-.55,1.4-.76.17-.08.28-.05.36.1.9,1.64,2.18,3.15,3.78,4.49,1.76-1.46,3.14-3.05,4.09-4.74.08-.13.2-.18.36-.13.48.23,1.04.5,1.51.78.2.15.2.25.03.45-.17.13-.28.28-.39.43-.11.13-.22.28-.36.48ZM25.43,3.72c.03.43.03,1.01,0,1.44,0,.15-.11.23-.28.23-2.1-.03-7.34-.03-12.01-.03s-8.29-.05-11.96.15c-.17.03-.28-.05-.28-.2-.06-.48-.08-1.18-.08-1.64,0-.15.11-.23.28-.23,3.36.2,6.58.18,10.86.18.03-1.08.03-2.19-.03-2.85,0-.18-.03-.33-.06-.53,0-.15.06-.23.22-.23.56-.03,1.43-.03,1.99.02.17.03.22.13.2.28-.03.18-.06.28-.08.45-.06.66-.06,1.74-.03,2.85,4.37,0,9.02-.05,10.98-.15.17.03.28.08.28.25ZM9.64,8.11c-1.65,1.61-4.26,3.71-6.58,5.04-.2.13-.39.1-.59-.05-.22-.2-.42-.48-1.12-1.01-.08-.08-.08-.13.03-.2,2.66-1.34,5.52-3.58,7.14-5.54.08-.1.22-.15.36-.08.42.25.95.58,1.34.88.22.15.2.25,0,.4-.08.08-.14.13-.22.18-.11.13-.22.23-.36.38ZM17.87,6.34c1.85,1.71,4.54,3.65,7,5.07.11.05.11.13.03.23-.34.33-.73.73-1.12,1.03-.2.13-.39.13-.59.03-2.44-1.51-4.96-3.43-6.8-5.14-.11-.1-.11-.2,0-.33.31-.28.76-.63,1.09-.88.14-.1.28-.1.39,0Z"/>
  <path class="st1" d="M32.52,22.96c-.17.2-.28.15-.48-.05-.31-.35-.67-.88-.95-1.31-.08-.1-.06-.2.06-.28,1.4-.83,3.28-2.22,4.65-3.4l.03-5.92h-1.54c-.81,0-1.71.02-2.66.08-.17.03-.25-.05-.28-.2-.03-.45-.03-1.13-.03-1.56,0-.15.08-.23.25-.2,1.01.08,1.88.1,2.72.1h1.51l-.03-.83c0-.25-.03-.5-.06-.76-.03-.15.03-.23.22-.25.5,0,1.23,0,1.74.05.17.03.25.1.22.25-.06.25-.08.45-.11.71-.08,1.82-.08,5.14-.06,8.22,1.23,2.39,2.83,3.35,9.44,3.4,2.52.02,6.64-.05,9.63-.35.14,0,.17.05.11.15-.22.58-.31.93-.39,1.21-.14.33-.34.43-.76.45-2.18.13-5.6.2-8.26.18-6.41-.05-8.93-.73-10.61-3.18-1.2,1.01-2.72,2.14-3.86,3.05l-.5.45ZM33.47.82c1.34,1.36,3.19,2.9,4.96,4.16.11.08.11.18.03.25-.36.28-.78.66-1.18.91-.2.13-.36.13-.53,0-1.71-1.34-3.42-2.87-4.82-4.24-.08-.1-.08-.2.03-.33.31-.25.76-.55,1.12-.81.14-.08.28-.08.39.05ZM48.5,19.35c-.45.03-.98.03-1.4,0-.17-.03-.25-.1-.25-.28l.03-3.76h-4.7v4.11c0,.15-.08.23-.25.23-.45.05-.98.05-1.4,0-.17,0-.25-.08-.25-.23V7.05c0-.5-.03-.83-.06-1.11-.03-.15.06-.23.22-.25.5,0,1.12,0,1.6.05.17.03.25.1.22.25l-.06.4h6.47c-1.9-.78-3.67-1.41-5.49-1.97-.17-.05-.22-.15-.14-.28.22-.28.48-.55.67-.78.14-.13.28-.15.45-.13,1.18.35,2.38.76,3.67,1.21.95-.48,2.02-1.13,3.05-1.84h-4.23c-2.1,0-4.37-.03-6.41.08-.17.02-.25-.05-.28-.2-.03-.38-.06-.96-.06-1.34,0-.15.11-.23.28-.2,2.16.13,4.28.13,6.47.13h6.22l.7-.63c.11-.13.22-.15.39-.08.42.18.98.43,1.37.66.22.15.2.25-.06.38-.14.08-.25.18-.36.25-.2.13-.34.28-.56.4-1.12.88-2.94,2.17-4.56,3.13l1.6.61c.14.08.2.18.08.28l-.25.33h2.41l-.06-.45c-.03-.15.06-.25.22-.25.53,0,1.15,0,1.74.08.17,0,.25.08.2.23-.06.45-.11.76-.11,1.03-.08,2.22-.06,6.43-.06,10.74,0,1.18-.5,1.74-1.79,1.81-.95.05-1.65.03-2.27,0-.31-.05-.5-.18-.59-.45-.08-.33-.17-.66-.25-.93-.06-.15,0-.2.17-.18.64.08,1.34.13,2.16.08.5,0,.7-.15.7-.68v-2.09h-4.96l.03,3.78c.03.15-.06.23-.25.25ZM42.18,10.1h4.7v-2.24h-4.7v2.24ZM42.18,13.83h4.7v-2.32h-4.7v2.32ZM48.7,7.86v2.24h4.98l-.03-2.24h-4.96ZM48.7,11.51l.03,2.32h4.96v-2.32h-4.98Z"/>
  <path class="st1" d="M63.01,15.52c-.17.05-.31.13-.45.2-.25.1-.36.05-.45-.2-.14-.45-.28-1.06-.36-1.56-.03-.13.03-.2.17-.23,1.23-.25,2.77-.63,4.34-1.11l-.03-5.32c-1.32,0-2.49.03-3.72.08-.17.03-.28-.05-.28-.2-.03-.43-.06-1.06-.06-1.49,0-.15.11-.23.28-.2,1.29.1,2.44.1,3.78.1l-.03-3.08v-.81c-.03-.58-.06-1.03-.08-1.36-.03-.13.06-.23.22-.23.56,0,1.2,0,1.82.05.17.03.25.1.22.25-.11.48-.14.83-.14,1.21l-.08,3.96c1.18-.03,2.35-.05,3.08-.08.17,0,.25.05.25.2.03.4.03.98,0,1.39-.03.18-.11.25-.28.25-.7-.03-1.88-.05-3.08-.05v4.74c1.15-.38,2.24-.78,3.16-1.16.11-.05.17,0,.17.1.08.68.17,1.06.22,1.36.03.2-.06.35-.25.43-.98.38-2.13.76-3.3,1.13l.03,7.11c0,1.26-.53,1.79-1.85,1.89-.9.05-1.6.05-2.18.03-.28-.03-.48-.18-.53-.43-.06-.38-.14-.88-.22-1.24-.06-.15,0-.23.17-.2.59.08,1.29.08,2.04.08.48-.02.67-.18.67-.68v-5.95l-2.88.88c-.11.05-.22.08-.36.13ZM74.94.37c-.03.2-.06.38-.06.55-.06.25-.06.48-.06.73l-.06,2.5c3.11-.66,6.97-1.82,9.27-2.87.14-.05.28-.05.39.08.34.28.73.66,1.01,1.03.17.2.11.28-.17.38-.2.05-.34.1-.5.15-.28.1-.53.18-.84.28-2.44.91-5.99,1.89-9.16,2.55l.03,1.39c.03.63.36.96,1.15,1.03,2.24.15,4.93.1,7.06-.1,1.2-.18,1.88-.61,2.18-1.54.11-.5.2-1.01.22-1.49,0-.1.06-.15.17-.1.73.25,1.04.35,1.34.45.22.08.34.23.31.45-.06.48-.14,1.06-.28,1.64-.48,1.39-1.46,2.07-3.44,2.24-2.66.23-5.57.3-8.4.1-1.51-.1-2.16-.73-2.18-2.17-.06-2.32-.03-4.74-.08-5.92-.03-.43-.03-.88-.08-1.41,0-.15.08-.23.25-.23.59-.03,1.12-.03,1.71.03.17.03.25.1.22.25ZM74.77,22.9c-.45.03-.95.03-1.37,0-.17,0-.25-.08-.25-.23v-9.78c0-.61-.03-1.26-.06-1.69,0-.15.08-.23.25-.23.45-.03,1.04-.03,1.51,0,.17.03.25.1.22.28l-.03.83h8.85l-.03-.88c0-.15.08-.23.25-.23.48-.03,1.04-.03,1.51,0,.17.03.25.1.25.28-.03.4-.08,1.06-.08,1.61v7.76c0,.66.03,1.41.03,1.97,0,.15-.11.23-.28.25h-1.4c-.17-.03-.25-.1-.25-.25v-1.19h-8.88v1.26c0,.15-.08.23-.25.23ZM75.02,13.63v2.29h8.9v-2.29h-8.9ZM83.9,17.41h-8.88v2.47h8.88v-2.47Z"/>
  <path class="st1" d="M116.49,20.89c-.03,1.16-.5,1.69-1.85,1.76-1.01.08-1.88.05-2.66,0-.25,0-.42-.13-.48-.38-.08-.3-.17-.71-.28-1.13-.06-.1,0-.15.11-.15.78.13,1.68.15,2.63.13.39-.03.59-.15.56-.61,0-.4.03-.78.03-1.18v-10.79h-17.61v14.12c0,.15-.08.23-.25.25-.45.03-1.04.03-1.48,0-.17-.03-.25-.1-.25-.25V7.76c0-.66-.03-1.46-.03-1.94-.03-.15.06-.23.25-.23.48,0,1.09,0,1.57.03.17,0,.25.1.25.25l-.06,1.03h7.53v-2.6c-4.37,0-7.59-.03-10.98.15-.17,0-.28-.08-.28-.23-.06-.43-.08-1.08-.08-1.49.03-.15.11-.23.28-.23,3.39.2,6.66.15,11.03.15l-.03-1.74c0-.25-.03-.45-.06-.66-.03-.15.06-.25.22-.25.53-.03,1.32,0,1.85.05.17.03.22.1.2.25-.03.23-.06.38-.08.61l-.06,1.74c4.45,0,9.16-.03,11.14-.1.17-.03.25.05.28.23,0,.38,0,.91-.03,1.31,0,.18-.08.25-.25.23l-11.14-.02v2.6h8.06l-.06-1.08c0-.15.08-.23.25-.23.48-.03,1.06-.03,1.51,0,.17,0,.25.08.25.23-.03.45-.03.98-.03,1.87,0,2.44-.03,7.71,0,11.49v1.71ZM112.99,16.63c.03.33.03.78,0,1.13,0,.15-.08.23-.28.23l-6.3-.03.06,3.93c0,.15-.08.23-.25.25-.48.03-1.04.03-1.48-.03-.17,0-.25-.1-.25-.25l.03-3.91c-2.24,0-4.12.03-5.99.1-.17.03-.25-.05-.28-.2-.06-.38-.08-.91-.06-1.29,0-.15.11-.2.28-.2,1.9.1,3.75.13,6.05.13v-2.39c-1.99,0-3.72.03-5.4.1-.17,0-.28-.08-.28-.25-.03-.35-.06-.86-.06-1.21,0-.15.08-.25.28-.23,2.02.13,3.95.1,6.52.1h.92c.81-1.06,1.68-2.45,2.21-3.6.06-.13.17-.2.31-.15.39.1.92.28,1.34.4.22.1.22.23.08.4-.06.1-.11.15-.14.23-.11.15-.22.3-.34.48-.39.63-.92,1.46-1.46,2.24l3.67-.08c.2,0,.28.08.28.23.03.33,0,.78,0,1.13-.03.15-.11.2-.28.2h-5.77v2.39c2.46,0,5.07-.05,6.33-.1.17,0,.25.08.25.23ZM102.29,12.14c-.42-.88-.92-1.71-1.46-2.47-.08-.15-.06-.25.11-.33.34-.18.76-.3,1.15-.4.17-.08.28-.03.36.13.59.78,1.15,1.64,1.6,2.47.08.15.06.25-.11.33-.45.2-.9.35-1.32.45-.17.03-.25-.03-.34-.18Z"/>
  <path class="st0" d="M7.31,67.04v-20.78H0v-4.3h19.34v4.3h-7.31v20.78h-4.73Z"/>
  <path class="st0" d="M20.28,67.04v-17.77h4.44v2.01h.65c.26-.72.7-1.24,1.31-1.58.61-.33,1.32-.5,2.13-.5h2.15v4.01h-2.22c-1.15,0-2.09.3-2.83.91-.74.61-1.11,1.55-1.11,2.81v10.1h-4.51Z"/>
  <path class="st0" d="M39.55,67.54c-1.27,0-2.4-.22-3.4-.66s-1.8-1.09-2.38-1.93-.88-1.88-.88-3.1.29-2.24.88-3.06c.58-.82,1.4-1.44,2.44-1.86s2.23-.63,3.56-.63h4.87v-1c0-.84-.26-1.52-.79-2.06-.53-.54-1.36-.81-2.51-.81s-1.96.26-2.51.77-.91,1.18-1.07,1.99l-4.16-1.4c.29-.91.75-1.74,1.38-2.49.63-.75,1.48-1.36,2.54-1.83s2.36-.7,3.89-.7c2.34,0,4.19.59,5.55,1.76s2.04,2.87,2.04,5.09v6.63c0,.72.33,1.08,1,1.08h1.43v3.73h-3.01c-.88,0-1.61-.21-2.18-.64-.57-.43-.86-1-.86-1.72v-.04h-.68c-.1.29-.31.66-.64,1.13-.33.47-.86.88-1.58,1.24s-1.7.54-2.94.54ZM40.34,63.89c1.27,0,2.3-.35,3.1-1.06.8-.7,1.2-1.64,1.2-2.81v-.36h-4.55c-.84,0-1.49.18-1.97.54-.48.36-.72.86-.72,1.5s.25,1.17.75,1.58c.5.41,1.23.61,2.19.61Z"/>
  <path class="st0" d="M54.74,67.04v-17.77h4.44v2.33h.64c.29-.62.82-1.21,1.61-1.77.79-.56,1.98-.84,3.58-.84,1.38,0,2.6.32,3.64.95s1.84,1.5,2.42,2.61c.57,1.11.86,2.41.86,3.89v10.6h-4.51v-10.25c0-1.34-.33-2.34-.99-3.01-.66-.67-1.59-1-2.81-1-1.39,0-2.46.46-3.22,1.38-.76.92-1.15,2.2-1.15,3.85v9.03h-4.51Z"/>
  <path class="st0" d="M84.19,67.54c-2.32,0-4.22-.5-5.7-1.5s-2.38-2.44-2.69-4.3l4.16-1.08c.17.84.45,1.49.84,1.97.39.48.88.82,1.47,1.02.58.2,1.22.3,1.92.3,1.05,0,1.83-.18,2.33-.55.5-.37.75-.83.75-1.38s-.24-.97-.72-1.27c-.48-.3-1.24-.54-2.29-.73l-1-.18c-1.24-.24-2.38-.57-3.4-.99-1.03-.42-1.85-1-2.47-1.74s-.93-1.7-.93-2.87c0-1.77.65-3.12,1.93-4.07,1.29-.94,2.99-1.42,5.09-1.42,1.98,0,3.63.44,4.94,1.33,1.31.88,2.17,2.04,2.58,3.47l-4.19,1.29c-.19-.91-.58-1.55-1.16-1.93-.59-.38-1.31-.57-2.17-.57s-1.52.15-1.97.45c-.45.3-.68.71-.68,1.24,0,.57.24,1,.72,1.27.48.28,1.12.48,1.93.63l1,.18c1.34.24,2.55.56,3.64.95,1.09.39,1.95.96,2.58,1.68s.95,1.71.95,2.96c0,1.86-.67,3.3-2.02,4.32-1.35,1.01-3.16,1.52-5.43,1.52Z"/>
  <path class="st0" d="M95.58,74.2v-24.93h4.44v2.15h.64c.41-.69,1.04-1.31,1.9-1.84.86-.54,2.09-.81,3.69-.81,1.43,0,2.76.35,3.98,1.06,1.22.7,2.2,1.74,2.94,3.1.74,1.36,1.11,3.01,1.11,4.94v.57c0,1.93-.37,3.58-1.11,4.94-.74,1.36-1.72,2.39-2.94,3.1-1.22.7-2.54,1.06-3.98,1.06-1.08,0-1.98-.13-2.71-.38-.73-.25-1.31-.57-1.75-.97-.44-.39-.79-.79-1.06-1.2h-.65v9.21h-4.51ZM104.89,63.6c1.41,0,2.57-.45,3.49-1.34.92-.9,1.38-2.2,1.38-3.92v-.36c0-1.72-.47-3.03-1.4-3.92s-2.09-1.34-3.47-1.34-2.54.45-3.47,1.34c-.93.9-1.4,2.2-1.4,3.92v.36c0,1.72.47,3.03,1.4,3.92.93.9,2.09,1.34,3.47,1.34Z"/>
  <path class="st0" d="M126.89,67.54c-1.77,0-3.36-.36-4.76-1.08s-2.52-1.75-3.33-3.12c-.81-1.36-1.22-3-1.22-4.91v-.57c0-1.91.41-3.55,1.22-4.91.81-1.36,1.92-2.4,3.33-3.12s3-1.08,4.76-1.08,3.36.36,4.76,1.08,2.52,1.75,3.33,3.12c.81,1.36,1.22,3,1.22,4.91v.57c0,1.91-.41,3.55-1.22,4.91-.81,1.36-1.92,2.4-3.33,3.12s-3,1.08-4.76,1.08ZM126.89,63.53c1.38,0,2.53-.45,3.44-1.34.91-.9,1.36-2.18,1.36-3.85v-.36c0-1.67-.45-2.96-1.34-3.85-.9-.9-2.05-1.34-3.46-1.34s-2.53.45-3.44,1.34c-.91.9-1.36,2.18-1.36,3.85v.36c0,1.67.45,2.96,1.36,3.85s2.05,1.34,3.44,1.34Z"/>
  <path class="st0" d="M140.36,67.04v-17.77h4.44v2.01h.64c.26-.72.7-1.24,1.31-1.58.61-.33,1.32-.5,2.13-.5h2.15v4.01h-2.22c-1.15,0-2.09.3-2.83.91-.74.61-1.11,1.55-1.11,2.81v10.1h-4.51Z"/>
  <path class="st0" d="M161.35,67.04c-1.17,0-2.12-.36-2.85-1.09s-1.09-1.7-1.09-2.92v-10.03h-4.44v-3.73h4.44v-5.52h4.51v5.52h4.87v3.73h-4.87v9.24c0,.72.33,1.08,1,1.08h3.44v3.73h-5.01Z"/>
  <path class="st0" d="M176.39,67.54c-1.27,0-2.4-.22-3.4-.66-1-.44-1.8-1.09-2.38-1.93-.59-.85-.88-1.88-.88-3.1s.29-2.24.88-3.06c.58-.82,1.4-1.44,2.44-1.86,1.04-.42,2.23-.63,3.56-.63h4.87v-1c0-.84-.26-1.52-.79-2.06-.53-.54-1.36-.81-2.51-.81s-1.96.26-2.51.77c-.55.51-.91,1.18-1.08,1.99l-4.16-1.4c.29-.91.75-1.74,1.38-2.49.63-.75,1.48-1.36,2.54-1.83,1.06-.47,2.36-.7,3.89-.7,2.34,0,4.19.59,5.55,1.76s2.04,2.87,2.04,5.09v6.63c0,.72.33,1.08,1,1.08h1.43v3.73h-3.01c-.88,0-1.61-.21-2.19-.64-.57-.43-.86-1-.86-1.72v-.04h-.68c-.1.29-.31.66-.64,1.13-.33.47-.86.88-1.58,1.24-.72.36-1.7.54-2.94.54ZM177.18,63.89c1.27,0,2.3-.35,3.1-1.06.8-.7,1.2-1.64,1.2-2.81v-.36h-4.55c-.84,0-1.49.18-1.97.54-.48.36-.72.86-.72,1.5s.25,1.17.75,1.58c.5.41,1.23.61,2.18.61Z"/>
  <path class="st0" d="M197.1,67.04c-1.17,0-2.12-.36-2.85-1.09-.73-.73-1.09-1.7-1.09-2.92v-10.03h-4.44v-3.73h4.44v-5.52h4.51v5.52h4.87v3.73h-4.87v9.24c0,.72.33,1.08,1,1.08h3.44v3.73h-5.02Z"/>
  <path class="st0" d="M208.89,47.19c-.81,0-1.5-.26-2.06-.79-.56-.52-.84-1.22-.84-2.08s.28-1.55.84-2.08,1.25-.79,2.06-.79,1.53.26,2.08.79.82,1.22.82,2.08-.27,1.55-.82,2.08c-.55.53-1.24.79-2.08.79ZM206.63,67.04v-17.77h4.51v17.77h-4.51Z"/>
  <path class="st0" d="M224.61,67.54c-1.77,0-3.36-.36-4.76-1.08-1.41-.72-2.52-1.75-3.33-3.12-.81-1.36-1.22-3-1.22-4.91v-.57c0-1.91.41-3.55,1.22-4.91.81-1.36,1.92-2.4,3.33-3.12,1.41-.72,3-1.08,4.76-1.08s3.36.36,4.76,1.08,2.52,1.75,3.33,3.12c.81,1.36,1.22,3,1.22,4.91v.57c0,1.91-.41,3.55-1.22,4.91-.81,1.36-1.92,2.4-3.33,3.12s-3,1.08-4.76,1.08ZM224.61,63.53c1.39,0,2.53-.45,3.44-1.34.91-.9,1.36-2.18,1.36-3.85v-.36c0-1.67-.45-2.96-1.34-3.85-.9-.9-2.05-1.34-3.46-1.34s-2.53.45-3.44,1.34c-.91.9-1.36,2.18-1.36,3.85v.36c0,1.67.45,2.96,1.36,3.85.91.9,2.05,1.34,3.44,1.34Z"/>
  <path class="st0" d="M238.08,67.04v-17.77h4.44v2.33h.65c.29-.62.82-1.21,1.61-1.77.79-.56,1.98-.84,3.58-.84,1.38,0,2.6.32,3.64.95s1.84,1.5,2.42,2.61c.57,1.11.86,2.41.86,3.89v10.6h-4.51v-10.25c0-1.34-.33-2.34-.99-3.01-.66-.67-1.59-1-2.81-1-1.38,0-2.46.46-3.22,1.38-.76.92-1.15,2.2-1.15,3.85v9.03h-4.51Z"/>
  <path class="st0" d="M10.17,110.53c-1.72,0-3.28-.39-4.67-1.17-1.4-.78-2.51-1.91-3.33-3.4-.82-1.49-1.24-3.31-1.24-5.46v-6.02c0-3.22.91-5.7,2.72-7.43,1.82-1.73,4.28-2.6,7.38-2.6s5.46.82,7.15,2.45c1.68,1.64,2.53,3.85,2.53,6.65v.14h-4.66v-.29c0-.88-.19-1.68-.56-2.4s-.93-1.28-1.67-1.7c-.74-.42-1.67-.63-2.79-.63-1.67,0-2.99.51-3.94,1.54-.96,1.03-1.43,2.42-1.43,4.19v6.16c0,1.74.48,3.15,1.43,4.21s2.29,1.59,4.01,1.59,2.97-.45,3.76-1.36c.79-.91,1.18-2.05,1.18-3.44v-.36h-5.95v-4.01h10.6v12.83h-4.37v-2.4h-.64c-.17.41-.44.84-.81,1.29-.37.45-.93.84-1.67,1.15-.74.31-1.76.47-3.04.47Z"/>
  <path class="st0" d="M32.13,110.31c-1.38,0-2.6-.32-3.64-.95-1.04-.63-1.84-1.51-2.42-2.63-.57-1.12-.86-2.41-.86-3.87v-10.6h4.51v10.25c0,1.34.33,2.34.98,3.01s1.59,1,2.81,1c1.38,0,2.46-.46,3.22-1.38.76-.92,1.15-2.2,1.15-3.85v-9.03h4.51v17.77h-4.44v-2.33h-.65c-.29.6-.82,1.18-1.61,1.75s-1.98.86-3.58.86Z"/>
  <path class="st0" d="M49.69,90.18c-.81,0-1.5-.26-2.06-.79-.56-.52-.84-1.22-.84-2.08s.28-1.55.84-2.08c.56-.53,1.25-.79,2.06-.79s1.53.26,2.08.79c.55.53.82,1.22.82,2.08s-.28,1.55-.82,2.08c-.55.53-1.24.79-2.08.79ZM47.43,110.03v-17.77h4.51v17.77h-4.51Z"/>
  <path class="st0" d="M64.12,110.53c-1.41,0-2.73-.35-3.96-1.06-1.23-.7-2.22-1.74-2.96-3.1s-1.11-3.01-1.11-4.94v-.57c0-1.93.37-3.58,1.11-4.94s1.72-2.39,2.94-3.1c1.22-.71,2.54-1.06,3.98-1.06,1.08,0,1.98.13,2.71.38.73.25,1.32.57,1.77.95.45.38.8.79,1.04,1.22h.64v-9.35h4.51v25.08h-4.44v-2.15h-.64c-.41.67-1.03,1.28-1.88,1.83s-2.08.82-3.71.82ZM65.48,106.59c1.38,0,2.54-.45,3.48-1.34.93-.9,1.4-2.2,1.4-3.92v-.36c0-1.72-.46-3.03-1.38-3.92-.92-.9-2.08-1.34-3.49-1.34s-2.54.45-3.47,1.34-1.4,2.2-1.4,3.92v.36c0,1.72.47,3.03,1.4,3.92s2.09,1.34,3.47,1.34Z"/>
  <path class="st0" d="M87.91,110.53c-1.77,0-3.33-.38-4.67-1.13-1.35-.75-2.4-1.81-3.15-3.19-.75-1.37-1.13-2.99-1.13-4.85v-.43c0-1.86.37-3.48,1.11-4.85s1.78-2.44,3.12-3.19c1.34-.75,2.89-1.13,4.66-1.13s3.26.39,4.55,1.17c1.29.78,2.29,1.85,3.01,3.22.72,1.37,1.08,2.97,1.08,4.78v1.54h-12.93c.05,1.22.5,2.21,1.36,2.97.86.76,1.91,1.15,3.15,1.15s2.2-.27,2.79-.82,1.05-1.16,1.36-1.83l3.69,1.93c-.33.62-.82,1.3-1.45,2.02-.63.73-1.47,1.35-2.53,1.86-1.05.51-2.39.77-4.01.77ZM83.58,99.1h8.31c-.1-1.03-.51-1.85-1.24-2.47-.73-.62-1.68-.93-2.85-.93s-2.19.31-2.9.93c-.72.62-1.16,1.45-1.33,2.47Z"/>
</svg>