<?xml version="1.0" encoding="UTF-8"?>
<svg id="_圖層_1" data-name="圖層_1" xmlns="http://www.w3.org/2000/svg" version="1.1" viewBox="0 0 232.08 22.89">
  <!-- Generator: Adobe Illustrator 29.8.2, SVG Export Plug-In . SVG Version: 2.1.1 Build 3)  -->
  <defs>
    <style>
      .st0 {
        fill: #3d3739;
      }
    </style>
  </defs>
  <g>
    <g>
      <polygon class="st0" points="4.58 0 0 0 0 4.58 0 9.16 0 13.74 0 18.32 0 22.89 4.58 22.89 4.58 18.32 4.58 13.74 4.58 9.16 4.58 4.58 9.16 4.58 9.16 9.16 9.16 13.74 9.16 18.32 9.16 22.89 13.74 22.89 13.74 18.32 13.74 13.74 13.74 9.16 13.74 4.58 13.74 0 9.16 0 4.58 0"/>
      <polygon class="st0" points="24.81 0 20.23 0 20.23 4.58 24.81 4.58 24.81 9.16 24.81 13.74 24.81 18.32 29.39 18.32 29.39 13.74 29.39 9.16 29.39 4.58 33.97 4.58 33.97 0 29.39 0 24.81 0"/>
      <polygon class="st0" points="72.21 3.24 68.97 0 65.73 3.24 62.49 6.48 59.26 9.71 62.49 12.95 65.73 9.71 68.97 6.48 72.21 9.71 75.45 12.95 78.68 9.71 75.45 6.48 72.21 3.24"/>
      <polygon class="st0" points="45.05 0 40.47 0 40.47 4.58 40.47 9.16 40.47 13.74 45.05 13.74 49.63 13.74 54.2 13.74 54.2 9.16 49.63 9.16 45.05 9.16 45.05 4.58 49.63 4.58 54.2 4.58 54.2 0 49.63 0 45.05 0"/>
      <polygon class="st0" points="97.5 3.24 94.27 0 91.03 3.24 87.79 0 84.55 3.24 81.31 6.48 84.55 9.71 87.79 6.48 91.03 9.71 94.27 6.48 97.5 9.71 100.74 6.48 97.5 3.24"/>
    </g>
    <g>
      <polygon class="st0" points="218.3 1.41 218.3 3.29 221.42 1.88 224.18 2.91 224.18 1.03 221.42 0 218.3 1.41"/>
      <path class="st0" d="M222.39,3.56v-.62h-1.95v.62h-1.64v10.49h5.24l-.3-3.47h-1.88l.18,2.06h-1.11v-2.53h3.11V3.56h-1.64ZM222.03,4.97v1.17h-1.11v-1.17h1.11ZM220.92,8.71v-1.17h1.11v1.17h-1.11Z"/>
      <path class="st0" d="M229.59,8.81h-1.87v-.94h4.03V3.56h-6.52v10.49h6.72v-5.25h-2.35ZM229.4,4.97v1.5h-1.67v-1.5h1.67ZM227.73,12.65v-2.44h1.87v2.44h-1.87Z"/>
      <polygon class="st0" points="229.68 .66 229.68 0 227.33 0 227.33 .66 224.91 .66 224.91 1.98 224.91 2.06 224.91 2.91 227.21 2.91 227.21 2.06 229.78 2.06 229.78 2.91 232.08 2.91 232.08 2.06 232.08 1.98 232.08 .66 229.68 .66"/>
    </g>
    <polygon class="st0" points="189.68 9.83 189.68 8.43 184.28 8.43 184.28 7.03 189.43 7.03 189.43 5.62 184.28 5.62 184.28 4.68 188.99 4.68 188.99 3.28 184.28 3.28 184.28 2.34 189.49 2.34 189.49 .94 187.41 .94 187.59 0 184.6 0 184.42 .94 181.03 .94 180.85 0 177.86 0 178.03 .94 175.96 .94 175.96 2.34 181.16 2.34 181.16 3.28 176.45 3.28 176.45 4.68 181.16 4.68 181.16 5.62 176.02 5.62 176.02 7.03 181.16 7.03 181.16 8.43 175.77 8.43 175.77 9.83 180 9.83 175.74 14.05 179.23 14.05 182.72 10.6 186.22 14.05 189.71 14.05 185.44 9.83 189.68 9.83"/>
    <polygon class="st0" points="163.08 0 159.87 0 159.87 .94 154.49 .94 154.49 2.34 159.87 2.34 159.87 3.75 155.01 3.75 155.01 4.85 155.01 5.15 155.01 12.95 157.97 12.95 157.97 5.15 159.87 5.15 159.87 14.05 163.08 14.05 163.08 5.15 164.98 5.15 164.98 12.95 167.95 12.95 167.95 5.15 167.95 4.85 167.95 3.75 163.08 3.75 163.08 2.34 168.46 2.34 168.46 .94 163.08 .94 163.08 0"/>
    <g>
      <polygon class="st0" points="136.33 3 133.18 3 133.18 4.4 136.33 4.4 136.33 11.56 133.18 12.46 133.18 14.05 136.33 13.15 136.33 14.05 139.2 14.05 139.2 0 136.33 0 136.33 3"/>
      <polygon class="st0" points="144.06 4.88 147.14 4.32 147.14 2.72 144.06 3.28 144.06 0 141.19 0 141.19 14.05 143.11 14.05 144.06 14.05 147.22 14.05 147.22 12.65 144.06 12.65 144.06 4.88"/>
    </g>
    <g>
      <path class="st0" d="M118.46,1.97h.58V.56h-2.18v-.56h-2.74v.56h-2.18v1.41h.58v1.78h-.63v1.41h2.5v1.39h-2.5v1.41h2l-2.02,4.77h2l.52-1.23v2.57h2.74v-3.31l1.78,1.06v-1.78l-1.78-1.06v-1.01h1.99v-1.41h-1.99v-1.39h1.99v-1.41h-.67v-1.78ZM114.77,1.97h1.45v1.78h-1.45v-1.78Z"/>
      <polygon class="st0" points="119.2 13.49 121.65 13.49 122.02 5.15 122.68 5.15 122.68 14.05 125.3 14.05 125.3 5.15 125.9 5.15 125.9 3.75 122.08 3.75 122.15 1.98 125.9 1.41 125.9 0 119.75 .94 119.2 13.49"/>
    </g>
    <g>
      <rect class="st0" x="207.43" y=".39" width="3.59" height="1.41"/>
      <polygon class="st0" points="200.65 0 197.91 0 196.99 3.51 199.73 3.51 200.65 0"/>
      <polygon class="st0" points="207.43 4.97 208.2 4.97 208.2 14.05 210.42 14.05 210.42 4.97 211.02 4.97 211.02 3.56 207.43 3.56 207.43 4.97"/>
      <polygon class="st0" points="198.19 4.19 196.99 9.46 197.86 9.46 197.86 14.05 200.08 14.05 200.08 6.85 200.68 4.19 198.19 4.19"/>
      <polygon class="st0" points="205.05 0 202.95 0 202.95 2.34 200.88 2.34 200.88 3.75 202.95 3.75 202.95 14.05 205.05 14.05 205.05 3.75 207.12 3.75 207.12 2.34 205.05 2.34 205.05 0"/>
      <rect class="st0" x="200.98" y="5.61" width="1.37" height="7.33"/>
      <rect class="st0" x="205.65" y="5.61" width="1.37" height="7.33"/>
      <rect class="st0" x="205.69" width="1.17" height="1.8"/>
    </g>
    <g>
      <g>
        <polygon class="st0" points="168.88 18.8 167.68 18.8 167.68 19.56 168.88 19.56 168.88 22.89 169.64 22.89 169.64 19.56 170.84 19.56 170.84 18.8 169.64 18.8 168.88 18.8"/>
        <polygon class="st0" points="159.96 18.8 159.96 19.56 159.96 22.13 159.96 22.89 160.72 22.89 162.78 22.89 162.78 22.13 160.72 22.13 160.72 19.56 162.78 19.56 162.78 18.8 160.72 18.8 159.96 18.8"/>
        <rect class="st0" x="164.85" y="18.8" width=".76" height="4.1"/>
        <polygon class="st0" points="173.83 20.33 173.01 18.8 172.18 18.8 173.46 21.03 173.46 22.89 174.21 22.89 174.21 21.03 175.5 18.8 174.66 18.8 173.83 20.33"/>
      </g>
      <g>
        <polygon class="st0" points="208.93 22.13 207.67 22.13 207.67 18.8 206.91 18.8 206.91 22.13 206.91 22.89 207.67 22.89 208.93 22.89 209.7 22.89 209.7 22.13 209.7 18.8 208.93 18.8 208.93 22.13"/>
        <polygon class="st0" points="224.95 22.13 223.69 22.13 223.69 18.8 222.93 18.8 222.93 22.13 222.93 22.89 223.69 22.89 224.95 22.89 225.71 22.89 225.71 22.13 225.71 18.8 224.95 18.8 224.95 22.13"/>
        <polygon class="st0" points="212.25 18.8 212.25 19.56 212.25 20.46 212.25 21.1 212.25 21.23 214.27 21.23 214.27 22.13 212.25 22.13 212.25 22.89 215.04 22.89 215.04 22.77 215.04 22.13 215.04 21.23 215.04 20.46 214.27 20.46 213.01 20.46 213.01 19.56 215.04 19.56 215.04 18.8 213.01 18.8 212.25 18.8"/>
        <polygon class="st0" points="202.46 21.18 201.3 18.8 200.54 18.8 200.54 22.89 201.29 22.89 201.29 20.41 202.17 22.19 202.74 22.19 203.6 20.37 203.6 22.89 204.36 22.89 204.36 18.8 203.6 18.8 202.46 21.18"/>
        <polygon class="st0" points="231.33 18.8 230.18 21.18 229.02 18.8 228.27 18.8 228.27 22.89 229.02 22.89 229.02 20.41 229.89 22.19 230.47 22.19 231.33 20.37 231.33 22.89 232.08 22.89 232.08 18.8 231.33 18.8"/>
        <polygon class="st0" points="217.59 18.8 217.59 19.56 217.59 20.46 217.59 21.23 217.59 22.13 217.59 22.89 218.35 22.89 220.37 22.89 220.37 22.13 218.35 22.13 218.35 21.23 220.37 21.23 220.37 20.46 218.35 20.46 218.35 19.56 220.37 19.56 220.37 18.8 218.35 18.8 217.59 18.8"/>
      </g>
      <g>
        <polygon class="st0" points="148.71 18.8 148.71 19.56 148.71 20.46 148.71 21.23 148.71 22.13 148.71 22.89 149.47 22.89 151.5 22.89 151.5 22.13 149.47 22.13 149.47 21.23 151.5 21.23 151.5 20.46 149.47 20.46 149.47 19.56 151.5 19.56 151.5 18.8 149.47 18.8 148.71 18.8"/>
        <rect class="st0" x="140.92" y="18.8" width=".76" height="4.1"/>
        <polygon class="st0" points="132.77 18.8 131.57 18.8 131.57 19.56 132.77 19.56 132.77 22.89 133.53 22.89 133.53 19.56 134.73 19.56 134.73 18.8 133.53 18.8 132.77 18.8"/>
        <rect class="st0" x="153.65" y="18.8" width=".76" height="4.1"/>
        <path class="st0" d="M144.48,18.8h-.76v4.1h.76v-1.41h2.3v-2.69h-2.3ZM146.01,20.72h-1.53v-1.16h1.53v1.16Z"/>
        <path class="st0" d="M137.03,18.8l-1.48,4.1h.78l.25-.74h1.64l.26.74h.79l-1.52-4.1h-.73ZM136.82,21.45l.56-1.67.59,1.67h-1.16Z"/>
      </g>
      <g>
        <polygon class="st0" points="124.58 21.69 123.9 19.1 123.17 19.1 122.46 21.68 121.77 18.8 120.99 18.8 122.06 22.89 122.79 22.89 123.53 20.32 124.24 22.89 124.97 22.89 126.02 18.8 125.24 18.8 124.58 21.69"/>
        <polygon class="st0" points="114.17 18.8 112.64 18.8 111.88 18.8 111.88 19.56 111.88 22.89 112.64 22.89 112.64 19.56 114.17 19.56 114.17 22.89 114.93 22.89 114.93 18.8 114.93 18.8 114.17 18.8"/>
        <polygon class="st0" points="116.89 18.8 116.89 19.56 116.89 20.46 116.89 21.23 116.89 22.13 116.89 22.89 117.65 22.89 119.67 22.89 119.67 22.13 117.65 22.13 117.65 21.23 119.67 21.23 119.67 20.46 117.65 20.46 117.65 19.56 119.67 19.56 119.67 18.8 117.65 18.8 116.89 18.8"/>
      </g>
      <g>
        <path class="st0" d="M182.53,18.8l-1.48,4.1h.78l.25-.74h1.64l.26.74h.79l-1.52-4.1h-.73ZM182.32,21.45l.56-1.67.59,1.67h-1.16Z"/>
        <polygon class="st0" points="191.84 19.51 193.03 19.51 193.03 22.89 193.79 22.89 193.79 19.51 194.99 19.51 194.99 18.8 191.84 18.8 191.84 19.51"/>
        <path class="st0" d="M189.07,18.8h-2.3v4.1h.76v-1.7h.61l.92,1.7h.76l-.92-1.7h.92v-2.4h-.76ZM187.54,20.44v-.88h1.53v.88h-1.53Z"/>
      </g>
    </g>
  </g>
  <g>
    <g>
      <polygon class="st0" points="4.58 0 0 0 0 4.58 0 9.16 0 13.74 0 18.32 0 22.89 4.58 22.89 4.58 18.32 4.58 13.74 4.58 9.16 4.58 4.58 9.16 4.58 9.16 9.16 9.16 13.74 9.16 18.32 9.16 22.89 13.74 22.89 13.74 18.32 13.74 13.74 13.74 9.16 13.74 4.58 13.74 0 9.16 0 4.58 0"/>
      <polygon class="st0" points="24.81 0 20.23 0 20.23 4.58 24.81 4.58 24.81 9.16 24.81 13.74 24.81 18.32 29.39 18.32 29.39 13.74 29.39 9.16 29.39 4.58 33.97 4.58 33.97 0 29.39 0 24.81 0"/>
      <polygon class="st0" points="72.21 3.24 68.97 0 65.73 3.24 62.49 6.48 59.26 9.71 62.49 12.95 65.73 9.71 68.97 6.48 72.21 9.71 75.45 12.95 78.68 9.71 75.45 6.48 72.21 3.24"/>
      <polygon class="st0" points="45.05 0 40.47 0 40.47 4.58 40.47 9.16 40.47 13.74 45.05 13.74 49.63 13.74 54.2 13.74 54.2 9.16 49.63 9.16 45.05 9.16 45.05 4.58 49.63 4.58 54.2 4.58 54.2 0 49.63 0 45.05 0"/>
      <polygon class="st0" points="97.5 3.24 94.27 0 91.03 3.24 87.79 0 84.55 3.24 81.31 6.48 84.55 9.71 87.79 6.48 91.03 9.71 94.27 6.48 97.5 9.71 100.74 6.48 97.5 3.24"/>
    </g>
    <g>
      <polygon class="st0" points="218.3 1.41 218.3 3.29 221.42 1.88 224.18 2.91 224.18 1.03 221.42 0 218.3 1.41"/>
      <path class="st0" d="M222.39,3.56v-.62h-1.95v.62h-1.64v10.49h5.24l-.3-3.47h-1.88l.18,2.06h-1.11v-2.53h3.11V3.56h-1.64ZM222.03,4.97v1.17h-1.11v-1.17h1.11ZM220.92,8.71v-1.17h1.11v1.17h-1.11Z"/>
      <path class="st0" d="M229.59,8.81h-1.87v-.94h4.03V3.56h-6.52v10.49h6.72v-5.25h-2.35ZM229.4,4.97v1.5h-1.67v-1.5h1.67ZM227.73,12.65v-2.44h1.87v2.44h-1.87Z"/>
      <polygon class="st0" points="229.68 .66 229.68 0 227.33 0 227.33 .66 224.91 .66 224.91 1.98 224.91 2.06 224.91 2.91 227.21 2.91 227.21 2.06 229.78 2.06 229.78 2.91 232.08 2.91 232.08 2.06 232.08 1.98 232.08 .66 229.68 .66"/>
    </g>
    <polygon class="st0" points="189.68 9.83 189.68 8.43 184.28 8.43 184.28 7.03 189.43 7.03 189.43 5.62 184.28 5.62 184.28 4.68 188.99 4.68 188.99 3.28 184.28 3.28 184.28 2.34 189.49 2.34 189.49 .94 187.41 .94 187.59 0 184.6 0 184.42 .94 181.03 .94 180.85 0 177.86 0 178.03 .94 175.96 .94 175.96 2.34 181.16 2.34 181.16 3.28 176.45 3.28 176.45 4.68 181.16 4.68 181.16 5.62 176.02 5.62 176.02 7.03 181.16 7.03 181.16 8.43 175.77 8.43 175.77 9.83 180 9.83 175.74 14.05 179.23 14.05 182.72 10.6 186.22 14.05 189.71 14.05 185.44 9.83 189.68 9.83"/>
    <polygon class="st0" points="163.08 0 159.87 0 159.87 .94 154.49 .94 154.49 2.34 159.87 2.34 159.87 3.75 155.01 3.75 155.01 4.85 155.01 5.15 155.01 12.95 157.97 12.95 157.97 5.15 159.87 5.15 159.87 14.05 163.08 14.05 163.08 5.15 164.98 5.15 164.98 12.95 167.95 12.95 167.95 5.15 167.95 4.85 167.95 3.75 163.08 3.75 163.08 2.34 168.46 2.34 168.46 .94 163.08 .94 163.08 0"/>
    <g>
      <polygon class="st0" points="136.33 3 133.18 3 133.18 4.4 136.33 4.4 136.33 11.56 133.18 12.46 133.18 14.05 136.33 13.15 136.33 14.05 139.2 14.05 139.2 0 136.33 0 136.33 3"/>
      <polygon class="st0" points="144.06 4.88 147.14 4.32 147.14 2.72 144.06 3.28 144.06 0 141.19 0 141.19 14.05 143.11 14.05 144.06 14.05 147.22 14.05 147.22 12.65 144.06 12.65 144.06 4.88"/>
    </g>
    <g>
      <path class="st0" d="M118.46,1.97h.58V.56h-2.18v-.56h-2.74v.56h-2.18v1.41h.58v1.78h-.63v1.41h2.5v1.39h-2.5v1.41h2l-2.02,4.77h2l.52-1.23v2.57h2.74v-3.31l1.78,1.06v-1.78l-1.78-1.06v-1.01h1.99v-1.41h-1.99v-1.39h1.99v-1.41h-.67v-1.78ZM114.77,1.97h1.45v1.78h-1.45v-1.78Z"/>
      <polygon class="st0" points="119.2 13.49 121.65 13.49 122.02 5.15 122.68 5.15 122.68 14.05 125.3 14.05 125.3 5.15 125.9 5.15 125.9 3.75 122.08 3.75 122.15 1.98 125.9 1.41 125.9 0 119.75 .94 119.2 13.49"/>
    </g>
    <g>
      <rect class="st0" x="207.43" y=".39" width="3.59" height="1.41"/>
      <polygon class="st0" points="200.65 0 197.91 0 196.99 3.51 199.73 3.51 200.65 0"/>
      <polygon class="st0" points="207.43 4.97 208.2 4.97 208.2 14.05 210.42 14.05 210.42 4.97 211.02 4.97 211.02 3.56 207.43 3.56 207.43 4.97"/>
      <polygon class="st0" points="198.19 4.19 196.99 9.46 197.86 9.46 197.86 14.05 200.08 14.05 200.08 6.85 200.68 4.19 198.19 4.19"/>
      <polygon class="st0" points="205.05 0 202.95 0 202.95 2.34 200.88 2.34 200.88 3.75 202.95 3.75 202.95 14.05 205.05 14.05 205.05 3.75 207.12 3.75 207.12 2.34 205.05 2.34 205.05 0"/>
      <rect class="st0" x="200.98" y="5.61" width="1.37" height="7.33"/>
      <rect class="st0" x="205.65" y="5.61" width="1.37" height="7.33"/>
      <rect class="st0" x="205.69" width="1.17" height="1.8"/>
    </g>
    <g>
      <g>
        <polygon class="st0" points="168.88 18.8 167.68 18.8 167.68 19.56 168.88 19.56 168.88 22.89 169.64 22.89 169.64 19.56 170.84 19.56 170.84 18.8 169.64 18.8 168.88 18.8"/>
        <polygon class="st0" points="159.96 18.8 159.96 19.56 159.96 22.13 159.96 22.89 160.72 22.89 162.78 22.89 162.78 22.13 160.72 22.13 160.72 19.56 162.78 19.56 162.78 18.8 160.72 18.8 159.96 18.8"/>
        <rect class="st0" x="164.85" y="18.8" width=".76" height="4.1"/>
        <polygon class="st0" points="173.83 20.33 173.01 18.8 172.18 18.8 173.46 21.03 173.46 22.89 174.21 22.89 174.21 21.03 175.5 18.8 174.66 18.8 173.83 20.33"/>
      </g>
      <g>
        <polygon class="st0" points="208.93 22.13 207.67 22.13 207.67 18.8 206.91 18.8 206.91 22.13 206.91 22.89 207.67 22.89 208.93 22.89 209.7 22.89 209.7 22.13 209.7 18.8 208.93 18.8 208.93 22.13"/>
        <polygon class="st0" points="224.95 22.13 223.69 22.13 223.69 18.8 222.93 18.8 222.93 22.13 222.93 22.89 223.69 22.89 224.95 22.89 225.71 22.89 225.71 22.13 225.71 18.8 224.95 18.8 224.95 22.13"/>
        <polygon class="st0" points="212.25 18.8 212.25 19.56 212.25 20.46 212.25 21.1 212.25 21.23 214.27 21.23 214.27 22.13 212.25 22.13 212.25 22.89 215.04 22.89 215.04 22.77 215.04 22.13 215.04 21.23 215.04 20.46 214.27 20.46 213.01 20.46 213.01 19.56 215.04 19.56 215.04 18.8 213.01 18.8 212.25 18.8"/>
        <polygon class="st0" points="202.46 21.18 201.3 18.8 200.54 18.8 200.54 22.89 201.29 22.89 201.29 20.41 202.17 22.19 202.74 22.19 203.6 20.37 203.6 22.89 204.36 22.89 204.36 18.8 203.6 18.8 202.46 21.18"/>
        <polygon class="st0" points="231.33 18.8 230.18 21.18 229.02 18.8 228.27 18.8 228.27 22.89 229.02 22.89 229.02 20.41 229.89 22.19 230.47 22.19 231.33 20.37 231.33 22.89 232.08 22.89 232.08 18.8 231.33 18.8"/>
        <polygon class="st0" points="217.59 18.8 217.59 19.56 217.59 20.46 217.59 21.23 217.59 22.13 217.59 22.89 218.35 22.89 220.37 22.89 220.37 22.13 218.35 22.13 218.35 21.23 220.37 21.23 220.37 20.46 218.35 20.46 218.35 19.56 220.37 19.56 220.37 18.8 218.35 18.8 217.59 18.8"/>
      </g>
      <g>
        <polygon class="st0" points="148.71 18.8 148.71 19.56 148.71 20.46 148.71 21.23 148.71 22.13 148.71 22.89 149.47 22.89 151.5 22.89 151.5 22.13 149.47 22.13 149.47 21.23 151.5 21.23 151.5 20.46 149.47 20.46 149.47 19.56 151.5 19.56 151.5 18.8 149.47 18.8 148.71 18.8"/>
        <rect class="st0" x="140.92" y="18.8" width=".76" height="4.1"/>
        <polygon class="st0" points="132.77 18.8 131.57 18.8 131.57 19.56 132.77 19.56 132.77 22.89 133.53 22.89 133.53 19.56 134.73 19.56 134.73 18.8 133.53 18.8 132.77 18.8"/>
        <rect class="st0" x="153.65" y="18.8" width=".76" height="4.1"/>
        <path class="st0" d="M144.48,18.8h-.76v4.1h.76v-1.41h2.3v-2.69h-2.3ZM146.01,20.72h-1.53v-1.16h1.53v1.16Z"/>
        <path class="st0" d="M137.03,18.8l-1.48,4.1h.78l.25-.74h1.64l.26.74h.79l-1.52-4.1h-.73ZM136.82,21.45l.56-1.67.59,1.67h-1.16Z"/>
      </g>
      <g>
        <polygon class="st0" points="124.58 21.69 123.9 19.1 123.17 19.1 122.46 21.68 121.77 18.8 120.99 18.8 122.06 22.89 122.79 22.89 123.53 20.32 124.24 22.89 124.97 22.89 126.02 18.8 125.24 18.8 124.58 21.69"/>
        <polygon class="st0" points="114.17 18.8 112.64 18.8 111.88 18.8 111.88 19.56 111.88 22.89 112.64 22.89 112.64 19.56 114.17 19.56 114.17 22.89 114.93 22.89 114.93 18.8 114.93 18.8 114.17 18.8"/>
        <polygon class="st0" points="116.89 18.8 116.89 19.56 116.89 20.46 116.89 21.23 116.89 22.13 116.89 22.89 117.65 22.89 119.67 22.89 119.67 22.13 117.65 22.13 117.65 21.23 119.67 21.23 119.67 20.46 117.65 20.46 117.65 19.56 119.67 19.56 119.67 18.8 117.65 18.8 116.89 18.8"/>
      </g>
      <g>
        <path class="st0" d="M182.53,18.8l-1.48,4.1h.78l.25-.74h1.64l.26.74h.79l-1.52-4.1h-.73ZM182.32,21.45l.56-1.67.59,1.67h-1.16Z"/>
        <polygon class="st0" points="191.84 19.51 193.03 19.51 193.03 22.89 193.79 22.89 193.79 19.51 194.99 19.51 194.99 18.8 191.84 18.8 191.84 19.51"/>
        <path class="st0" d="M189.07,18.8h-2.3v4.1h.76v-1.7h.61l.92,1.7h.76l-.92-1.7h.92v-2.4h-.76ZM187.54,20.44v-.88h1.53v.88h-1.53Z"/>
      </g>
    </g>
  </g>
</svg>