<?xml version="1.0" encoding="UTF-8"?>
<svg id="_圖層_1" data-name="圖層_1" xmlns="http://www.w3.org/2000/svg" version="1.1" viewBox="0 0 25.77 25.55">
  <!-- Generator: Adobe Illustrator 29.8.2, SVG Export Plug-In . SVG Version: 2.1.1 Build 3)  -->
  <defs>
    <style>
      .st0 {
        fill: #3d3739;
      }
    </style>
  </defs>
  <path class="st0" d="M14.91,16.51c.7,0,1.36,0,2.01,0,.15,0,.3,0,.45,0,.44-.02.47-.06.54-.48.14-.91.29-1.82.43-2.73.02-.15,0-.3,0-.51-1.15-.1-2.29.02-3.46-.07-.01-.21-.03-.37-.03-.54,0-.68-.01-1.36,0-2.04.03-.95.62-1.59,1.57-1.68.51-.05,1.02-.03,1.53-.04.5-.01.6-.11.61-.6,0-.7,0-1.4,0-2.1,0-.49-.07-.55-.54-.6-.92-.1-1.83-.27-2.76-.19-1.57.14-2.92.66-3.77,2.1-.39.66-.65,1.36-.68,2.12-.04.94-.03,1.89-.04,2.83,0,.21,0,.41,0,.68-.55.13-1.07.05-1.59.07-.51.02-1.02,0-1.51,0-.18.42-.23,2.87-.08,3.72.17.01.35.03.53.03.74,0,1.47,0,2.21,0,.37,0,.42.05.44.43.01.34,0,.68,0,1.02,0,2.31,0,4.61,0,6.92,0,.18,0,.37,0,.64-.31-.02-.58,0-.82-.07-1.81-.48-3.49-1.21-4.98-2.38-1.59-1.24-2.83-2.77-3.71-4.59-.36-.74-.61-1.52-.85-2.3C0,14.74-.05,13.26.03,11.77c.04-.71.21-1.4.38-2.1.26-1.07.66-2.06,1.18-3.02.63-1.16,1.45-2.18,2.4-3.1,1.1-1.06,2.36-1.9,3.76-2.5C9.93.13,12.19-.19,14.55.11c1.24.16,2.43.5,3.57,1,1.89.82,3.47,2.06,4.77,3.65.95,1.17,1.65,2.48,2.17,3.9.68,1.85.83,3.76.64,5.68-.21,2.1-.96,4.05-2.16,5.8-1.31,1.93-3.03,3.37-5.13,4.39-.85.41-1.75.64-2.64.92-.25.08-.52.08-.74.11-.06-.05-.07-.06-.09-.07-.01-.01-.03-.03-.03-.04-.01-.05-.03-.11-.03-.17,0-2.8,0-5.6,0-8.39,0-.09.02-.19.05-.37Z"/>
</svg>