<?xml version="1.0" encoding="UTF-8"?>
<svg id="_圖層_1" data-name="圖層_1" xmlns="http://www.w3.org/2000/svg" version="1.1" viewBox="0 0 890.65 35.74">
  <!-- Generator: Adobe Illustrator 29.8.2, SVG Export Plug-In . SVG Version: 2.1.1 Build 3)  -->
  <defs>
    <style>
      .st0 {
        fill: #f093aa;
      }

      .st1 {
        fill: #3070b8;
      }
    </style>
  </defs>
  <g>
    <path class="st0" d="M2.86,27.79v-7.71H0v-1.6h7.56v1.6h-2.86v7.71h-1.85Z"/>
    <path class="st0" d="M7.92,27.79v-6.6h1.74v.75h.25c.1-.27.27-.46.51-.59.24-.12.52-.19.83-.19h.84v1.49h-.87c-.45,0-.82.11-1.11.34-.29.23-.43.57-.43,1.04v3.75h-1.76Z"/>
    <path class="st0" d="M16.38,27.98c-.69,0-1.3-.14-1.83-.42-.53-.28-.94-.67-1.23-1.18s-.44-1.11-.44-1.8v-.16c0-.69.15-1.29.43-1.8.29-.51.7-.9,1.22-1.18s1.13-.42,1.82-.42,1.27.14,1.78.43c.5.29.9.69,1.18,1.2.28.51.42,1.1.42,1.78v.57h-5.05c.02.45.2.82.53,1.1.34.28.75.43,1.23.43s.86-.1,1.09-.31c.23-.2.41-.43.53-.68l1.44.72c-.13.23-.32.48-.57.75-.25.27-.58.5-.99.69s-.93.29-1.57.29ZM14.69,23.74h3.25c-.04-.38-.2-.69-.48-.92-.28-.23-.66-.35-1.11-.35s-.85.12-1.13.35c-.28.23-.45.54-.52.92Z"/>
    <path class="st0" d="M23.45,27.98c-.49,0-.94-.08-1.33-.25-.39-.16-.7-.4-.93-.72-.23-.31-.34-.7-.34-1.15s.11-.83.34-1.14.55-.54.95-.69.87-.23,1.39-.23h1.9v-.37c0-.31-.1-.57-.31-.76-.21-.2-.53-.3-.98-.3s-.77.1-.98.29c-.21.19-.36.44-.42.74l-1.62-.52c.11-.34.29-.65.54-.92.25-.28.58-.5.99-.68s.92-.26,1.52-.26c.91,0,1.64.22,2.17.65s.8,1.06.8,1.89v2.46c0,.27.13.4.39.4h.56v1.38h-1.18c-.35,0-.63-.08-.85-.24-.22-.16-.34-.37-.34-.64h0s-.27-.01-.27-.01c-.04.11-.12.25-.25.42-.13.17-.34.33-.62.46-.28.13-.66.2-1.15.2ZM23.76,26.62c.49,0,.9-.13,1.21-.39.31-.26.47-.61.47-1.04v-.13h-1.78c-.33,0-.58.07-.77.2s-.28.32-.28.56.1.43.29.58.48.23.85.23Z"/>
    <path class="st0" d="M32.21,27.98c-.91,0-1.65-.19-2.23-.56-.58-.37-.93-.9-1.05-1.6l1.62-.4c.07.31.17.55.33.73s.34.3.57.38c.23.08.48.11.75.11.41,0,.71-.07.91-.21.2-.14.29-.31.29-.51s-.09-.36-.28-.47c-.19-.11-.49-.2-.9-.27l-.39-.07c-.49-.09-.93-.21-1.33-.37s-.72-.37-.97-.65c-.24-.27-.36-.63-.36-1.06,0-.66.25-1.16.76-1.51.5-.35,1.17-.53,1.99-.53.77,0,1.42.16,1.93.49.51.33.85.76,1.01,1.29l-1.64.48c-.07-.34-.23-.58-.46-.72s-.51-.21-.85-.21-.59.06-.77.17c-.18.11-.27.26-.27.46,0,.21.09.37.28.47.19.1.44.18.76.23l.39.07c.52.09,1,.21,1.42.35.42.15.76.35,1.01.62.25.27.37.64.37,1.1,0,.69-.26,1.23-.79,1.6-.53.38-1.23.57-2.12.57Z"/>
    <path class="st0" d="M39.31,27.9c-.54,0-1.01-.12-1.42-.35-.41-.23-.72-.56-.95-.98-.22-.42-.34-.9-.34-1.44v-3.94h1.76v3.8c0,.5.13.87.38,1.12s.62.37,1.1.37c.54,0,.96-.17,1.26-.51.3-.34.45-.82.45-1.43v-3.35h1.76v6.6h-1.74v-.86h-.25c-.11.22-.32.44-.63.65-.31.21-.78.32-1.4.32Z"/>
    <path class="st0" d="M45.29,27.79v-6.6h1.74v.75h.25c.1-.27.27-.46.51-.59.24-.12.52-.19.83-.19h.84v1.49h-.87c-.45,0-.82.11-1.11.34-.29.23-.43.57-.43,1.04v3.75h-1.76Z"/>
    <path class="st0" d="M53.75,27.98c-.69,0-1.3-.14-1.83-.42-.53-.28-.94-.67-1.23-1.18s-.44-1.11-.44-1.8v-.16c0-.69.15-1.29.43-1.8.29-.51.7-.9,1.22-1.18s1.13-.42,1.82-.42,1.27.14,1.78.43c.5.29.9.69,1.18,1.2.28.51.42,1.1.42,1.78v.57h-5.05c.02.45.2.82.53,1.1.34.28.75.43,1.23.43s.86-.1,1.09-.31c.23-.2.41-.43.53-.68l1.44.72c-.13.23-.32.48-.57.75-.25.27-.58.5-.99.69s-.93.29-1.57.29ZM52.05,23.74h3.25c-.04-.38-.2-.69-.48-.92-.28-.23-.66-.35-1.11-.35s-.85.12-1.13.35c-.28.23-.45.54-.52.92Z"/>
    <path class="st0" d="M62.16,27.79v-9.31h3.43l1.69,8.11h.25l1.69-8.11h3.43v9.31h-1.79v-8.02h-.25l-1.68,8.02h-3.05l-1.68-8.02h-.25v8.02h-1.79Z"/>
    <path class="st0" d="M76.72,27.98c-.49,0-.94-.08-1.33-.25-.39-.16-.7-.4-.93-.72-.23-.31-.34-.7-.34-1.15s.11-.83.34-1.14.55-.54.95-.69.87-.23,1.39-.23h1.9v-.37c0-.31-.1-.57-.31-.76-.21-.2-.53-.3-.98-.3s-.77.1-.98.29c-.21.19-.36.44-.42.74l-1.62-.52c.11-.34.29-.65.54-.92.25-.28.58-.5.99-.68s.92-.26,1.52-.26c.91,0,1.64.22,2.17.65s.8,1.06.8,1.89v2.46c0,.27.13.4.39.4h.56v1.38h-1.18c-.35,0-.63-.08-.85-.24-.22-.16-.34-.37-.34-.64h0s-.27-.01-.27-.01c-.04.11-.12.25-.25.42-.13.17-.34.33-.62.46-.28.13-.66.2-1.15.2ZM77.03,26.62c.49,0,.9-.13,1.21-.39.31-.26.47-.61.47-1.04v-.13h-1.78c-.33,0-.58.07-.77.2s-.28.32-.28.56.1.43.29.58.48.23.85.23Z"/>
    <path class="st0" d="M82.66,27.79v-6.6h1.74v.75h.25c.1-.27.27-.46.51-.59.24-.12.52-.19.83-.19h.84v1.49h-.87c-.45,0-.82.11-1.11.34-.29.23-.43.57-.43,1.04v3.75h-1.76Z"/>
    <path class="st0" d="M88.2,27.79v-9.31h1.76v5.15h.25l2.3-2.43h2.3l-3.21,3.19,3.32,3.41h-2.27l-2.44-2.62h-.25v2.62h-1.76Z"/>
    <path class="st0" d="M98.84,27.98c-.69,0-1.3-.14-1.83-.42-.53-.28-.94-.67-1.23-1.18s-.44-1.11-.44-1.8v-.16c0-.69.15-1.29.43-1.8.29-.51.7-.9,1.22-1.18s1.13-.42,1.82-.42,1.27.14,1.78.43c.5.29.9.69,1.18,1.2.28.51.42,1.1.42,1.78v.57h-5.05c.02.45.2.82.53,1.1.34.28.75.43,1.23.43s.86-.1,1.09-.31c.23-.2.41-.43.53-.68l1.44.72c-.13.23-.32.48-.57.75-.25.27-.58.5-.99.69s-.93.29-1.57.29ZM97.15,23.74h3.25c-.04-.38-.2-.69-.48-.92-.28-.23-.66-.35-1.11-.35s-.85.12-1.13.35c-.28.23-.45.54-.52.92Z"/>
    <path class="st0" d="M106.19,27.79c-.46,0-.83-.13-1.11-.41-.29-.27-.43-.63-.43-1.08v-3.72h-1.74v-1.38h1.74v-2.05h1.76v2.05h1.9v1.38h-1.9v3.43c0,.27.13.4.39.4h1.34v1.38h-1.96Z"/>
  </g>
  <g>
    <path class="st0" d="M378.5,27.98c-1.21,0-2.17-.32-2.88-.96-.71-.64-1.06-1.56-1.06-2.76v-2.23c0-1.2.35-2.12,1.06-2.76.71-.64,1.67-.96,2.88-.96s2.13.31,2.79.94c.66.62.99,1.48.99,2.57v.08h-1.82v-.13c0-.55-.16-1-.48-1.36s-.81-.53-1.48-.53-1.17.19-1.54.57c-.37.38-.56.9-.56,1.56v2.29c0,.65.19,1.16.56,1.55.37.39.89.58,1.54.58s1.15-.18,1.48-.54.48-.81.48-1.35v-.24h1.82v.19c0,1.09-.33,1.95-.99,2.57-.66.62-1.59.94-2.79.94Z"/>
    <path class="st0" d="M387.15,27.98c-.69,0-1.31-.13-1.86-.4s-.98-.65-1.3-1.16c-.32-.5-.48-1.11-.48-1.82v-.21c0-.71.16-1.32.48-1.82.32-.51.75-.89,1.3-1.16.55-.27,1.17-.4,1.86-.4s1.31.13,1.86.4c.55.27.98.65,1.3,1.16.32.5.48,1.11.48,1.82v.21c0,.71-.16,1.32-.48,1.82-.32.51-.75.89-1.3,1.16-.55.27-1.17.4-1.86.4ZM387.15,26.49c.54,0,.99-.17,1.34-.5.35-.33.53-.81.53-1.43v-.13c0-.62-.17-1.1-.53-1.43-.35-.33-.8-.5-1.35-.5s-.99.17-1.34.5c-.36.33-.53.81-.53,1.43v.13c0,.62.18,1.1.53,1.43.35.33.8.5,1.34.5Z"/>
    <path class="st0" d="M395.3,27.98c-.91,0-1.65-.19-2.23-.56-.58-.37-.93-.9-1.05-1.6l1.62-.4c.07.31.17.55.33.73s.34.3.57.38c.23.08.48.11.75.11.41,0,.71-.07.91-.21.2-.14.29-.31.29-.51s-.09-.36-.28-.47c-.19-.11-.49-.2-.9-.27l-.39-.07c-.49-.09-.93-.21-1.33-.37s-.72-.37-.97-.65c-.24-.27-.36-.63-.36-1.06,0-.66.25-1.16.76-1.51.5-.35,1.17-.53,1.99-.53.77,0,1.42.16,1.93.49.51.33.85.76,1.01,1.29l-1.64.48c-.07-.34-.23-.58-.46-.72s-.51-.21-.85-.21-.59.06-.77.17c-.18.11-.27.26-.27.46,0,.21.09.37.28.47.19.1.44.18.76.23l.39.07c.52.09,1,.21,1.42.35.42.15.76.35,1.01.62.25.27.37.64.37,1.1,0,.69-.26,1.23-.79,1.6-.53.38-1.23.57-2.12.57Z"/>
    <path class="st0" d="M399.75,27.79v-6.6h1.74v.72h.25c.12-.22.32-.41.6-.58.28-.16.65-.25,1.11-.25.5,0,.89.09,1.19.27s.53.42.69.71h.25c.16-.28.38-.52.67-.71.29-.19.7-.28,1.23-.28.43,0,.82.09,1.17.26.35.17.63.43.84.79s.32.79.32,1.32v4.34h-1.76v-4.22c0-.36-.1-.64-.29-.82-.2-.18-.47-.27-.83-.27-.4,0-.71.12-.93.37-.22.24-.33.59-.33,1.04v3.9h-1.76v-4.22c0-.36-.1-.64-.29-.82s-.47-.27-.83-.27c-.4,0-.71.12-.93.37-.22.24-.33.59-.33,1.04v3.9h-1.76Z"/>
    <path class="st0" d="M412.59,20.42c-.32,0-.59-.1-.81-.29-.22-.19-.33-.45-.33-.77s.11-.58.33-.77c.22-.2.49-.29.81-.29s.6.1.81.29c.21.19.32.45.32.77s-.11.58-.32.77c-.21.2-.49.29-.81.29ZM411.71,27.79v-6.6h1.76v6.6h-1.76Z"/>
    <path class="st0" d="M418.69,27.98c-.67,0-1.28-.13-1.83-.4s-.98-.65-1.29-1.16c-.32-.5-.48-1.12-.48-1.83v-.19c0-.72.16-1.33.48-1.83.32-.51.75-.89,1.29-1.16.55-.27,1.16-.4,1.83-.4s1.23.11,1.71.33c.48.22.86.53,1.16.91.29.39.49.82.58,1.31l-1.71.35c-.04-.27-.12-.5-.25-.72s-.31-.38-.55-.51-.53-.19-.89-.19-.67.07-.96.22c-.29.15-.51.36-.67.65-.16.29-.25.64-.25,1.06v.13c0,.42.08.77.25,1.06.16.29.39.51.67.65.28.15.6.22.96.22.53,0,.94-.13,1.21-.39.28-.26.45-.61.52-1.03l1.71.39c-.12.47-.33.9-.62,1.28-.29.39-.68.69-1.16.91-.48.22-1.05.33-1.71.33Z"/>
    <path class="st0" d="M430.86,27.98c-1.21,0-2.17-.32-2.88-.96-.71-.64-1.06-1.56-1.06-2.76v-2.23c0-1.2.35-2.12,1.06-2.76.71-.64,1.67-.96,2.88-.96s2.13.31,2.79.94c.66.62.99,1.48.99,2.57v.08h-1.82v-.13c0-.55-.16-1-.48-1.36s-.81-.53-1.48-.53-1.17.19-1.54.57c-.37.38-.56.9-.56,1.56v2.29c0,.65.19,1.16.56,1.55.37.39.89.58,1.54.58s1.15-.18,1.48-.54.48-.81.48-1.35v-.24h1.82v.19c0,1.09-.33,1.95-.99,2.57-.66.62-1.59.94-2.79.94Z"/>
    <path class="st0" d="M437.09,20.42c-.32,0-.59-.1-.81-.29-.22-.19-.33-.45-.33-.77s.11-.58.33-.77c.22-.2.49-.29.81-.29s.6.1.81.29c.21.19.32.45.32.77s-.11.58-.32.77c-.21.2-.49.29-.81.29ZM436.2,27.79v-6.6h1.76v6.6h-1.76Z"/>
    <path class="st0" d="M439.93,27.79v-6.6h1.74v.86h.25c.11-.23.32-.45.63-.66.31-.21.78-.31,1.4-.31.54,0,1.01.12,1.42.35s.72.56.95.97c.22.41.34.89.34,1.44v3.94h-1.76v-3.8c0-.5-.13-.87-.38-1.12s-.62-.37-1.1-.37c-.54,0-.96.17-1.26.51-.3.34-.45.82-.45,1.43v3.35h-1.76Z"/>
    <path class="st0" d="M451.72,27.98c-.69,0-1.3-.14-1.83-.42-.53-.28-.94-.67-1.23-1.18s-.44-1.11-.44-1.8v-.16c0-.69.15-1.29.43-1.8.29-.51.7-.9,1.22-1.18s1.13-.42,1.82-.42,1.27.14,1.78.43c.5.29.9.69,1.18,1.2.28.51.42,1.1.42,1.78v.57h-5.05c.02.45.2.82.53,1.1.34.28.75.43,1.23.43s.86-.1,1.09-.31c.23-.2.41-.43.53-.68l1.44.72c-.13.23-.32.48-.57.75-.25.27-.58.5-.99.69s-.93.29-1.57.29ZM450.02,23.74h3.25c-.04-.38-.2-.69-.48-.92-.28-.23-.66-.35-1.11-.35s-.85.12-1.13.35c-.28.23-.45.54-.52.92Z"/>
    <path class="st0" d="M456.63,27.79v-6.6h1.74v.72h.25c.12-.22.32-.41.6-.58.28-.16.65-.25,1.11-.25.5,0,.89.09,1.19.27s.53.42.69.71h.25c.16-.28.38-.52.67-.71.29-.19.7-.28,1.23-.28.43,0,.82.09,1.17.26.35.17.63.43.84.79s.32.79.32,1.32v4.34h-1.76v-4.22c0-.36-.1-.64-.29-.82-.2-.18-.47-.27-.83-.27-.4,0-.71.12-.93.37-.22.24-.33.59-.33,1.04v3.9h-1.76v-4.22c0-.36-.1-.64-.29-.82s-.47-.27-.83-.27c-.4,0-.71.12-.93.37-.22.24-.33.59-.33,1.04v3.9h-1.76Z"/>
    <path class="st0" d="M470.74,27.98c-.49,0-.94-.08-1.33-.25-.39-.16-.7-.4-.93-.72-.23-.31-.34-.7-.34-1.15s.11-.83.34-1.14.55-.54.95-.69.87-.23,1.39-.23h1.9v-.37c0-.31-.1-.57-.31-.76-.21-.2-.53-.3-.98-.3s-.77.1-.98.29c-.21.19-.36.44-.42.74l-1.62-.52c.11-.34.29-.65.54-.92.25-.28.58-.5.99-.68s.92-.26,1.52-.26c.91,0,1.64.22,2.17.65s.8,1.06.8,1.89v2.46c0,.27.13.4.39.4h.56v1.38h-1.18c-.35,0-.63-.08-.85-.24-.22-.16-.34-.37-.34-.64h0s-.27-.01-.27-.01c-.04.11-.12.25-.25.42-.13.17-.34.33-.62.46-.28.13-.66.2-1.15.2ZM471.05,26.62c.49,0,.9-.13,1.21-.39.31-.26.47-.61.47-1.04v-.13h-1.78c-.33,0-.58.07-.77.2s-.28.32-.28.56.1.43.29.58.48.23.85.23Z"/>
  </g>
  <g>
    <path class="st0" d="M209.74,27.79v-9.31h3.51l1.95,8.11h.25v-8.11h1.82v9.31h-3.51l-1.95-8.11h-.25v8.11h-1.82Z"/>
    <path class="st0" d="M222.48,27.98c-.69,0-1.31-.13-1.86-.4s-.98-.65-1.3-1.16c-.32-.5-.48-1.11-.48-1.82v-.21c0-.71.16-1.32.48-1.82.32-.51.75-.89,1.3-1.16.55-.27,1.17-.4,1.86-.4s1.31.13,1.86.4c.55.27.98.65,1.3,1.16.32.5.48,1.11.48,1.82v.21c0,.71-.16,1.32-.48,1.82-.32.51-.75.89-1.3,1.16-.55.27-1.17.4-1.86.4ZM222.48,26.49c.54,0,.99-.17,1.34-.5.35-.33.53-.81.53-1.43v-.13c0-.62-.17-1.1-.53-1.43-.35-.33-.8-.5-1.35-.5s-.99.17-1.34.5c-.36.33-.53.81-.53,1.43v.13c0,.62.18,1.1.53,1.43.35.33.8.5,1.34.5Z"/>
    <path class="st0" d="M229.01,27.79l-2.21-6.6h1.88l1.61,5.37h.25l1.61-5.37h1.88l-2.21,6.6h-2.8Z"/>
    <path class="st0" d="M237.21,27.98c-.49,0-.94-.08-1.33-.25-.39-.16-.7-.4-.93-.72-.23-.31-.34-.7-.34-1.15s.11-.83.34-1.14.55-.54.95-.69.87-.23,1.39-.23h1.9v-.37c0-.31-.1-.57-.31-.76-.21-.2-.53-.3-.98-.3s-.77.1-.98.29c-.21.19-.36.44-.42.74l-1.62-.52c.11-.34.29-.65.54-.92.25-.28.58-.5.99-.68s.92-.26,1.52-.26c.91,0,1.64.22,2.17.65s.8,1.06.8,1.89v2.46c0,.27.13.4.39.4h.56v1.38h-1.18c-.35,0-.63-.08-.85-.24-.22-.16-.34-.37-.34-.64h0s-.27-.01-.27-.01c-.04.11-.12.25-.25.42-.13.17-.34.33-.62.46-.28.13-.66.2-1.15.2ZM237.52,26.62c.49,0,.9-.13,1.21-.39.31-.26.47-.61.47-1.04v-.13h-1.78c-.33,0-.58.07-.77.2s-.28.32-.28.56.1.43.29.58.48.23.85.23Z"/>
    <path class="st0" d="M249.46,27.98c-1.01,0-1.81-.26-2.4-.79-.59-.52-.89-1.25-.89-2.19v-.88h1.85v.88c0,.42.12.74.36.98.24.24.58.35,1.02.35.41,0,.73-.12.96-.35s.34-.56.34-.98v-4.92h-1.68v-1.6h4.65v1.6h-1.12v4.92c0,.97-.28,1.71-.83,2.21s-1.31.76-2.27.76Z"/>
    <path class="st0" d="M256.92,27.98c-.49,0-.94-.08-1.33-.25-.39-.16-.7-.4-.93-.72-.23-.31-.34-.7-.34-1.15s.11-.83.34-1.14.55-.54.95-.69.87-.23,1.39-.23h1.9v-.37c0-.31-.1-.57-.31-.76-.21-.2-.53-.3-.98-.3s-.77.1-.98.29c-.21.19-.36.44-.42.74l-1.62-.52c.11-.34.29-.65.54-.92.25-.28.58-.5.99-.68s.92-.26,1.52-.26c.91,0,1.64.22,2.17.65s.8,1.06.8,1.89v2.46c0,.27.13.4.39.4h.56v1.38h-1.18c-.35,0-.63-.08-.85-.24-.22-.16-.34-.37-.34-.64h0s-.27-.01-.27-.01c-.04.11-.12.25-.25.42-.13.17-.34.33-.62.46-.28.13-.66.2-1.15.2ZM257.23,26.62c.49,0,.9-.13,1.21-.39.31-.26.47-.61.47-1.04v-.13h-1.78c-.33,0-.58.07-.77.2s-.28.32-.28.56.1.43.29.58.48.23.85.23Z"/>
    <path class="st0" d="M262.86,27.79v-6.6h1.74v.72h.25c.12-.22.32-.41.6-.58.28-.16.65-.25,1.11-.25.5,0,.89.09,1.19.27s.53.42.69.71h.25c.16-.28.38-.52.67-.71.29-.19.7-.28,1.23-.28.43,0,.82.09,1.17.26.35.17.63.43.84.79s.32.79.32,1.32v4.34h-1.76v-4.22c0-.36-.1-.64-.29-.82-.2-.18-.47-.27-.83-.27-.4,0-.71.12-.93.37-.22.24-.33.59-.33,1.04v3.9h-1.76v-4.22c0-.36-.1-.64-.29-.82s-.47-.27-.83-.27c-.4,0-.71.12-.93.37-.22.24-.33.59-.33,1.04v3.9h-1.76Z"/>
  </g>
  <g>
    <path class="st1" d="M701.87,17.72c0,11.26-6.86,18.02-16.09,18.02-8.63,0-15.5-6.82-15.5-17.61,0-10.23,6.95-18.13,15.92-18.13s15.67,7.23,15.67,17.72ZM685.86,2.38c-5.28,0-6.59,5.94-6.59,14.56,0,6.3.32,16.43,7.32,16.43,5.63,0,6.29-6.61,6.29-14.98,0-8.83-1.69-16.01-7.02-16.01Z"/>
    <path class="st1" d="M786.82.52c.69.91,1.17,1.94,1.42,3.08.25,1.14.38,2.36.38,3.65,0,1.1-.08,2.21-.24,3.33-.16,1.12-.37,2.21-.62,3.28l-3.7,15.84-5.12-20.17c-.19-.8-.35-1.56-.47-2.28h0s-1.68-6.73-1.68-6.73h-13.31c.44.38.85.91,1.23,1.6.38.68.73,1.39,1.04,2.11.32.72.58,1.42.81,2.08.22.67.39,1.19.52,1.57l9.01,27.3h8.25l8.35-29.63c.19-.65.57-1.46,1.14-2.45.57-.99,1.23-1.84,1.99-2.56h-9.01Z"/>
    <path class="st1" d="M890.65,34.6c-.38-.3-.73-.72-1.04-1.25-.32-.53-.6-1.11-.85-1.74-.25-.63-.47-1.25-.66-1.88-.19-.63-.28-1.17-.28-1.62l-.95-17.95c-.13-2.17-.57-3.88-1.33-5.16-.76-1.27-1.75-2.24-2.99-2.91-1.23-.66-2.62-1.09-4.17-1.28-1.55-.19-3.15-.29-4.79-.29-6.32.26-15.37,3.13-15.37,3.13l-.76,13.33c7.01-15.22,16.32-15.44,16.32-15.44,1.26,0,2.18.24,2.75.71.57.48.98,1.02,1.23,1.62.25.61.36,1.2.33,1.77-.03.57-.05.95-.05,1.14-4.43,1.63-7.94,3.37-10.53,5.21-2.59,1.84-4.57,3.66-5.93,5.44-1.36,1.79-2.25,3.51-2.66,5.16-.41,1.65-.62,3.13-.62,4.42,0,1.79.27,3.25.81,4.39.54,1.14,1.23,2.03,2.09,2.68.85.65,1.82,1.08,2.89,1.31,1.07.23,2.12.34,3.13.34,2.09,0,3.78-.47,5.08-1.42,1.3-.95,2.34-2.17,3.13-3.68.79-1.5,1.42-3.17,1.9-5.02.47-1.84.93-3.64,1.38-5.39v14.36h11.95ZM878.17,15.37c-.1.85-.25,1.83-.47,2.94-.22,1.1-.52,2.25-.9,3.45-.38,1.2-.85,2.29-1.42,3.28-.57.99-1.25,1.81-2.04,2.45-.79.65-1.72.97-2.8.97-.89,0-1.63-.2-2.23-.6-.6-.4-1.08-.88-1.42-1.45-.35-.57-.58-1.16-.71-1.77-.13-.61-.19-1.12-.19-1.54,0-.99.2-2.06.62-3.22.41-1.16,1.09-2.37,2.04-3.65.95-1.27,2.2-2.6,3.75-3.99,1.55-1.39,3.49-2.78,5.83-4.19l.09,5.53c0,.34-.05.94-.14,1.79Z"/>
    <path class="st1" d="M607.2,32V3.79c0-.78.1-1.41.3-1.89.2-.48.59-.94,1.16-1.38h-10.34v24.7c-.26-1.07-.54-2.09-.83-3.07-.09-.3-.18-.59-.27-.88-.21-.68-.42-1.35-.64-1.99-.1-.29-.2-.58-.3-.87-.25-.69-.5-1.35-.75-1.99-.07-.17-.13-.35-.2-.51-.32-.78-.65-1.52-.99-2.23-.09-.19-.19-.37-.28-.56-.25-.51-.51-1.01-.77-1.48-.12-.21-.23-.42-.35-.63-.26-.45-.51-.88-.77-1.29-.1-.16-.2-.33-.3-.48-.36-.54-.72-1.06-1.08-1.54-.05-.07-.11-.13-.16-.21-.31-.41-.63-.8-.95-1.16-.11-.13-.23-.26-.34-.38-.27-.3-.54-.58-.81-.85-.11-.11-.22-.22-.32-.32-.35-.33-.69-.64-1.03-.92-.02-.02-.04-.04-.06-.05-.38-.31-.75-.59-1.12-.84-.08-.06-.16-.11-.24-.16-.29-.2-.59-.38-.88-.55-.09-.05-.17-.1-.26-.15-.32-.18-.64-.35-.95-.49-.03-.01-.06-.03-.09-.05-.73-.34-1.43-.59-2.09-.78-.03,0-.07-.02-.1-.03-3.29-.9-5.64-.22-5.64-.22.52.44.86,1.12,1.03,2.06.17.94.26,1.92.26,2.95v26.47c0,.59-.1,1.2-.3,1.82-.2.62-.53,1.11-.99,1.45h11.12c-.75-.53-1.25-1.06-1.51-1.59-.26-.53-.39-1.09-.39-1.68V8.7c1.03.09,2.05.5,3.06,1.22,1,.72,1.95,1.65,2.84,2.78.89,1.14,1.72,2.42,2.5,3.83.78,1.42,1.48,2.88,2.11,4.37.63,1.5,1.18,2.99,1.64,4.47.46,1.48.83,2.85,1.12,4.09v5.8h10.08c-.52-.53-.85-1.06-.99-1.59-.14-.53-.19-1.09-.13-1.68Z"/>
  </g>
</svg>