<?xml version="1.0" encoding="utf-8"?>
<!-- Generator: Adobe Illustrator 27.0.1, SVG Export Plug-In . SVG Version: 6.00 Build 0)  -->
<svg version="1.1" id="圖層_1" xmlns="http://www.w3.org/2000/svg" xmlns:xlink="http://www.w3.org/1999/xlink" x="0px" y="0px"
	 viewBox="0 0 890.1 35.7" style="enable-background:new 0 0 890.1 35.7;" xml:space="preserve">
<style type="text/css">
	.st0{fill:#FF98B1;}
	.st1{fill:#007DFF;}
</style>
<g>
	<g>
		<g>
			<path class="st0" d="M0,27.8v-9.3h3.5l1.9,8.1h0.3v-8.1h1.8v9.3H4l-1.9-8.1H1.8v8.1H0z"/>
			<path class="st0" d="M11.6,27.8v-7.7H8.8v-1.6h7.6v1.6h-2.9v7.7H11.6z"/>
			<path class="st0" d="M20.9,28c-1.2,0-2.2-0.3-2.9-1c-0.7-0.6-1.1-1.6-1.1-2.8V22c0-1.2,0.4-2.1,1.1-2.8c0.7-0.6,1.7-1,2.9-1
				c1.2,0,2.1,0.3,2.8,0.9c0.7,0.6,1,1.5,1,2.6v0.1h-1.8v-0.1c0-0.5-0.2-1-0.5-1.4s-0.8-0.5-1.5-0.5c-0.7,0-1.2,0.2-1.5,0.6
				c-0.4,0.4-0.6,0.9-0.6,1.6v2.3c0,0.6,0.2,1.2,0.6,1.5c0.4,0.4,0.9,0.6,1.5,0.6c0.7,0,1.2-0.2,1.5-0.5s0.5-0.8,0.5-1.3v-0.2h1.8
				v0.2c0,1.1-0.3,1.9-1,2.6C23,27.7,22.1,28,20.9,28z"/>
			<path class="st0" d="M25.4,27.8l2.6-9.3h3.2l2.6,9.3h-1.9l-0.5-2h-3.5l-0.5,2H25.4z M28.3,24.1h2.6l-1.2-4.5h-0.3L28.3,24.1z"/>
			<path class="st0" d="M35,27.8v-9.3h3.4l1.7,8.1h0.3l1.7-8.1h3.4v9.3h-1.8v-8h-0.3l-1.7,8h-3.1l-1.7-8h-0.3v8H35z"/>
			<path class="st0" d="M52.4,26l-1.1-1.1l1.8-1.7l-1.8-1.7l1.1-1.1l1.9,1.7l1.9-1.7l1.1,1.1l-1.8,1.7l1.8,1.7L56.2,26l-1.9-1.7
				L52.4,26z"/>
			<path class="st0" d="M65,27.8v-7.7h-2.9v-1.6h7.6v1.6h-2.9v7.7H65z"/>
			<path class="st0" d="M71,27.8v-9.3h6.2v1.6h-4.3v2.2h4v1.6h-4v3.9H71z"/>
			<path class="st0" d="M77.2,27.8l2.6-9.3H83l2.6,9.3h-1.9l-0.5-2h-3.5l-0.5,2H77.2z M80.1,24.1h2.6l-1.2-4.5h-0.3L80.1,24.1z"/>
			<path class="st0" d="M86.7,27.8v-9.3h1.8v9.3H86.7z"/>
		</g>
	</g>
	<g>
		<g>
			<path class="st0" d="M314.8,27.8v-9.3h3.5l1.9,8.1h0.3v-8.1h1.8v9.3h-3.5l-1.9-8.1h-0.3v8.1H314.8z"/>
			<path class="st0" d="M328,28c-1.2,0-2.2-0.3-2.9-1c-0.7-0.6-1.1-1.6-1.1-2.8V22c0-1.2,0.4-2.1,1.1-2.8c0.7-0.6,1.7-1,2.9-1
				c1.2,0,2.2,0.3,2.9,1c0.7,0.6,1.1,1.6,1.1,2.8v2.2c0,1.2-0.4,2.1-1.1,2.8C330.2,27.7,329.2,28,328,28z M328,26.4
				c0.7,0,1.2-0.2,1.6-0.6s0.6-0.9,0.6-1.5V22c0-0.6-0.2-1.1-0.6-1.5c-0.4-0.4-0.9-0.6-1.6-0.6c-0.7,0-1.2,0.2-1.6,0.6
				c-0.4,0.4-0.6,0.9-0.6,1.5v2.3c0,0.6,0.2,1.1,0.6,1.5S327.3,26.4,328,26.4z"/>
			<path class="st0" d="M335.2,27.8l-2.5-9.3h1.9l2.1,8.2h0.2l2.1-8.2h1.9l-2.5,9.3H335.2z"/>
			<path class="st0" d="M340.6,27.8l2.6-9.3h3.2l2.6,9.3h-1.9l-0.5-2h-3.5l-0.5,2H340.6z M343.5,24.1h2.6l-1.2-4.5h-0.3L343.5,24.1z
				"/>
			<path class="st0" d="M356.3,28c-1,0-1.8-0.3-2.4-0.8c-0.6-0.5-0.9-1.3-0.9-2.2v-0.9h1.8V25c0,0.4,0.1,0.7,0.4,1
				c0.2,0.2,0.6,0.4,1,0.4c0.4,0,0.7-0.1,1-0.3s0.3-0.6,0.3-1v-4.9h-1.7v-1.6h4.6v1.6h-1.1V25c0,1-0.3,1.7-0.8,2.2
				S357.3,28,356.3,28z"/>
			<path class="st0" d="M361,27.8l2.6-9.3h3.2l2.6,9.3h-1.9l-0.5-2h-3.5l-0.5,2H361z M363.9,24.1h2.6l-1.2-4.5h-0.3L363.9,24.1z"/>
			<path class="st0" d="M370.6,27.8v-9.3h3.4l1.7,8.1h0.3l1.7-8.1h3.4v9.3h-1.8v-8H379l-1.7,8h-3.1l-1.7-8h-0.3v8H370.6z"/>
		</g>
	</g>
	<g>
		<g>
			<path class="st0" d="M447.2,27.8v-9.3h3.5l1.9,8.1h0.3v-8.1h1.8v9.3h-3.5l-1.9-8.1h-0.3v8.1H447.2z"/>
			<path class="st0" d="M460.4,28c-1.2,0-2.2-0.3-2.9-1c-0.7-0.6-1.1-1.6-1.1-2.8V22c0-1.2,0.4-2.1,1.1-2.8c0.7-0.6,1.7-1,2.9-1
				c1.2,0,2.2,0.3,2.9,1c0.7,0.6,1.1,1.6,1.1,2.8v2.2c0,1.2-0.4,2.1-1.1,2.8C462.6,27.7,461.7,28,460.4,28z M460.4,26.4
				c0.7,0,1.2-0.2,1.6-0.6s0.6-0.9,0.6-1.5V22c0-0.6-0.2-1.1-0.6-1.5c-0.4-0.4-0.9-0.6-1.6-0.6c-0.7,0-1.2,0.2-1.6,0.6
				c-0.4,0.4-0.6,0.9-0.6,1.5v2.3c0,0.6,0.2,1.1,0.6,1.5S459.7,26.4,460.4,26.4z"/>
			<path class="st0" d="M467.7,27.8l-2.5-9.3h1.9l2.1,8.2h0.2l2.1-8.2h1.9l-2.5,9.3H467.7z"/>
			<path class="st0" d="M473.1,27.8l2.6-9.3h3.2l2.6,9.3h-1.9l-0.5-2h-3.5l-0.5,2H473.1z M475.9,24.1h2.6l-1.2-4.5h-0.3L475.9,24.1z
				"/>
			<path class="st0" d="M486,27.8v-9.3h1.8v7.7h4.5v1.6H486z"/>
			<path class="st0" d="M492.9,27.8l2.6-9.3h3.2l2.6,9.3h-1.9l-0.5-2h-3.5l-0.5,2H492.9z M495.8,24.1h2.6l-1.2-4.5H497L495.8,24.1z"
				/>
			<path class="st0" d="M502.2,27.8v-1.5h1.3V20h-1.3v-1.5h5c0.6,0,1.1,0.1,1.6,0.3c0.4,0.2,0.8,0.5,1,0.8c0.2,0.4,0.4,0.8,0.4,1.3
				V21c0,0.4-0.1,0.8-0.3,1c-0.2,0.3-0.4,0.5-0.6,0.6c-0.2,0.1-0.4,0.2-0.7,0.3v0.2c0.2,0.1,0.4,0.2,0.7,0.3
				c0.2,0.1,0.5,0.4,0.6,0.6c0.2,0.3,0.3,0.6,0.3,1.1v0.1c0,0.5-0.1,1-0.4,1.3c-0.3,0.4-0.6,0.6-1,0.8c-0.4,0.2-1,0.3-1.5,0.3H502.2
				z M505.3,22.3h1.7c0.4,0,0.7-0.1,0.9-0.3c0.2-0.2,0.4-0.4,0.4-0.8v-0.1c0-0.3-0.1-0.6-0.4-0.8c-0.2-0.2-0.6-0.3-1-0.3h-1.7V22.3z
				 M505.3,26.2h1.7c0.4,0,0.7-0.1,1-0.3c0.2-0.2,0.4-0.5,0.4-0.8V25c0-0.3-0.1-0.6-0.4-0.8c-0.2-0.2-0.6-0.3-1-0.3h-1.7V26.2z"/>
		</g>
	</g>
	<g>
		<g>
			<path class="st0" d="M154.8,27.8v-9.3h1.8v7.7h4.5v1.6H154.8z"/>
			<path class="st0" d="M162.4,27.8v-9.3h1.8v9.3H162.4z"/>
			<path class="st0" d="M169.4,28c-0.7,0-1.3-0.1-1.8-0.4s-1-0.7-1.3-1.3c-0.3-0.6-0.5-1.2-0.5-2V22c0-1.2,0.4-2.1,1.1-2.8
				c0.7-0.6,1.7-1,2.9-1c1.2,0,2.1,0.3,2.8,0.9c0.7,0.6,1,1.4,1,2.5v0.1h-1.8v-0.1c0-0.3-0.1-0.6-0.2-0.9c-0.1-0.3-0.4-0.5-0.7-0.6
				c-0.3-0.2-0.7-0.2-1.1-0.2c-0.7,0-1.2,0.2-1.5,0.6c-0.4,0.4-0.6,0.9-0.6,1.6v2.3c0,0.6,0.2,1.2,0.6,1.6c0.4,0.4,0.9,0.6,1.6,0.6
				s1.2-0.2,1.5-0.5c0.3-0.3,0.5-0.8,0.5-1.3v-0.1h-2.3V23h4.1v4.8h-1.7v-0.9h-0.3c-0.1,0.2-0.2,0.3-0.3,0.5
				c-0.1,0.2-0.4,0.3-0.7,0.4S170,28,169.4,28z"/>
			<path class="st0" d="M175.3,27.8v-9.3h1.8v3.8h3.6v-3.8h1.8v9.3h-1.8v-3.9h-3.6v3.9H175.3z"/>
			<path class="st0" d="M186.8,27.8v-7.7h-2.9v-1.6h7.6v1.6h-2.9v7.7H186.8z"/>
			<path class="st0" d="M196,27.8v-9.3h3.4l1.7,8.1h0.3l1.7-8.1h3.4v9.3h-1.8v-8h-0.3l-1.7,8h-3.1l-1.7-8h-0.3v8H196z"/>
			<path class="st0" d="M207.6,27.8l2.6-9.3h3.2l2.6,9.3h-1.9l-0.5-2h-3.5l-0.5,2H207.6z M210.5,24.1h2.6l-1.2-4.5h-0.3L210.5,24.1z
				"/>
			<path class="st0" d="M217.2,27.8v-9.3h4.3c0.6,0,1.2,0.1,1.6,0.3s0.8,0.5,1.1,0.9c0.3,0.4,0.4,0.8,0.4,1.3v0.2
				c0,0.6-0.1,1-0.4,1.4c-0.3,0.3-0.6,0.6-1,0.8v0.2c0.4,0,0.7,0.1,0.9,0.4c0.2,0.2,0.3,0.5,0.3,0.9v3h-1.8V25
				c0-0.2-0.1-0.4-0.2-0.5c-0.1-0.1-0.3-0.2-0.6-0.2H219v3.5H217.2z M219,22.7h2.2c0.4,0,0.8-0.1,1-0.3c0.2-0.2,0.4-0.5,0.4-0.9
				v-0.1c0-0.4-0.1-0.7-0.4-0.9c-0.2-0.2-0.6-0.3-1-0.3H219V22.7z"/>
			<path class="st0" d="M226,27.8v-9.3h1.8v3.7h0.3l3.2-3.7h2.4l-4.1,4.6l4.2,4.7h-2.4l-3.2-3.8h-0.3v3.8H226z"/>
			<path class="st0" d="M234.8,27.8v-9.3h6.3v1.6h-4.5v2.2h4.1v1.6h-4.1v2.3h4.5v1.6H234.8z"/>
			<path class="st0" d="M244.8,27.8v-7.7H242v-1.6h7.6v1.6h-2.9v7.7H244.8z"/>
		</g>
	</g>
	<g>
		<path class="st1" d="M701.3,17.7c0,11.3-6.9,18-16.1,18c-8.6,0-15.5-6.8-15.5-17.6c0-10.2,6.9-18.1,15.9-18.1
			C694.5,0,701.3,7.2,701.3,17.7z M685.3,2.4c-5.3,0-6.6,5.9-6.6,14.6c0,6.3,0.3,16.4,7.3,16.4c5.6,0,6.3-6.6,6.3-15
			C692.3,9.6,690.6,2.4,685.3,2.4z"/>
		<path class="st1" d="M786.2,0.5c0.7,0.9,1.2,1.9,1.4,3.1c0.3,1.1,0.4,2.4,0.4,3.6c0,1.1-0.1,2.2-0.2,3.3c-0.2,1.1-0.4,2.2-0.6,3.3
			l-3.7,15.8l-5.1-20.2c-0.2-0.8-0.3-1.6-0.5-2.3v0l-1.7-6.7h-13.3c0.4,0.4,0.9,0.9,1.2,1.6c0.4,0.7,0.7,1.4,1,2.1
			c0.3,0.7,0.6,1.4,0.8,2.1c0.2,0.7,0.4,1.2,0.5,1.6l9,27.3h8.3l8.3-29.6c0.2-0.6,0.6-1.5,1.1-2.5c0.6-1,1.2-1.8,2-2.6H786.2z"/>
		<path class="st1" d="M890.1,34.6c-0.4-0.3-0.7-0.7-1-1.3c-0.3-0.5-0.6-1.1-0.9-1.7c-0.3-0.6-0.5-1.3-0.7-1.9
			c-0.2-0.6-0.3-1.2-0.3-1.6l-0.9-17.9c-0.1-2.2-0.6-3.9-1.3-5.2c-0.8-1.3-1.8-2.2-3-2.9c-1.2-0.7-2.6-1.1-4.2-1.3
			c-1.6-0.2-3.1-0.3-4.8-0.3c-6.3,0.3-15.4,3.1-15.4,3.1L856.9,17c7-15.2,16.3-15.4,16.3-15.4c1.3,0,2.2,0.2,2.8,0.7
			c0.6,0.5,1,1,1.2,1.6c0.3,0.6,0.4,1.2,0.3,1.8c0,0.6,0,1,0,1.1c-4.4,1.6-7.9,3.4-10.5,5.2c-2.6,1.8-4.6,3.7-5.9,5.4
			c-1.4,1.8-2.2,3.5-2.7,5.2c-0.4,1.7-0.6,3.1-0.6,4.4c0,1.8,0.3,3.2,0.8,4.4c0.5,1.1,1.2,2,2.1,2.7c0.9,0.6,1.8,1.1,2.9,1.3
			c1.1,0.2,2.1,0.3,3.1,0.3c2.1,0,3.8-0.5,5.1-1.4c1.3-0.9,2.3-2.2,3.1-3.7c0.8-1.5,1.4-3.2,1.9-5c0.5-1.8,0.9-3.6,1.4-5.4v14.4
			H890.1z M877.6,15.4c-0.1,0.9-0.3,1.8-0.5,2.9c-0.2,1.1-0.5,2.3-0.9,3.4c-0.4,1.2-0.9,2.3-1.4,3.3c-0.6,1-1.2,1.8-2,2.4
			c-0.8,0.6-1.7,1-2.8,1c-0.9,0-1.6-0.2-2.2-0.6c-0.6-0.4-1.1-0.9-1.4-1.5c-0.3-0.6-0.6-1.2-0.7-1.8c-0.1-0.6-0.2-1.1-0.2-1.5
			c0-1,0.2-2.1,0.6-3.2c0.4-1.2,1.1-2.4,2-3.6c0.9-1.3,2.2-2.6,3.7-4c1.5-1.4,3.5-2.8,5.8-4.2l0.1,5.5
			C877.7,13.9,877.7,14.5,877.6,15.4z"/>
		<path class="st1" d="M606.6,32V3.8c0-0.8,0.1-1.4,0.3-1.9c0.2-0.5,0.6-0.9,1.2-1.4h-10.3v3.3v21.4c-0.3-1.1-0.5-2.1-0.8-3.1
			c-0.1-0.3-0.2-0.6-0.3-0.9c-0.2-0.7-0.4-1.3-0.6-2c-0.1-0.3-0.2-0.6-0.3-0.9c-0.2-0.7-0.5-1.4-0.8-2c-0.1-0.2-0.1-0.3-0.2-0.5
			c-0.3-0.8-0.7-1.5-1-2.2c-0.1-0.2-0.2-0.4-0.3-0.6c-0.3-0.5-0.5-1-0.8-1.5c-0.1-0.2-0.2-0.4-0.4-0.6c-0.3-0.4-0.5-0.9-0.8-1.3
			c-0.1-0.2-0.2-0.3-0.3-0.5c-0.4-0.5-0.7-1.1-1.1-1.5c-0.1-0.1-0.1-0.1-0.2-0.2c-0.3-0.4-0.6-0.8-0.9-1.2c-0.1-0.1-0.2-0.3-0.3-0.4
			c-0.3-0.3-0.5-0.6-0.8-0.9c-0.1-0.1-0.2-0.2-0.3-0.3c-0.3-0.3-0.7-0.6-1-0.9c0,0,0,0-0.1-0.1c-0.4-0.3-0.7-0.6-1.1-0.8
			c-0.1-0.1-0.2-0.1-0.2-0.2c-0.3-0.2-0.6-0.4-0.9-0.6c-0.1-0.1-0.2-0.1-0.3-0.1c-0.3-0.2-0.6-0.3-1-0.5c0,0-0.1,0-0.1,0
			c-0.7-0.3-1.4-0.6-2.1-0.8c0,0-0.1,0-0.1,0c-3.3-0.9-5.6-0.2-5.6-0.2c0.5,0.4,0.9,1.1,1,2.1c0.2,0.9,0.3,1.9,0.3,2.9V32
			c0,0.6-0.1,1.2-0.3,1.8c-0.2,0.6-0.5,1.1-1,1.4h11.1c-0.7-0.5-1.2-1.1-1.5-1.6c-0.3-0.5-0.4-1.1-0.4-1.7V8.7
			c1,0.1,2.1,0.5,3.1,1.2c1,0.7,2,1.6,2.8,2.8c0.9,1.1,1.7,2.4,2.5,3.8c0.8,1.4,1.5,2.9,2.1,4.4c0.6,1.5,1.2,3,1.6,4.5
			c0.5,1.5,0.8,2.8,1.1,4.1v5.8h10.1c-0.5-0.5-0.8-1.1-1-1.6C606.6,33.2,606.6,32.6,606.6,32z"/>
	</g>
</g>
</svg>
