<?xml version="1.0" encoding="UTF-8"?>
<svg id="_圖層_1" data-name="圖層_1" xmlns="http://www.w3.org/2000/svg" version="1.1" viewBox="0 0 357.64 67.68">
  <!-- Generator: Adobe Illustrator 29.8.2, SVG Export Plug-In . SVG Version: 2.1.1 Build 3)  -->
  <defs>
    <style>
      .st0 {
        fill: #fff;
      }

      .st1 {
        fill: #cedd4a;
      }
    </style>
  </defs>
  <path class="st0" d="M1.71,20.2c-.45.02-.95.02-1.4,0-.17,0-.25-.08-.25-.23V3.86C.06,3.01.03,2.12,0,1.65c-.03-.15.06-.23.22-.25.48,0,1.09,0,1.57.05.17,0,.25.1.25.25l-.08,1.24h3.98l-.06-1.29c-.03-.15.06-.23.25-.25.48,0,1.06,0,1.54.05.2,0,.28.1.28.25-.06.48-.11,1.34-.11,2.12v8.45l1.85.1c.03-3.2.03-6.71-.06-8.6,0-.28-.03-.5-.06-.76,0-.18.08-.25.25-.25.48-.03,1.18,0,1.65.03.17.03.25.13.22.28-.06.25-.08.43-.08.68l-.03.73h3.44l-.06-3.12c0-.3-.03-.55-.06-.83,0-.18.06-.25.22-.25.5-.03,1.23,0,1.74.03.17.02.25.1.22.28-.06.28-.08.48-.11.78l-.06,3.12h3.64l-.03-.71c-.03-.28-.03-.5-.06-.76-.03-.15.03-.23.22-.25.48-.03,1.18,0,1.68.05.17.03.25.1.22.25-.06.25-.08.45-.08.71-.11,1.89-.11,5.42-.06,8.6l1.96-.05c.17-.03.25.05.25.2.03.4.03.96,0,1.36,0,.15-.11.23-.28.23l-6.92-.03c1.09,3.38,3.61,6.13,7.53,7.61.11.05.14.13.06.2-.67.55-.9.88-1.18,1.11-.2.13-.36.15-.59.05-3.61-1.71-6.02-4.39-7.34-7.81-1.29,3.83-3.72,6.08-8.18,7.87-.28.1-.53.08-.73-.13-.2-.2-.34-.43-1.04-.98-.08-.08-.08-.15.03-.18,5.12-1.64,7.45-4.21,8.34-7.74-2.44,0-4.42,0-6.52.13h-.06v4.69c.03.15-.06.23-.25.23-.42.02-.95.02-1.4,0-.17,0-.25-.08-.25-.23v-1.61H1.94l.03,2.7c0,.15-.08.23-.25.23ZM1.94,4.67v4.44h4v-4.44H1.94ZM5.94,10.79H1.94v4.71h4v-4.71ZM11.57,12.41h3.47v-6.25h-3.5c-.03,1.84,0,4.11.03,6.25ZM16.95,6.16l.03,6.25,3.61-.02v-6.23h-3.64Z"/>
  <path class="st0" d="M35.73,23.07c-.5.03-1.12.03-1.6,0-.17-.03-.25-.13-.25-.28.08-4.66.11-10.18.06-13.64-.95,1.64-2.02,3.23-3.14,4.66-.17.18-.34.2-.5.03-.17-.23-.31-.48-.98-1.13-.06-.03-.06-.1,0-.15,2.83-3.5,5.52-8.6,6.72-12.35.03-.13.14-.2.28-.15.48.1,1.09.33,1.57.5.22.1.25.2.11.43-.06.1-.11.18-.17.25-.06.15-.11.3-.22.5-.59,1.44-1.34,3.08-2.24,4.81l.5.2c.22.1.31.25.25.48-.08.33-.17.63-.17.96-.08,3.15-.11,9.17.03,14.62,0,.15-.08.25-.25.25ZM46.49,11.07l-1.2.76c1.76,2.6,3.28,5.02,3.47,9.05,0,1.39-.64,2.07-2.27,2.19-.76,0-1.54,0-2.38-.1-.31-.03-.5-.18-.56-.45-.11-.28-.17-.6-.25-.96-.06-.18.03-.25.2-.2.9.13,1.62.2,2.46.18.7-.05,1.01-.38,1.01-1.11-.14-3.05-1.48-5.37-3.19-7.74-1.85,1.01-3.95,1.99-5.8,2.65-.2.08-.36.03-.53-.1-.14-.2-.25-.4-.78-.88-.08-.08-.06-.15.06-.18,2.55-.78,5.52-2.14,7.73-3.53h-4.23v.58c-.03.15-.11.23-.28.25h-1.01c-.17-.02-.25-.1-.25-.25v-4.23l-.73.6c-.2.15-.36.15-.56,0-.17-.15-.36-.35-.95-.78-.11-.08-.11-.13-.03-.2,2.44-1.76,4.87-4.36,6.02-6.45.06-.13.17-.18.31-.15.45.08.98.23,1.48.4.22.08.22.18.06.38-.08.08-.14.13-.17.18-.11.13-.2.25-.31.43l-.45.63h4.73l.56-.91c.06-.13.17-.18.34-.13.42.1,1.01.3,1.43.48.22.1.22.18.06.35-.08.13-.2.23-.25.33-.14.15-.25.3-.39.48-.56.73-1.4,1.76-2.24,2.7h4.62v-.53c0-.15.08-.23.25-.25.42,0,.92,0,1.34.03.17.03.25.1.25.25-.03.35-.03.91-.03,1.26v5.22c0,.15-.08.23-.25.23-.42.03-.81.03-1.2,0-.17,0-.25-.08-.25-.23v-.66h-5.07l-.03.02c-.08.05-.17.08-.25.13-.14.08-.28.18-.48.28ZM44.41,19.24c-1.62.98-4.34,2.5-6.66,3.33-.2.08-.36.03-.5-.13-.14-.18-.28-.4-.73-.88-.06-.08-.06-.18.06-.2,2.58-.78,6.02-2.52,8.12-4.18.14-.1.25-.1.36,0,.25.28.56.61.81.91.14.2.08.3-.17.4-.2.1-.39.23-.62.38-.22.13-.42.23-.67.38ZM43.21,16.21c-1.34.76-3.39,1.82-5.07,2.5-.2.08-.34.02-.48-.13-.14-.18-.28-.38-.67-.81-.08-.08-.08-.15.06-.2,1.9-.68,4.48-1.92,6.16-3.1.14-.08.25-.08.39.03.22.25.53.58.76.83.14.2.08.28-.14.38-.17.08-.28.13-.36.18-.22.1-.42.2-.64.33ZM40.47,5.32h4.87c.56-.55,1.15-1.18,1.68-1.87h-4.82c-.53.61-1.12,1.26-1.74,1.87ZM40.47,6.86v2.37h4.82v-2.52h-4.82v.15ZM47.07,6.71v2.52h5.15v-2.52h-5.15ZM49.2,11.43c.36,1.11.78,2.19,1.32,3.23,1.18-.71,2.46-1.59,3.42-2.39.14-.1.25-.1.36-.03.31.28.67.66.95.96.14.18.08.28-.11.4-.14.05-.22.13-.31.18-.17.1-.34.2-.53.35-.84.55-1.96,1.29-3.02,1.92,1.15,1.87,2.6,3.53,4.37,4.79.11.08.11.15,0,.2-.56.4-.78.66-1.04.83-.2.13-.36.13-.53-.03-3.11-2.57-5.24-6.2-6.5-9.91-.03-.15.03-.25.2-.3.34-.13.76-.25,1.12-.35.17-.05.28,0,.31.15Z"/>
  <path class="st0" d="M64.24,22.97c-.48.03-1.09.03-1.54,0-.17,0-.25-.08-.25-.25V2.9c0-.81-.03-1.46-.06-1.89,0-.15.08-.23.25-.23.5-.03,1.15-.03,1.65.03.17,0,.25.08.25.23l-.06.98h18.2l-.06-1.01c0-.15.08-.23.25-.23.5-.03,1.15-.03,1.68.03.17,0,.25.08.22.23-.03.45-.06,1.06-.08,1.81v17.32c0,.86,0,1.74.03,2.45,0,.18-.08.25-.25.25-.45.02-1.09.02-1.54,0-.17,0-.25-.08-.25-.25v-1.59h-18.23l.03,1.69c0,.18-.08.25-.25.25ZM64.46,3.76v15.5h18.23V3.76h-18.23ZM69.95,16.72h-1.34c-.17-.02-.25-.1-.25-.25v-8.02c0-.53-.03-1.41-.03-1.89,0-.15.08-.25.25-.25.45,0,.98,0,1.43.03.2,0,.25.1.25.25l-.03.93h6.44l-.03-.96c0-.15.08-.25.25-.25.45,0,1.01,0,1.48.03.17,0,.22.1.22.25-.03.48-.03,1.34-.06,1.84v7.89c0,.15-.08.23-.25.23-.42.02-.92.02-1.37,0-.17,0-.25-.08-.25-.23v-1.23h-6.47v1.39c.03.15-.06.23-.25.25ZM70.2,9.16v4.29h6.47v-4.29h-6.47Z"/>
  <path class="st0" d="M92.49,7.22c1.15.91,2.46,1.82,3.72,2.57.11.08.11.15.06.25-.28.38-.56.86-.84,1.21-.14.15-.31.18-.5.08-1.29-.86-2.49-1.76-3.58-2.62-.14-.1-.17-.23-.08-.35.22-.33.53-.76.81-1.08.11-.15.25-.18.42-.05ZM93.55,22.19c-.06.18-.08.33-.11.45-.08.23-.2.25-.45.13-.45-.25-.98-.6-1.4-.88-.14-.08-.14-.18-.08-.28,1.2-2.02,2.63-5.29,3.36-7.56,0-.1.08-.13.17-.05.62.35.98.53,1.29.71.17.1.22.25.17.45-.7,1.99-1.88,4.69-2.83,6.76-.03.1-.08.18-.11.28ZM102.96,23.05c-.48.03-1.04.03-1.46,0-.17-.03-.25-.1-.25-.25l.03-3.86c-1.65,0-3.16,0-4.59.05-.17.03-.25-.05-.28-.2-.03-.4-.06-.91-.06-1.31,0-.15.11-.2.28-.2,1.48.13,2.91.1,4.65.1v-2.32h-2.07l.03.66c0,.15-.08.23-.25.23h-1.09c-.17,0-.25-.08-.25-.23V7.47c0-.45,0-1.01-.03-1.36,0-.15.08-.25.25-.25.39,0,.78,0,1.15.03.2.03.28.1.25.25l-.03.55h2.04l.03-2.19c-1.37,0-2.63.03-3.86.08-.17.03-.28-.05-.28-.23l-.03-.66c-.31.38-.64.88-.95,1.21-.14.13-.31.15-.48.03-1.26-.96-2.41-2.02-3.47-2.95-.08-.13-.14-.23-.03-.35.22-.33.59-.76.9-1.06.14-.13.28-.13.42,0,1.09,1.01,2.32,2.04,3.53,2.9l.06.08v-.48c0-.15.11-.2.28-.2,1.26.08,2.49.1,3.92.1l-.06-1.87c0-.23-.03-.4-.06-.61,0-.18.08-.25.25-.28.45,0,1.12.03,1.57.05.2,0,.25.1.22.25-.06.23-.06.38-.08.58l-.03,1.87c1.46,0,3-.03,3.86-.08.2-.03.28.05.28.23.03.33,0,.81,0,1.18-.03.15-.11.23-.28.2h-3.89v2.19h2.04v-.58c-.03-.15.06-.25.22-.25.39,0,.81,0,1.18.03.17.03.25.1.25.25-.03.35-.03.91-.03,1.31v8.27c-.03.15-.11.23-.28.23h-1.06c-.17,0-.28-.08-.28-.23v-.66h-2.02v2.32c1.51-.02,3.05-.02,3.92-.08.2,0,.28.08.28.23.03.35.03.83,0,1.19,0,.18-.11.25-.28.23h-3.89l.03,3.88c.03.15-.06.23-.22.23ZM99.32,8.15v1.97h5.74v-1.97h-5.74ZM105.06,11.5h-5.74v2.09h5.74v-2.09ZM114.39.46c.5-.03,1.06-.03,1.62.03.17.03.22.1.2.25-.08.48-.11.83-.14,1.18-.11,4.21-.06,12.2-.06,19.13,0,1.24-.45,1.76-1.65,1.87-.67.03-1.18.03-1.62,0-.25-.03-.42-.18-.5-.4-.08-.38-.14-.83-.22-1.21-.03-.15.03-.2.2-.2.42.08.95.08,1.51.08.42-.03.59-.15.59-.63v-5.77h-4.2c-.25,3-1.01,6-2.55,8.14-.17.23-.36.28-.62.18-.22-.13-.45-.28-1.09-.58-.14-.08-.2-.15-.11-.28,2.04-2.5,2.66-5.97,2.74-9.91.08-2.04.06-7.71-.03-9.88-.03-.61-.06-1.24-.11-1.74-.03-.15.06-.25.22-.25.48-.03,1.06,0,1.57.03.17.03.25.1.22.25l-.06,1.08h3.95c-.03-.48-.06-.86-.11-1.13,0-.15.08-.23.25-.23ZM110.21,12.96h4.09l-.03-3.91h-4.03v3.28l-.03.63ZM110.27,7.29h4l-.03-3.66h-3.95l-.03,3.66Z"/>
  <path class="st1" d="M.21,67.18v-25.08h8.99l4.98,21.85h.64v-21.85h4.66v25.08h-8.99l-4.98-21.85h-.65v21.85H.21Z"/>
  <path class="st1" d="M30.02,67.18v-20.78h-7.31v-4.3h19.34v4.3h-7.31v20.78h-4.73Z"/>
  <path class="st1" d="M53.81,67.68c-3.1,0-5.56-.87-7.38-2.6s-2.72-4.21-2.72-7.43v-6.02c0-3.22.91-5.7,2.72-7.43,1.81-1.73,4.27-2.6,7.38-2.6s5.46.84,7.15,2.53c1.68,1.68,2.53,3.99,2.53,6.93v.21h-4.66v-.36c0-1.48-.41-2.7-1.24-3.65-.82-.96-2.08-1.43-3.78-1.43s-2.99.51-3.94,1.54c-.96,1.03-1.43,2.42-1.43,4.19v6.16c0,1.74.48,3.13,1.43,4.17.95,1.04,2.27,1.56,3.94,1.56s2.96-.48,3.78-1.45c.82-.97,1.24-2.18,1.24-3.64v-.64h4.66v.5c0,2.94-.84,5.25-2.53,6.93-1.68,1.68-4.07,2.53-7.15,2.53Z"/>
  <path class="st1" d="M65.34,67.18l6.59-25.08h8.24l6.59,25.08h-4.87l-1.36-5.52h-8.96l-1.36,5.52h-4.87ZM72.69,57.29h6.73l-3.04-12.22h-.65l-3.04,12.22Z"/>
  <path class="st1" d="M89.77,67.18v-25.08h8.78l4.33,21.85h.64l4.33-21.85h8.78v25.08h-4.59v-21.6h-.65l-4.3,21.6h-7.81l-4.3-21.6h-.65v21.6h-4.59Z"/>
  <path class="st1" d="M134.45,62.24l-2.9-2.9,4.73-4.69-4.73-4.69,2.9-2.9,4.76,4.69,4.76-4.69,2.9,2.9-4.73,4.69,4.73,4.69-2.9,2.9-4.76-4.69-4.76,4.69Z"/>
  <path class="st1" d="M166.51,67.18v-20.78h-7.31v-4.3h19.34v4.3h-7.31v20.78h-4.73Z"/>
  <path class="st1" d="M181.77,67.18v-25.08h15.76v4.3h-11.03v6.05h10.17v4.3h-10.17v10.42h-4.73Z"/>
  <path class="st1" d="M197.6,67.18l6.59-25.08h8.24l6.59,25.08h-4.87l-1.36-5.52h-8.96l-1.36,5.52h-4.87ZM204.95,57.29h6.73l-3.04-12.22h-.65l-3.04,12.22Z"/>
  <path class="st1" d="M222.03,67.18v-25.08h4.73v25.08h-4.73Z"/>
  <path class="st1" d="M242.45,60.63c-.31,1.24-.92,3.28-1.65,4.74-.06.18-.2.23-.39.15-.22-.08-.48-.18-1.12-.38-.11-.02-.14-.1-.11-.18.92-1.66,1.74-4.08,1.93-5.9.03-.15.11-.23.28-.23.36.05.81.15,1.2.25.25.08.28.18.2.4-.08.18-.11.35-.17.53-.06.2-.11.38-.17.61ZM248.25,52.49c.31,1.59.87,3.35,1.46,4.89.03.13,0,.2-.14.2-.36.13-.73.28-1.12.35-.17.03-.28-.03-.36-.2l-.31-.91-2.13.23v.45c0,.73.03,6.35.08,9.25,0,.18-.08.25-.25.25-.45.03-.98.03-1.4,0-.2-.02-.28-.1-.28-.25.06-3.58.03-8.65.03-9.23v-.33l-3.14.25c-.08.02-.2.02-.34.05-.17.03-.31.05-.42.08-.28.08-.36,0-.45-.25-.08-.4-.14-.93-.14-1.36,0-.13.06-.18.2-.18.7,0,1.51,0,2.35-.05.5-.66,1.04-1.44,1.54-2.27-1.12-1.39-2.69-2.85-3.98-3.86-.14-.1-.14-.23-.06-.35.22-.35.48-.66.7-.93.11-.13.22-.15.36-.05l1.06.88c.92-1.54,1.85-3.45,2.35-4.92.06-.18.17-.2.31-.18.39.13.9.28,1.29.43.22.1.22.23.11.43-.08.13-.14.23-.2.33-.11.2-.22.35-.31.58-.62,1.26-1.48,3-2.32,4.41.59.55,1.15,1.11,1.65,1.66.9-1.56,1.74-3.15,2.27-4.44.06-.15.17-.23.31-.18.39.15.87.33,1.23.53.25.1.25.2.08.43-.08.15-.2.3-.25.43-.14.2-.25.4-.39.66-.95,1.74-2.38,4.23-3.72,6.3,1.18-.1,2.35-.2,3.39-.35-.25-.83-.45-1.66-.62-2.42-.03-.15.06-.28.22-.33.28-.1.64-.18.98-.25.2-.05.31.03.34.2ZM248.19,58.79c.28,1.36.73,2.87,1.23,4.21.03.1-.03.18-.14.2-.36.1-.78.23-1.15.3-.17.02-.28-.05-.36-.2-.45-1.41-.81-2.87-1.06-4.18-.06-.15,0-.25.17-.3.31-.08.64-.15.98-.23.2-.03.31.03.34.2ZM264.99,64.89c0,.38,0,.91-.03,1.29,0,.18-.08.25-.25.23-1.54-.03-4.96,0-8.01,0s-5.46-.03-7.92.1c-.17,0-.25-.05-.28-.23-.06-.43-.06-1.01-.06-1.41,0-.18.08-.25.25-.25,2.21.15,4.28.15,6.92.15.03-1.94.03-4.01-.03-5.29-2.02,0-3.72,0-5.46.08-.17.03-.28-.05-.28-.2-.06-.43-.06-.98-.06-1.39,0-.15.08-.2.25-.2,2.13.13,4.09.13,6.72.13,2.46,0,5.38-.02,6.72-.1.17,0,.25.08.28.23,0,.35,0,.88-.03,1.24,0,.18-.08.25-.25.25l-5.82-.02c-.06,1.29-.06,3.35-.03,5.29,2.74,0,5.71-.03,7.08-.1.17,0,.25.08.28.23ZM252.76,57.03c-1.32-1.92-2.58-3.5-4.03-5.02-.14-.13-.14-.23-.03-.33.25-.23.56-.45.84-.63.11-.1.25-.08.39.03l.39.4c.81-1.18,1.62-2.6,2.16-3.78.06-.15.17-.2.31-.15.39.1.84.23,1.2.38.25.1.25.2.11.38-.08.1-.14.18-.2.28-.11.15-.22.3-.34.5-.59,1.01-1.43,2.42-2.24,3.5,1.04,1.18,2.02,2.39,2.88,3.55.08.13.08.23-.06.33-.31.25-.67.48-1.04.63-.14.08-.25.05-.36-.08ZM264.55,45.36c0,.38,0,.93-.03,1.34,0,.15-.08.23-.25.23-1.46-.03-4.59-.05-7.39-.05s-5.01,0-7.28.13c-.17,0-.28-.08-.31-.23-.03-.4-.06-1.03-.03-1.46,0-.15.08-.2.25-.2,2.32.15,4.45.13,7.36.13,2.74,0,5.94-.02,7.39-.1.17,0,.28.08.28.23ZM257.55,56.75c-1.32-1.87-2.6-3.38-4.06-4.87-.14-.1-.14-.2,0-.33.22-.23.5-.45.78-.63.14-.08.25-.08.39.05l.39.4c.81-1.13,1.62-2.5,2.18-3.66.06-.13.14-.18.31-.15.36.1.84.25,1.18.4.25.08.25.18.11.38-.08.1-.14.2-.2.28-.11.18-.25.3-.36.5-.56.93-1.4,2.24-2.18,3.33,1.04,1.13,2.02,2.29,2.88,3.43.08.1.08.2-.03.33-.34.25-.7.45-1.01.63-.17.05-.31.03-.39-.1ZM262.73,56.85c-1.51-1.92-2.91-3.5-4.45-5.04-.11-.1-.11-.23,0-.33.25-.25.5-.48.78-.68.11-.08.25-.08.36.05l.36.35c.84-1.11,1.68-2.39,2.27-3.5.06-.13.17-.15.31-.13.39.13.84.3,1.2.45.25.1.22.2.08.4-.11.08-.17.18-.22.25-.14.15-.22.3-.36.48-.59.88-1.46,2.09-2.24,3.1,1.15,1.21,2.27,2.45,3.3,3.68.08.1.08.23-.03.3-.31.28-.64.5-1.01.68-.14.05-.25.05-.36-.08Z"/>
  <path class="st1" d="M279.02,63.76c-1.88,1.16-4.56,2.52-6.94,3.4-.22.05-.45.03-.64-.13-.2-.23-.42-.45-1.09-.98-.11-.1-.11-.18.06-.2,2.69-.81,6.24-2.52,8.12-3.96.17-.1.28-.1.45-.03.42.23.95.55,1.34.86.22.15.17.25-.08.38-.17.08-.31.15-.45.23-.25.13-.48.28-.76.43ZM295.51,59.72c.03.4,0,.93,0,1.34-.03.15-.11.23-.28.23-2.16-.03-7.45-.03-12.21-.03s-8.46-.05-12.15.15c-.17,0-.25-.08-.28-.23-.03-.43-.06-1.08-.06-1.49,0-.18.08-.25.28-.23l2.6.13v-.28c0-3.13.03-9.25.03-11.09-.03-.63-.03-1.08-.06-1.36-.03-.15.06-.25.22-.25.48-.03,1.12-.03,1.62.03.17.03.25.13.22.28-.03.3-.08.71-.08,1.29v.1h3.7v-2.8c0-.28-.03-.63-.06-1.08,0-.15.08-.23.25-.23.5-.03,1.15-.03,1.6.03.17.03.22.13.22.28-.06.48-.06.78-.06,1.01v2.8h3.72v-2.77c0-.28-.03-.66-.06-1.08,0-.18.06-.25.25-.25.5,0,1.15,0,1.6.05.17,0,.25.1.25.25-.06.48-.08.78-.08,1.03v2.77h3.92v-.08c-.03-.63-.03-1.08-.06-1.36-.03-.15.03-.25.2-.25.5-.03,1.18-.03,1.68.03.17.03.22.13.22.28-.03.3-.08.71-.11,1.29v11.34l2.66-.05c.17,0,.25.08.28.23ZM275.38,53.88h3.72v-3.96h-3.72v3.96ZM279.11,59.62v-4.16h-3.72v4.16h3.72ZM281.01,53.88h3.78v-3.96h-3.78v3.96ZM283.03,59.62h1.76v-4.16h-3.78v4.16h2.02ZM287.48,61.87c2.1,1.31,5.15,2.8,7.9,3.86.14.03.17.1.06.18-.31.33-.73.76-1.12,1.06-.17.13-.36.13-.56.05-2.66-1.11-5.54-2.6-7.7-3.98-.14-.08-.14-.18-.03-.28.31-.28.73-.63,1.06-.86.11-.1.25-.13.39-.03ZM286.69,49.92v3.96h3.92l.03-3.96h-3.95ZM290.61,59.32v-3.86h-3.92v4.16l3.92-.05v-.25Z"/>
  <path class="st1" d="M305.76,63.2c-.73.91-1.9,2.12-3,2.97-.17.13-.36.15-.53.02-.25-.15-.42-.33-1.12-.68-.11-.05-.11-.13-.03-.2,1.4-.93,2.74-2.27,3.56-3.53.08-.13.2-.15.34-.1.39.13.87.33,1.29.55.22.13.22.23.03.4l-.17.15c-.11.13-.22.23-.36.4ZM304.7,52.62h-1.2c-.17,0-.25-.08-.25-.23v-6.53c0-.4-.03-.91-.03-1.24,0-.15.06-.23.22-.23.42-.03.95-.03,1.37,0,.17.02.25.1.25.25l-.03.55h8.34l-.03-.58c-.03-.15.06-.23.25-.23.45-.03.95-.03,1.37,0,.17.02.25.1.25.25-.03.33-.06.83-.06,1.21v6.53c0,.15-.08.23-.25.23h-1.23c-.17,0-.25-.08-.25-.23v-.63h-3.39c.06.03.08.1.06.18-.03.18-.06.28-.06.43l-.06,1.03c2.58,0,5.29-.05,6.64-.1.17,0,.25.08.25.23.03.33.03.76,0,1.08-.03.15-.11.23-.28.23-1.48-.03-4.73,0-7.62,0s-5.24-.03-7.5.1c-.17,0-.25-.1-.28-.25-.06-.35-.08-.83-.06-1.18,0-.15.08-.23.25-.23,2.1.13,4.14.13,6.72.13l-.03-1.03c0-.15-.03-.3-.03-.48l.03-.13h-3.14v.63c0,.15-.08.23-.25.23ZM305.09,61.44h-1.2c-.2,0-.28-.08-.28-.25v-5.39c0-.15.08-.23.25-.23.39,0,.87,0,1.26.02.17,0,.25.08.25.23l-.03.3h7.67v-.33c0-.15.08-.23.25-.23.42,0,.9,0,1.29.02.17,0,.25.08.25.23-.03.33-.03.81-.03,1.06v4.29c0,.18-.08.25-.25.25h-1.23c-.17,0-.25-.08-.25-.25v-.53h-2.8v.08c-.08.43-.11.68-.11.88-.03.66-.03,1.76-.03,3.6,0,1.16-.48,1.69-1.74,1.76-.67.03-1.15,0-1.6-.03-.34-.05-.53-.2-.62-.48-.08-.3-.2-.63-.31-.91-.06-.13,0-.18.17-.18.5.1,1.01.15,1.62.13.48-.03.67-.18.67-.71.03-1.24.03-2.75,0-3.43,0-.13-.03-.23-.03-.35-.03-.15-.03-.25-.03-.38h-2.91v.55c0,.18-.08.25-.25.25ZM305.01,46.46v1.31h8.37v-1.31h-8.37ZM313.38,49.01h-8.37v1.46h8.37v-1.46ZM305.34,57.46v1.81h7.7v-1.81h-7.7ZM313.15,61.77c.76.88,1.6,1.81,2.44,2.55.08.1.08.18-.03.23-.31.2-.67.43-1.04.63-.22.13-.39.08-.59-.08-.7-.71-1.62-1.71-2.27-2.55-.08-.13-.08-.23.06-.35.36-.18.73-.38,1.06-.5.17-.08.28-.05.36.08ZM326.06,59.93c-2.55,2.75-6.05,5.55-9.66,7.01-.22.08-.45.08-.62-.08-.22-.2-.45-.45-1.15-.96-.11-.08-.11-.13.03-.18,3.95-1.41,7.95-4.49,10.42-7.61.08-.1.2-.15.34-.08.39.2.92.53,1.32.81.2.18.17.28-.03.45l-.25.23c-.11.1-.25.23-.39.4ZM324.61,46.21c-1.74,1.61-4.51,3.71-6.94,5.04-.22.13-.42.1-.62-.05-.2-.2-.39-.45-1.12-.98-.08-.08-.08-.15.06-.2,2.8-1.34,5.88-3.58,7.64-5.52.08-.1.2-.13.36-.08.39.25.87.55,1.29.86.2.15.17.25-.06.4-.08.08-.14.13-.2.15-.14.13-.28.23-.42.38ZM325.03,53.09c-1.79,1.69-4.65,3.86-7.25,5.27-.22.1-.42.08-.62-.08-.2-.18-.39-.45-1.09-.96-.08-.08-.08-.13.06-.18,2.97-1.44,6.22-3.81,8.01-5.82.08-.1.22-.1.34-.03.39.2.87.55,1.26.86.17.15.17.28-.06.43-.08.05-.17.1-.22.15-.11.1-.25.23-.42.35Z"/>
  <path class="st1" d="M355.49,52.29c-.42.03-1.01.03-1.46,0-.17-.03-.25-.1-.25-.25v-.78h-17.47l-.03,2.92c-.03,3.71-.7,9.28-2.66,12.63-.14.23-.34.3-.62.2-.25-.13-.48-.3-1.26-.6-.17-.08-.2-.15-.11-.28,2.02-3.15,2.58-8.09,2.69-11.9.06-2.07.03-5.7-.06-7.84-.03-.58-.06-1.21-.14-1.71,0-.15.08-.23.25-.25.53,0,1.26,0,1.79.05.2,0,.28.1.25.25l-.06.66h17.42l-.03-.71c-.03-.15.03-.25.22-.25.48-.02,1.12-.02,1.6.03.17.03.28.13.25.28-.06.45-.08.93-.08,1.44v5.87c0,.15-.08.23-.25.25ZM354.85,61.39c-.87.55-2.13,1.29-3.33,1.89,1.71,1.08,3.75,1.92,6.02,2.39.11.05.14.1.06.18-.62.58-.81.88-1.06,1.11-.17.13-.36.18-.53.1-4.17-1.08-7.76-3.5-9.94-6.78-.08-.13-.06-.23.08-.28.34-.2.78-.38,1.15-.53h-4.98v4.84c1.82-.33,3.64-.71,5.07-1.08.08-.03.14,0,.14.1.06.55.08.91.11,1.18,0,.2-.11.33-.34.38-2.77.68-6.36,1.31-9.38,1.82l-.34.08c-.2.03-.36.1-.5.15-.25.08-.36.03-.48-.2-.17-.4-.34-.96-.39-1.41-.03-.1.06-.18.17-.18,1.18-.1,2.55-.28,4-.5v-5.14c-1.26,0-2.46.05-3.67.1-.17,0-.28-.08-.28-.23-.06-.38-.08-.98-.08-1.39,0-.15.11-.23.28-.2,1.74.1,3.42.13,5.32.15v-2.65c-1.54,0-2.97.03-4.4.1-.17,0-.25-.05-.28-.2-.03-.4-.06-.98-.06-1.36,0-.15.08-.2.28-.2,1.46.08,2.88.1,4.45.13l-.03-1.26c-.03-.23-.06-.43-.08-.63,0-.15.08-.23.25-.23.48-.03,1.18-.03,1.65.03.17,0,.25.1.22.25-.06.2-.08.38-.08.58l-.03,1.26h5.24l-.03-1.26c0-.23-.03-.43-.06-.63,0-.15.06-.23.25-.23.48-.03,1.18-.03,1.68.03.17,0,.25.1.22.25-.06.2-.08.38-.08.58l-.06,1.24,4.56-.08c.2-.03.28.05.28.2.03.38.03.86,0,1.24,0,.15-.08.23-.28.23-.95-.03-2.66-.03-4.56-.03v2.62c2.38-.03,4.51-.08,5.66-.13.17.03.25.1.25.25.03.35.03.86,0,1.24-.03.15-.11.23-.28.23l-9.02-.02s.06.02.08.08c.64.98,1.46,1.89,2.41,2.7,1.43-.68,3.02-1.61,4.14-2.52.11-.1.25-.1.36-.03.36.23.84.55,1.18.83.2.18.14.25-.08.35-.11.08-.22.13-.31.18-.2.1-.36.2-.56.33ZM336.34,49.64h17.44v-2.67h-17.42l-.03,2.67ZM346.53,55.29h-2.72v2.65h5.26l.03-2.65h-2.58Z"/>
</svg>