<?xml version="1.0" encoding="UTF-8"?>
<svg id="_圖層_1" data-name="圖層_1" xmlns="http://www.w3.org/2000/svg" version="1.1" viewBox="0 0 170.44 67.77">
  <!-- Generator: Adobe Illustrator 29.8.2, SVG Export Plug-In . SVG Version: 2.1.1 Build 3)  -->
  <defs>
    <style>
      .st0 {
        fill: #fff;
      }

      .st1 {
        fill: #cedd4a;
      }
    </style>
  </defs>
  <path class="st0" d="M22.55,13.1c.03.35.03.78,0,1.13-.03.15-.11.23-.28.23-1.68-.03-5.12-.03-7.95-.03h-.64v2.24c3.02,0,6.3-.05,7.78-.13.17,0,.28.08.28.23.03.35.03.81,0,1.16,0,.15-.11.23-.28.23h-7.78l.03,2.65c4.34,0,8.9-.05,10.84-.13.2,0,.28.08.31.23,0,.38,0,.88-.03,1.29,0,.15-.08.23-.28.23-2.13-.05-7.42-.03-12.12-.03s-8.4-.05-12.07.15c-.17,0-.25-.08-.28-.23-.06-.4-.08-1.03-.06-1.46,0-.15.08-.2.25-.2,3.47.2,6.83.15,11.37.15l.03-2.65c-2.74,0-5.01,0-7.25.1-.17,0-.25-.08-.28-.23-.03-.38-.06-.91-.06-1.29.03-.15.11-.23.28-.2,2.3.13,4.51.13,7.31.13v-2.24h-6.5c-.9,1.03-1.93,2.04-2.94,2.8-.22.15-.42.18-.64.03s-.48-.35-1.26-.76c-.11-.08-.11-.13-.03-.18,2.04-1.36,3.92-3.38,5.04-5.32h-1.04c-.2,0-.28-.08-.28-.23V2.14c0-.53-.03-1.13-.03-1.51-.03-.15.08-.25.25-.25.48,0,1.12,0,1.6.02.17.03.25.1.25.25l-.03.68h13.08l-.03-.71c-.03-.15.06-.25.22-.25.48,0,1.15,0,1.65.02.17.03.22.1.22.25-.03.4-.06.98-.06,1.46v8.7c0,.15-.08.23-.25.23-.48.03-1.06.03-1.51,0-.2,0-.28-.08-.28-.23v-.66H6.03v.48c.42.1.9.25,1.34.4.25.1.25.2.08.4-.06.08-.11.15-.17.2-.11.15-.2.28-.34.45l-.59.86h5.29l-.03-1.24c-.03-.28-.06-.53-.08-.78-.03-.15.06-.23.22-.25.53,0,1.32.03,1.85.05.17.02.22.13.22.28-.06.25-.08.43-.11.71l-.03,1.24h.62c2.8,0,6.3-.03,7.95-.08.17,0,.25.08.28.23ZM6.03,2.84v2.09h13.1v-2.09H6.03ZM19.11,6.4H6.03v2.24h13.08v-2.24Z"/>
  <path class="st0" d="M42.32,2.29c-1.06.15-2.27.28-3.5.4v1.87c2.18,0,4.45-.02,5.6-.1.17.03.25.1.25.25v1.08c-.03.15-.11.23-.28.2h-5.57v1.59h3.44v-.38c0-.15.08-.23.25-.23h1.2c.2.03.28.1.28.25-.03.3-.03.73-.03,1.03v7.21c0,.15-.08.23-.28.23h-1.15c-.17,0-.25-.08-.25-.23v-.45h-3.47v1.66c1.93-.03,3.95-.05,5.04-.1.17,0,.25.08.25.23.03.33.03.76,0,1.11,0,.15-.08.23-.25.23l-5.04-.02v1.89c1.96-.2,3.86-.45,5.4-.73.11,0,.17.03.17.13l-.06,1.01c2.77-3.2,3.44-7.66,3.53-12.88-.95.03-1.9.05-2.86.1-.17,0-.28-.08-.28-.23-.03-.43-.06-1.06-.06-1.44.03-.15.11-.23.28-.23.98.08,1.96.1,2.94.13l-.06-2.67c0-.96-.11-1.87-.17-2.45,0-.15.06-.23.22-.25.53-.03,1.29,0,1.82.05.25.05.34.15.25.4-.06.3-.08.55-.11.83,0,.28-.03.5-.03.83l-.03,3.25h3.39l-.06-1.34c0-.15.08-.25.25-.25.45-.03,1.06-.03,1.54,0,.17.02.25.13.22.28-.03.25-.03.45-.06.66v.81c-.08,3.43-.06,10.94-.87,15.25-.28,1.18-.9,1.66-2.32,1.69-.81,0-1.48-.05-2.1-.15-.31-.05-.42-.18-.45-.5,0-.23-.03-.53-.22-1.23,0-.1.06-.15.2-.13.64.15,1.26.23,1.99.25.7,0,1.06-.25,1.2-.91.53-2.87.76-8.55.7-12.76h-3.47c-.25,7.11-1.37,12.23-5.54,15.53-.17.15-.39.18-.59.03-.25-.13-.48-.33-1.15-.68-.11-.08-.14-.15-.03-.25.56-.4,1.04-.83,1.48-1.31-3.5.55-7.87.96-11.7,1.29-.14,0-.28.05-.42.05-.22.03-.42.1-.59.13-.28.08-.39.03-.5-.23-.14-.35-.31-.86-.31-1.31-.03-.13.03-.18.2-.18,1.82-.05,4.09-.2,6.41-.4v-2.07c-1.96,0-3.72,0-5.38.08-.17,0-.25-.05-.28-.2-.03-.38-.06-.86-.03-1.21,0-.15.08-.23.25-.23,1.71.1,3.36.13,5.43.13v-1.66h-3.47v.45c0,.15-.08.23-.25.23h-1.15c-.17,0-.25-.08-.25-.23v-7.18c0-.35-.03-.78-.03-1.08,0-.15.08-.23.25-.23h1.23c.17.03.25.1.22.25v.35h3.44v-1.59c-2.27,0-4.2,0-6.05.1-.17,0-.25-.08-.28-.23-.03-.38-.06-.86-.06-1.21.03-.15.11-.23.28-.2,1.88.13,3.75.1,6.1.1v-1.71c-1.79.15-3.58.28-5.26.33-.25,0-.39-.1-.48-.3-.08-.23-.17-.48-.45-1.03-.06-.1,0-.18.14-.18,3.58.08,8.93-.35,12.01-.98.17-.02.28.03.39.15.22.28.48.66.67.98.11.23.03.3-.25.33-.22,0-.39.03-.56.05-.28.03-.56.05-.9.1ZM33.53,8.92v1.66h3.53v-1.66h-3.53ZM37.05,11.87h-3.53v1.82h3.53v-1.82ZM38.73,10.58h3.56v-1.66h-3.56v1.66ZM42.29,13.68v-1.82h-3.56v1.82h3.56Z"/>
  <path class="st0" d="M86.08,10.56c.03.38.03.86,0,1.24-.03.15-.11.23-.28.23-2.1-.03-7.28-.03-11.93-.03h-5.99l.39.18c.22.1.22.2.03.4-.06.08-.11.15-.17.2-.11.13-.2.25-.34.43l-.42.61h4.48l.39-.81c.06-.13.17-.2.31-.15.42.1.92.28,1.34.45.22.1.25.2.08.4-.11.13-.2.25-.28.38-.11.13-.2.28-.31.48-.87,1.61-2.02,3.15-3.47,4.51.78.63,1.6,1.24,2.41,1.79.11.05.11.13.03.23-.34.28-.7.58-1.06.81-.17.13-.34.1-.48,0-.73-.53-1.48-1.13-2.18-1.71-1.54,1.18-3.36,2.22-5.49,2.97-.22.08-.42.03-.62-.1-.2-.18-.36-.4-1.01-.86-.11-.08-.11-.13.03-.18,2.27-.71,4.23-1.71,5.85-2.95-.67-.6-1.29-1.23-1.85-1.81-.11-.1-.11-.2.03-.33.25-.23.62-.5.92-.71.17-.1.28-.08.39.05.53.55,1.12,1.13,1.76,1.71.92-.83,1.68-1.76,2.32-2.72h-4.79c-1.06,1.21-2.32,2.42-3.61,3.35-.2.13-.39.13-.56,0-.2-.18-.36-.35-1.01-.76-.11-.08-.11-.13,0-.18,2.32-1.54,4.4-3.73,5.49-5.7-1.57.03-3.02.08-4.51.15-.17.03-.25-.08-.28-.23-.06-.38-.06-.98-.06-1.39,0-.15.08-.23.25-.23,1.34.08,2.66.13,4.03.15v-2.6c-1.01.03-2.66.05-4.23.15-.17,0-.25-.1-.28-.25-.03-.38-.03-.96-.03-1.34,0-.15.08-.23.25-.2,1.6.08,3.28.1,4.28.13v-2.14c-.73.63-1.48,1.24-2.24,1.71-.2.1-.39.1-.59-.02-.2-.15-.36-.35-1.01-.76-.11-.05-.11-.1,0-.18,2.13-1.19,4.14-3.05,5.32-4.82.08-.13.2-.18.34-.13.42.13.9.3,1.32.48.25.1.25.2.06.38l-.2.18c-.14.13-.22.25-.36.4l-.64.78h8.71c2.94,0,6.64-.03,8.34-.05.17-.03.28.08.28.2.03.35.03.81,0,1.16,0,.15-.11.23-.28.23h-2.97v2.57c1.06-.03,3.02-.05,4.26-.13.17,0,.28.08.28.23.03.35.03.88,0,1.26-.03.18-.11.25-.28.23-1.23-.05-3.19-.08-4.26-.08v2.57l3.78-.08c.17-.02.25.05.28.2ZM67.77,6.35h2.91v-2.57h-2.91v2.57ZM67.77,10.46h2.91v-2.6h-2.91v2.6ZM86,14.01c.03.3,0,.76,0,1.11-.03.15-.11.2-.28.2h-3.39v3.23c1.68-.02,3.22-.05,4.12-.1.17,0,.25.08.28.25v1.13c-.03.18-.11.25-.28.23l-4.12-.03v2.85c0,.15-.08.23-.25.25-.42.03-.92.03-1.32,0-.17-.03-.25-.1-.25-.25v-2.85h-1.01c-2.6,0-4.73,0-6.83.1-.17.02-.28-.05-.28-.2-.03-.4-.06-.91-.06-1.29.03-.15.11-.23.28-.2,1.04.05,2.04.08,3.14.1v-3.2l-1.54.05c-.17,0-.25-.08-.28-.23-.06-.35-.06-.86-.06-1.21,0-.15.08-.23.25-.2,1.82.1,3.56.1,5.8.1h.59c0-.5-.03-.96-.06-1.34-.03-.15.06-.23.22-.25.48,0,1.04,0,1.48.05.2,0,.25.1.25.25l-.08,1.29,3.42-.08c.17-.03.25.05.25.23ZM72.42,6.35h3.05v-2.57h-3.05v2.57ZM72.42,10.46h3.05v-2.6h-3.05v2.6ZM77.21,6.35h2.97v-2.57h-2.97v2.57ZM77.21,10.46l2.97-.03v-2.57h-2.97v2.6ZM80.51,15.32h-3.08v3.23h3.08v-3.23Z"/>
  <path class="st0" d="M110.13,2.87c1.99,2.37,4.9,5.32,7.48,7.51.11.1.08.18,0,.23-.42.28-.9.66-1.34.88-.22.13-.42.08-.59-.08-.84-.78-1.71-1.61-2.58-2.47-5.63.68-12.6,1.06-18.59,1.29-.17,0-.34.03-.53.03-.36.05-.67.1-.95.18-.25.08-.39,0-.48-.25-.11-.45-.22-1.16-.22-1.66,0-.15.06-.2.22-.2,1.37.02,2.94.02,4.62-.03,1.96-2.55,3.58-5.22,4.45-7.01.17-.3.25-.55.45-.96.06-.15.17-.2.34-.18.53.1,1.26.28,1.76.45.2.08.22.2.11.35-.22.35-.5.76-.7,1.08-.92,1.61-2.35,3.98-3.89,6.18,4.09-.15,8.43-.48,11.84-.88-1.12-1.21-2.21-2.42-3.11-3.5-.11-.13-.08-.23.06-.33.36-.23.87-.53,1.26-.73.17-.05.28-.03.39.1ZM98.23,23.13c-.48.03-1.12.03-1.57,0-.17,0-.25-.08-.25-.23v-8.95c0-.58-.03-1.51-.03-1.99-.03-.18.06-.25.25-.25h1.65c.17.03.22.13.22.28l-.03.96h12.88l-.03-.98c0-.18.08-.25.25-.25h1.68c.17.03.25.13.22.28-.03.5-.06,1.36-.06,1.94v6.58c0,.78,0,1.69.03,2.34,0,.18-.08.25-.25.25h-1.6c-.17,0-.25-.08-.25-.25v-1.26h-12.91v1.31c.03.15-.06.23-.22.23ZM98.46,14.72v5.09h12.91v-5.09h-12.91Z"/>
  <path class="st1" d="M.78,67.27v-25.08h8.99l4.98,21.85h.64v-21.85h4.66v25.08h-8.99l-4.98-21.85h-.65v21.85H.78Z"/>
  <path class="st1" d="M34.53,67.77c-3.15,0-5.66-.87-7.52-2.6s-2.79-4.21-2.79-7.43v-6.02c0-3.22.93-5.7,2.79-7.43,1.86-1.73,4.37-2.6,7.52-2.6s5.66.87,7.52,2.6c1.86,1.73,2.79,4.21,2.79,7.43v6.02c0,3.22-.93,5.7-2.79,7.43s-4.37,2.6-7.52,2.6ZM34.53,63.54c1.77,0,3.14-.51,4.12-1.54.98-1.03,1.47-2.4,1.47-4.12v-6.3c0-1.72-.49-3.09-1.47-4.12-.98-1.03-2.35-1.54-4.12-1.54s-3.11.51-4.1,1.54c-.99,1.03-1.49,2.4-1.49,4.12v6.3c0,1.72.5,3.09,1.49,4.12.99,1.03,2.36,1.54,4.1,1.54Z"/>
  <path class="st1" d="M53.15,67.27l-6.38-25.08h4.87l5.3,22.03h.5l5.3-22.03h4.87l-6.38,25.08h-8.1Z"/>
  <path class="st1" d="M67.27,67.27l6.59-25.08h8.24l6.59,25.08h-4.87l-1.36-5.52h-8.96l-1.36,5.52h-4.87ZM74.61,57.38h6.73l-3.04-12.22h-.65l-3.04,12.22Z"/>
  <path class="st1" d="M107.57,67.77c-2.58,0-4.63-.7-6.14-2.11-1.52-1.41-2.27-3.38-2.27-5.91v-2.36h4.73v2.36c0,1.12.31,2,.93,2.63.62.63,1.49.95,2.62.95,1.05,0,1.87-.31,2.45-.93.58-.62.88-1.5.88-2.65v-13.25h-4.3v-4.3h11.89v4.3h-2.87v13.25c0,2.6-.7,4.59-2.11,5.96-1.41,1.37-3.34,2.06-5.8,2.06Z"/>
  <path class="st1" d="M119.14,67.27l6.59-25.08h8.24l6.59,25.08h-4.87l-1.36-5.52h-8.96l-1.36,5.52h-4.87ZM126.49,57.38h6.73l-3.04-12.22h-.65l-3.04,12.22Z"/>
  <path class="st1" d="M143.57,67.27v-25.08h8.78l4.33,21.85h.64l4.33-21.85h8.78v25.08h-4.59v-21.6h-.65l-4.3,21.6h-7.81l-4.3-21.6h-.65v21.6h-4.59Z"/>
</svg>