<?xml version="1.0" encoding="UTF-8"?>
<svg id="_圖層_1" data-name="圖層_1" xmlns="http://www.w3.org/2000/svg" version="1.1" viewBox="0 0 217.82 74.36">
  <!-- Generator: Adobe Illustrator 29.8.2, SVG Export Plug-In . SVG Version: 2.1.1 Build 3)  -->
  <defs>
    <style>
      .st0 {
        fill: #fff;
      }

      .st1 {
        fill: #cedd4a;
      }
    </style>
  </defs>
  <path class="st0" d="M25.06,16.44c0,.35,0,.86-.03,1.21,0,.15-.08.23-.25.23h-6.19v3.15c-.03,1.36-.62,1.97-2.16,2.07-1.04.05-1.82,0-2.55-.05-.34-.02-.53-.2-.62-.48-.11-.35-.22-.73-.34-1.03-.06-.15,0-.2.17-.18.81.13,1.74.15,2.74.13.56-.03.84-.18.81-.78v-2.82h-4.12c-4.96,0-8.54-.08-12.21.13-.17.03-.25-.05-.25-.2-.06-.43-.08-1.01-.08-1.41,0-.15.08-.23.28-.2,3.67.2,7.25.15,12.26.15h4.09v-.5c-.03-.35-.06-.63-.08-.81-.03-.15.06-.23.22-.23.53-.03,1.15,0,1.76.03.17.02.25.13.2.28-.08.43-.11.68-.11.91v.3c2.63-.03,4.93-.05,6.16-.1.17,0,.25.08.28.23ZM1.34,15.23c-.2.02-.36.08-.53.1-.25.08-.36,0-.48-.23-.11-.38-.2-.86-.22-1.26-.03-.1.03-.18.17-.18,1.43-.03,3.19-.13,5.01-.3v-2.57c-1.46,0-2.86.02-4.14.08-.17,0-.25-.08-.28-.23-.03-.35-.06-.81-.06-1.13,0-.15.08-.23.25-.23,1.62.13,3.19.1,5.15.1,1.82,0,4-.03,5.15-.08.17,0,.25.08.28.23,0,.3,0,.73-.03,1.06,0,.15-.08.23-.25.23l-4.17-.02v2.34c1.71-.2,3.33-.45,4.68-.73.11-.03.14.02.14.1,0,.48.03.78.03,1.03-.03.18-.14.3-.34.33-3,.58-6.75,1.01-9.97,1.31-.14,0-.25.03-.39.05ZM20.69,8.87c-.45.05-1.06.05-1.51,0-.17-.03-.28-.1-.28-.25v-.55h-7.25c-2.72,0-5.74-.03-8.34.13-.17,0-.28-.05-.28-.23-.03-.35-.06-.86-.06-1.24,0-.15.11-.23.28-.2,2.74.18,5.57.13,8.4.13h7.28v-1.51h-6.75c-2.52,0-5.4-.03-7.81.1-.17,0-.25-.05-.28-.2-.03-.35-.06-.81-.06-1.13,0-.15.11-.23.28-.23,2.58.15,5.21.13,7.87.13h6.75v-1.39h-6.97c-2.63,0-5.57,0-8.09.13-.17,0-.25-.08-.28-.23-.03-.35-.06-.83-.03-1.19,0-.15.08-.23.25-.23,2.66.15,5.4.13,8.15.13h6.94l-.03-.5c-.03-.15.06-.23.22-.25.53-.03,1.18,0,1.68.05.2.03.25.1.22.25-.03.28-.06.53-.08.91,0,1.89,0,4.97.03,7.13,0,.15-.08.23-.25.25ZM10.22,21.93c-1.54-1.08-2.97-1.92-4.48-2.7-.14-.08-.17-.18-.06-.3.25-.3.59-.6.9-.88.11-.1.25-.13.39-.05,1.48.76,2.94,1.59,4.62,2.62.14.08.17.18.06.3-.31.38-.7.73-1.04.98-.14.13-.25.13-.39.03ZM14.76,15.12c-.42.03-.84.03-1.26,0-.17,0-.25-.08-.25-.23v-5.72c0-.15.08-.23.25-.23.42,0,.87,0,1.29.03.17,0,.25.08.25.23v.38h6.55v-.4c0-.15.08-.23.28-.23.39,0,.87,0,1.29.03.17,0,.25.08.25.23-.03.33-.06.83-.06,1.11v3.08c0,.43,0,1.01.03,1.41,0,.15-.08.23-.25.23h-1.26c-.17,0-.28-.08-.28-.23v-.63h-6.58v.73c0,.15-.08.23-.25.23ZM15.01,10.89v1.94h6.58v-1.94h-6.58Z"/>
  <path class="st0" d="M40.94,12.63c-.56,5.9-3.28,8.54-8.71,10.49-.25.13-.5.08-.73-.1-.22-.23-.39-.48-1.23-1.08-.11-.05-.11-.13.03-.18,5.91-1.69,8.4-4.66,8.62-9.91-2.77,0-5.1.03-7.59.15-.17.02-.28-.05-.31-.2-.03-.45-.06-1.21-.06-1.66,0-.15.11-.23.28-.2,3.39.18,6.61.15,10.95.15.03-3.3.06-6.91-.03-8.87-.03-.28-.03-.5-.06-.76-.03-.15.06-.25.22-.25.56-.02,1.4,0,2.02.05.17,0,.22.1.2.25-.06.25-.08.43-.11.71-.08,1.99-.06,5.57-.03,8.87,4.4,0,9.1-.05,11.06-.13.17,0,.25.05.28.23,0,.43,0,1.03-.03,1.49,0,.15-.08.23-.25.23-1.6-.05-4.98-.05-8.54-.05l-.03.18c-.06.25-.06.45-.06.73-.08,1.99-.11,4.56-.06,7.16.03.5.25.76.87.83,1.51.15,3.22.13,4.65.02.95-.13,1.46-.5,1.71-1.29.2-.76.28-1.59.31-2.32,0-.1.06-.13.17-.08.76.3,1.09.4,1.43.48.25.08.36.25.36.48-.08.68-.22,1.49-.42,2.27-.42,1.46-1.34,2.17-3.19,2.29-1.85.13-3.86.13-5.8,0-1.48-.15-2.1-.78-2.13-2.19-.06-3-.03-6.18-.06-7.71l-.03-.86h-3.64v.03c-.03.25-.06.48-.08.76ZM37.18,8.37c-1.09-2.02-2.21-3.73-3.5-5.39-.08-.13-.06-.23.06-.33.42-.25.9-.48,1.34-.66.17-.08.28-.05.39.08,1.29,1.69,2.52,3.48,3.67,5.37.06.15.06.25-.11.35-.5.28-1.01.53-1.48.71-.14.05-.28.02-.36-.13ZM52.39,3.71c-.87,1.39-2.3,3.48-3.58,4.97-.11.15-.31.2-.5.13-.31-.1-.56-.25-1.43-.58-.11-.03-.14-.1-.06-.18,1.48-1.64,3.3-4.23,4.23-6.18.03-.13.14-.18.31-.13.48.13,1.15.43,1.62.63.22.1.22.23.06.4-.11.15-.17.25-.25.38-.14.18-.25.35-.39.55Z"/>
  <path class="st0" d="M86.63,3.66c.03.45.03,1.03,0,1.46-.03.18-.11.25-.28.25-2.13-.05-7.45-.05-12.18-.05-4.98,0-8.43-.05-12.12.15-.17.03-.28-.05-.31-.2-.03-.45-.06-1.18-.03-1.64,0-.15.08-.25.25-.23,3.44.2,6.69.18,11.09.18.03-1.08.03-2.19-.03-2.82,0-.18,0-.33-.03-.53-.06-.15.03-.23.22-.23.5,0,1.32,0,1.85.03.17.03.25.1.22.25-.06.2-.08.3-.08.48-.06.63-.06,1.74-.03,2.82,4.45,0,9.18-.05,11.17-.15.17,0,.28.08.28.23ZM75.04,23.04c-.5.05-1.2.05-1.68,0-.17-.02-.25-.1-.25-.25.06-3.3.06-8.82.06-11.62h-6.22v8.39c0,.35,0,.78.03,1.11-.03.18-.11.25-.28.25-.45.03-1.09.03-1.54,0-.17,0-.25-.1-.25-.25v-10.26c0-.73-.03-1.74-.03-2.32-.03-.15.06-.23.22-.23.5,0,1.15,0,1.65.03.17,0,.28.08.28.23l-.06,1.34h6.16v-2.45c0-.23-.03-.48-.03-.76-.03-.15.06-.25.22-.25.56,0,1.26,0,1.71.05.2,0,.28.1.25.28-.06.28-.06.48-.06.68v2.45h6.52l-.03-1.36c0-.15.06-.23.22-.25.48,0,1.12,0,1.62.02.17,0,.25.1.25.25-.03.5-.08,1.13-.08,2.17,0,1.56,0,4.66.03,7.29v1.34c0,1.18-.56,1.71-1.96,1.82-.98.05-1.82.03-2.58-.03-.31-.03-.5-.18-.56-.45-.11-.35-.17-.78-.31-1.24-.06-.13,0-.18.11-.18.81.13,1.68.15,2.6.13.48-.03.67-.15.67-.68v-7.11h-6.55c0,2.8.03,8.32.08,11.65,0,.15-.08.23-.25.23Z"/>
  <path class="st0" d="M117.46,15.83c.03.35.03.83,0,1.24-.03.15-.11.23-.28.23-1.74-.05-5.6-.03-9.55-.03,2.74,1.76,6.5,3.23,10.33,3.88.11.05.14.08.06.18-.64.63-.84.91-1.09,1.16-.17.15-.36.2-.53.15-3.64-.86-7.56-2.57-10.5-4.66.03,1.44.06,3.48.11,4.87,0,.15-.08.25-.25.25-.5,0-1.2,0-1.65-.03-.2,0-.28-.08-.25-.25l.08-4.69c-2.74,1.82-6.64,3.68-10.33,4.69-.25.08-.45.03-.62-.13-.2-.23-.39-.48-1.06-1.08-.08-.08-.08-.13.06-.15,3.64-.83,7.56-2.42,10.3-4.18-3.61,0-6.5-.02-9.46.13-.17.03-.25-.05-.28-.2-.03-.4-.06-1.03-.06-1.41,0-.15.08-.23.25-.23,3.42.2,6.72.18,11.12.18v-.66c0-.2,0-.35-.03-.58,0-.18.06-.25.22-.25.56,0,1.26,0,1.74.05.17,0,.22.1.22.25-.06.2-.08.38-.08.53v.66c4.48,0,9.27-.05,11.26-.15.17,0,.25.08.28.25ZM100.44,1.46c-.36.55-.81,1.16-1.32,1.82h5.26c.73-.93,1.4-2.04,1.79-3.05.06-.15.14-.2.31-.18.45.08,1.09.25,1.57.38.22.08.25.18.11.4-.11.08-.14.18-.22.28-.08.15-.2.3-.28.48-.28.48-.64,1.08-1.09,1.69h.56c2.77,0,6.22-.03,7.84-.05.17-.03.25.05.28.2v1.06c-.03.18-.11.25-.28.25-1.65-.03-5.07-.03-7.84-.03h-.31v1.61l7.39-.05c.17,0,.28.08.31.23v.96c-.06.15-.14.23-.31.23h-7.39v1.64l7.39-.05c.17-.03.28.05.31.2v.98c-.03.18-.14.23-.31.23h-7.39v1.69h.48c2.94,0,6.58-.03,8.26-.08.17.03.28.08.28.25.03.33.03.73,0,1.06,0,.15-.11.23-.28.23-1.68-.03-5.32-.03-8.26-.03h-9.27v.76c0,.18-.08.25-.25.28h-1.6c-.17-.02-.25-.1-.25-.28.06-2.92.03-6.3.03-7.79-.73.71-1.48,1.39-2.21,1.97-.2.15-.39.15-.59,0-.22-.15-.48-.38-1.2-.83-.08-.05-.08-.13,0-.18,2.91-2.14,5.74-5.17,7-7.54.06-.15.17-.18.34-.15.45.08,1.04.25,1.54.4.25.08.25.18.08.38-.06.08-.11.15-.17.2-.08.13-.2.28-.31.43ZM97.94,5.17v1.16h6.89v-1.61h-6.89v.45ZM97.97,9.33h6.86v-1.64h-6.89l.03,1.64ZM98,12.38h6.83v-1.69h-6.86l.03,1.69Z"/>
  <path class="st1" d="M.91,67.2v-25.08h4.73v20.78h11.46v4.3H.91Z"/>
  <path class="st1" d="M22.72,47.35c-.81,0-1.5-.26-2.06-.79-.56-.52-.84-1.22-.84-2.08s.28-1.55.84-2.08c.56-.53,1.25-.79,2.06-.79s1.53.26,2.08.79c.55.53.82,1.22.82,2.08s-.27,1.55-.82,2.08c-.55.53-1.24.79-2.08.79ZM20.47,67.2v-17.77h4.51v17.77h-4.51Z"/>
  <path class="st1" d="M29.14,58.39v-.57c0-1.86.37-3.46,1.11-4.78.74-1.33,1.73-2.34,2.96-3.04,1.23-.71,2.57-1.06,4.03-1.06,1.62,0,2.85.29,3.69.86.84.57,1.44,1.17,1.83,1.79h.65v-2.15h4.44v20.92c0,1.22-.36,2.19-1.07,2.92-.72.73-1.67,1.09-2.87,1.09h-11.89v-3.94h10.32c.67,0,1-.36,1-1.08v-4.62h-.64c-.24.38-.57.77-1,1.16-.43.39-1,.72-1.72.99-.72.26-1.62.39-2.72.39-1.46,0-2.8-.35-4.03-1.06-1.23-.7-2.22-1.72-2.96-3.04s-1.11-2.92-1.11-4.78ZM38.52,63.33c1.38,0,2.54-.44,3.48-1.33.93-.88,1.4-2.13,1.4-3.73v-.36c0-1.62-.46-2.87-1.38-3.74-.92-.87-2.08-1.31-3.49-1.31s-2.54.44-3.47,1.31c-.93.87-1.4,2.12-1.4,3.74v.36c0,1.6.47,2.84,1.4,3.73.93.88,2.09,1.33,3.47,1.33Z"/>
  <path class="st1" d="M52.85,67.2v-25.08h4.51v9.49h.65c.19-.38.49-.76.9-1.15.41-.38.95-.7,1.63-.95.68-.25,1.55-.38,2.6-.38,1.38,0,2.6.32,3.64.95s1.84,1.5,2.42,2.61c.57,1.11.86,2.41.86,3.89v10.6h-4.51v-10.25c0-1.34-.33-2.34-.99-3.01-.66-.67-1.59-1-2.81-1-1.39,0-2.46.46-3.22,1.38-.76.92-1.15,2.2-1.15,3.85v9.03h-4.51Z"/>
  <path class="st1" d="M81.22,67.2c-1.17,0-2.12-.36-2.85-1.09-.73-.73-1.09-1.7-1.09-2.92v-10.03h-4.44v-3.73h4.44v-5.52h4.51v5.52h4.87v3.73h-4.87v9.24c0,.72.33,1.08,1,1.08h3.44v3.73h-5.02Z"/>
  <path class="st1" d="M99.71,67.2v-25.08h8.78l4.33,21.85h.64l4.33-21.85h8.78v25.08h-4.59v-21.6h-.65l-4.3,21.6h-7.81l-4.3-21.6h-.65v21.6h-4.59Z"/>
  <path class="st1" d="M136.97,67.7c-1.27,0-2.4-.22-3.4-.66-1-.44-1.8-1.09-2.38-1.93-.59-.85-.88-1.88-.88-3.1s.29-2.24.88-3.06c.58-.82,1.4-1.44,2.44-1.86,1.04-.42,2.23-.63,3.56-.63h4.87v-1c0-.84-.26-1.52-.79-2.06-.53-.54-1.36-.81-2.51-.81s-1.96.26-2.51.77c-.55.51-.91,1.18-1.07,1.99l-4.16-1.4c.29-.91.75-1.74,1.38-2.49.63-.75,1.48-1.36,2.54-1.83,1.06-.47,2.36-.7,3.89-.7,2.34,0,4.19.59,5.55,1.76s2.04,2.87,2.04,5.09v6.63c0,.72.33,1.08,1,1.08h1.43v3.73h-3.01c-.88,0-1.61-.21-2.19-.64-.57-.43-.86-1-.86-1.72v-.04h-.68c-.1.29-.31.66-.64,1.13-.33.47-.86.88-1.58,1.24-.72.36-1.7.54-2.94.54ZM137.75,64.05c1.27,0,2.3-.35,3.1-1.06.8-.7,1.2-1.64,1.2-2.81v-.36h-4.55c-.84,0-1.49.18-1.97.54-.48.36-.72.86-.72,1.5s.25,1.17.75,1.58c.5.41,1.23.61,2.19.61Z"/>
  <path class="st1" d="M152.15,67.2v-17.77h4.44v2.01h.65c.26-.72.7-1.24,1.31-1.58.61-.33,1.32-.5,2.13-.5h2.15v4.01h-2.22c-1.15,0-2.09.3-2.83.91-.74.61-1.11,1.55-1.11,2.81v10.1h-4.51Z"/>
  <path class="st1" d="M166.34,67.2v-25.08h4.51v13.86h.65l5.88-6.56h5.88l-8.2,8.6,8.49,9.17h-5.8l-6.23-7.06h-.65v7.06h-4.51Z"/>
  <path class="st1" d="M193.57,67.7c-1.77,0-3.33-.38-4.68-1.13-1.35-.75-2.4-1.81-3.15-3.19-.75-1.37-1.13-2.99-1.13-4.85v-.43c0-1.86.37-3.48,1.11-4.85s1.78-2.44,3.12-3.19c1.34-.75,2.89-1.13,4.66-1.13s3.26.39,4.55,1.17c1.29.78,2.29,1.85,3.01,3.22.72,1.37,1.08,2.97,1.08,4.78v1.54h-12.93c.05,1.22.5,2.21,1.36,2.97.86.76,1.91,1.15,3.15,1.15s2.2-.27,2.79-.82c.6-.55,1.05-1.16,1.36-1.83l3.69,1.93c-.33.62-.82,1.3-1.45,2.02-.63.73-1.47,1.35-2.53,1.86-1.05.51-2.39.77-4.01.77ZM189.23,56.27h8.31c-.1-1.03-.51-1.85-1.24-2.47-.73-.62-1.68-.93-2.85-.93s-2.19.31-2.9.93c-.72.62-1.16,1.45-1.33,2.47Z"/>
  <path class="st1" d="M212.38,67.2c-1.17,0-2.12-.36-2.85-1.09-.73-.73-1.09-1.7-1.09-2.92v-10.03h-4.44v-3.73h4.44v-5.52h4.51v5.52h4.87v3.73h-4.87v9.24c0,.72.33,1.08,1,1.08h3.44v3.73h-5.02Z"/>
</svg>