<?xml version="1.0" encoding="UTF-8"?>
<svg id="_圖層_1" data-name="圖層_1" xmlns="http://www.w3.org/2000/svg" version="1.1" viewBox="0 0 162.54 67.7">
  <!-- Generator: Adobe Illustrator 29.8.2, SVG Export Plug-In . SVG Version: 2.1.1 Build 3)  -->
  <defs>
    <style>
      .st0 {
        fill: #fff;
      }

      .st1 {
        fill: #cedd4a;
      }
    </style>
  </defs>
  <path class="st0" d="M19.63,17.34c.98,1.03,2.3,2.02,3.56,2.8.08.05.11.13.03.2l-.64.63,2.18-.05c.17,0,.25.08.28.23.03.38.03.83,0,1.21-.03.15-.11.23-.28.23-2.16-.03-7.48-.03-12.24-.03s-8.51-.05-12.15.15c-.17.03-.28-.05-.28-.2-.06-.43-.08-1.01-.08-1.39,0-.18.14-.25.31-.23l2.66.13-.67-.43c-.11-.05-.11-.1-.03-.15,1.57-.96,2.91-2.42,3.81-3.88-1.71,0-3.28.05-4.84.13-.17.03-.28-.05-.28-.23-.06-.35-.08-.88-.08-1.23.03-.15.11-.23.28-.23,3.42.2,6.72.15,11.37.15,4.37,0,9.32-.03,11.37-.1.17-.03.25.05.25.2.03.33.03.76,0,1.08,0,.15-.11.23-.28.23h-4.09l.14.05c.22.13.22.2.06.38-.08.08-.14.15-.2.2l-.14.15ZM13.19,9.2c-.48.05-1.06.05-1.48,0-.17-.02-.25-.1-.25-.25.06-1.94.03-3.18.03-4.16H2.55l.03,3.78c0,.15-.08.23-.25.25-.42.03-1.01.03-1.43,0-.14-.03-.22-.1-.22-.25v-4.46c-.03-.4-.03-.71-.06-1.01,0-.15.06-.23.22-.25.48-.03,1.09,0,1.57.05.17.03.25.1.22.25l-.06.35h8.74v-1.18c-3.61,0-6.5,0-9.32.13-.17,0-.28-.05-.31-.23-.03-.35-.06-.86-.06-1.23.03-.15.11-.23.28-.2,3.16.18,6.27.13,10.56.13,4.06,0,8.65-.03,10.58-.1.17,0,.25.05.28.2,0,.35,0,.76-.03,1.11,0,.15-.08.23-.25.23l-9.55-.02v1.18h8.96l-.03-.43c0-.15.06-.23.22-.23.5-.03,1.12-.03,1.6.02.17.03.22.1.22.25-.06.33-.08.6-.08,1.03,0,1.18,0,2.95.03,4.36,0,.15-.08.23-.25.25-.45.02-1.01.02-1.46,0-.17-.03-.25-.1-.22-.25l-.03-3.73h-9.13c0,1.06.03,2.22.11,4.18,0,.15-.08.23-.25.23ZM3.14,14.62h-1.06c-.17,0-.25-.08-.25-.23v-3.55c0-.2-.03-.58-.03-.86,0-.18.08-.25.28-.25h1.09c.17.02.25.1.25.25l-.03.2h3.19v-.2c0-.18.06-.25.22-.25h1.15c.17.02.25.1.25.25,0,.28-.03.68-.03.86v3.55c0,.15-.08.23-.25.23h-1.09c-.17,0-.25-.08-.25-.23v-.4h-3.19v.4c0,.15-.08.23-.25.23ZM3.39,11.37v1.44h3.19v-1.44h-3.19ZM10.11,5.95c0,.23,0,.5-.03.76,0,.15-.08.2-.25.2-.7,0-1.82.03-2.83.03-.76,0-1.82,0-2.69.03-.17,0-.25-.08-.28-.23,0-.25-.03-.53-.03-.81,0-.15.08-.2.25-.2.9.08,1.79.08,2.74.08s2.13-.03,2.83-.08c.2,0,.28.08.28.23ZM10.11,8.14c0,.25,0,.53-.03.78,0,.13-.08.2-.25.2h-2.83c-.76,0-1.82.03-2.69.05-.17,0-.25-.05-.28-.23,0-.28-.03-.55-.03-.81,0-.15.08-.23.25-.2.9.08,1.79.05,2.74.05s2.13-.02,2.83-.05c.2-.03.28.05.28.2ZM7.36,17.49c.87.91,1.9,1.79,3.02,2.45.08.08.08.15,0,.2-.25.25-.53.55-.81.78-.14.1-.28.1-.42,0-1.01-.73-1.9-1.51-2.69-2.29-.67.83-1.54,1.74-2.44,2.42,2.24.03,4.62,0,7.5,0v-4.49h-4.03l.22.1c.2.13.2.23.03.38-.08.08-.14.15-.2.23l-.2.23ZM10.7,14.62h-1.09c-.17,0-.25-.08-.25-.23v-4.41c0-.18.08-.25.25-.25h1.09c.17.02.25.1.25.25v.2h3.22v-.2c0-.18.11-.25.28-.25h1.09c.17.02.28.1.28.25,0,.28-.03.68-.03.86v3.55c-.03.15-.11.23-.28.23h-1.06c-.17,0-.28-.08-.28-.23v-.4h-3.22v.4c0,.15-.08.23-.25.23ZM10.95,11.37v1.44h3.22l.03-1.44h-3.25ZM13.38,21.05h1.96c-.14-.13-.36-.28-.78-.48-.11-.05-.11-.1,0-.15,1.51-.96,2.8-2.42,3.7-3.86h-4.87v4.49ZM20.94,5.95c.03.23.03.5,0,.76-.03.15-.11.2-.28.2-.67,0-1.82.03-2.86.03-.76,0-1.82,0-2.72.03-.17,0-.25-.08-.28-.23-.03-.25-.03-.53-.03-.81,0-.15.08-.2.25-.2.92.08,1.82.08,2.77.08s2.16-.03,2.88-.08c.17,0,.25.08.25.23ZM21,8.14c0,.25,0,.53-.03.76,0,.15-.11.23-.28.23h-2.86c-.76,0-1.85.03-2.74.05-.17,0-.25-.08-.28-.23-.03-.28-.03-.55-.03-.81,0-.15.08-.23.25-.2.92.05,1.82.05,2.8.05s2.16-.02,2.88-.05c.17-.03.25.05.28.2ZM21.7,21c-1.06-.78-2.07-1.64-2.94-2.5-.7.88-1.57,1.84-2.49,2.55l5.43-.05ZM18.28,14.62h-1.09c-.17,0-.25-.08-.25-.23v-4.41c0-.18.08-.25.25-.25h1.09c.17.02.25.1.25.25v.2h3.28v-.2c0-.18.08-.25.28-.25h1.12c.17.02.25.1.25.25-.03.28-.03.68-.03.86v3.55c0,.15-.08.23-.25.23h-1.09c-.17,0-.25-.08-.25-.23v-.4h-3.33l.03.4c0,.15-.08.23-.25.23ZM18.51,11.37v1.44h3.33v-1.44h-3.33Z"/>
  <path class="st0" d="M32.28,16.41c-.17.2-.36.28-.64.18-.25-.13-.48-.28-1.32-.58-.14-.05-.17-.13-.06-.25,2.04-2.32,2.74-5.37,2.8-7.94.06-1.39.03-3.48-.03-4.61-.03-.4-.08-.86-.14-1.34-.03-.15.06-.23.25-.23.5-.03,1.2,0,1.71.03.17,0,.25.1.25.25l-.06,1.08h11.14l-.03-.3c-.03-.3-.08-.53-.08-.78-.06-.5-.11-.91-.17-1.41-.03-.15.03-.23.2-.25.5,0,1.12-.03,1.6.03.17.03.22.1.22.23,0,.43-.03.81,0,1.16.03.28.03.5.06.81l.06.53,4.31-.03c-1.2-.61-2.32-1.24-3.36-1.84-.14-.1-.17-.2-.03-.33.22-.23.53-.48.81-.71.11-.1.25-.1.39-.03,1.12.68,2.52,1.39,3.92,1.99.11.05.14.13.06.2l-.7.71,1.79-.03c.17,0,.25.08.28.23.03.35.03.83,0,1.18-.03.15-.11.23-.28.23h-7c.34,2.27.92,4.18,1.6,5.7,1.04-1.39,1.85-2.85,2.38-4.29.06-.13.17-.18.34-.15.39.13.92.33,1.37.5.22.13.25.23.08.43-.08.1-.17.2-.22.3-.08.13-.17.28-.25.45-.73,1.46-1.68,2.97-2.83,4.41.92,1.49,1.88,2.29,2.6,2.29.98,0,1.34-2.07,1.37-3.5,0-.13.06-.18.2-.1.36.23.73.35,1.12.55.28.13.34.28.28.58-.28,1.76-.84,4.34-2.8,4.34-1.34,0-2.74-.98-3.98-2.8-1.01,1.06-2.1,2.02-3.3,2.82-.2.13-.39.13-.59.03-.22-.18-.42-.4-1.09-.83-.11-.05-.11-.13,0-.18,1.54-.93,2.91-2.09,4.06-3.35-.95-1.92-1.74-4.36-2.18-7.21h-11.37l-.03,3.12c-.03,2.65-.73,6.08-2.72,8.7ZM35.31,18.65c-.56.93-1.71,2.45-2.94,3.45-.14.13-.31.15-.5.08-.25-.15-.5-.3-1.32-.68-.08-.05-.08-.15-.03-.2,1.46-1.08,2.88-2.77,3.58-4.59.06-.13.14-.15.31-.13.42.15,1.04.38,1.51.58.2.13.2.2.06.4-.11.18-.22.33-.34.53-.11.18-.22.33-.34.55ZM45.44,6.2c0,.33,0,.73-.03,1.08,0,.15-.08.23-.28.2h-4.31c-1.46,0-2.91,0-4.23.05-.17,0-.25-.05-.28-.2-.03-.38-.06-.83-.03-1.16,0-.15.08-.23.25-.23,1.37.1,2.69.1,4.28.1,1.51,0,3.36-.03,4.34-.08.17,0,.25.08.28.23ZM38.14,15.12h-1.2c-.17,0-.25-.08-.25-.25v-4.84c0-.3-.03-.86-.03-1.24,0-.15.08-.23.25-.23h1.26c.17.03.25.1.25.25l-.03.45h4.76l-.03-.48c0-.15.08-.23.25-.23h1.29c.17.03.25.1.25.25,0,.35-.03.93-.03,1.21v4.49c0,.15-.08.23-.25.23h-1.23c-.17,0-.25-.08-.25-.23v-.48h-4.76v.83c0,.18-.08.25-.25.25ZM37.88,16.64h1.57c.17.03.25.1.25.25-.06.98-.08,2.45-.08,3.4,0,.48.17.71.67.78,1.65.15,4.37.15,6.3,0,.81-.08,1.2-.25,1.4-.88.14-.5.22-1.01.28-1.51.03-.13.11-.18.25-.15.39.1.9.23,1.32.35.22.08.31.23.31.45-.11.5-.25,1.08-.45,1.71-.39,1.03-1.06,1.56-2.91,1.66-2.35.13-5.18.13-7.39-.05-1.18-.13-1.71-.63-1.74-1.74,0-1.41,0-2.97-.03-4.03,0-.15.08-.23.25-.25ZM38.39,10.59v2.09h4.76v-2.09h-4.76ZM42.87,15.28c.87.93,2.02,1.99,3.22,3,.08.08.08.15-.03.23-.36.23-.81.5-1.2.71-.17.05-.36.03-.48-.1-1.09-1.01-2.1-2.04-3.02-3.03-.08-.13-.08-.23.06-.3.31-.2.73-.43,1.06-.58.17-.08.28-.05.39.08ZM52.28,16.69c1.01,1.44,2.44,3.02,3.86,4.41.08.08.08.15-.06.23-.39.2-.9.5-1.34.68-.2.08-.39.03-.53-.13-1.34-1.41-2.63-2.97-3.67-4.39-.08-.13-.06-.23.08-.33.36-.18.87-.4,1.26-.55.17-.08.28-.05.39.08Z"/>
  <path class="st0" d="M86.49,19.38c0,.48,0,1.13-.03,1.59-.03.18-.11.25-.28.25-2.13-.05-7.36-.05-12.07-.05-4.96,0-8.26-.05-11.98.15-.17.03-.25-.05-.28-.2-.06-.48-.08-1.29-.06-1.79,0-.15.08-.23.25-.2,3.42.2,6.58.18,10.89.18V5.29c-3.61,0-6.24,0-9.18.15-.2,0-.28-.08-.28-.23-.08-.48-.08-1.24-.08-1.69,0-.18.11-.25.28-.23,3.25.2,6.24.15,10.47.15,3.98,0,8.54-.05,10.44-.13.17,0,.25.08.28.23.03.45.03,1.08,0,1.54-.03.15-.11.23-.28.23l-9.46-.03v14.02c4.4,0,9.07-.05,11.06-.13.17-.03.28.05.31.2Z"/>
  <path class="st0" d="M93.46,19.11c-.2.08-.34.15-.48.23-.22.13-.34.08-.45-.18-.17-.45-.39-1.08-.5-1.54-.03-.13.06-.23.17-.25,1.2-.28,2.69-.68,4.17-1.16l.06-7.89c-1.26,0-2.41,0-3.61.08-.17,0-.25-.08-.28-.23-.06-.43-.06-1.08-.06-1.49,0-.15.11-.23.28-.23,1.23.08,2.35.13,3.67.13-.03-1.92-.06-3.58-.08-4.84,0-.35-.03-.66-.06-.98-.03-.15.06-.23.22-.25.53,0,1.29,0,1.85.05.17.03.22.1.22.25-.08.33-.11.58-.14.93l-.06,4.84c1.2-.03,2.41-.05,3.14-.1.17,0,.25.08.25.23.03.4.03.98,0,1.41,0,.15-.08.23-.28.23l-3.11-.03.03,7.23c1.2-.43,2.35-.88,3.3-1.29.14-.05.2-.03.2.08.03.73.11,1.11.17,1.39,0,.23-.08.35-.28.45-2.32.91-5.46,1.97-8.01,2.82-.11.03-.22.08-.34.1ZM107.91,7.18c-.03.98-.06,1.89-.11,2.75h5.77l-.06-1.21c0-.15.08-.23.25-.25.5,0,1.15.03,1.62.05.17.03.25.1.22.25-.03.25-.03.45-.06.66,0,.25-.03.48-.03.76-.08,2.34-.2,7.41-.87,10.59-.36,1.44-1.18,2.02-2.97,2.04-1.01-.03-1.93-.15-2.74-.28-.36-.08-.48-.23-.5-.58-.03-.23-.03-.55-.2-1.26-.06-.1,0-.15.14-.13,1.01.25,1.88.38,2.94.4.81.05,1.26-.28,1.48-1.03.45-2.02.7-5.42.76-8.24h-5.96c-.76,6-3.05,8.9-7.31,11.39-.25.15-.48.15-.7-.03-.22-.2-.39-.43-1.15-.93-.11-.1-.11-.18.03-.23,5.94-2.87,7.62-7.49,7.36-15.88-1.79.03-3.36.05-4.98.13-.2.03-.28-.05-.28-.23-.06-.43-.08-1.11-.08-1.54.03-.15.11-.23.28-.2,2.27.13,4.4.13,7.08.13.03-1.34,0-2.72-.03-3.53,0-.18-.03-.33-.06-.53-.03-.15.06-.23.22-.25.53,0,1.32,0,1.85.05.17.02.22.1.2.25-.03.2-.06.33-.08.48-.06.81-.06,2.19-.03,3.53,2.91,0,6.05-.05,7.5-.1.17,0,.25.08.25.23.03.4.03.98,0,1.41-.03.15-.11.23-.28.23-1.57-.03-5.12-.05-8.32-.05h-1.09l-.03.38c-.03.25-.03.48-.06.78Z"/>
  <path class="st1" d="M.91,67.2v-25.08h8.99l4.98,21.85h.64v-21.85h4.66v25.08h-8.99l-4.98-21.85h-.65v21.85H.91Z"/>
  <path class="st1" d="M34.65,67.7c-3.15,0-5.66-.87-7.52-2.6s-2.79-4.21-2.79-7.43v-6.02c0-3.22.93-5.7,2.79-7.43,1.86-1.73,4.37-2.6,7.52-2.6s5.66.87,7.52,2.6c1.86,1.73,2.79,4.21,2.79,7.43v6.02c0,3.22-.93,5.7-2.79,7.43s-4.37,2.6-7.52,2.6ZM34.65,63.47c1.77,0,3.14-.51,4.12-1.54.98-1.03,1.47-2.4,1.47-4.12v-6.3c0-1.72-.49-3.09-1.47-4.12-.98-1.03-2.35-1.54-4.12-1.54s-3.11.51-4.1,1.54c-.99,1.03-1.49,2.4-1.49,4.12v6.3c0,1.72.5,3.09,1.49,4.12.99,1.03,2.36,1.54,4.1,1.54Z"/>
  <path class="st1" d="M53.28,67.2l-6.38-25.08h4.87l5.3,22.03h.5l5.3-22.03h4.87l-6.38,25.08h-8.1Z"/>
  <path class="st1" d="M67.4,67.2l6.59-25.08h8.24l6.59,25.08h-4.87l-1.36-5.52h-8.96l-1.36,5.52h-4.87ZM74.74,57.31h6.73l-3.04-12.22h-.65l-3.04,12.22Z"/>
  <path class="st1" d="M100.5,67.2v-25.08h4.73v20.78h11.46v4.3h-16.19Z"/>
  <path class="st1" d="M118.2,67.2l6.59-25.08h8.24l6.59,25.08h-4.87l-1.36-5.52h-8.96l-1.36,5.52h-4.87ZM125.54,57.31h6.73l-3.04-12.22h-.65l-3.04,12.22Z"/>
  <path class="st1" d="M141.91,67.2v-4.16h3.3v-16.77h-3.3v-4.16h12.9c1.53,0,2.86.26,3.99.77,1.13.51,2.02,1.24,2.65,2.19.63.94.95,2.07.95,3.38v.36c0,1.15-.21,2.08-.65,2.81-.43.73-.94,1.29-1.52,1.68-.59.39-1.14.67-1.67.84v.64c.52.14,1.1.41,1.72.81.62.39,1.15.96,1.59,1.7.44.74.66,1.71.66,2.9v.36c0,1.38-.32,2.57-.97,3.56-.65.99-1.54,1.75-2.67,2.27-1.13.53-2.45.79-3.96.79h-13.04ZM149.94,52.44h4.37c.98,0,1.79-.25,2.42-.75s.95-1.19.95-2.08v-.36c0-.91-.31-1.61-.93-2.1-.62-.49-1.43-.73-2.44-.73h-4.37v6.02ZM149.94,62.9h4.44c1.03,0,1.86-.25,2.49-.75.63-.5.95-1.22.95-2.15v-.36c0-.93-.31-1.65-.93-2.15-.62-.5-1.46-.75-2.51-.75h-4.44v6.16Z"/>
</svg>