<?xml version="1.0" encoding="utf-8"?>
<!-- Generator: Adobe Illustrator 27.0.1, SVG Export Plug-In . SVG Version: 6.00 Build 0)  -->
<svg version="1.1" id="圖層_1" xmlns="http://www.w3.org/2000/svg" xmlns:xlink="http://www.w3.org/1999/xlink" x="0px" y="0px"
	 viewBox="0 0 301.3 103.8" style="enable-background:new 0 0 301.3 103.8;" xml:space="preserve">
<style type="text/css">
	.st0{fill:#FFFFFF;}
</style>
<g>
	<g>
		<path class="st0" d="M1.5,25.6V0.5h9l5,21.9h0.6V0.5h4.7v25.1h-9l-5-21.9H6.1v21.9H1.5z"/>
		<path class="st0" d="M35.2,26.1c-3.2,0-5.7-0.9-7.5-2.6s-2.8-4.2-2.8-7.4v-6c0-3.2,0.9-5.7,2.8-7.4C29.6,0.9,32.1,0,35.2,0
			s5.7,0.9,7.5,2.6c1.9,1.7,2.8,4.2,2.8,7.4v6c0,3.2-0.9,5.7-2.8,7.4S38.4,26.1,35.2,26.1z M35.2,21.9c1.8,0,3.1-0.5,4.1-1.5
			c1-1,1.5-2.4,1.5-4.1V9.9c0-1.7-0.5-3.1-1.5-4.1c-1-1-2.4-1.5-4.1-1.5c-1.7,0-3.1,0.5-4.1,1.5c-1,1-1.5,2.4-1.5,4.1v6.3
			c0,1.7,0.5,3.1,1.5,4.1C32.1,21.3,33.5,21.9,35.2,21.9z"/>
		<path class="st0" d="M53.8,25.6L47.4,0.5h4.9l5.3,22h0.5l5.3-22h4.9l-6.4,25.1H53.8z"/>
		<path class="st0" d="M67.6,25.6l6.6-25.1h8.2L89,25.6h-4.9l-1.4-5.5h-9l-1.4,5.5H67.6z M74.9,15.7h6.7l-3-12.2H78L74.9,15.7z"/>
		<path class="st0" d="M100.6,25.6V0.5h8.8l4.3,21.9h0.6l4.3-21.9h8.8v25.1h-4.6V4h-0.6L118,25.6h-7.8L105.8,4h-0.6v21.6H100.6z"/>
		<path class="st0" d="M130.5,25.6l6.6-25.1h8.2l6.6,25.1H147l-1.4-5.5h-9l-1.4,5.5H130.5z M137.8,15.7h6.7l-3-12.2h-0.6L137.8,15.7
			z"/>
		<path class="st0" d="M154.9,25.6V0.5h10.3c1.6,0,3,0.3,4.2,1s2.1,1.5,2.8,2.7c0.7,1.1,1,2.5,1,4.1v0.5c0,1.6-0.4,2.9-1.1,4.1
			c-0.7,1.2-1.7,2.1-2.9,2.7c-1.2,0.6-2.6,0.9-4.1,0.9h-5.6v9.2H154.9z M159.7,12.1h5.1c1.1,0,2-0.3,2.7-0.9c0.7-0.6,1-1.5,1-2.5
			V8.3c0-1.1-0.3-1.9-1-2.5c-0.7-0.6-1.6-0.9-2.7-0.9h-5.1V12.1z"/>
		<path class="st0" d="M1.3,62.5c-0.1,0.1-0.3,0.1-0.4,0.2c-0.3,0.1-0.3,0.1-0.4-0.2c-0.2-0.4-0.3-1-0.4-1.5c0-0.1,0-0.2,0.2-0.3
			c1.1-0.2,2.4-0.6,3.8-1v-5.3c-1.1,0-2.1,0-3.2,0.1c-0.2,0-0.3-0.1-0.3-0.2c-0.1-0.4-0.1-1-0.1-1.4c0-0.2,0.1-0.2,0.3-0.2
			c1.1,0.1,2.1,0.1,3.2,0.1l0-3.1c0-0.3,0-0.5-0.1-0.8c0-0.6,0-1-0.1-1.4c0-0.2,0.1-0.2,0.2-0.2c0.5,0,1.1,0,1.7,0
			C6,47.3,6,47.4,6,47.5c-0.1,0.5-0.1,0.8-0.1,1.2l-0.1,4l2.6-0.1c0.2,0,0.3,0.1,0.3,0.2c0,0.4,0,1,0,1.4c0,0.2-0.1,0.2-0.3,0.2
			l-2.6,0v4.7c1-0.4,1.9-0.7,2.7-1.1c0.1,0,0.1,0,0.2,0.1c0.1,0.7,0.2,1,0.2,1.3c0,0.2-0.1,0.4-0.3,0.4c-0.8,0.3-1.8,0.7-2.8,1
			l0,7.2c0,1.2-0.5,1.7-1.8,1.8c-0.8,0.1-1.5,0-2,0c-0.3,0-0.4-0.2-0.5-0.4c-0.1-0.4-0.2-0.9-0.3-1.2c-0.1-0.1,0-0.2,0.2-0.2
			c0.5,0.1,1.1,0.1,1.8,0.1c0.4,0,0.7-0.2,0.6-0.7v-6l-2.4,0.8C1.5,62.4,1.4,62.5,1.3,62.5z M17.9,70.1c-0.5,0-1.1,0-1.6,0
			c-0.2,0-0.3-0.1-0.3-0.3c0.1-2,0.1-4.8,0.1-6.9c-1.7,2.2-4.3,4.6-7.1,5.9c-0.2,0.1-0.4,0.1-0.6,0c-0.2-0.2-0.4-0.4-1-0.9
			c-0.1-0.1-0.1-0.2,0-0.2c3.1-1.3,5.9-3.7,7.7-6.2c-2.2,0-4.1,0-6,0.1c-0.2,0-0.3-0.1-0.3-0.2c0-0.4-0.1-1,0-1.4
			c0-0.2,0.1-0.2,0.3-0.2c2.2,0.1,4.3,0.1,7,0.1V58c0-0.2,0-0.4-0.1-0.7c0-0.2,0.1-0.2,0.3-0.2c0.5,0,1.2,0,1.6,0
			c0.2,0,0.3,0.1,0.2,0.3c0,0.3-0.1,0.5-0.1,0.6v1.9c2.8,0,5.8-0.1,7.2-0.1c0.2,0,0.3,0.1,0.3,0.2v1.3c0,0.2-0.1,0.2-0.3,0.2h-6.3
			c1.7,2.3,4.3,4.5,7.3,5.8c0.1,0.1,0.1,0.1,0,0.2c-0.6,0.5-0.8,0.8-1.1,1c-0.2,0.1-0.3,0.1-0.5,0c-2.5-1.4-4.9-3.6-6.6-5.7
			c0,2.1,0.1,4.9,0.1,6.9C18.2,70,18.1,70,17.9,70.1z M16,51.2c-0.4,3.9-1.9,5.7-5.3,7c-0.3,0.1-0.5,0-0.7-0.2
			c-0.2-0.2-0.3-0.5-0.8-0.9C9.1,57.1,9.1,57,9.3,57c3.7-1.2,5-3,5-6.8h-3v2.5c0,0.2-0.1,0.2-0.3,0.3c-0.4,0-0.9,0-1.3,0
			c-0.2,0-0.3-0.1-0.3-0.3c0-1.2,0-2.2,0-3.3c0-0.5,0-1.1-0.1-1.6c0-0.2,0.1-0.3,0.2-0.3c0.5,0,1,0,1.4,0c0.2,0,0.3,0.1,0.3,0.3
			l-0.1,0.9h12.2l-0.1-0.9c0-0.2,0.1-0.2,0.3-0.2c0.4,0,1,0,1.4,0c0.2,0,0.3,0.1,0.3,0.3c-0.1,0.6-0.1,1.2-0.1,1.7c0,1,0,1.9,0,3
			c0,0.2-0.1,0.2-0.3,0.3c-0.4,0-0.9,0-1.3,0c-0.2,0-0.3-0.1-0.3-0.3v-2.3h-3.3l-0.1,5c0,0.4,0.1,0.6,0.4,0.6c0.7,0.1,1.7,0.1,2.5,0
			c0.4,0,0.6-0.2,0.7-0.5c0.1-0.4,0.2-0.7,0.2-1.1c0-0.1,0.1-0.2,0.2-0.1c0.3,0.1,0.8,0.2,1.1,0.3c0.2,0.1,0.3,0.2,0.3,0.4
			c-0.1,0.5-0.2,1-0.4,1.5c-0.3,0.7-0.8,1.1-2.1,1.1c-1,0-2.2,0-3.2,0c-1-0.1-1.4-0.5-1.5-1.4c0-1.8,0-4.2-0.1-5.7h-2.2L16,50.5
			C16,50.7,16,51,16,51.2z"/>
		<path class="st0" d="M50.8,59c1.5,1.5,3.6,3.4,5.7,4.8c0.1,0.1,0.1,0.2,0,0.2c-0.4,0.2-0.9,0.5-1.3,0.7c-0.2,0.1-0.4,0-0.5-0.1
			c-0.7-0.5-1.3-1.1-2-1.6c-2.4,0.3-5,0.5-7.6,0.7v0.6c0,0.6,0,3.6,0.1,5.5c0,0.2-0.1,0.2-0.3,0.2c-0.5,0-1.3,0-1.7,0
			c-0.2,0-0.3-0.1-0.3-0.3c0.1-2.2,0-5,0-5.4v-0.5c-2.9,0.2-5.9,0.3-8.6,0.3c-0.2,0-0.4,0-0.6,0c-0.3,0-0.7,0.1-1,0.2
			c-0.3,0.1-0.4,0-0.4-0.3c-0.1-0.4-0.2-1-0.2-1.5c0-0.1,0.1-0.2,0.2-0.2c2.3,0,5.2,0,8.1-0.1l1-0.7c-1.7-1.1-3.8-2.2-5.5-3
			c-0.1-0.1-0.2-0.2-0.1-0.3c0.3-0.3,0.7-0.6,1-0.8c0.1-0.1,0.3-0.1,0.4-0.1l1.6,0.8c1.1-0.9,2.1-2,2.9-2.9c0,0,0.1-0.1,0.1-0.1
			h-7.9v3.5c0,0.2-0.1,0.3-0.3,0.3c-0.4,0.1-1,0.1-1.4,0c-0.2,0-0.3-0.1-0.3-0.3v-4.3c0-0.6,0-1.3-0.1-1.8c0-0.2,0.1-0.2,0.2-0.2
			c0.5,0,1.1,0,1.6,0c0.2,0,0.3,0.1,0.3,0.3l-0.1,1h8.8l0-2.4c-3.8,0-6.8,0-9.8,0.1c-0.2,0-0.3-0.1-0.3-0.2
			c-0.1-0.4-0.1-1.1-0.1-1.5c0-0.2,0.1-0.2,0.3-0.2c3.1,0.2,6,0.2,9.9,0.2l0-1.8c0-0.2,0-0.4-0.1-0.7c0-0.2,0.1-0.2,0.3-0.2
			c0.5,0,1.3,0,1.8,0c0.2,0,0.3,0.1,0.2,0.3C45,47.5,45,47.7,45,47.9l0,1.8c3.9,0,8.1,0,9.9-0.1c0.2,0,0.3,0,0.3,0.2
			c0,0.4,0,0.9,0,1.3c0,0.2-0.1,0.3-0.3,0.3c-1.8-0.1-5.9,0-9.9,0l0,2.4h8.8l-0.1-1.1c0-0.2,0.1-0.2,0.3-0.2c0.5,0,1.1,0,1.6,0
			c0.2,0,0.3,0.1,0.2,0.3c-0.1,0.6-0.1,1.2-0.1,1.8v3.7c0,0.2-0.1,0.2-0.3,0.3c-0.4,0-1,0-1.4,0c-0.2,0-0.3-0.1-0.3-0.3l0-2.9H42.2
			c0.4,0.2,1,0.4,1.4,0.6c0.2,0.1,0.2,0.2,0,0.4l-0.3,0.3c-0.2,0.2-0.3,0.3-0.4,0.4c-0.6,0.6-1.5,1.4-2.4,2.2
			c0.8,0.5,1.6,0.9,2.4,1.4c1.7-1.3,3.5-2.9,4.6-4.1c0.1-0.1,0.3-0.2,0.4-0.1c0.4,0.2,1,0.5,1.4,0.7c0.2,0.2,0.2,0.2,0,0.4
			c-0.1,0.1-0.3,0.2-0.3,0.3c-0.2,0.2-0.4,0.3-0.6,0.5c-1.3,1.1-3.2,2.7-5,4c2.7-0.2,5.4-0.4,7.7-0.6c-0.7-0.6-1.3-1.3-1.9-1.8
			c-0.1-0.1-0.1-0.3,0.1-0.3c0.3-0.2,0.8-0.4,1.2-0.6C50.5,58.9,50.7,58.9,50.8,59z M39.5,66.3c-1.4,1.1-3.5,2.5-5.5,3.4
			c-0.2,0.1-0.4,0.1-0.6-0.1c-0.3-0.2-0.4-0.4-1.2-0.9c-0.1,0-0.1-0.1,0-0.2c2.3-0.9,4.7-2.3,6.2-3.7c0.1-0.1,0.3-0.1,0.4-0.1
			c0.4,0.2,0.9,0.5,1.3,0.7c0.2,0.1,0.2,0.3,0,0.4C40,65.9,40,66,39.9,66C39.8,66.1,39.6,66.2,39.5,66.3z M49.3,64.6
			c1.6,1.2,3.9,2.5,6,3.6c0.1,0.1,0.1,0.1,0,0.2c-0.3,0.3-0.8,0.7-1.2,0.9c-0.2,0.1-0.4,0.1-0.5,0c-2.1-1.1-4.2-2.5-5.8-3.7
			c-0.1-0.1-0.1-0.2,0-0.3c0.3-0.2,0.7-0.5,1.1-0.7C49,64.5,49.2,64.5,49.3,64.6z"/>
		<path class="st0" d="M69.2,48.4c-0.2,0.9-0.5,2.1-0.8,3.2h2.1l-0.1-1.1c0-0.2,0.1-0.2,0.2-0.3c0.4,0,0.9,0,1.3,0
			c0.2,0,0.3,0.1,0.3,0.3c0,0.5-0.1,1.2-0.1,1.9v3.6c2.2-2.5,4.1-6.1,4.8-8.9c0.1-0.1,0.1-0.2,0.3-0.2c0.5,0.1,1.1,0.2,1.6,0.4
			c0.3,0.1,0.3,0.2,0.2,0.4C79,47.8,79,47.9,78.9,48c-0.1,0.2-0.1,0.3-0.2,0.5c-0.3,0.8-0.7,1.7-1.1,2.7h7.1l-0.1-1.7
			c0-0.2,0.1-0.2,0.2-0.3c0.5,0,1.2,0,1.7,0c0.2,0,0.3,0.1,0.2,0.3c0,0.3,0,0.5-0.1,0.7c0,0.3,0,0.5,0,0.8
			c-0.1,3.7-0.2,11.9-1.1,16.6c-0.4,1.5-1.2,2.1-3,2.1c-1.2,0-2.1-0.1-3-0.3c-0.3,0-0.5-0.2-0.5-0.5c0-0.3-0.1-0.6-0.2-1.3
			c-0.1-0.1,0-0.2,0.1-0.2c1.1,0.2,2,0.4,3.2,0.4c0.9,0,1.4-0.3,1.6-1.2c0.6-3.1,1-9.3,1-13.9h-8c-0.8,1.4-1.6,2.7-2.5,3.9
			c-0.2,0.2-0.4,0.2-0.6,0.1c-0.2-0.2-0.5-0.3-1.3-0.7l-0.1,0v9.5c0,0.9,0,1.8,0,2.5c0,0.2-0.1,0.3-0.3,0.3h-1.4
			c-0.2,0-0.3-0.1-0.3-0.3v-1.6H65l0,1.6c0,0.2-0.1,0.3-0.3,0.3h-1.4c-0.2,0-0.3-0.1-0.3-0.3V52.5c0-0.8,0-1.5-0.1-2
			c0-0.2,0.1-0.2,0.3-0.3c0.4,0,0.8,0,1.3,0c0.2,0,0.3,0.1,0.3,0.3l-0.1,1h1.7c0.4-1.4,0.8-3,0.9-4.4c0-0.2,0.1-0.2,0.3-0.2
			c0.4,0,1.1,0.1,1.6,0.2c0.3,0.1,0.3,0.2,0.2,0.4c0,0.1-0.1,0.2-0.1,0.3C69.3,48,69.2,48.2,69.2,48.4z M65,53.3v4.8h5.3v-4.8H65z
			 M70.3,59.8H65v5.1h5.3V59.8z M77.6,56.5c1,1.9,2.5,4.1,3.9,6c0.1,0.1,0.1,0.2-0.1,0.2c-0.4,0.2-0.9,0.5-1.3,0.6
			c-0.2,0.1-0.4,0-0.5-0.1c-1.4-1.9-2.7-4.1-3.8-5.9c-0.1-0.2,0-0.3,0.1-0.3c0.3-0.2,0.8-0.4,1.1-0.5C77.4,56.3,77.5,56.4,77.6,56.5
			z"/>
		<path class="st0" d="M96.9,59.9c-0.1,0.7-0.1,1.4-0.3,2.2c0.8,1.5,1.5,2.6,2.6,3.5V57c-2.2,0-4.1,0-5.9,0.1
			c-0.2,0-0.3-0.1-0.3-0.2c0-0.4-0.1-1-0.1-1.4c0-0.2,0.1-0.2,0.3-0.2c1.9,0.1,3.6,0.1,5.9,0.1l0-3.2c-1.8,0-3.3,0-4.8,0.1
			c-0.2,0-0.3-0.1-0.3-0.2c0-0.4-0.1-1,0-1.4c0-0.2,0.1-0.2,0.3-0.2c1.6,0.1,3.1,0.1,4.9,0.1l0-2.4c0-0.3,0-0.5-0.1-0.7
			c0-0.2,0.1-0.2,0.2-0.3c0.5,0,1.2,0,1.8,0c0.2,0,0.2,0.1,0.2,0.3c-0.1,0.2-0.1,0.4-0.1,0.7l0,2.4c1.6,0,3.2,0,4.2-0.1
			c0.2,0,0.3,0.1,0.3,0.2c0,0.4,0,0.9,0,1.3c0,0.2-0.1,0.2-0.3,0.2l-4.2,0l0,3.2c1.8,0,3.7-0.1,4.7-0.1c0.2,0,0.3,0.1,0.3,0.2
			c0,0.4,0,1,0,1.4c0,0.2-0.1,0.2-0.3,0.2l-4.6,0v3.5h1.8c0.9,0,1.8,0,2.5,0c0.2,0,0.3,0.1,0.3,0.2c0,0.4,0,0.9,0,1.3
			c0,0.2-0.1,0.2-0.3,0.2c-0.7,0-1.6,0-2.5,0h-1.8v4.6c1.8,0.8,4.2,1.1,7.6,1.1c2.8,0,6.2-0.1,9.6-0.4c0.1,0,0.2,0,0.1,0.2
			c-0.3,0.7-0.3,1-0.4,1.3c-0.2,0.4-0.4,0.4-0.8,0.5c-2.3,0.2-5.2,0.2-8.1,0.2c-7.1-0.1-10.6-1-13.1-4.8c-0.4,1.8-1.1,3.6-1.9,5.1
			C94,70,93.9,70.1,93.7,70c-0.3-0.1-0.5-0.3-1.3-0.5c-0.1,0-0.1-0.1-0.1-0.2c1.9-3,2.9-7.2,2.8-10.7c0-0.2,0.1-0.2,0.2-0.2
			c0.4,0,1,0.1,1.5,0.1c0.3,0.1,0.3,0.2,0.3,0.4c0,0.1-0.1,0.2-0.1,0.3C96.9,59.5,96.9,59.7,96.9,59.9z M109,54.5l-0.1,0.6l0,0.5
			h5.4l0-4.7H111c-1.3,0-2.8,0-4.3,0.1c-0.2,0-0.3,0-0.3-0.2c-0.1-0.4-0.1-1.1-0.1-1.5c0-0.2,0.1-0.2,0.3-0.2c1.5,0.1,3,0.1,4.3,0.1
			h3.3v-0.1c0-0.4,0-0.7-0.1-1c0-0.2,0.1-0.2,0.3-0.2c0.5,0,1.1,0,1.6,0c0.2,0,0.3,0.1,0.2,0.3c0,0.3-0.1,0.5-0.1,0.9v9
			c0,0.2-0.1,0.2-0.3,0.3c-0.4,0-1,0-1.4,0c-0.2,0-0.3-0.1-0.3-0.3v-0.8h-5.5c0,1.8-0.1,3.9,0,6c0,0.5,0.3,0.8,0.9,0.8
			c1.4,0.2,3.1,0.2,4.5,0c0.9-0.1,1.4-0.5,1.6-1.2c0.2-0.7,0.3-1.4,0.3-2.1c0-0.1,0.1-0.1,0.2-0.1c0.7,0.3,1,0.4,1.3,0.4
			c0.3,0.1,0.4,0.3,0.3,0.5c-0.1,0.6-0.2,1.4-0.4,2.2c-0.4,1.3-1.3,1.9-3,2.1c-1.8,0.1-3.7,0.1-5.6,0c-1.4-0.1-1.9-0.7-2-2
			c0-3.1,0-6.5,0-8c0-0.4,0-0.9-0.1-1.4c0-0.2,0.1-0.3,0.2-0.3c0.6,0,1.1,0,1.7,0.1C108.9,54.2,109,54.3,109,54.5z"/>
		<path class="st0" d="M126.3,66.5c-0.3,0.9-0.9,2.2-1.6,3.3c-0.1,0.1-0.3,0.2-0.4,0.1c-0.3-0.1-0.5-0.2-1.1-0.4
			c-0.1,0-0.2-0.1-0.1-0.2c0.9-1.2,1.6-2.8,1.9-4.3c0-0.2,0.1-0.2,0.3-0.2c0.4,0,0.9,0.2,1.3,0.3c0.2,0,0.3,0.2,0.1,0.4
			c-0.1,0.2-0.1,0.3-0.2,0.4C126.5,66.1,126.4,66.3,126.3,66.5z M124.9,64.1c-0.2,0.1-0.4,0.1-0.6,0.2c-0.3,0.1-0.4,0-0.5-0.3
			c-0.1-0.4-0.2-0.9-0.3-1.3c0-0.1,0.1-0.2,0.2-0.2c1.7,0,3.7-0.1,5.8-0.3v-2c-1.8,0-3.5,0-5,0.1c-0.2,0-0.3-0.1-0.3-0.2
			c-0.1-0.4-0.1-0.8-0.1-1.1c0-0.2,0.1-0.2,0.3-0.2c1.6,0.1,3.2,0.1,5.1,0.1v-1.9h-3.5v0.8c0,0.2-0.1,0.2-0.3,0.2h-1.1
			c-0.2,0-0.3-0.1-0.3-0.2v-1.4c0-2.3,0-6.1,0-7.4c0-0.4,0-0.8,0-1c0-0.2,0.1-0.2,0.3-0.3c0.4,0,0.8,0,1.2,0c0.2,0,0.3,0.1,0.3,0.2
			l0,0.5h8.6l0-0.5c0-0.2,0.1-0.2,0.3-0.3c0.4,0,0.9,0,1.3,0c0.2,0,0.3,0.1,0.3,0.2c0,0.3-0.1,0.7-0.1,1v8.5c0,0.2-0.1,0.2-0.3,0.2
			h-1.1c-0.2,0-0.3-0.1-0.3-0.2v-0.6h-3.5v1.9c1.8,0,3.8,0,4.8-0.1c0.2,0,0.3,0.1,0.3,0.2V60c0,0.1-0.1,0.2-0.3,0.2h-4.8v1.9
			c1.9-0.2,3.7-0.4,5.2-0.7c0.1,0,0.1,0,0.1,0.1v1c0,0.2-0.1,0.3-0.3,0.4c-3.3,0.5-7.5,0.9-11.1,1.2
			C125.2,64.1,125.1,64.1,124.9,64.1z M126.2,49.8v5.6h3.5v-5.6H126.2z M127.8,54.3c-0.3-1-0.7-2-1.2-2.8c-0.1-0.2,0-0.3,0.1-0.3
			c0.2-0.1,0.5-0.2,0.8-0.2c0.2,0,0.3,0,0.3,0.2c0.5,0.9,1,1.9,1.3,2.8c0.1,0.2,0,0.3-0.1,0.3c-0.3,0.1-0.6,0.2-0.9,0.3
			C128,54.5,127.9,54.5,127.8,54.3z M129,65.1c0.3,1.2,0.7,2.4,1.2,3.7c0,0.1,0,0.2-0.1,0.2c-0.4,0.1-0.8,0.2-1.1,0.3
			c-0.2,0-0.3-0.1-0.4-0.2c-0.5-1.3-0.8-2.5-1.1-3.7c0-0.2,0.1-0.3,0.2-0.3c0.3-0.1,0.7-0.2,1-0.2C128.8,64.8,129,64.9,129,65.1z
			 M132.1,64.8c0.4,1.1,0.9,2.2,1.5,3.4c0.1,0.1,0,0.2-0.1,0.2c-0.4,0.1-0.7,0.3-1.1,0.3c-0.1,0-0.3,0-0.4-0.2
			c-0.6-1.1-1-2.3-1.4-3.4c0-0.2,0-0.3,0.2-0.3c0.3-0.1,0.6-0.2,0.9-0.3C131.9,64.5,132.1,64.6,132.1,64.8z M131.3,55.4h3.5v-5.6
			h-3.5V55.4z M134.2,52.2c-0.3,0.6-0.8,1.5-1.2,2.2c-0.1,0.2-0.2,0.2-0.4,0.2c-0.2-0.1-0.4-0.1-0.9-0.2c-0.1,0-0.2-0.1-0.1-0.2
			c0.6-0.9,1.1-2.1,1.5-3.2c0.1-0.2,0.1-0.2,0.3-0.2c0.3,0.1,0.7,0.2,1,0.3c0.3,0.1,0.3,0.2,0.1,0.4c-0.1,0.1-0.1,0.2-0.1,0.2
			C134.3,51.9,134.3,52,134.2,52.2z M135,64.1c0.4,1,1.1,2,1.8,3c0.1,0.1,0.1,0.2-0.1,0.3c-0.3,0.1-0.7,0.3-1,0.4
			c-0.2,0-0.3,0-0.4-0.1c-0.7-1-1.2-2-1.7-3c-0.1-0.2,0-0.3,0.1-0.3c0.3-0.1,0.6-0.2,0.9-0.3C134.8,63.9,135,64,135,64.1z M139,70
			c-0.4,0-0.9,0-1.3,0c-0.2,0-0.3-0.1-0.3-0.2v-2.6c0-2.4,0-5.8,0-7.3c0-0.7,0-1.7-0.1-2.2c0-0.2,0.1-0.2,0.2-0.3c0.4,0,0.9,0,1.3,0
			c0.2,0,0.2,0.1,0.2,0.3l-0.1,1.2h2.4c0.1-3.9,0.1-8.3,0-10.6c0-0.3-0.1-0.6-0.1-0.9c0-0.2,0.1-0.2,0.3-0.2c0.5,0,1.1,0,1.6,0
			c0.2,0,0.3,0.1,0.2,0.3c0,0.3-0.1,0.5-0.1,0.8c-0.1,1.1-0.1,2.6-0.1,4.3h2.3c1.1,0,2.4,0,3.2,0c0.2,0,0.3,0,0.3,0.2
			c0,0.4,0,0.9,0,1.3c0,0.2-0.1,0.3-0.3,0.2h-5.5l0,4.7h3.1l-0.1-1.3c0-0.2,0.1-0.2,0.3-0.3c0.4,0,0.9,0,1.3,0
			c0.2,0,0.3,0.1,0.3,0.3c0,0.5-0.1,1.5-0.1,2.2v9.8c0,0.2-0.1,0.3-0.3,0.3c-0.4,0-0.9,0-1.3,0c-0.2,0-0.3-0.1-0.3-0.3v-1.5h-7.1
			v1.6C139.3,69.9,139.2,70,139,70z M139.3,60.6v5.9h7.1v-5.9H139.3z"/>
		<path class="st0" d="M4.1,97.6c-0.5,1-1.4,2.6-2.4,3.8c-0.1,0.2-0.3,0.2-0.5,0.1c-0.2-0.1-0.5-0.3-1.1-0.5C0,101,0,100.9,0,100.8
			c1.2-1.3,2.4-3.2,2.9-4.9c0.1-0.1,0.2-0.2,0.3-0.2c0.4,0.1,0.9,0.3,1.3,0.4c0.2,0.1,0.2,0.2,0.1,0.4c-0.1,0.2-0.1,0.4-0.3,0.6
			C4.3,97.2,4.2,97.4,4.1,97.6z M13.8,84.2c0,0.4,0,0.8,0,1.2c0,0.2-0.1,0.2-0.3,0.2c-1.3,0-4,0-6.4,0s-4.4,0-6.4,0.1
			c-0.2,0-0.3-0.1-0.3-0.2c0-0.4-0.1-0.9,0-1.3c0-0.2,0.1-0.2,0.3-0.2c1.8,0.1,3.5,0.1,5.7,0.1l0-2.6c0-0.2,0-0.3-0.1-0.5
			c0-0.2,0-0.2,0.2-0.3c0.5,0,1.2,0,1.7,0c0.2,0,0.3,0.1,0.3,0.3c-0.1,0.2-0.1,0.3-0.1,0.5c-0.1,0.6-0.1,1.6-0.1,2.6
			c2,0,4.1,0,5.3-0.1C13.7,84,13.8,84,13.8,84.2z M3.9,95.1c-0.4,0-0.8,0-1.1,0c-0.2,0-0.3-0.1-0.3-0.3v-6.2c0-0.4,0-1.2,0-1.6
			c0-0.2,0.1-0.3,0.3-0.3c0.4,0,0.9,0,1.3,0c0.2,0,0.3,0.1,0.3,0.2l0,0.7h6l0-0.7c0-0.2,0.1-0.3,0.3-0.3c0.4,0,0.9,0,1.3,0
			c0.2,0,0.3,0.1,0.3,0.2c0,0.4,0,1.1,0,1.5v6.2c0,0.2-0.1,0.3-0.3,0.3c-0.4,0-0.8,0-1.1,0c-0.2,0-0.3-0.1-0.3-0.3V94H8.2l-0.1,0.7
			c0,1.4,0,3.9,0,6.9c0,1.2-0.5,1.8-1.8,1.8c-0.7,0-1.3,0-1.7,0c-0.3,0-0.5-0.2-0.6-0.5c-0.1-0.3-0.2-0.7-0.3-1
			c-0.1-0.2,0-0.2,0.1-0.2c0.6,0.1,1.1,0.2,1.8,0.1c0.5,0,0.7-0.2,0.7-0.7c0-2.3,0-5.2,0-6.5c0-0.1,0-0.3,0-0.4V94H4.2v0.8
			C4.2,95,4.1,95.1,3.9,95.1z M4.2,89.3v3.2h6v-3.2H4.2z M11.1,95.8c0.6,1.3,1.2,2.6,2,3.7c0.1,0.1,0,0.2-0.1,0.2
			c-0.3,0.2-0.7,0.3-1.1,0.5c-0.3,0.1-0.4,0-0.6-0.2c-0.7-1.1-1.4-2.5-1.8-3.6c-0.1-0.1,0-0.3,0.1-0.3c0.3-0.2,0.7-0.3,1.1-0.4
			C10.9,95.6,11,95.7,11.1,95.8z M20,91.1l-0.1,0.7c0,0.2,0,0.5,0,0.7c-0.1,2.3-0.1,5.5-0.1,8.5c0,0.4,0.2,0.6,0.6,0.7
			c0.8,0.1,1.6,0.1,2.4,0c0.6-0.1,1-0.4,1.2-1c0.2-0.8,0.2-1.7,0.2-2.5c0-0.1,0.1-0.1,0.2-0.1c0.5,0.3,0.9,0.3,1.2,0.4
			c0.3,0.1,0.4,0.3,0.4,0.5c0,0.8-0.2,1.6-0.4,2.5c-0.4,1.2-1.1,1.8-2.5,1.9c-1.1,0.1-2.2,0.1-3.3,0c-1.2-0.1-1.7-0.7-1.7-1.8
			c-0.1-2.6,0-5.5,0-7.5c-0.8,3.9-2.4,6.7-5.6,9.5c-0.2,0.2-0.4,0.2-0.7,0.1c-0.3-0.2-0.5-0.4-1.2-0.7c-0.1-0.1-0.1-0.2,0-0.2
			c4.7-3.4,6-7.6,6.3-13.6c-1.3,0-2.4,0-3.6,0.1c-0.2,0-0.3,0-0.3-0.2c0-0.4-0.1-1-0.1-1.4c0-0.2,0.1-0.2,0.3-0.2
			c1.3,0.1,2.4,0.1,3.8,0.1c0-1.9,0-3.9-0.1-6.2c0-0.2,0.1-0.2,0.3-0.2c0.5,0,1.2,0.1,1.7,0.1c0.3,0.1,0.3,0.2,0.3,0.4
			C19,81.8,19,82,18.9,82.2c0,0.3,0,0.5-0.1,0.8l-0.1,4.3h0.3c2.2,0,4.8,0,6-0.1c0.2,0,0.3,0.1,0.3,0.2c0,0.4,0,0.9,0,1.3
			c0,0.2-0.1,0.2-0.3,0.2c-1.2,0-3.7,0-6,0h-0.4l-0.1,1.8c0.4,0,0.8,0,1.3,0C20,90.9,20,91,20,91.1z M21.6,81.9c1,1.4,2,2.7,3.1,3.7
			c0.1,0.1,0.1,0.2,0,0.2c-0.3,0.2-0.6,0.5-0.9,0.7c-0.2,0.1-0.4,0.1-0.6-0.1c-1-1.1-2.1-2.6-2.9-3.7c-0.1-0.2-0.1-0.3,0.1-0.4
			c0.3-0.2,0.6-0.4,1-0.6C21.4,81.7,21.5,81.8,21.6,81.9z"/>
		<path class="st0" d="M36.6,103.7c-0.5,0-1.1,0-1.5,0c-0.2,0-0.3-0.1-0.3-0.3c0.1-5.1,0-10.7,0-11.4C34,92.9,33,93.7,32,94.4
			c-0.2,0.2-0.4,0.1-0.5-0.1c-0.2-0.2-0.3-0.5-0.9-1.1c-0.1-0.1-0.1-0.1,0-0.2c2.7-1.9,5.3-4.7,6.9-7.2c0.1-0.1,0.2-0.2,0.3-0.1
			c0.4,0.2,0.9,0.6,1.3,0.9c0.2,0.2,0.2,0.3,0,0.5l-0.2,0.2c-0.1,0.1-0.2,0.3-0.4,0.4c-0.5,0.7-1.1,1.4-1.7,2.1c0,1,0,9.5,0.1,13.5
			C36.8,103.6,36.8,103.7,36.6,103.7z M38,82.7c-1.4,1.4-3.4,3.2-5.4,4.3c-0.2,0.1-0.4,0.1-0.6-0.1c-0.2-0.2-0.3-0.5-0.9-1
			c-0.1-0.1-0.1-0.2,0-0.2c2.2-1.2,4.5-3.1,6-4.8c0.1-0.1,0.2-0.2,0.3,0c0.4,0.2,0.9,0.6,1.2,0.9c0.2,0.2,0.2,0.3-0.1,0.5
			c-0.1,0-0.1,0.1-0.2,0.1C38.3,82.5,38.2,82.6,38,82.7z M43.6,93.3c-0.1,0.8-0.3,1.6-0.5,2.3c0.8,2.4,2.1,3.9,3.8,4.8
			c0-3.3,0.1-6.9,0-8.9c0-0.3,0-0.5-0.1-0.8c0-0.2,0.1-0.3,0.3-0.3c0.5,0,1.2,0,1.7,0c0.2,0,0.3,0.1,0.2,0.3
			c-0.1,0.3-0.1,0.5-0.1,0.7l-0.1,2.7h3.1c1.1,0,2.5,0,3.4,0c0.2,0,0.3,0.1,0.3,0.2c0,0.4,0,0.9,0,1.2c0,0.2-0.1,0.2-0.3,0.2h-6.5
			l0,5.2c2.1,0.5,4.7,0.6,8,0.5c0.1,0,0.2,0,0.1,0.2c-0.3,0.7-0.3,1-0.4,1.2c-0.1,0.3-0.3,0.4-0.6,0.4c-6.9,0.1-11.3-0.7-13.6-5.3
			c-0.7,2-1.8,3.9-3.2,5.5c-0.1,0.2-0.3,0.2-0.6,0.1c-0.2-0.2-0.5-0.4-1.2-0.7c-0.1,0-0.1-0.1,0-0.2c2.7-2.8,4.2-6.9,4.6-10.7
			c0-0.2,0.1-0.2,0.3-0.2c0.4,0,1,0.1,1.5,0.2c0.3,0.1,0.3,0.2,0.2,0.4c-0.1,0.1-0.1,0.3-0.1,0.4C43.6,93,43.6,93.1,43.6,93.3z
			 M45.2,82.3c-0.2,0.6-0.4,1.2-0.7,1.9c0.9,1.1,2,2.1,3.1,3c0.1,0.1,0.1,0.1,0,0.2c-0.3,0.3-0.6,0.6-1,0.9c-0.2,0.1-0.3,0.1-0.4,0
			c-0.9-0.7-1.7-1.6-2.4-2.4c-0.9,1.8-2,3.7-3.5,5.2c-0.2,0.2-0.4,0.2-0.6,0.1c-0.2-0.2-0.5-0.4-1.3-0.7c-0.1,0-0.1-0.1,0-0.2
			c2.7-2.6,4.5-6.2,5.2-9.4c0-0.1,0.1-0.2,0.3-0.2c0.4,0,1,0.2,1.5,0.3c0.3,0.1,0.3,0.2,0.2,0.4c-0.1,0.1-0.1,0.2-0.2,0.3
			C45.3,82,45.3,82.1,45.2,82.3z M52.9,82.3c-0.2,0.7-0.5,1.4-0.8,2.1c1.3,1.7,3,3.5,4.6,4.9c0.1,0.1,0.1,0.2,0,0.2
			c-0.3,0.3-0.7,0.7-1.1,0.9c-0.2,0.1-0.4,0.1-0.5,0c-1.4-1.3-2.7-2.8-3.9-4.2c-0.8,1.5-1.9,3-3.2,4.3c-0.2,0.1-0.3,0.2-0.5,0.1
			c-0.2-0.2-0.4-0.4-1.2-0.8c-0.1-0.1-0.1-0.1,0-0.2c2.6-2.2,4.3-5.3,5-8.4c0-0.1,0.1-0.2,0.3-0.2c0.4,0,1,0.2,1.5,0.3
			c0.3,0,0.3,0.2,0.2,0.4c-0.1,0.1-0.1,0.2-0.2,0.3C53,82,52.9,82.1,52.9,82.3z"/>
		<path class="st0" d="M62.4,101.5c0-0.9,0-1.5,0.5-1.5l5.2,0c0.1-2.5,0.1-5,0.1-7.5L68.1,86c-3,2.1-4.1,2.8-4.3,2.8
			c-0.3,0-0.9-0.9-0.9-1.2c0-0.2,0.1-0.3,0.4-0.5l4.9-3.4c0.4-0.3,0.9-0.4,1.7-0.4c0.3,0,0.4,0.1,0.4,0.3c0,2.8-0.1,5.8-0.1,8.8
			c0,2.5,0,5,0.1,7.5c1.6,0,3.5-0.1,5-0.1c0.2,0,0.3,0.1,0.3,0.3c0,1.1-0.1,1.6-0.5,1.6H62.8C62.6,101.8,62.4,101.6,62.4,101.5z"/>
		<path class="st0" d="M86.4,103.7c-0.5,0-1,0-1.5,0c-0.2,0-0.3-0.1-0.3-0.3c0.1-3,0.1-7.3,0.1-10.8c-0.8,2.2-1.7,4.3-2.7,6
			c-0.2,0.3-0.4,0.3-0.6,0.1c-0.2-0.2-0.4-0.5-1-0.9c-0.1-0.1-0.1-0.2,0-0.3c1.6-2.3,3.2-6,4-9.5c-1,0-2,0-2.9,0
			c-0.2,0-0.3-0.1-0.3-0.2c0-0.4-0.1-1-0.1-1.4c0-0.2,0.1-0.2,0.3-0.2c1.1,0.1,2.1,0.1,3.2,0.1V82c0-0.3,0-0.6-0.1-0.9
			c0-0.2,0.1-0.3,0.2-0.3c0.5,0,1.1,0,1.5,0c0.2,0,0.3,0.1,0.2,0.3c0,0.4,0,0.6,0,0.9v4.3l2.1-0.1l0-1c0-0.2,0.1-0.2,0.3-0.2
			c0.8,0,1.6,0.1,2.2,0.1v-1.7c0-0.4,0-0.9,0-1.2c0-0.2,0.1-0.3,0.3-0.3c0.4,0,0.9,0,1.3,0c0.2,0,0.3,0.1,0.3,0.3v0.4h3.7v-0.8
			c0-0.3,0-0.6-0.1-1c0-0.2,0.1-0.2,0.3-0.2c0.5,0,1.1,0,1.5,0.1c0.2,0,0.3,0.1,0.2,0.3c0,0.4-0.1,0.7-0.1,0.9v0.8h3.9v-0.5
			c0-0.2,0.1-0.3,0.3-0.3c0.4,0,0.9,0,1.3,0c0.2,0,0.3,0.1,0.3,0.3c0,0.3,0,0.8,0,1.2v1.7l2.3-0.1c0.2,0,0.3,0.1,0.3,0.2
			c0,0.4,0,0.8,0,1.2c0,0.2-0.1,0.2-0.3,0.2l-2.3,0v1.9v1c0,0.2-0.1,0.3-0.3,0.3h-1.2c-0.2,0-0.3-0.1-0.3-0.3v-0.2h-3.9v1.4h4.6
			v-0.2c0-0.2,0.1-0.3,0.3-0.3h1.3c0.2,0,0.3,0.1,0.3,0.3c0,0.3,0,0.7,0,0.9v3.6c0,0.2-0.1,0.2-0.3,0.2h-1.3c-0.2,0-0.3-0.1-0.3-0.2
			v-0.3h-7.8c0.5,0.1,1,0.1,1.5,0.3c0.2,0.1,0.3,0.2,0.1,0.4l-0.7,1h1.4h3l0.1-0.7c0-0.2,0.1-0.2,0.3-0.2c0.5,0,1.1,0,1.6,0.1
			c0.3,0,0.3,0.1,0.2,0.3c0,0.2-0.1,0.3-0.1,0.4l0,0.2l3.7-0.1c0.2,0,0.3,0.1,0.3,0.3c0,0.3,0,0.7,0,1.1c0,0.2-0.1,0.2-0.3,0.2
			l-4.1,0c-0.4,1.2-1,2.1-1.9,2.9c1.8,0.6,3.7,1.3,5.4,1.9c0.2,0.1,0.2,0.2,0.1,0.3c-0.3,0.3-0.6,0.7-1,0.9
			c-0.1,0.1-0.3,0.1-0.4,0.1c-1.7-0.8-3.7-1.5-5.6-2.1c-2.1,1.1-5.2,1.8-9.5,2.2c-0.3,0-0.5-0.1-0.7-0.3c-0.1-0.2-0.3-0.5-0.8-1
			c-0.1-0.1-0.1-0.2,0.1-0.2c3.9-0.2,6.6-0.7,8.6-1.5c-1.1-0.3-2.1-0.6-3.1-0.8l-0.5,0.6c-0.1,0.1-0.3,0.2-0.4,0.1
			c-0.4-0.1-0.9-0.2-1.3-0.4c-0.2-0.1-0.2-0.2-0.1-0.3c0.8-0.9,1.4-1.7,2-2.5c-1.5,0-2.9,0.1-4.3,0.1c-0.2,0-0.3-0.1-0.3-0.2
			c0-0.4-0.1-0.9-0.1-1.2c0-0.2,0.1-0.2,0.3-0.2c1.7,0.1,3.4,0.1,5.4,0.1l0.3-0.5c0.1-0.3,0.3-0.5,0.5-0.9c0-0.1,0.1-0.2,0.2-0.2
			h-3.1V95c0,0.2-0.1,0.3-0.3,0.3c-0.4,0-0.9,0-1.3,0c-0.2,0-0.3-0.1-0.3-0.3v-3.7c0-0.2,0-0.6,0-0.9c0-0.2,0.1-0.3,0.3-0.3h1.3
			c0.2,0,0.3,0.1,0.2,0.3v0.2h4.6v-1.4h-3.8v0.3c0,0.2-0.1,0.3-0.3,0.3h-1.2c-0.2,0-0.3-0.1-0.3-0.3v-2.9L89,86.7v1.1
			C89,88,88.9,88,88.7,88h-2.2v3.2c0.3-0.2,0.6-0.3,0.9-0.5c0.2-0.1,0.3,0,0.4,0.1c0.5,1.1,1.1,2.2,1.7,3.1c0.1,0.1,0.1,0.2-0.1,0.3
			c-0.4,0.2-0.7,0.4-1.1,0.6c-0.2,0.1-0.3,0-0.4-0.1c-0.6-1-1-1.9-1.5-2.8c0,3.6,0.1,8.2,0.1,11.5C86.7,103.6,86.6,103.6,86.4,103.7
			z M92.1,91.9v1.4h4.6v-1.4H92.1z M92.9,85.2h3.8V84h-3.8V85.2z M96.7,87.9v-1.4h-3.8v1.4H96.7z M94.4,98.8c1.2,0.3,2.6,0.6,4,1.1
			c0.9-0.7,1.5-1.4,1.8-2.3h-2.6h-2.3L94.4,98.8z M98.4,84v1.2h4V84H98.4z M102.4,86.5h-4v1.4h4V86.5z M98.5,93.3h4.7v-1.4h-4.7
			V93.3z"/>
		<path class="st0" d="M119.7,103.6c-0.5,0-1.1,0-1.5,0c-0.2,0-0.3-0.1-0.2-0.3l0.1-6.4c-1.3,1.8-3.2,3.8-5.1,5.1
			c-0.2,0.1-0.4,0.1-0.6,0c-0.2-0.2-0.4-0.4-1.1-0.8c-0.1-0.1-0.1-0.1,0-0.2c2.3-1.4,4.5-3.6,5.9-5.7c-1.7,0-3.3,0-4.8,0.1
			c-0.2,0-0.3-0.1-0.3-0.2c0-0.4-0.1-1-0.1-1.3c0-0.2,0.1-0.2,0.3-0.2c1.8,0.1,3.5,0.1,5.6,0.1v-1.4c0-0.2,0-0.4,0-0.7
			c0-0.2,0-0.3,0.2-0.3c0.5,0,1.1,0,1.6,0.1c0.2,0,0.3,0.1,0.2,0.3c0,0.3-0.1,0.4-0.1,0.6v1.4c1.9,0,3.8,0,4.8-0.1
			c0.2,0,0.3,0.1,0.3,0.2c0,0.4,0,0.9,0,1.2c0,0.2-0.1,0.2-0.3,0.2h-4.9c0,2,0,5.8,0.1,8.1C119.9,103.5,119.9,103.6,119.7,103.6z
			 M122.7,86.7c-0.3,0.8-0.7,1.8-1.2,2.7c1.4,0,2.6,0,3.4-0.1c0.2,0,0.3,0,0.3,0.2c0,0.4,0,0.9,0,1.3c0,0.2-0.1,0.2-0.3,0.2
			c-1.3,0-4,0-6.4,0c-2.4,0-4.3,0-6.3,0.1c-0.2,0-0.3-0.1-0.3-0.2c0-0.4-0.1-1-0.1-1.4c0-0.2,0.1-0.2,0.3-0.2c2,0.1,3.9,0.1,6.4,0.1
			h1.2c0.6-1.2,1.2-2.7,1.6-4c0-0.2,0.1-0.2,0.3-0.2c0.4,0.1,1,0.2,1.4,0.3c0.2,0.1,0.3,0.2,0.1,0.4c-0.1,0.1-0.1,0.2-0.1,0.3
			C122.9,86.3,122.8,86.5,122.7,86.7z M124.9,83.4v1.2c0,0.2-0.1,0.2-0.3,0.2c-1.2,0-3.8,0-6,0c-2.2,0-4.1,0-5.9,0.1
			c-0.2,0-0.3-0.1-0.3-0.2c0-0.4-0.1-0.9-0.1-1.3c0-0.2,0.1-0.2,0.3-0.2c1.7,0.1,3.2,0.1,5.2,0.1l0-1.9c0-0.2,0-0.3,0-0.5
			c0-0.2,0.1-0.3,0.2-0.3c0.5,0,1.2,0,1.7,0c0.2,0,0.3,0.1,0.2,0.3c0,0.2-0.1,0.3-0.1,0.4c-0.1,0.5-0.1,1.2-0.1,1.9
			c1.9,0,3.8,0,4.8-0.1C124.8,83.2,124.8,83.3,124.9,83.4z M115.6,88.8c-0.3-1-0.6-2-1-2.9c-0.1-0.2,0-0.3,0.1-0.3
			c0.4-0.2,0.8-0.3,1.2-0.3c0.2,0,0.3,0,0.3,0.2c0.4,1,0.8,2,1.1,2.9c0.1,0.2,0,0.3-0.2,0.3c-0.4,0.2-0.9,0.3-1.4,0.3
			C115.7,89,115.6,89,115.6,88.8z M121.7,96.6c0.9,0.8,1.9,1.6,3,2.4c0.1,0.1,0.1,0.2,0,0.2c-0.3,0.3-0.6,0.6-1,0.8
			c-0.1,0.1-0.3,0.1-0.4,0c-1-0.8-2-1.6-2.8-2.5c-0.1-0.1-0.1-0.2,0-0.3c0.3-0.2,0.6-0.5,0.8-0.7C121.4,96.4,121.6,96.4,121.7,96.6z
			 M137.3,89.3c0,0.4,0,1,0,1.3c0,0.2-0.1,0.3-0.3,0.2h-2.8v0.3c0,0.8,0,8.5,0.1,12.3c0,0.2-0.1,0.2-0.3,0.2c-0.5,0-1.1,0-1.5,0
			c-0.2,0-0.3-0.1-0.3-0.3c0.1-4.7,0-11.6,0-12.3v-0.3h-4l0,1.4c0,3.7-0.7,8-2.8,10.9c-0.2,0.2-0.4,0.3-0.6,0.2
			c-0.3-0.1-0.4-0.3-1.2-0.6c-0.1,0-0.1-0.1-0.1-0.2c2-2.6,2.7-6.4,2.8-10c0.1-1.8,0-6.4-0.1-8.4c0-0.6-0.1-1.1-0.1-1.6
			c0-0.2,0.1-0.3,0.3-0.3c0.5,0,1.2,0,1.7,0c0.2,0,0.3,0.1,0.2,0.3l-0.1,0.8c2.3-0.4,5-1.2,6.6-2c0.1-0.1,0.3,0,0.4,0.1
			c0.3,0.3,0.8,0.7,1.1,1.1c0.2,0.2,0.1,0.3-0.2,0.4c-0.2,0.1-0.3,0.1-0.5,0.1c-0.3,0.1-0.6,0.2-0.9,0.3c-1.7,0.6-4.3,1.3-6.6,1.8
			l0,4.2h4.1c1.5,0,3.4,0,4.5-0.1C137.2,89.1,137.2,89.2,137.3,89.3z"/>
		<path class="st0" d="M167.4,95.9c0,0.4,0,0.9,0,1.3c0,0.2-0.1,0.2-0.3,0.2l-10.4,0c2,2.8,6.3,4.4,11.5,4.7c0.1,0,0.2,0.1,0.1,0.2
			c-0.6,0.7-0.7,1-0.9,1.3c-0.1,0.2-0.3,0.2-0.6,0.2c-5.1-0.5-9.4-2.2-11.7-5.5c-1.6,3.1-5.1,4.7-11.5,5.5c-0.3,0-0.5-0.1-0.7-0.3
			c-0.1-0.2-0.3-0.6-0.8-1.2c-0.1-0.1-0.1-0.2,0.1-0.2c6.7-0.5,9.9-2,11.1-4.7c-3.8,0-6.8,0-9.9,0.2c-0.2,0-0.3-0.1-0.3-0.2
			c-0.1-0.4-0.1-1.1-0.1-1.5c0-0.2,0.1-0.2,0.3-0.2c3.3,0.2,6.4,0.2,10.6,0.2c0.1-0.6,0.2-1.2,0.2-1.9c0-0.2,0.1-0.2,0.2-0.2
			c0.5,0,1.2,0,1.7,0c0.3,0,0.3,0.1,0.2,0.3c0,0.2-0.1,0.3-0.1,0.5c0,0.3-0.1,0.5-0.1,0.8l-0.1,0.6c4.4,0,9.1-0.1,11.1-0.1
			C167.3,95.6,167.4,95.7,167.4,95.9z M161.6,82.2l-1.5,2.1c2.6,0,5,0,6.3-0.1c0.2,0,0.3,0.1,0.3,0.2c0,0.4,0,0.9,0,1.2
			c0,0.2-0.1,0.2-0.3,0.2h-10.1V88c3.3,0,6.9,0,8.5-0.1c0.2,0,0.3,0.1,0.3,0.2v1.2c0,0.2-0.1,0.2-0.3,0.2h-8.5v2.2
			c4.5,0,9.2,0,11.2-0.1c0.2,0,0.3,0.1,0.3,0.2c0,0.4,0,0.9,0,1.3c0,0.2-0.1,0.2-0.3,0.2c-2.2,0-7.4,0-12.2,0
			c-4.9,0-8.4-0.1-12.1,0.2c-0.2,0-0.3-0.1-0.3-0.2c0-0.4-0.1-1.1-0.1-1.5c0-0.2,0.1-0.2,0.3-0.2c3.4,0.2,6.7,0.2,11.1,0.2v-2.2
			c-3.1,0-5.6,0-8.1,0.1c-0.2,0-0.3-0.1-0.3-0.3c-0.1-0.4-0.1-0.9-0.1-1.3c0-0.2,0.1-0.2,0.3-0.2c2.5,0.2,5,0.2,8.2,0.2v-2.2
			c-3.9,0-6.8,0-9.9,0.1c-0.2,0-0.3-0.1-0.3-0.2c-0.1-0.4-0.1-1-0.1-1.4c0-0.2,0.1-0.2,0.3-0.2c2.1,0.1,4.1,0.2,6.4,0.2l-0.1-0.1
			c-0.6-1-1.2-1.9-1.8-2.7c-0.1-0.1-0.1-0.2,0.1-0.3c0.4-0.2,1-0.4,1.4-0.6c0.2-0.1,0.3,0,0.4,0.1c0.7,0.9,1.3,1.7,2,2.7
			c0.1,0.1,0.1,0.2-0.1,0.3c-0.4,0.2-0.9,0.4-1.3,0.5h4.1h2.4c0.8-1.1,1.7-2.4,2.3-3.5c0.1-0.1,0.2-0.2,0.3-0.2
			c0.5,0.1,1.1,0.3,1.7,0.5c0.2,0.1,0.2,0.2,0.1,0.4c0,0.1-0.1,0.1-0.1,0.2C161.7,81.9,161.7,82,161.6,82.2z"/>
		<path class="st0" d="M182.7,99c-1.9,1.4-4.9,3.3-7.6,4.4c-0.2,0.1-0.4,0.1-0.6-0.1c-0.2-0.2-0.4-0.5-1.1-1c-0.1-0.1-0.1-0.1,0-0.2
			c3-1.1,6.4-3.1,8.3-4.9c0.1-0.1,0.2-0.1,0.4,0c0.4,0.2,0.8,0.6,1.2,0.9c0.2,0.2,0.1,0.3-0.1,0.4c-0.1,0-0.1,0.1-0.2,0.2
			C183,98.8,182.9,98.9,182.7,99z M189.6,85.6c0.8,0.6,1.8,1.3,2.9,2c1-0.8,1.8-1.7,2.5-2.7h-2.6c-1.4,0-2.9,0-4.3,0.1
			c-0.2,0-0.3-0.1-0.3-0.2c-0.1-0.4-0.1-1-0.1-1.4c0-0.1,0-0.1,0.1-0.1h-1.6v0.4c0,0.7,0,6.3,0.1,9.2c0,0.2-0.1,0.3-0.3,0.3
			c-0.4,0-1,0-1.4,0c-0.2,0-0.3-0.1-0.3-0.3v-1.3c-2.8,0.5-6.2,0.9-9.2,1.2c-0.1,0-0.3,0-0.4,0c-0.2,0.1-0.4,0.1-0.5,0.1
			c-0.3,0.1-0.3,0-0.4-0.2c-0.1-0.4-0.3-0.9-0.3-1.3c0-0.1,0.1-0.2,0.2-0.2c0.9,0,2-0.1,3.1-0.2v-7.8c-1,0-1.9,0.1-2.8,0.1
			c-0.2,0-0.3-0.1-0.3-0.3c0-0.4,0-0.8,0-1.2c0-0.2,0.1-0.3,0.3-0.2c2.3,0.1,4.5,0.1,7.4,0.1c2.8,0,6,0,7.4-0.1
			c0.2,0,0.3,0.1,0.3,0.2c0,0.4,0,0.8,0,1.1c0,0.1-0.1,0.2-0.1,0.2c1.2,0.1,2.3,0,3.5,0h3.6l0.4-0.8c0.1-0.1,0.1-0.2,0.3-0.1
			c0.4,0.1,1,0.3,1.4,0.5c0.3,0.1,0.3,0.2,0.1,0.4c-0.1,0.1-0.2,0.2-0.3,0.4c-0.1,0.1-0.2,0.3-0.3,0.5c-0.9,1.6-2.1,3.2-3.6,4.5
			c1.5,0.9,3.2,1.8,4.7,2.5c0.1,0.1,0.1,0.2,0.1,0.2c-0.3,0.3-0.7,0.7-1.1,1c-0.2,0.1-0.4,0.1-0.6,0c-1.5-0.8-3.1-1.7-4.6-2.6
			c-1.3,0.9-2.8,1.7-4.5,2.3c-0.2,0.1-0.4,0.1-0.6-0.1c-0.2-0.2-0.4-0.4-1-0.9c-0.1-0.1-0.1-0.1,0-0.2c1.7-0.6,3.2-1.3,4.5-2.1
			c-1-0.7-2-1.3-2.8-2c-0.1-0.1-0.1-0.2,0-0.3c0.3-0.3,0.7-0.6,1-0.8C189.3,85.5,189.4,85.5,189.6,85.6z M181.7,94.2
			c-1.7,1.1-4.3,2.6-6.6,3.5c-0.2,0.1-0.4,0.1-0.6-0.1c-0.2-0.2-0.4-0.5-1-1c-0.1-0.1-0.1-0.1,0-0.2c2.6-0.8,5.6-2.4,7.4-3.9
			c0.1-0.1,0.2-0.1,0.4,0c0.4,0.2,0.8,0.6,1.1,0.9c0.2,0.2,0.1,0.3-0.1,0.4c-0.1,0-0.1,0.1-0.2,0.1C182,94,181.9,94.1,181.7,94.2z
			 M178.6,84.8h5.7v-1.1v-0.4h-3h-2.7V84.8z M178.6,87.6h5.7v-1.5h-5.7V87.6z M184.3,90.1v-1.2h-5.7v2
			C180.6,90.7,182.6,90.4,184.3,90.1z M191.6,93.1c-1.2,0.6-2.8,1.3-4.5,2l0,0.1c-0.1,1.8-0.1,5.1,0,8.1c0,0.2-0.1,0.3-0.3,0.3
			c-0.4,0-1.1,0-1.5,0c-0.2,0-0.3-0.1-0.3-0.3c0.1-2.6,0.1-5.6,0-7.4c-1.3,0.5-2.5,0.8-3.7,1.1c-0.3,0.1-0.4,0-0.6-0.2
			c-0.2-0.2-0.3-0.5-0.8-1.1c-0.1-0.1,0-0.1,0.1-0.2c3.8-0.8,8.3-2.5,11.1-4.2c0.1-0.1,0.2-0.1,0.4,0c0.3,0.3,0.7,0.6,1,1
			c0.2,0.2,0.1,0.3-0.1,0.4c-0.1,0-0.2,0.1-0.3,0.1C192,93,191.8,93,191.6,93.1z M196.4,95.4c-1.1,0.8-2.8,1.8-4.3,2.7
			c1.8,1.8,4.2,3.3,6.9,4.1c0.1,0,0.1,0.1,0,0.2c-0.6,0.5-0.9,0.8-1.1,1.1c-0.2,0.1-0.4,0.1-0.6,0.1c-3.9-1.5-7.2-4.4-9.2-7.7
			c-0.1-0.2-0.1-0.3,0.1-0.3c0.3-0.2,0.8-0.4,1.2-0.6c0.1,0,0.3,0,0.4,0.1c0.4,0.6,0.8,1.2,1.3,1.8c1.7-1,3.7-2.3,5-3.4
			c0.1-0.1,0.3-0.1,0.4,0c0.3,0.3,0.8,0.7,1.1,1c0.2,0.2,0.1,0.3-0.1,0.4c-0.1,0.1-0.2,0.1-0.3,0.2
			C196.8,95.2,196.6,95.3,196.4,95.4z"/>
		<path class="st0" d="M205.4,99.4c-0.2,0.1-0.3,0.2-0.4,0.2c-0.2,0.1-0.3,0.1-0.5-0.1c-0.2-0.4-0.4-1-0.6-1.5c0-0.1,0-0.2,0.1-0.3
			c1.1-0.4,2.4-0.9,3.8-1.5l0.1-7.7c-1.1,0-2.1,0-3.2,0.1c-0.2,0-0.3-0.1-0.3-0.3c-0.1-0.4-0.1-1-0.1-1.5c0-0.2,0.1-0.2,0.3-0.2
			c1.1,0.1,2.1,0.1,3.2,0.1c0-1.8-0.1-3.4-0.1-4.6c0-0.4,0-0.6-0.1-1c0-0.2,0.1-0.3,0.2-0.3c0.5,0,1.2,0,1.8,0.1
			c0.2,0,0.3,0.1,0.2,0.3c-0.1,0.3-0.1,0.6-0.1,0.9l-0.1,4.6c1,0,2.1,0,2.7-0.1c0.2,0,0.3,0,0.3,0.2c0,0.4,0,1,0,1.4
			c0,0.1-0.1,0.2-0.3,0.2h-2.7l0,6.8c0.9-0.4,1.7-0.9,2.4-1.3c0.1-0.1,0.2,0,0.2,0.1c0.1,0.7,0.2,1.1,0.2,1.4c0,0.2-0.1,0.4-0.3,0.5
			c-1.9,1.1-4.6,2.3-6.7,3.3C205.6,99.3,205.5,99.3,205.4,99.4z M219.3,97.1c-1.8,1.6-4.6,3.4-7.1,4.5c-0.2,0.1-0.4,0.1-0.6-0.1
			c-0.2-0.2-0.3-0.4-1-0.8c-0.1-0.1-0.1-0.1,0-0.2c2.9-1.1,6-3.1,7.8-4.9l0.1-0.1H216c-1.2,0.9-2.5,1.8-3.7,2.4
			c-0.2,0.1-0.4,0.1-0.6,0c-0.2-0.2-0.4-0.4-1.1-0.8c-0.1-0.1-0.1-0.1,0-0.2c2.4-1,4.8-2.7,6.4-4.5c-1.6,0-3.1,0.1-4.6,0.1
			c-0.2,0-0.3,0-0.3-0.2c0-0.4,0-1,0-1.3c0-0.2,0.1-0.2,0.3-0.2c2.6,0.2,5.1,0.2,8.5,0.2c3.2,0,6.9,0,8.5-0.1c0.2,0,0.3,0.1,0.3,0.2
			c0,0.4,0,0.8,0,1.2c0,0.2-0.1,0.3-0.3,0.3c-1.6,0-5.2,0-8.5,0h-1.5c0.1,0.1,0.1,0.2-0.1,0.3c-0.1,0-0.1,0.1-0.2,0.2
			c-0.1,0.1-0.2,0.2-0.4,0.4l-0.8,0.8h8.9l0-0.6c0-0.2,0.1-0.2,0.3-0.3c0.5,0,1.1,0,1.6,0c0.2,0.1,0.3,0.1,0.2,0.3
			c-0.1,0.2-0.1,0.4-0.1,0.7c0,0.3,0,0.5-0.1,0.7c-0.1,1.5-0.3,4.5-0.8,6.6c-0.4,1.4-1.2,1.9-2.9,1.9c-0.8,0-1.6-0.1-2.3-0.3
			c-0.4-0.1-0.4-0.2-0.5-0.5c0-0.2,0-0.5-0.1-1.1c-0.1-0.1,0-0.2,0.1-0.2c0.8,0.2,1.6,0.3,2.5,0.4c0.8,0,1.2-0.3,1.5-0.9
			c0.4-1.4,0.7-3.5,0.7-5.3h-7.7c0.4,0.2,0.8,0.4,1.1,0.6c0.2,0.2,0.2,0.3-0.1,0.4c-0.1,0.1-0.2,0.1-0.2,0.2
			C219.6,96.9,219.5,97,219.3,97.1z M224.1,97.7c-2.2,2.4-5.3,4.7-9,6.1c-0.2,0.1-0.4,0.1-0.6-0.1c-0.2-0.2-0.4-0.4-1.1-0.8
			c-0.1-0.1-0.1-0.1,0-0.2c4.1-1.4,7.7-4,9.8-6.7c0.1-0.1,0.2-0.2,0.3-0.1c0.4,0.2,0.9,0.5,1.3,0.7c0.2,0.2,0.2,0.3,0,0.4
			c-0.1,0.1-0.2,0.2-0.3,0.3C224.4,97.4,224.3,97.5,224.1,97.7z M216.6,90.2h-1.4c-0.2,0-0.3-0.1-0.3-0.3c0-0.4,0-0.9,0-1.4v-6.1
			c0-0.5,0-1.1,0-1.4c0-0.2,0.1-0.3,0.3-0.3c0.4,0,1,0,1.5,0c0.2,0.1,0.3,0.1,0.2,0.3l0,0.7h7.7l0-0.7c0-0.2,0.1-0.3,0.2-0.3
			c0.5,0,1.1,0,1.5,0c0.2,0.1,0.3,0.1,0.3,0.3c0,0.4-0.1,1-0.1,1.4V90c0,0.2-0.1,0.3-0.3,0.3h-1.4c-0.2,0-0.3-0.1-0.3-0.3v-0.7h-7.7
			V90C216.8,90.1,216.7,90.2,216.6,90.2z M216.8,83.2v1.6h7.8v-1.6H216.8z M224.6,86.2h-7.8v1.7h7.8V86.2z"/>
		<path class="st0" d="M238.5,103.7c-0.4,0-1.1,0-1.5,0c-0.2,0-0.3-0.1-0.3-0.2v-8.2c0-0.6,0-0.9-0.1-1.2c0-0.2,0.1-0.2,0.3-0.2
			c0.5,0,1.2,0,1.7,0c0.2,0,0.2,0.1,0.2,0.3c-0.1,0.3-0.1,0.6-0.1,1.1v4.8h7.8l0.1-8.8h-6.5l0,1.4c0,0.2-0.1,0.2-0.3,0.3
			c-0.4,0-1,0-1.5,0c-0.2,0-0.3-0.1-0.3-0.3v-8.4c0-0.6,0-1-0.1-1.2c0-0.2,0.1-0.2,0.2-0.3c0.5,0,1.2,0,1.7,0.1
			c0.2,0,0.3,0.1,0.3,0.3c-0.1,0.3-0.1,0.6-0.1,1.1v5.3h6.5c0-2.7,0-5.2-0.1-7c0-0.4,0-0.8-0.1-1.1c0-0.2,0.1-0.3,0.3-0.3
			c0.6,0,1.3,0,1.9,0.1c0.2,0,0.2,0.1,0.2,0.3c-0.1,0.4-0.1,0.7-0.1,1c-0.1,1.8-0.1,4.2-0.1,7h6.6l0-5.2c0-0.6,0-1-0.1-1.2
			c0-0.2,0-0.2,0.2-0.3c0.5,0,1.2,0,1.7,0c0.2,0,0.3,0.1,0.2,0.3c0,0.3-0.1,0.6-0.1,1.1v6.5c0,0.6,0,1.4,0,1.9
			c0,0.2-0.1,0.3-0.3,0.3c-0.4,0-1.1,0-1.5,0c-0.2,0-0.3-0.1-0.3-0.3v-1.3h-6.6l0.1,8.8h8v-4.7c0-0.6,0-0.9-0.1-1.2
			c0-0.1,0.1-0.2,0.2-0.2c0.5,0,1.2,0,1.8,0c0.2,0,0.3,0.1,0.2,0.3c0,0.3-0.1,0.6-0.1,1.1v8.1c0,0.2-0.1,0.2-0.3,0.2
			c-0.4,0-1.1,0-1.6,0c-0.2,0-0.3-0.1-0.3-0.2v-1.6h-17.9v1.7C238.7,103.6,238.7,103.7,238.5,103.7z"/>
		<path class="st0" d="M276.4,95.7l-0.1,0.6c-0.1,0.2-0.1,0.5-0.1,0.7c-0.1,1.1-0.3,3.4-0.8,5c-0.4,1.1-1.1,1.6-2.6,1.6
			c-0.8,0-1.6-0.1-2.2-0.2c-0.3-0.1-0.4-0.2-0.4-0.5c0-0.2,0-0.5-0.1-1.1c-0.1-0.1,0-0.2,0.1-0.1c0.6,0.2,1.4,0.3,2.2,0.3
			c0.6,0,1-0.2,1.3-0.8c0.3-1,0.5-2.3,0.6-3.6h-5.2l-0.2,0.9c0,0.2-0.1,0.2-0.3,0.2c-0.4,0-1-0.1-1.3-0.1c-0.2-0.1-0.2-0.2-0.2-0.3
			c0.7-2,1.1-4,1.2-5.3c0.1-0.4,0.1-0.6,0.1-1.1c0-0.2,0.1-0.2,0.3-0.2c0.5,0,1.1,0,1.5,0.1c0.2,0,0.3,0.2,0.2,0.3l-0.1,0.5h4.2
			v-2.4h-1.8c-0.8,0-1.8,0-2.7,0.1c-0.2,0-0.3-0.1-0.3-0.2v0c-0.9,0.5-1.9,0.9-2.9,1.3c-0.2,0.1-0.4,0-0.6-0.2
			c-0.2-0.2-0.3-0.5-0.9-1c-0.1-0.1-0.1-0.2,0.1-0.2c2-0.6,3.8-1.5,5.3-2.5c-0.7-0.7-1.4-1.4-2.1-2c-0.1-0.1-0.1-0.2,0-0.3
			c0.3-0.2,0.7-0.5,1-0.7c0.1-0.1,0.3-0.1,0.4,0c0.6,0.7,1.3,1.3,2.1,1.9c1.1-0.8,2-1.7,2.8-2.7h-2.7c-1.4,0-2.9,0-4.3,0.1
			c-0.2,0-0.3,0-0.3-0.2c0-0.4-0.1-1-0.1-1.3c0-0.2,0.1-0.2,0.3-0.2c1.5,0.1,2.9,0.1,4.4,0.1h3.9l0.4-0.7c0.1-0.2,0.2-0.2,0.3-0.1
			c0.4,0.2,1,0.4,1.4,0.6c0.2,0.2,0.2,0.3,0,0.4c-0.1,0.1-0.2,0.2-0.3,0.3c-0.1,0.1-0.2,0.3-0.3,0.5c-1.4,2-3.3,3.9-5.7,5.5h0.8h1.8
			l-0.1-0.7c0-0.2,0.1-0.3,0.3-0.3c0.4,0,1,0,1.4,0c0.2,0,0.3,0.1,0.2,0.3c0,0.4-0.1,0.8-0.1,1.3c0,1.3,0,3.4,0,4.9
			c0,0.2-0.1,0.3-0.3,0.3c-0.4,0-0.8,0-1.2,0c-0.2,0-0.3-0.1-0.3-0.3V94H270l-0.4,2.2h4.8v-0.5c0-0.2,0.1-0.2,0.3-0.3
			c0.4,0,1.1,0,1.5,0.1C276.4,95.4,276.5,95.5,276.4,95.7z M280.4,96.4c0.6,1,1.4,1.8,2.4,2.6c1.1-0.9,1.9-1.8,2.6-2.8h-3.1
			c-1.4,0-3.1,0-4.6,0.1c-0.2,0-0.3-0.1-0.3-0.2c0-0.4-0.1-0.9-0.1-1.3c0-0.2,0.1-0.2,0.3-0.2c1.6,0.1,3.1,0.1,4.6,0.1h4l0.3-0.6
			c0.1-0.1,0.2-0.2,0.3-0.1c0.4,0.1,1,0.3,1.4,0.5c0.2,0.1,0.2,0.2,0.1,0.4c-0.1,0.1-0.2,0.3-0.3,0.4c-0.1,0.2-0.2,0.3-0.3,0.5
			c-0.9,1.5-2,3-3.5,4.2c1.7,1,3.8,1.8,6.1,2.3c0.1,0,0.1,0.1,0.1,0.2c-0.5,0.6-0.7,0.9-0.9,1.1c-0.2,0.1-0.4,0.2-0.6,0.1
			c-2.3-0.6-4.4-1.5-6.2-2.7c-1.5,1.1-3.4,2-5.6,2.6c-0.2,0.1-0.4,0-0.6-0.1c-0.2-0.2-0.3-0.5-0.9-1c-0.1-0.1-0.1-0.1,0-0.2
			c2.2-0.6,4.1-1.4,5.6-2.4c-1-0.8-1.8-1.8-2.5-2.8c-0.1-0.1-0.1-0.2,0.1-0.3c0.3-0.2,0.7-0.4,1.1-0.6
			C280.2,96.3,280.4,96.3,280.4,96.4z M284,87.6l0.4,0c-2.3-1.5-4.1-3.6-5.5-6.1c-0.1-0.1-0.1-0.2,0.1-0.3c0.4-0.2,0.8-0.3,1.3-0.5
			c0.2-0.1,0.3,0,0.3,0.1c0.5,0.9,1,1.8,1.7,2.5c0.9-0.6,1.7-1.3,2.4-2.1c0.1-0.1,0.2-0.2,0.3-0.1c0.4,0.2,0.8,0.5,1.1,0.8
			c0.2,0.2,0.2,0.2-0.1,0.4c-0.1,0.1-0.2,0.2-0.3,0.3c-0.2,0.1-0.3,0.2-0.4,0.4c-0.5,0.5-1.3,1.1-2,1.6c0.5,0.5,1.1,1,1.7,1.4
			c1-0.6,2-1.5,2.8-2.3c0.1-0.1,0.2-0.2,0.3-0.1c0.4,0.2,0.8,0.5,1.2,0.8c0.2,0.2,0.2,0.3-0.1,0.4c-0.1,0.1-0.2,0.2-0.3,0.3
			c-0.1,0.1-0.3,0.2-0.5,0.4c-0.5,0.4-1.3,1-2,1.5c1.5,0.8,3.1,1.5,5,1.9c0.1,0,0.1,0.1,0.1,0.2c-0.5,0.6-0.7,0.9-0.9,1.1
			c-0.2,0.2-0.4,0.2-0.6,0.1c-1.7-0.4-3.2-1.1-4.6-1.9l-0.1,3.6c0,0.3,0.1,0.5,0.3,0.5c0.4,0,1.1,0,1.5,0c0.3,0,0.5-0.1,0.6-0.5
			c0.1-0.4,0.2-0.7,0.2-1.1c0-0.1,0.1-0.1,0.2-0.1c0.3,0.1,0.8,0.2,1.1,0.3c0.2,0.1,0.3,0.2,0.3,0.4c-0.1,0.5-0.2,1-0.4,1.5
			c-0.3,0.7-0.7,1-1.8,1c-0.8,0-1.6,0-2.3-0.1c-0.9-0.1-1.3-0.5-1.3-1.3l0-2.5h-3.2c0,1.6-0.7,3.2-2.1,4.3c-0.2,0.2-0.4,0.2-0.7,0.1
			c-0.2-0.1-0.4-0.3-1.1-0.6c-0.1-0.1-0.1-0.1,0-0.2c1.3-1,2-2,2.1-3.3c0.1-0.6,0-1.4-0.1-1.9c0-0.2-0.1-0.4-0.1-0.6
			c0-0.2,0-0.2,0.2-0.2c0.5,0,1.1,0,1.6,0c0.2,0,0.2,0.1,0.2,0.3c-0.1,0.3-0.1,0.5-0.1,0.7h3.2v-0.7C283.8,87.7,283.9,87.6,284,87.6
			z"/>
		<path class="st0" d="M298.1,100.9c0-0.9,0.6-1.5,1.5-1.5c1,0,1.7,0.4,1.7,1.2c0,0.9-0.6,1.5-1.6,1.5
			C298.7,102.2,298.1,101.7,298.1,100.9z M298.8,96.1c-0.2-5-0.3-7.2-0.3-12.9c0-0.3,0.8-0.5,2-0.5c0.2,0,0.3,0.1,0.3,0.3
			c0,5.8-0.1,8.1-0.3,13c0,0.4-0.2,0.6-1.1,0.6C299,96.5,298.9,96.4,298.8,96.1z"/>
	</g>
</g>
</svg>
