<?xml version="1.0" encoding="UTF-8"?>
<svg id="_圖層_1" data-name="圖層_1" xmlns="http://www.w3.org/2000/svg" version="1.1" viewBox="0 0 173.69 67.66">
  <!-- Generator: Adobe Illustrator 29.8.2, SVG Export Plug-In . SVG Version: 2.1.1 Build 3)  -->
  <defs>
    <style>
      .st0 {
        fill: #fff;
      }
    </style>
  </defs>
  <path class="st0" d="M1.24,15.54c-.14.08-.28.13-.42.18-.25.13-.34.08-.42-.2-.17-.4-.31-1.01-.39-1.49-.03-.13.03-.2.17-.25,1.09-.23,2.41-.6,3.75-1.03v-5.32c-1.09,0-2.13,0-3.19.08-.17,0-.25-.08-.25-.23-.06-.43-.06-1.03-.06-1.44,0-.18.08-.23.25-.23,1.12.08,2.1.1,3.25.1l-.03-3.1c0-.28-.03-.53-.06-.78,0-.58-.03-1.03-.06-1.36-.03-.15.06-.23.22-.23.53,0,1.15,0,1.74.05.17,0,.25.1.2.25-.08.48-.11.83-.14,1.18l-.06,3.98,2.6-.08c.17,0,.25.08.25.23.03.4.03.96,0,1.36,0,.15-.11.23-.28.23l-2.58-.03v4.71c.95-.35,1.88-.71,2.66-1.06.08-.03.14-.03.17.1.08.68.17,1.03.22,1.34.03.2-.06.35-.28.43-.81.33-1.76.68-2.77,1.03l.03,7.21c0,1.21-.5,1.74-1.76,1.84-.84.05-1.46.03-1.96,0-.28-.03-.45-.15-.53-.4-.08-.38-.17-.86-.25-1.24-.06-.13.03-.2.2-.2.53.08,1.15.1,1.82.08.45-.02.67-.15.64-.66v-6l-2.38.81c-.08.03-.2.08-.31.13ZM17.87,23.05c-.53,0-1.12,0-1.6-.03-.2-.03-.25-.1-.25-.25.06-1.97.08-4.76.11-6.88-1.74,2.24-4.28,4.56-7.08,5.92-.22.13-.39.1-.59-.05-.2-.18-.39-.43-1.04-.93-.11-.08-.11-.15.03-.18,3.11-1.34,5.91-3.71,7.73-6.15-2.24,0-4.14-.03-6.05.1-.17,0-.28-.08-.31-.23-.03-.4-.06-.98-.03-1.39,0-.15.08-.23.25-.23,2.24.13,4.31.13,7,.13v-1.89c0-.23,0-.43-.06-.71,0-.15.08-.23.25-.23.53,0,1.18,0,1.6.05.17.03.25.1.22.25-.03.25-.06.45-.06.63v1.89c2.8,0,5.77-.05,7.2-.1.17,0,.25.08.28.23v1.26c-.03.15-.11.23-.28.23h-6.3c1.74,2.32,4.34,4.51,7.28,5.85.08.08.11.13,0,.2-.59.53-.78.81-1.06,1.03-.17.13-.34.13-.53.03-2.55-1.44-4.9-3.55-6.64-5.72.03,2.12.06,4.94.14,6.91.03.15-.06.23-.22.25ZM15.91,4.22c-.36,3.91-1.93,5.67-5.29,7.01-.25.08-.5.03-.67-.15-.17-.2-.31-.45-.78-.91-.08-.08-.06-.15.06-.18,3.7-1.18,4.98-3.05,4.96-6.83h-3.02v2.5c0,.15-.08.23-.25.25-.39.02-.87.02-1.26,0-.17-.03-.25-.1-.25-.25.03-1.24.03-2.22.03-3.28,0-.53-.03-1.13-.06-1.64-.03-.18.06-.25.22-.25.48,0,.98,0,1.4.03.2.03.28.1.25.28l-.06.86h12.24l-.06-.93c0-.15.08-.23.25-.23.45-.03.95-.03,1.4.03.17.03.28.1.25.25-.08.55-.08,1.16-.08,1.66,0,1.03-.03,1.89,0,3.05,0,.15-.08.23-.25.25-.39.03-.87.03-1.26,0-.17-.03-.25-.1-.25-.25v-2.32h-3.28l-.08,4.99c0,.38.14.55.42.6.67.05,1.74.05,2.49,0,.42-.05.62-.15.73-.53.08-.38.17-.73.22-1.08,0-.1.06-.15.2-.13.34.08.76.2,1.12.3.2.05.28.18.25.38-.06.45-.17.98-.39,1.51-.31.73-.78,1.08-2.07,1.13-1.04.05-2.21.02-3.25-.03-1.01-.13-1.43-.53-1.46-1.44-.03-1.82,0-4.18-.06-5.72h-2.18l-.08.3c-.03.23-.06.48-.08.76Z"/>
  <path class="st0" d="M50.74,12.01c1.48,1.51,3.64,3.35,5.74,4.84.11.08.08.15-.03.23-.39.23-.87.5-1.32.68-.2.08-.39.05-.53-.08-.67-.5-1.32-1.06-1.99-1.61-2.35.28-4.98.48-7.64.66v.61c0,.55,0,3.63.06,5.47,0,.15-.08.23-.25.23-.53.03-1.26.03-1.74,0-.17-.03-.25-.1-.25-.25.06-2.17.03-4.97.03-5.44v-.48c-2.91.15-5.85.25-8.6.33-.2,0-.36,0-.56.03-.34.02-.67.1-.95.15-.25.08-.36,0-.45-.25-.11-.4-.2-1.01-.17-1.46-.03-.13.06-.18.2-.18,2.3.05,5.15.02,8.09-.08l1.01-.71c-1.74-1.08-3.84-2.24-5.46-3.02-.14-.08-.17-.18-.06-.28.34-.3.67-.58,1.01-.81.11-.1.25-.13.42-.05l1.62.81c1.06-.88,2.13-1.99,2.88-2.95.03-.05.08-.1.14-.1h-7.92v3.48c0,.15-.08.25-.25.25-.45.05-1.01.05-1.43,0-.17,0-.25-.1-.25-.25v-4.31c0-.58-.03-1.26-.06-1.81-.03-.15.06-.23.22-.23.5-.02,1.12-.02,1.6.03.2.03.28.1.25.25l-.06.98h8.79l.03-2.39c-3.84,0-6.78-.03-9.83.13-.17,0-.25-.08-.25-.2-.08-.43-.08-1.06-.08-1.46,0-.15.08-.23.28-.23,3.08.18,5.96.15,9.86.15l-.03-1.76c0-.23-.03-.43-.06-.66-.03-.15.06-.23.25-.23.5-.03,1.29,0,1.82.05.17,0,.25.1.22.25-.06.23-.08.35-.11.58l-.03,1.76c3.89,0,8.06-.03,9.86-.1.17-.03.25.05.28.2.03.4.03.91,0,1.29-.03.18-.11.25-.28.25-1.79-.05-5.94-.03-9.88-.03l.03,2.39h8.76l-.06-1.06c0-.15.06-.23.25-.23.5-.03,1.12,0,1.62.02.17.03.25.1.22.25-.06.6-.06,1.23-.08,1.81v3.68c0,.15-.08.23-.25.25-.42.03-1.01.03-1.43,0-.2-.03-.28-.1-.28-.25l.03-2.87h-11.56c.42.15,1.01.4,1.43.63.22.13.22.2,0,.38l-.28.25c-.17.15-.31.25-.45.43-.62.61-1.51,1.44-2.38,2.19.81.45,1.62.93,2.38,1.41,1.74-1.34,3.47-2.87,4.65-4.11.11-.13.25-.15.39-.08.42.2.98.48,1.37.73.22.15.2.23-.03.38-.11.1-.25.18-.34.28-.22.15-.39.28-.62.45-1.34,1.13-3.19,2.7-4.96,4.03,2.72-.15,5.38-.35,7.67-.63-.67-.63-1.34-1.26-1.9-1.84-.11-.13-.08-.25.06-.33.34-.18.84-.38,1.2-.55.14-.05.28-.03.39.1ZM39.43,19.32c-1.4,1.08-3.53,2.47-5.46,3.35-.2.08-.42.05-.59-.05-.25-.2-.45-.43-1.23-.93-.11-.05-.11-.1,0-.15,2.3-.86,4.73-2.34,6.24-3.71.11-.13.25-.13.36-.08.42.18.92.45,1.34.73.22.13.2.25-.03.38-.08.05-.14.1-.22.13-.14.1-.28.2-.42.33ZM49.23,17.63c1.6,1.19,3.86,2.55,6.02,3.61.14.08.14.13.03.23-.34.28-.78.66-1.18.91-.2.08-.36.08-.53,0-2.07-1.13-4.17-2.5-5.82-3.73-.14-.08-.14-.2,0-.3.31-.23.73-.53,1.09-.73.14-.1.28-.08.39.02Z"/>
  <path class="st0" d="M69.14,1.4c-.22.91-.5,2.09-.81,3.2h2.13l-.06-1.06c-.03-.15.06-.23.22-.25.45,0,.9,0,1.34.03.17.03.25.1.25.25-.03.48-.08,1.16-.08,1.92v3.58c2.21-2.5,4.09-6.1,4.82-8.87.06-.13.14-.2.31-.18.48.08,1.09.2,1.57.35.28.08.31.18.17.4-.06.08-.08.15-.11.23-.08.15-.14.3-.22.5-.31.83-.7,1.74-1.15,2.7h7.11l-.06-1.66c0-.15.06-.23.22-.25.53-.03,1.18,0,1.65.05.17,0,.25.1.22.25-.03.25-.03.45-.06.68,0,.28-.03.5-.03.81-.11,3.71-.17,11.9-1.15,16.61-.36,1.51-1.2,2.12-3.02,2.14-1.18-.03-2.1-.13-3-.28-.34-.03-.48-.2-.48-.53-.03-.25-.06-.61-.22-1.29-.06-.13,0-.18.14-.15,1.09.23,2.04.35,3.19.4.9,0,1.37-.33,1.6-1.16.64-3.13.95-9.3.98-13.89h-8.01c-.76,1.39-1.62,2.72-2.55,3.88-.17.2-.36.23-.59.13-.22-.15-.5-.33-1.29-.71l-.06-.03v9.5c0,.86,0,1.76.03,2.47-.03.18-.11.25-.28.25h-1.37c-.2,0-.28-.08-.28-.25v-1.56h-5.26l.03,1.56c0,.18-.08.25-.25.25h-1.37c-.17,0-.25-.08-.25-.25V5.53c0-.83-.03-1.54-.06-1.99,0-.15.06-.23.25-.25.39,0,.84,0,1.26.03.17.03.25.1.25.25l-.06,1.03h1.65c.42-1.39.81-3.02.92-4.36,0-.15.08-.23.25-.23.45.02,1.09.1,1.57.18.25.05.28.15.22.38-.03.1-.06.18-.08.25-.06.18-.11.35-.17.58ZM64.97,6.31v4.81h5.29v-4.81h-5.29ZM70.23,12.79h-5.26v5.09h5.26v-5.09ZM77.6,9.49c1.04,1.89,2.49,4.08,3.95,5.97.08.1.06.18-.06.23-.42.2-.87.48-1.29.63-.2.08-.36.03-.48-.13-1.37-1.92-2.72-4.11-3.78-5.95-.08-.15-.03-.25.11-.33.34-.18.76-.38,1.15-.53.17-.08.28-.03.39.1Z"/>
  <path class="st0" d="M96.83,12.89c-.06.68-.14,1.41-.25,2.17.76,1.49,1.54,2.62,2.58,3.48v-8.55c-2.24,0-4.06,0-5.94.1-.17,0-.28-.08-.28-.23-.03-.4-.06-1.03-.06-1.44.03-.15.11-.23.28-.23,1.9.13,3.64.13,5.88.13l.03-3.18c-1.76,0-3.28,0-4.84.1-.17,0-.25-.08-.28-.23-.03-.43-.06-1.01-.03-1.41,0-.15.08-.23.25-.23,1.6.13,3.08.13,4.87.13l-.03-2.42c0-.25-.03-.48-.06-.71-.03-.15.06-.23.22-.25.5-.03,1.23,0,1.76.05.17,0,.22.1.2.25-.06.23-.08.4-.11.66l-.03,2.42c1.6,0,3.25-.02,4.17-.08.17-.03.25.05.25.2,0,.4,0,.93-.03,1.31,0,.15-.08.23-.25.23l-4.17-.03.03,3.18c1.85-.03,3.7-.05,4.68-.1.17,0,.25.08.28.23,0,.38,0,.96-.03,1.36,0,.15-.08.23-.25.2l-4.65-.03v3.45h1.82c.87,0,1.85-.03,2.52-.03.17,0,.28.08.28.23.03.35.03.91,0,1.26,0,.15-.11.23-.28.23-.7-.03-1.62-.03-2.52-.03h-1.82v4.59c1.79.76,4.17,1.08,7.64,1.11,2.8.03,6.24-.05,9.6-.4.14,0,.2.05.14.15-.25.66-.34,1.01-.42,1.34-.17.35-.36.43-.78.48-2.32.15-5.21.23-8.06.2-7.11-.05-10.58-.98-13.1-4.84-.42,1.79-1.06,3.55-1.93,5.09-.11.2-.28.28-.5.2-.28-.1-.53-.25-1.34-.45-.11-.03-.14-.1-.08-.2,1.88-2.97,2.86-7.16,2.83-10.66,0-.15.08-.23.22-.23.45.03,1.01.08,1.48.13.25.05.31.18.25.4-.03.13-.06.23-.08.33-.03.15-.03.33-.06.55ZM108.96,7.47l-.08.61-.03.48h5.4l.03-4.71h-3.28c-1.34,0-2.83.03-4.28.1-.17,0-.28-.05-.28-.2-.06-.43-.06-1.08-.06-1.49,0-.15.08-.23.28-.23,1.51.1,2.97.1,4.34.1h3.28v-.08c-.03-.4-.03-.71-.08-.96,0-.15.08-.23.25-.23.48-.03,1.09,0,1.57.03.17.03.25.1.2.25-.03.28-.06.5-.06.93v8.97c0,.15-.08.23-.25.25-.45.02-.98.02-1.37,0-.2-.03-.28-.1-.28-.25v-.81h-5.46c-.03,1.82-.06,3.93-.03,6.05.03.5.28.76.87.83,1.43.15,3.08.15,4.45.03.9-.1,1.37-.48,1.62-1.24.17-.68.25-1.41.28-2.07,0-.1.06-.13.17-.08.7.25,1.01.35,1.32.43.25.1.36.25.34.48-.06.63-.2,1.41-.39,2.17-.42,1.31-1.26,1.92-2.97,2.07-1.82.13-3.72.13-5.63-.03-1.37-.13-1.93-.71-1.96-2.04-.03-3.12.03-6.45-.03-8.04-.03-.43-.03-.91-.06-1.41,0-.15.06-.25.22-.25.62,0,1.12,0,1.74.05.17.03.25.13.22.28Z"/>
  <path class="st0" d="M126.29,19.47c-.34.86-.9,2.24-1.6,3.33-.11.13-.25.18-.45.13-.25-.08-.5-.18-1.15-.38-.11-.03-.17-.1-.08-.18.87-1.21,1.6-2.8,1.93-4.34.03-.15.11-.2.28-.18.39.05.9.15,1.32.25.22.05.25.15.14.38-.08.15-.14.3-.2.43-.06.18-.14.35-.2.55ZM124.86,17.13c-.22.05-.39.08-.56.15-.28.05-.39,0-.48-.25-.11-.38-.22-.88-.25-1.29,0-.13.08-.2.2-.2,1.65,0,3.72-.13,5.82-.3v-2.04c-1.85,0-3.5,0-5.04.08-.17.03-.28-.05-.28-.23-.06-.35-.06-.78-.06-1.13,0-.15.08-.23.25-.2,1.62.1,3.19.1,5.12.1v-1.94h-3.47v.83c0,.15-.08.23-.25.23h-1.06c-.17,0-.28-.08-.28-.23v-1.36c0-2.29.03-6.1.03-7.41,0-.35-.03-.76-.03-1.01,0-.15.06-.23.25-.25.39,0,.84,0,1.2.02.2,0,.28.08.25.23l-.03.5h8.57l-.03-.5c0-.15.08-.23.25-.25.42,0,.87,0,1.26.02.17,0,.25.08.25.23-.03.28-.06.66-.06.98v8.55c0,.15-.08.23-.25.23h-1.09c-.17,0-.28-.08-.28-.23v-.58h-3.47v1.94c1.85,0,3.81-.03,4.84-.1.17,0,.25.08.28.23v1.06c-.03.13-.11.2-.31.2h-4.82v1.89c1.9-.2,3.72-.43,5.21-.71.11-.03.14.02.14.13v1.03c-.03.2-.14.33-.34.35-3.3.53-7.5.91-11.09,1.21-.14,0-.25,0-.42.03ZM126.2,2.81v5.62h3.47V2.81h-3.47ZM127.8,7.32c-.31-1.03-.7-1.97-1.18-2.85-.06-.15-.03-.25.14-.33.22-.08.5-.15.76-.23.17-.02.28.03.34.18.53.93,1.01,1.92,1.34,2.82.08.15,0,.28-.14.33-.31.13-.64.2-.92.25-.2.03-.31-.03-.34-.18ZM128.95,18.11c.28,1.16.73,2.42,1.23,3.66.03.13,0,.2-.14.23-.39.1-.78.23-1.15.28-.2.03-.31-.05-.36-.2-.48-1.26-.81-2.47-1.09-3.65-.03-.15.06-.25.2-.3.31-.1.67-.18,1.01-.23.17-.05.31.05.31.23ZM132.06,17.76c.36,1.06.92,2.19,1.54,3.35.06.1,0,.18-.14.2-.36.13-.73.25-1.09.33-.14.02-.28-.03-.36-.18-.56-1.13-1.01-2.27-1.4-3.35-.03-.15.03-.25.2-.3.28-.1.59-.2.9-.28.2-.03.34.05.36.23ZM131.27,8.43h3.5V2.81h-3.5v5.62ZM134.13,5.23c-.31.63-.76,1.46-1.18,2.19-.08.15-.22.2-.39.18-.2-.05-.42-.13-.87-.23-.11-.03-.17-.1-.08-.18.56-.93,1.15-2.12,1.51-3.18.06-.15.14-.2.28-.18.34.05.67.15.98.25.25.1.25.2.14.4-.06.08-.08.18-.14.23-.08.15-.17.3-.25.5ZM135,17.1c.42.96,1.09,1.97,1.79,2.97.08.13.06.2-.08.25-.34.13-.67.3-1.01.38-.2.05-.34,0-.42-.13-.67-1.01-1.2-1.97-1.68-2.97-.08-.15-.03-.25.14-.33.25-.1.56-.23.87-.33.17-.05.31,0,.39.15ZM138.94,22.97c-.42.02-.87.02-1.29,0-.17,0-.25-.08-.25-.23v-2.62c0-2.42.03-5.8.03-7.29-.03-.66-.03-1.69-.06-2.22-.03-.15.06-.23.22-.25.42,0,.87,0,1.29.03.17.03.22.1.22.25l-.06,1.24h2.38c.06-3.91.08-8.32,0-10.64-.03-.3-.06-.58-.08-.86,0-.15.08-.23.25-.23.48-.02,1.15-.02,1.62.03.17.03.25.1.22.25-.03.3-.06.5-.08.78-.06,1.08-.08,2.6-.08,4.31h2.3c1.09,0,2.35-.02,3.16-.02.17-.03.28.05.28.2.03.4.03.93,0,1.29,0,.15-.11.25-.28.23h-5.46l.03,4.66h3.08l-.06-1.26c0-.15.08-.23.25-.25.42,0,.9,0,1.32.03.2.03.28.1.25.25-.03.53-.06,1.54-.06,2.17v9.83c0,.18-.08.25-.28.25-.42.03-.87.03-1.29,0-.17,0-.25-.08-.25-.25v-1.46h-7.06v1.56c0,.15-.08.23-.28.23ZM139.22,13.55v5.92h7.06v-5.92h-7.06Z"/>
  <path class="st0" d="M1.45,67.16v-25.08h8.99l4.98,21.85h.64v-21.85h4.66v25.08h-8.99l-4.98-21.85h-.65v21.85H1.45Z"/>
  <path class="st0" d="M35.19,67.66c-3.15,0-5.66-.87-7.52-2.6s-2.79-4.21-2.79-7.43v-6.02c0-3.22.93-5.7,2.79-7.43,1.86-1.73,4.37-2.6,7.52-2.6s5.66.87,7.52,2.6c1.86,1.73,2.79,4.21,2.79,7.43v6.02c0,3.22-.93,5.7-2.79,7.43s-4.37,2.6-7.52,2.6ZM35.19,63.43c1.77,0,3.14-.51,4.12-1.54.98-1.03,1.47-2.4,1.47-4.12v-6.3c0-1.72-.49-3.09-1.47-4.12-.98-1.03-2.35-1.54-4.12-1.54s-3.11.51-4.1,1.54c-.99,1.03-1.49,2.4-1.49,4.12v6.3c0,1.72.5,3.09,1.49,4.12.99,1.03,2.36,1.54,4.1,1.54Z"/>
  <path class="st0" d="M53.82,67.16l-6.38-25.08h4.87l5.3,22.03h.5l5.3-22.03h4.87l-6.38,25.08h-8.1Z"/>
  <path class="st0" d="M67.94,67.16l6.59-25.08h8.24l6.59,25.08h-4.87l-1.36-5.52h-8.96l-1.36,5.52h-4.87ZM75.28,57.27h6.73l-3.04-12.22h-.65l-3.04,12.22Z"/>
  <path class="st0" d="M101.04,67.16v-25.08h8.78l4.33,21.85h.64l4.33-21.85h8.78v25.08h-4.59v-21.6h-.65l-4.3,21.6h-7.81l-4.3-21.6h-.65v21.6h-4.59Z"/>
  <path class="st0" d="M130.91,67.16l6.59-25.08h8.24l6.59,25.08h-4.87l-1.36-5.52h-8.96l-1.36,5.52h-4.87ZM138.26,57.27h6.73l-3.04-12.22h-.65l-3.04,12.22Z"/>
  <path class="st0" d="M155.35,67.16v-25.08h10.32c1.58,0,2.97.32,4.17.95s2.15,1.52,2.83,2.67c.68,1.15,1.02,2.51,1.02,4.08v.5c0,1.55-.35,2.91-1.06,4.07-.7,1.16-1.66,2.05-2.87,2.69-1.21.63-2.57.95-4.1.95h-5.59v9.17h-4.73ZM160.07,53.69h5.12c1.12,0,2.03-.31,2.72-.93.69-.62,1.04-1.47,1.04-2.54v-.36c0-1.08-.35-1.92-1.04-2.54-.69-.62-1.6-.93-2.72-.93h-5.12v7.31Z"/>
</svg>