<?xml version="1.0" encoding="UTF-8"?>
<svg id="_圖層_1" data-name="圖層_1" xmlns="http://www.w3.org/2000/svg" version="1.1" viewBox="0 0 319.56 74.4">
  <!-- Generator: Adobe Illustrator 29.8.2, SVG Export Plug-In . SVG Version: 2.1.1 Build 3)  -->
  <defs>
    <style>
      .st0 {
        fill: #2c2d29;
      }
    </style>
  </defs>
  <path class="st0" d="M1.24,15.61c-.14.08-.28.13-.42.18-.25.13-.34.08-.42-.2-.17-.4-.31-1.01-.39-1.49-.03-.13.03-.2.17-.25,1.09-.23,2.41-.6,3.75-1.03v-5.32c-1.09,0-2.13,0-3.19.08-.17,0-.25-.08-.25-.23-.06-.43-.06-1.03-.06-1.44,0-.18.08-.23.25-.23,1.12.08,2.1.1,3.25.1l-.03-3.1c0-.28-.03-.53-.06-.78,0-.58-.03-1.03-.06-1.36-.03-.15.06-.23.22-.23.53,0,1.15,0,1.74.05.17,0,.25.1.2.25-.08.48-.11.83-.14,1.18l-.06,3.98,2.6-.08c.17,0,.25.08.25.23.03.4.03.96,0,1.36,0,.15-.11.23-.28.23l-2.58-.03v4.71c.95-.35,1.88-.71,2.66-1.06.08-.03.14-.03.17.1.08.68.17,1.03.22,1.34.03.2-.06.35-.28.43-.81.33-1.76.68-2.77,1.03l.03,7.21c0,1.21-.5,1.74-1.76,1.84-.84.05-1.46.03-1.96,0-.28-.03-.45-.15-.53-.4-.08-.38-.17-.86-.25-1.24-.06-.13.03-.2.2-.2.53.08,1.15.1,1.82.08.45-.02.67-.15.64-.66v-6l-2.38.81c-.08.03-.2.08-.31.13ZM17.87,23.12c-.53,0-1.12,0-1.6-.03-.2-.03-.25-.1-.25-.25.06-1.97.08-4.76.11-6.88-1.74,2.24-4.28,4.56-7.08,5.92-.22.13-.39.1-.59-.05-.2-.18-.39-.43-1.04-.93-.11-.08-.11-.15.03-.18,3.11-1.34,5.91-3.71,7.73-6.15-2.24,0-4.14-.03-6.05.1-.17,0-.28-.08-.31-.23-.03-.4-.06-.98-.03-1.39,0-.15.08-.23.25-.23,2.24.13,4.31.13,7,.13v-1.89c0-.23,0-.43-.06-.71,0-.15.08-.23.25-.23.53,0,1.18,0,1.6.05.17.03.25.1.22.25-.03.25-.06.45-.06.63v1.89c2.8,0,5.77-.05,7.2-.1.17,0,.25.08.28.23v1.26c-.03.15-.11.23-.28.23h-6.3c1.74,2.32,4.34,4.51,7.28,5.85.08.08.11.13,0,.2-.59.53-.78.81-1.06,1.03-.17.13-.34.13-.53.03-2.55-1.44-4.9-3.55-6.64-5.72.03,2.12.06,4.94.14,6.91.03.15-.06.23-.22.25ZM15.91,4.29c-.36,3.91-1.93,5.67-5.29,7.01-.25.08-.5.03-.67-.15-.17-.2-.31-.45-.78-.91-.08-.08-.06-.15.06-.18,3.7-1.18,4.98-3.05,4.96-6.83h-3.02v2.5c0,.15-.08.23-.25.25-.39.02-.87.02-1.26,0-.17-.03-.25-.1-.25-.25.03-1.24.03-2.22.03-3.28,0-.53-.03-1.13-.06-1.64-.03-.18.06-.25.22-.25.48,0,.98,0,1.4.03.2.03.28.1.25.28l-.06.86h12.24l-.06-.93c0-.15.08-.23.25-.23.45-.03.95-.03,1.4.03.17.03.28.1.25.25-.08.55-.08,1.16-.08,1.66,0,1.03-.03,1.89,0,3.05,0,.15-.08.23-.25.25-.39.03-.87.03-1.26,0-.17-.03-.25-.1-.25-.25v-2.32h-3.28l-.08,4.99c0,.38.14.55.42.6.67.05,1.74.05,2.49,0,.42-.05.62-.15.73-.53.08-.38.17-.73.22-1.08,0-.1.06-.15.2-.13.34.08.76.2,1.12.3.2.05.28.18.25.38-.06.45-.17.98-.39,1.51-.31.73-.78,1.08-2.07,1.13-1.04.05-2.21.02-3.25-.03-1.01-.13-1.43-.53-1.46-1.44-.03-1.82,0-4.18-.06-5.72h-2.18l-.08.3c-.03.23-.06.48-.08.76Z"/>
  <path class="st0" d="M50.74,12.08c1.48,1.51,3.64,3.35,5.74,4.84.11.08.08.15-.03.23-.39.23-.87.5-1.32.68-.2.08-.39.05-.53-.08-.67-.5-1.32-1.06-1.99-1.61-2.35.28-4.98.48-7.64.66v.61c0,.55,0,3.63.06,5.47,0,.15-.08.23-.25.23-.53.03-1.26.03-1.74,0-.17-.03-.25-.1-.25-.25.06-2.17.03-4.97.03-5.44v-.48c-2.91.15-5.85.25-8.6.33-.2,0-.36,0-.56.03-.34.02-.67.1-.95.15-.25.08-.36,0-.45-.25-.11-.4-.2-1.01-.17-1.46-.03-.13.06-.18.2-.18,2.3.05,5.15.02,8.09-.08l1.01-.71c-1.74-1.08-3.84-2.24-5.46-3.02-.14-.08-.17-.18-.06-.28.34-.3.67-.58,1.01-.81.11-.1.25-.13.42-.05l1.62.81c1.06-.88,2.13-1.99,2.88-2.95.03-.05.08-.1.14-.1h-7.92v3.48c0,.15-.08.25-.25.25-.45.05-1.01.05-1.43,0-.17,0-.25-.1-.25-.25v-4.31c0-.58-.03-1.26-.06-1.81-.03-.15.06-.23.22-.23.5-.02,1.12-.02,1.6.03.2.03.28.1.25.25l-.06.98h8.79l.03-2.39c-3.84,0-6.78-.03-9.83.13-.17,0-.25-.08-.25-.2-.08-.43-.08-1.06-.08-1.46,0-.15.08-.23.28-.23,3.08.18,5.96.15,9.86.15l-.03-1.76c0-.23-.03-.43-.06-.66-.03-.15.06-.23.25-.23.5-.03,1.29,0,1.82.05.17,0,.25.1.22.25-.06.23-.08.35-.11.58l-.03,1.76c3.89,0,8.06-.03,9.86-.1.17-.03.25.05.28.2.03.4.03.91,0,1.29-.03.18-.11.25-.28.25-1.79-.05-5.94-.03-9.88-.03l.03,2.39h8.76l-.06-1.06c0-.15.06-.23.25-.23.5-.03,1.12,0,1.62.02.17.03.25.1.22.25-.06.6-.06,1.23-.08,1.81v3.68c0,.15-.08.23-.25.25-.42.03-1.01.03-1.43,0-.2-.03-.28-.1-.28-.25l.03-2.87h-11.56c.42.15,1.01.4,1.43.63.22.13.22.2,0,.38l-.28.25c-.17.15-.31.25-.45.43-.62.61-1.51,1.44-2.38,2.19.81.45,1.62.93,2.38,1.41,1.74-1.34,3.47-2.87,4.65-4.11.11-.13.25-.15.39-.08.42.2.98.48,1.37.73.22.15.2.23-.03.38-.11.1-.25.18-.34.28-.22.15-.39.28-.62.45-1.34,1.13-3.19,2.7-4.96,4.03,2.72-.15,5.38-.35,7.67-.63-.67-.63-1.34-1.26-1.9-1.84-.11-.13-.08-.25.06-.33.34-.18.84-.38,1.2-.55.14-.05.28-.03.39.1ZM39.43,19.39c-1.4,1.08-3.53,2.47-5.46,3.35-.2.08-.42.05-.59-.05-.25-.2-.45-.43-1.23-.93-.11-.05-.11-.1,0-.15,2.3-.86,4.73-2.34,6.24-3.71.11-.13.25-.13.36-.08.42.18.92.45,1.34.73.22.13.2.25-.03.38-.08.05-.14.1-.22.13-.14.1-.28.2-.42.33ZM49.23,17.7c1.6,1.19,3.86,2.55,6.02,3.61.14.08.14.13.03.23-.34.28-.78.66-1.18.91-.2.08-.36.08-.53,0-2.07-1.13-4.17-2.5-5.82-3.73-.14-.08-.14-.2,0-.3.31-.23.73-.53,1.09-.73.14-.1.28-.08.39.02Z"/>
  <path class="st0" d="M68.27,23.12c-.5.03-1.15.03-1.62,0-.2-.03-.28-.13-.28-.28.08-4.71.11-10.33.06-13.76-1.06,1.66-2.27,3.33-3.53,4.76-.17.18-.34.18-.5.03-.17-.23-.31-.48-.98-1.11-.08-.08-.08-.13-.03-.18,3.14-3.48,6.1-8.57,7.45-12.33.06-.15.17-.2.31-.18.48.15,1.09.35,1.57.58.22.1.22.2.08.4-.06.1-.11.18-.14.25-.08.15-.17.3-.25.53-.64,1.41-1.48,3.08-2.49,4.79l.5.2c.22.1.31.25.25.45-.08.35-.17.66-.17.98-.11,3.12-.11,9.15.03,14.59,0,.15-.08.25-.25.25ZM84.65,2.96c-1.46.33-3.14.63-4.9.91v.05c-.08.33-.11.6-.14.96-.06,1.51-.06,3.6-.08,5.95,3,0,6.16-.03,7.62-.1.17,0,.28.08.28.23.03.4.03,1.03,0,1.44,0,.15-.08.23-.28.23l-7.62-.03.06,7.92,6.92-.08c.17-.03.25.05.25.2.03.43.03,1.03,0,1.44-.03.18-.11.25-.28.23-1.51-.03-4.87,0-7.9,0s-5.35-.05-7.81.1c-.2,0-.28-.08-.31-.23-.03-.43-.03-1.13-.03-1.59,0-.15.08-.2.25-.2,2.18.13,4.2.13,6.78.13l.06-7.92c-2.88,0-5.12,0-7.53.13-.17,0-.25-.08-.25-.23-.06-.43-.08-1.16-.08-1.59,0-.15.11-.2.28-.2,2.41.15,4.68.13,7.59.13-.03-2.34-.03-4.44-.08-5.92l-.06-.68c-2.1.28-4.23.53-6.13.66-.25,0-.42-.08-.5-.3-.11-.25-.2-.53-.59-1.24-.06-.13-.03-.18.11-.2,4.26-.1,10.98-1.08,14.67-2.14.17-.05.31,0,.42.1.31.35.67.83.98,1.26.14.2.06.28-.25.33-.22.05-.39.08-.56.1-.28.05-.53.1-.87.18Z"/>
  <path class="st0" d="M115.23,5.65c-.73,1.16-1.68,2.29-2.83,3.33,1.79,1.24,3.95,2.17,6.13,2.7.08.05.11.1.06.18-.5.58-.64.91-.87,1.16-.14.13-.31.2-.53.13-2.18-.66-4.31-1.71-6.13-3.05-1.79,1.36-3.92,2.52-6.33,3.35-.2.08-.39.03-.56-.15-.14-.2-.28-.43-.78-.96-.31.68-.64,1.31-.95,1.89-.11.15-.25.2-.45.15-.25-.08-.48-.2-1.15-.38-.11-.05-.14-.1-.08-.2.59-.98,1.23-2.24,1.76-3.45h-2.46v.08c-.06,2.24-.06,6.4-.03,10.69,0,1.29-.56,1.87-1.93,1.94-.92.05-1.65.02-2.3,0-.31-.05-.48-.2-.56-.48-.08-.35-.2-.76-.28-1.06-.06-.15,0-.2.17-.18.7.08,1.48.13,2.32.08.5,0,.73-.18.73-.71v-7.92c-1.15,2.09-2.72,4.44-4.51,6.23-.17.15-.34.15-.5.02-.2-.2-.36-.4-.98-.91-.08-.05-.08-.1,0-.18,2.24-2.04,4.34-4.99,5.54-7.61-1.54,0-3.19,0-4.7.1-.17,0-.25-.08-.28-.23-.03-.4-.03-.98-.03-1.36,0-.15.08-.23.25-.23,1.88.13,3.67.13,5.43.13h2.27c-1.99-1.44-3.75-2.57-5.68-3.63-.14-.08-.17-.18-.06-.3.25-.3.53-.6.81-.83.14-.13.28-.13.42-.05.9.48,1.79,1.01,2.72,1.56.84-.73,1.76-1.64,2.6-2.55h-3.08c-1.6,0-3.39,0-4.98.08-.2.02-.28-.05-.31-.2-.03-.38-.06-.93-.03-1.34,0-.15.08-.23.25-.2,1.74.1,3.39.1,5.07.1h4.45l.48-.61c.08-.13.2-.18.34-.13.42.18.98.4,1.4.61.22.13.22.23.03.4-.11.1-.2.15-.25.23-.17.15-.31.3-.5.48-1.04,1.13-2.63,2.77-4.03,4.03l1.74,1.13c.14.1.17.2.03.33-.28.33-.62.63-.95.88h2.07l.2-.58c.03-.15.14-.2.28-.18.39.08.9.23,1.29.38.22.08.25.18.11.38-.03.15-.08.23-.14.3-.08.2-.17.38-.28.58l-1.15,2.47c2.44-.76,4.51-1.79,6.24-3.05-1.01-.86-1.85-1.79-2.55-2.75-.08-.15-.08-.23.06-.33.34-.23.7-.48,1.06-.68.14-.08.28-.05.34.08.64.93,1.46,1.79,2.41,2.6,1.26-1.13,2.24-2.39,2.97-3.71h-6.02c-.81,1.16-1.76,2.32-2.72,3.2-.2.18-.36.18-.59.08-.22-.15-.45-.35-1.18-.71-.08-.05-.08-.13,0-.18,2.02-1.71,3.81-4.31,4.68-6.5.06-.13.17-.18.34-.15.42.13.98.3,1.43.48.25.1.25.2.08.43-.06.1-.11.18-.17.23-.06.15-.14.3-.25.48l-.59,1.06h3.98c1.62,0,3.56,0,4.65-.03.17,0,.28.08.28.23.03.35.03.83,0,1.18,0,.15-.11.23-.28.23l-2.38-.03.5.23c.22.1.22.2.06.4-.11.1-.2.2-.28.3-.11.13-.2.25-.34.45ZM116.74,13.92c-.03.18-.06.38-.08.55-.03.25-.03.45-.06.76-.11,1.34-.28,4.06-.7,5.95-.31,1.21-.98,1.71-2.52,1.76-.98-.02-1.88-.1-2.63-.25-.34-.05-.45-.2-.48-.5,0-.23-.03-.53-.17-1.16-.03-.13.03-.18.17-.15.84.18,1.79.33,2.74.35.64-.03,1.01-.25,1.2-.91.28-1.11.42-2.75.5-4.21h-4.37c-.78,3.35-2.88,5.34-6.89,7.03-.25.1-.48.08-.7-.1-.17-.2-.31-.43-.98-.98-.08-.1-.08-.15.06-.2,3.95-1.39,5.85-3.18,6.61-5.75-1.57.03-3.16.05-4.65.13-.17,0-.25-.08-.28-.25-.03-.38-.06-.96-.06-1.34,0-.15.11-.23.28-.2,1.68.1,3.33.1,5.01.1.08-.63.08-1.31.08-2.04,0-.15.08-.23.25-.23.48,0,1.06.03,1.57.05.22.05.28.13.22.35-.06.18-.08.33-.11.45-.03.25-.06.48-.08.76l-.06.66h4.14v-.71c0-.15.08-.23.25-.25.45,0,1.04,0,1.48.05.17.02.25.13.22.28Z"/>
  <path class="st0" d="M127.69,5.22c0-.93.59-1.49,1.51-1.49,1.06,0,1.71.43,1.71,1.24,0,.86-.62,1.49-1.57,1.49-1.04,0-1.65-.45-1.65-1.24ZM127.69,18.46c0-.93.59-1.49,1.51-1.49,1.06,0,1.71.43,1.71,1.24,0,.86-.62,1.49-1.57,1.49-1.04,0-1.65-.48-1.65-1.24Z"/>
  <path class="st0" d="M165.6,16.47c0,.35,0,.86-.03,1.21,0,.15-.08.23-.25.23h-6.19v3.15c-.03,1.36-.62,1.97-2.16,2.07-1.04.05-1.82,0-2.55-.05-.34-.02-.53-.2-.62-.48-.11-.35-.22-.73-.34-1.03-.06-.15,0-.2.17-.18.81.13,1.74.15,2.74.13.56-.03.84-.18.81-.78v-2.82h-4.12c-4.96,0-8.54-.08-12.21.13-.17.03-.25-.05-.25-.2-.06-.43-.08-1.01-.08-1.41,0-.15.08-.23.28-.2,3.67.2,7.25.15,12.26.15h4.09v-.5c-.03-.35-.06-.63-.08-.81-.03-.15.06-.23.22-.23.53-.03,1.15,0,1.76.03.17.02.25.13.2.28-.08.43-.11.68-.11.91v.3c2.63-.03,4.93-.05,6.16-.1.17,0,.25.08.28.23ZM141.88,15.26c-.2.02-.36.08-.53.1-.25.08-.36,0-.48-.23-.11-.38-.2-.86-.22-1.26-.03-.1.03-.18.17-.18,1.43-.03,3.19-.13,5.01-.3v-2.57c-1.46,0-2.86.02-4.14.08-.17,0-.25-.08-.28-.23-.03-.35-.06-.81-.06-1.13,0-.15.08-.23.25-.23,1.62.13,3.19.1,5.15.1,1.82,0,4-.03,5.15-.08.17,0,.25.08.28.23,0,.3,0,.73-.03,1.06,0,.15-.08.23-.25.23l-4.17-.02v2.34c1.71-.2,3.33-.45,4.68-.73.11-.03.14.02.14.1,0,.48.03.78.03,1.03-.03.18-.14.3-.34.33-3,.58-6.75,1.01-9.97,1.31-.14,0-.25.03-.39.05ZM161.23,8.9c-.45.05-1.06.05-1.51,0-.17-.03-.28-.1-.28-.25v-.55h-7.25c-2.72,0-5.74-.03-8.34.13-.17,0-.28-.05-.28-.23-.03-.35-.06-.86-.06-1.24,0-.15.11-.23.28-.2,2.74.18,5.57.13,8.4.13h7.28v-1.51h-6.75c-2.52,0-5.4-.03-7.81.1-.17,0-.25-.05-.28-.2-.03-.35-.06-.81-.06-1.13,0-.15.11-.23.28-.23,2.58.15,5.21.13,7.87.13h6.75v-1.39h-6.97c-2.63,0-5.57,0-8.09.13-.17,0-.25-.08-.28-.23-.03-.35-.06-.83-.03-1.19,0-.15.08-.23.25-.23,2.66.15,5.4.13,8.15.13h6.94l-.03-.5c-.03-.15.06-.23.22-.25.53-.03,1.18,0,1.68.05.2.03.25.1.22.25-.03.28-.06.53-.08.91,0,1.89,0,4.97.03,7.13,0,.15-.08.23-.25.25ZM150.76,21.96c-1.54-1.08-2.97-1.92-4.48-2.7-.14-.08-.17-.18-.06-.3.25-.3.59-.6.9-.88.11-.1.25-.13.39-.05,1.48.76,2.94,1.59,4.62,2.62.14.08.17.18.06.3-.31.38-.7.73-1.04.98-.14.13-.25.13-.39.03ZM155.3,15.16c-.42.03-.84.03-1.26,0-.17,0-.25-.08-.25-.23v-5.72c0-.15.08-.23.25-.23.42,0,.87,0,1.29.03.17,0,.25.08.25.23v.38h6.55v-.4c0-.15.08-.23.28-.23.39,0,.87,0,1.29.03.17,0,.25.08.25.23-.03.33-.06.83-.06,1.11v3.08c0,.43,0,1.01.03,1.41,0,.15-.08.23-.25.23h-1.26c-.17,0-.28-.08-.28-.23v-.63h-6.58v.73c0,.15-.08.23-.25.23ZM155.55,10.92v1.94h6.58v-1.94h-6.58Z"/>
  <path class="st0" d="M172.15,15.76c-.17.08-.34.15-.48.2-.22.1-.34.05-.45-.18-.14-.45-.31-1.06-.39-1.54-.03-.15.03-.2.17-.25,1.32-.25,2.91-.68,4.54-1.16v-5.34c-1.4,0-2.63.03-3.92.08-.2.03-.28-.05-.31-.2-.03-.43-.03-1.06-.03-1.49,0-.15.08-.23.25-.2,1.34.1,2.55.1,4,.1l-.03-3.08c0-.3-.03-.55-.06-.81,0-.58-.03-1.03-.06-1.36-.03-.13.03-.23.22-.23.53,0,1.2,0,1.82.05.17.03.22.1.2.25-.08.48-.11.83-.14,1.21l-.06,3.96c1.23-.03,2.46-.05,3.25-.08.17,0,.25.05.25.23,0,.38,0,.96-.03,1.36,0,.05,0,.1-.03.13,1.4-.05,2.74-.13,4.23-.25-.14-1.29-.25-2.67-.34-4.11,0-.3-.03-.55-.03-.86l-.17-1.66c-.03-.15.06-.23.22-.23.53-.05,1.29-.05,1.82,0,.17.03.22.13.22.25-.03.55-.06,1.03-.06,1.46.03.28.03.53.03.83.06,1.46.14,2.85.31,4.16l1.15-.1c2.88-.25,6.22-.58,7.7-.76.17-.03.25.05.28.2.08.4.11.98.14,1.39-.03.18-.11.25-.28.25-1.46.1-4.73.38-7.67.63l-1.09.1c.36,2.42.9,4.51,1.48,6.23,1.79-1.74,3.28-3.6,4.37-5.52.08-.15.2-.2.36-.13.42.18.98.43,1.4.68.22.13.22.25.03.43-.11.13-.2.25-.31.38-.08.15-.22.28-.34.48-1.32,1.92-2.91,3.81-4.79,5.52,1.29,2.77,2.72,4.18,3.75,4.18,1.32,0,1.88-2.85,1.93-4.92,0-.15.08-.2.2-.1.39.25.84.43,1.26.66.25.13.34.28.28.58-.34,2.47-1.06,5.97-3.47,5.97-1.96,0-3.92-1.79-5.49-5.04-2.27,1.82-4.84,3.38-7.7,4.46-.25.1-.48.08-.64-.13-.2-.18-.39-.48-1.06-1.06-.08-.08-.08-.15.06-.18,3.16-1.06,6.1-2.8,8.6-4.87-.81-2.07-1.46-4.59-1.9-7.49-1.6.15-3.05.3-4.54.5-.17,0-.25-.05-.28-.2-.08-.43-.17-1.11-.22-1.54,0-.05.03-.13.14-.1l-3.02-.05v4.74c1.2-.4,2.32-.81,3.28-1.21.11-.03.17.03.17.13.08.68.2,1.03.25,1.36.03.2-.06.35-.28.43-1.01.38-2.18.78-3.42,1.18l.03,7.06c0,1.26-.56,1.81-1.9,1.94-.92.03-1.62.03-2.21,0-.31-.03-.48-.18-.56-.43-.06-.38-.14-.88-.25-1.24-.03-.15.03-.23.2-.2.62.08,1.34.1,2.13.08.48-.02.7-.18.67-.68v-5.92l-3.02.93c-.11.02-.22.08-.36.1ZM190.13.74c1.18,1.13,2.74,2.34,4.34,3.3.11.08.11.15,0,.25-.34.25-.73.63-1.09.86-.17.13-.36.13-.53,0-1.51-1.03-2.97-2.22-4.14-3.35-.11-.1-.11-.23,0-.33.28-.25.67-.53,1.04-.76.14-.08.28-.08.39.03Z"/>
  <path class="st0" d="M212.27,12.66c-.56,5.9-3.28,8.54-8.71,10.49-.25.13-.5.08-.73-.1-.22-.23-.39-.48-1.23-1.08-.11-.05-.11-.13.03-.18,5.91-1.69,8.4-4.66,8.62-9.91-2.77,0-5.1.03-7.59.15-.17.02-.28-.05-.31-.2-.03-.45-.06-1.21-.06-1.66,0-.15.11-.23.28-.2,3.39.18,6.61.15,10.95.15.03-3.3.06-6.91-.03-8.87-.03-.28-.03-.5-.06-.76-.03-.15.06-.25.22-.25.56-.02,1.4,0,2.02.05.17,0,.22.1.2.25-.06.25-.08.43-.11.71-.08,1.99-.06,5.57-.03,8.87,4.4,0,9.1-.05,11.06-.13.17,0,.25.05.28.23,0,.43,0,1.03-.03,1.49,0,.15-.08.23-.25.23-1.6-.05-4.98-.05-8.54-.05l-.03.18c-.06.25-.06.45-.06.73-.08,1.99-.11,4.56-.06,7.16.03.5.25.76.87.83,1.51.15,3.22.13,4.65.02.95-.13,1.46-.5,1.71-1.29.2-.76.28-1.59.31-2.32,0-.1.06-.13.17-.08.76.3,1.09.4,1.43.48.25.08.36.25.36.48-.08.68-.22,1.49-.42,2.27-.42,1.46-1.34,2.17-3.19,2.29-1.85.13-3.86.13-5.8,0-1.48-.15-2.1-.78-2.13-2.19-.06-3-.03-6.18-.06-7.71l-.03-.86h-3.64v.03c-.03.25-.06.48-.08.76ZM208.52,8.4c-1.09-2.02-2.21-3.73-3.5-5.39-.08-.13-.06-.23.06-.33.42-.25.9-.48,1.34-.66.17-.08.28-.05.39.08,1.29,1.69,2.52,3.48,3.67,5.37.06.15.06.25-.11.35-.5.28-1.01.53-1.48.71-.14.05-.28.02-.36-.13ZM223.73,3.74c-.87,1.39-2.3,3.48-3.58,4.97-.11.15-.31.2-.5.13-.31-.1-.56-.25-1.43-.58-.11-.03-.14-.1-.06-.18,1.48-1.64,3.3-4.23,4.23-6.18.03-.13.14-.18.31-.13.48.13,1.15.43,1.62.63.22.1.22.23.06.4-.11.15-.17.25-.25.38-.14.18-.25.35-.39.55Z"/>
  <path class="st0" d="M234.82,22.24c-.08.15-.14.3-.2.43-.11.23-.25.25-.5.13-.45-.23-1.06-.61-1.51-.91-.08-.08-.11-.18-.03-.28,1.85-2.12,4.14-5.72,5.24-8.27.06-.08.11-.1.25-.05.64.28.98.43,1.34.61.17.13.22.28.14.45l-.53,1.08c.28.61.62,1.13,1.01,1.59,4.34-2.72,8.9-6.53,12.12-10.08h-7.64c-3.39,0-6.61-.02-9.8.18-.17,0-.25-.08-.28-.23-.06-.48-.06-1.29-.06-1.74,0-.15.08-.23.28-.2,3.08.18,6.3.13,9.58.13.03-1.51,0-3.12-.03-4.03-.03-.2-.03-.38-.06-.55-.03-.15.03-.23.22-.25.53-.02,1.4,0,1.96.05.17,0,.22.1.2.25-.03.18-.08.33-.08.5-.06.91-.08,2.5-.06,4.03h7.36l.95-1.26c.08-.15.2-.18.36-.13.5.18,1.15.45,1.62.71.22.1.22.23.06.43-.11.08-.2.18-.25.25-.11.15-.22.28-.36.45-3.47,4.24-9.21,9.3-14.64,12.83,3.56,2.5,9.55,2.5,16.8,2.12.14.03.2.08.14.18-.28.76-.36,1.08-.48,1.36-.08.35-.28.43-.7.45-9.04.28-16.1,0-19.32-5.12-.92,1.61-1.99,3.23-2.91,4.59-.06.1-.14.18-.2.3Z"/>
  <path class="st0" d="M267.32,22.04c-.39.05-.84.05-1.23,0-.17,0-.25-.08-.25-.23v-8.34c-.45.91-.92,1.81-1.46,2.62-.14.2-.31.2-.48.08-.2-.18-.36-.43-1.04-.93-.06-.05-.08-.13-.03-.18,2.13-3.2,3.72-7.81,4.28-11.6-1.06,0-2.04.03-3.05.1-.2,0-.31-.08-.31-.23-.03-.43-.06-1.08-.06-1.49.03-.18.11-.25.28-.23,1.54.1,2.88.1,4.56.1s3.61-.02,4.65-.08c.17,0,.28.08.28.23v1.39c-.03.15-.11.23-.28.23l-4.03-.03-.03.08c-.31,1.59-.84,3.55-1.51,5.55h3.28l-.03-.91c-.03-.18.06-.25.22-.25.42,0,.87,0,1.26.03.2,0,.28.08.25.25,0,.45-.03,1.26-.03,1.84v11.32c0,.18-.08.25-.28.28h-1.26c-.17-.03-.25-.1-.25-.28v-1.34h-3.22v1.79c0,.15-.08.23-.25.23ZM267.6,10.8l-.03,1.18v6.35h3.22v-7.54h-3.19ZM278.66,7.19l-.36,1.03c.73.96,1.65,1.89,2.63,2.7.08.1.08.18,0,.25-.31.3-.59.6-.92.86-.17.1-.31.1-.42-.03-.73-.71-1.43-1.41-2.04-2.14-.7,1.41-1.65,2.87-2.83,4.06-.17.15-.36.15-.56.08-.22-.15-.42-.33-1.12-.66-.11-.08-.11-.13-.03-.2,2.24-2.02,3.64-4.66,4.14-7.21.03-.15.14-.2.28-.18.42.03.95.13,1.4.23.25.08.28.18.17.38-.06.13-.11.23-.17.33-.06.15-.11.28-.17.5ZM281.86,23.1c-.48.03-1.06.03-1.51,0-.17,0-.25-.1-.25-.25.03-1.89.06-3.91.03-5.62-2.49,0-4.51,0-6.55.1-.17,0-.28-.05-.28-.2-.06-.43-.08-1.03-.06-1.44,0-.15.08-.23.25-.23,2.1.13,4.12.13,6.64.13l-.03-1.13c-.03-.23-.06-.43-.08-.68,0-.15.06-.23.25-.25.53,0,1.18,0,1.74.08.17,0,.22.1.2.25-.06.23-.08.4-.11.61l-.03,1.13c2.6,0,5.4-.03,6.72-.08.17-.03.28.05.28.2.03.4.03.91,0,1.29-.03.18-.11.25-.28.25l-6.72-.03c-.03,1.71,0,3.73.06,5.62,0,.15-.08.25-.25.25ZM288.63,3.44c.03.4.03.91,0,1.31-.03.15-.11.23-.31.23-1.4-.03-4.42-.03-7.17-.03s-4.9,0-7.08.1c-.17,0-.25-.08-.28-.23-.06-.4-.06-1.01-.06-1.41,0-.15.08-.23.25-.2,1.99.1,3.81.13,6.13.13,0-.93,0-1.84-.06-2.39,0-.18-.03-.33-.06-.5,0-.15.06-.23.22-.23.48-.03,1.23-.03,1.71.02.17.03.25.1.22.25-.06.18-.06.3-.08.45-.06.55-.06,1.46-.06,2.39,2.46,0,5.04-.02,6.33-.1.17,0,.28.05.28.2ZM285.86,7.24c-.17.45-.39.93-.64,1.44,1.06,1.34,2.44,2.72,3.84,3.83.11.1.11.18,0,.25-.31.25-.67.61-1.04.83-.17.1-.31.08-.48-.03-1.15-1.03-2.24-2.19-3.16-3.35-.67,1.08-1.46,2.14-2.41,2.97-.17.15-.34.15-.53.05-.22-.13-.42-.33-1.09-.68-.11-.05-.11-.13-.03-.18,2.1-1.69,3.44-4.03,4.12-6.43.06-.15.14-.2.28-.18.42.03.95.15,1.4.28.25.08.25.18.11.38-.06.13-.08.23-.14.33-.08.13-.14.28-.22.48Z"/>
  <path class="st0" d="M312.46,23.12c-.5.05-1.26.05-1.76,0-.17-.03-.25-.1-.25-.25.06-2.87.06-6.05.03-8.52h-10.5c-.53,2.87-1.71,5.9-3.81,8.02-.2.23-.42.25-.67.1-.25-.15-.48-.35-1.34-.83-.11-.08-.11-.15-.03-.23,3.05-2.65,4.03-7.26,4.17-10.71.06-2.07.03-6.15-.06-8.04-.03-.53-.08-1.06-.14-1.56-.03-.15.06-.23.25-.23.53-.03,1.34-.03,1.9,0,.17.03.25.1.25.28-.06.55-.08.93-.08,1.39v3.76h7.56c.03-1.99,0-4.11-.03-5.27-.03-.23-.03-.43-.06-.66-.03-.13.06-.23.22-.23.56-.03,1.4,0,1.99.05.17,0,.22.08.2.23-.03.23-.06.38-.08.58-.08,1.18-.06,3.3-.03,5.29h.2c3.16,0,7.08-.02,8.88-.08.17,0,.28.08.28.23.03.45.03,1.08,0,1.51-.03.15-.11.23-.28.23-1.79-.02-5.68-.02-8.88-.02h-10l-.03,2.47c0,.58-.06,1.21-.11,1.87h10.22l-.03-.81c-.03-.23-.06-.48-.08-.76-.03-.15.06-.23.22-.23.62-.05,1.4-.03,2.04.02.17.03.25.13.22.28-.08.25-.11.45-.14.71-.11,2.42-.11,7.08,0,11.17,0,.15-.08.25-.25.25Z"/>
  <path class="st0" d="M1.45,67.23v-25.08h15.76v4.3H6.18v6.05h10.17v4.3H6.18v10.42H1.45Z"/>
  <path class="st0" d="M22.98,47.38c-.81,0-1.5-.26-2.06-.79-.56-.52-.84-1.22-.84-2.08s.28-1.55.84-2.08c.56-.53,1.25-.79,2.06-.79s1.53.26,2.08.79c.55.53.82,1.22.82,2.08s-.27,1.55-.82,2.08c-.55.53-1.24.79-2.08.79ZM20.72,67.23v-17.77h4.51v17.77h-4.51Z"/>
  <path class="st0" d="M30.25,67.23v-17.77h4.44v2.33h.65c.29-.62.82-1.21,1.61-1.77.79-.56,1.98-.84,3.58-.84,1.38,0,2.6.32,3.64.95s1.84,1.5,2.42,2.61c.57,1.11.86,2.41.86,3.89v10.6h-4.51v-10.25c0-1.34-.33-2.34-.99-3.01-.66-.67-1.59-1-2.81-1-1.39,0-2.46.46-3.22,1.38-.76.92-1.15,2.2-1.15,3.85v9.03h-4.51Z"/>
  <path class="st0" d="M59.48,67.73c-1.41,0-2.73-.35-3.96-1.06-1.23-.7-2.22-1.74-2.96-3.1s-1.11-3.01-1.11-4.94v-.57c0-1.93.37-3.58,1.11-4.94s1.72-2.39,2.94-3.1c1.22-.71,2.54-1.06,3.98-1.06,1.07,0,1.98.13,2.7.38.73.25,1.32.57,1.77.95.45.38.8.79,1.04,1.22h.64v-9.35h4.51v25.08h-4.44v-2.15h-.65c-.41.67-1.03,1.28-1.88,1.83-.85.55-2.08.82-3.71.82ZM60.84,63.79c1.38,0,2.54-.45,3.48-1.34.93-.9,1.4-2.2,1.4-3.92v-.36c0-1.72-.46-3.03-1.38-3.92s-2.08-1.34-3.49-1.34-2.54.45-3.47,1.34c-.93.9-1.4,2.2-1.4,3.92v.36c0,1.72.47,3.03,1.4,3.92.93.9,2.09,1.34,3.47,1.34Z"/>
  <path class="st0" d="M90.22,67.23v-8.63l-8.53-16.44h5.27l5.3,10.75h.65l5.3-10.75h5.27l-8.53,16.44v8.63h-4.73Z"/>
  <path class="st0" d="M111.57,67.73c-1.77,0-3.36-.36-4.76-1.08-1.41-.72-2.52-1.75-3.33-3.12s-1.22-3-1.22-4.91v-.57c0-1.91.41-3.55,1.22-4.91s1.92-2.4,3.33-3.12c1.41-.72,3-1.08,4.76-1.08s3.36.36,4.76,1.08,2.52,1.75,3.33,3.12,1.22,3,1.22,4.91v.57c0,1.91-.41,3.55-1.22,4.91s-1.92,2.4-3.33,3.12-3,1.08-4.76,1.08ZM111.57,63.72c1.39,0,2.53-.45,3.44-1.34.91-.9,1.36-2.18,1.36-3.85v-.36c0-1.67-.45-2.96-1.34-3.85-.9-.9-2.05-1.34-3.46-1.34s-2.53.45-3.44,1.34c-.91.9-1.36,2.18-1.36,3.85v.36c0,1.67.45,2.96,1.36,3.85.91.9,2.05,1.34,3.44,1.34Z"/>
  <path class="st0" d="M131.81,67.52c-1.39,0-2.6-.32-3.64-.95-1.04-.63-1.84-1.51-2.42-2.63-.57-1.12-.86-2.41-.86-3.87v-10.6h4.51v10.25c0,1.34.33,2.34.98,3.01.66.67,1.59,1,2.81,1,1.39,0,2.46-.46,3.22-1.38.76-.92,1.15-2.2,1.15-3.85v-9.03h4.51v17.77h-4.44v-2.33h-.65c-.29.6-.82,1.18-1.61,1.75s-1.98.86-3.58.86Z"/>
  <path class="st0" d="M147.11,67.23v-17.77h4.44v2.01h.65c.26-.72.7-1.24,1.31-1.58.61-.33,1.32-.5,2.13-.5h2.15v4.01h-2.22c-1.15,0-2.09.3-2.83.91-.74.61-1.11,1.55-1.11,2.81v10.1h-4.51Z"/>
  <path class="st0" d="M170.25,67.23v-25.08h4.73v20.78h11.46v4.3h-16.19Z"/>
  <path class="st0" d="M192.06,47.38c-.81,0-1.5-.26-2.06-.79-.56-.52-.84-1.22-.84-2.08s.28-1.55.84-2.08c.56-.53,1.25-.79,2.06-.79s1.53.26,2.08.79c.55.53.82,1.22.82,2.08s-.27,1.55-.82,2.08c-.55.53-1.24.79-2.08.79ZM189.81,67.23v-17.77h4.51v17.77h-4.51Z"/>
  <path class="st0" d="M198.48,58.42v-.57c0-1.86.37-3.46,1.11-4.78.74-1.33,1.73-2.34,2.96-3.04,1.23-.71,2.57-1.06,4.03-1.06,1.62,0,2.85.29,3.69.86.84.57,1.44,1.17,1.83,1.79h.65v-2.15h4.44v20.92c0,1.22-.36,2.19-1.07,2.92-.72.73-1.67,1.09-2.87,1.09h-11.89v-3.94h10.32c.67,0,1-.36,1-1.08v-4.62h-.64c-.24.38-.57.77-1,1.16-.43.39-1,.72-1.72.99-.72.26-1.62.39-2.72.39-1.46,0-2.8-.35-4.03-1.06-1.23-.7-2.22-1.72-2.96-3.04s-1.11-2.92-1.11-4.78ZM207.86,63.36c1.38,0,2.54-.44,3.48-1.33.93-.88,1.4-2.13,1.4-3.73v-.36c0-1.62-.46-2.87-1.38-3.74-.92-.87-2.08-1.31-3.49-1.31s-2.54.44-3.47,1.31c-.93.87-1.4,2.12-1.4,3.74v.36c0,1.6.47,2.84,1.4,3.73.93.88,2.09,1.33,3.47,1.33Z"/>
  <path class="st0" d="M222.19,67.23v-25.08h4.51v9.49h.65c.19-.38.49-.76.9-1.15.41-.38.95-.7,1.63-.95.68-.25,1.55-.38,2.6-.38,1.38,0,2.6.32,3.64.95s1.84,1.5,2.42,2.61c.57,1.11.86,2.41.86,3.89v10.6h-4.51v-10.25c0-1.34-.33-2.34-.99-3.01-.66-.67-1.59-1-2.81-1-1.39,0-2.46.46-3.22,1.38-.76.92-1.15,2.2-1.15,3.85v9.03h-4.51Z"/>
  <path class="st0" d="M250.56,67.23c-1.17,0-2.12-.36-2.85-1.09-.73-.73-1.09-1.7-1.09-2.92v-10.03h-4.44v-3.73h4.44v-5.52h4.51v5.52h4.87v3.73h-4.87v9.24c0,.72.33,1.08,1,1.08h3.44v3.73h-5.02Z"/>
</svg>