<?xml version="1.0" encoding="utf-8"?>
<!-- Generator: Adobe Illustrator 27.0.1, SVG Export Plug-In . SVG Version: 6.00 Build 0)  -->
<svg version="1.1" id="圖層_1" xmlns="http://www.w3.org/2000/svg" xmlns:xlink="http://www.w3.org/1999/xlink" x="0px" y="0px"
	 viewBox="0 0 319.6 67.7" style="enable-background:new 0 0 319.6 67.7;" xml:space="preserve">
<style type="text/css">
	.st0{fill:#2C2D29;}
</style>
<g>
	<path class="st0" d="M1.2,15.6c-0.1,0.1-0.3,0.1-0.4,0.2c-0.3,0.1-0.3,0.1-0.4-0.2c-0.2-0.4-0.3-1-0.4-1.5c0-0.1,0-0.2,0.2-0.3
		c1.1-0.2,2.4-0.6,3.8-1V7.5c-1.1,0-2.1,0-3.2,0.1c-0.2,0-0.3-0.1-0.3-0.2c-0.1-0.4-0.1-1-0.1-1.4c0-0.2,0.1-0.2,0.3-0.2
		c1.1,0.1,2.1,0.1,3.2,0.1l0-3.1c0-0.3,0-0.5-0.1-0.8c0-0.6,0-1-0.1-1.4c0-0.2,0.1-0.2,0.2-0.2c0.5,0,1.1,0,1.7,0
		c0.2,0,0.3,0.1,0.2,0.3C5.9,1.1,5.8,1.4,5.8,1.8l-0.1,4l2.6-0.1c0.2,0,0.3,0.1,0.3,0.2c0,0.4,0,1,0,1.4c0,0.2-0.1,0.2-0.3,0.2
		l-2.6,0v4.7c1-0.4,1.9-0.7,2.7-1.1c0.1,0,0.1,0,0.2,0.1c0.1,0.7,0.2,1,0.2,1.3c0,0.2-0.1,0.4-0.3,0.4c-0.8,0.3-1.8,0.7-2.8,1l0,7.2
		c0,1.2-0.5,1.7-1.8,1.8c-0.8,0.1-1.5,0-2,0c-0.3,0-0.4-0.2-0.5-0.4c-0.1-0.4-0.2-0.9-0.3-1.2c-0.1-0.1,0-0.2,0.2-0.2
		c0.5,0.1,1.1,0.1,1.8,0.1c0.4,0,0.7-0.2,0.6-0.7v-6l-2.4,0.8C1.5,15.5,1.4,15.6,1.2,15.6z M17.9,23.1c-0.5,0-1.1,0-1.6,0
		c-0.2,0-0.3-0.1-0.3-0.3c0.1-2,0.1-4.8,0.1-6.9c-1.7,2.2-4.3,4.6-7.1,5.9c-0.2,0.1-0.4,0.1-0.6,0c-0.2-0.2-0.4-0.4-1-0.9
		c-0.1-0.1-0.1-0.2,0-0.2c3.1-1.3,5.9-3.7,7.7-6.2c-2.2,0-4.1,0-6,0.1c-0.2,0-0.3-0.1-0.3-0.2c0-0.4-0.1-1,0-1.4
		c0-0.2,0.1-0.2,0.3-0.2c2.2,0.1,4.3,0.1,7,0.1v-1.9c0-0.2,0-0.4-0.1-0.7c0-0.2,0.1-0.2,0.3-0.2c0.5,0,1.2,0,1.6,0
		c0.2,0,0.3,0.1,0.2,0.3c0,0.3-0.1,0.5-0.1,0.6V13c2.8,0,5.8-0.1,7.2-0.1c0.2,0,0.3,0.1,0.3,0.2v1.3c0,0.2-0.1,0.2-0.3,0.2h-6.3
		c1.7,2.3,4.3,4.5,7.3,5.8c0.1,0.1,0.1,0.1,0,0.2c-0.6,0.5-0.8,0.8-1.1,1c-0.2,0.1-0.3,0.1-0.5,0C22,20.2,19.7,18.1,18,16
		c0,2.1,0.1,4.9,0.1,6.9C18.1,23,18,23.1,17.9,23.1z M15.9,4.3c-0.4,3.9-1.9,5.7-5.3,7c-0.3,0.1-0.5,0-0.7-0.2
		c-0.2-0.2-0.3-0.5-0.8-0.9c-0.1-0.1-0.1-0.2,0.1-0.2c3.7-1.2,5-3,5-6.8h-3v2.5c0,0.2-0.1,0.2-0.3,0.3C10.5,6,10,6,9.6,6
		C9.5,6,9.4,5.9,9.4,5.7c0-1.2,0-2.2,0-3.3c0-0.5,0-1.1-0.1-1.6c0-0.2,0.1-0.3,0.2-0.3c0.5,0,1,0,1.4,0c0.2,0,0.3,0.1,0.3,0.3
		l-0.1,0.9h12.2l-0.1-0.9c0-0.2,0.1-0.2,0.3-0.2c0.4,0,1,0,1.4,0c0.2,0,0.3,0.1,0.3,0.3c-0.1,0.6-0.1,1.2-0.1,1.7c0,1,0,1.9,0,3
		c0,0.2-0.1,0.2-0.3,0.3c-0.4,0-0.9,0-1.3,0c-0.2,0-0.3-0.1-0.3-0.3V3.2h-3.3l-0.1,5c0,0.4,0.1,0.6,0.4,0.6c0.7,0.1,1.7,0.1,2.5,0
		c0.4,0,0.6-0.2,0.7-0.5c0.1-0.4,0.2-0.7,0.2-1.1c0-0.1,0.1-0.2,0.2-0.1c0.3,0.1,0.8,0.2,1.1,0.3c0.2,0.1,0.3,0.2,0.3,0.4
		c-0.1,0.5-0.2,1-0.4,1.5c-0.3,0.7-0.8,1.1-2.1,1.1c-1,0-2.2,0-3.2,0c-1-0.1-1.4-0.5-1.5-1.4c0-1.8,0-4.2-0.1-5.7h-2.2L16,3.5
		C16,3.8,15.9,4,15.9,4.3z"/>
	<path class="st0" d="M50.7,12.1c1.5,1.5,3.6,3.4,5.7,4.8c0.1,0.1,0.1,0.2,0,0.2c-0.4,0.2-0.9,0.5-1.3,0.7c-0.2,0.1-0.4,0-0.5-0.1
		c-0.7-0.5-1.3-1.1-2-1.6c-2.4,0.3-5,0.5-7.6,0.7v0.6c0,0.6,0,3.6,0.1,5.5c0,0.2-0.1,0.2-0.3,0.2c-0.5,0-1.3,0-1.7,0
		c-0.2,0-0.3-0.1-0.3-0.3c0.1-2.2,0-5,0-5.4v-0.5c-2.9,0.2-5.9,0.3-8.6,0.3c-0.2,0-0.4,0-0.6,0c-0.3,0-0.7,0.1-1,0.2
		c-0.3,0.1-0.4,0-0.4-0.3c-0.1-0.4-0.2-1-0.2-1.5c0-0.1,0.1-0.2,0.2-0.2c2.3,0,5.2,0,8.1-0.1l1-0.7c-1.7-1.1-3.8-2.2-5.5-3
		c-0.1-0.1-0.2-0.2-0.1-0.3c0.3-0.3,0.7-0.6,1-0.8c0.1-0.1,0.3-0.1,0.4-0.1l1.6,0.8c1.1-0.9,2.1-2,2.9-2.9c0,0,0.1-0.1,0.1-0.1H34
		v3.5c0,0.2-0.1,0.3-0.3,0.3c-0.4,0.1-1,0.1-1.4,0c-0.2,0-0.3-0.1-0.3-0.3V7.5c0-0.6,0-1.3-0.1-1.8c0-0.2,0.1-0.2,0.2-0.2
		c0.5,0,1.1,0,1.6,0c0.2,0,0.3,0.1,0.3,0.3l-0.1,1h8.8l0-2.4c-3.8,0-6.8,0-9.8,0.1c-0.2,0-0.3-0.1-0.3-0.2c-0.1-0.4-0.1-1.1-0.1-1.5
		c0-0.2,0.1-0.2,0.3-0.2c3.1,0.2,6,0.2,9.9,0.2l0-1.8c0-0.2,0-0.4-0.1-0.7c0-0.2,0.1-0.2,0.3-0.2c0.5,0,1.3,0,1.8,0
		c0.2,0,0.3,0.1,0.2,0.3C45,0.6,45,0.7,44.9,1l0,1.8c3.9,0,8.1,0,9.9-0.1c0.2,0,0.3,0,0.3,0.2c0,0.4,0,0.9,0,1.3
		c0,0.2-0.1,0.3-0.3,0.3c-1.8-0.1-5.9,0-9.9,0l0,2.4h8.8l-0.1-1.1c0-0.2,0.1-0.2,0.3-0.2c0.5,0,1.1,0,1.6,0c0.2,0,0.3,0.1,0.2,0.3
		c-0.1,0.6-0.1,1.2-0.1,1.8v3.7c0,0.2-0.1,0.2-0.3,0.3c-0.4,0-1,0-1.4,0c-0.2,0-0.3-0.1-0.3-0.3l0-2.9H42.1c0.4,0.2,1,0.4,1.4,0.6
		c0.2,0.1,0.2,0.2,0,0.4l-0.3,0.3C43.1,9.8,43,9.9,42.8,10c-0.6,0.6-1.5,1.4-2.4,2.2c0.8,0.5,1.6,0.9,2.4,1.4
		c1.7-1.3,3.5-2.9,4.6-4.1c0.1-0.1,0.3-0.2,0.4-0.1c0.4,0.2,1,0.5,1.4,0.7c0.2,0.2,0.2,0.2,0,0.4c-0.1,0.1-0.3,0.2-0.3,0.3
		c-0.2,0.2-0.4,0.3-0.6,0.5c-1.3,1.1-3.2,2.7-5,4c2.7-0.2,5.4-0.4,7.7-0.6c-0.7-0.6-1.3-1.3-1.9-1.8c-0.1-0.1-0.1-0.3,0.1-0.3
		c0.3-0.2,0.8-0.4,1.2-0.6C50.5,11.9,50.6,12,50.7,12.1z M39.4,19.4c-1.4,1.1-3.5,2.5-5.5,3.4c-0.2,0.1-0.4,0.1-0.6-0.1
		c-0.3-0.2-0.4-0.4-1.2-0.9c-0.1,0-0.1-0.1,0-0.2c2.3-0.9,4.7-2.3,6.2-3.7c0.1-0.1,0.3-0.1,0.4-0.1c0.4,0.2,0.9,0.5,1.3,0.7
		c0.2,0.1,0.2,0.3,0,0.4C40,19,39.9,19,39.9,19.1C39.7,19.2,39.6,19.3,39.4,19.4z M49.2,17.7c1.6,1.2,3.9,2.5,6,3.6
		c0.1,0.1,0.1,0.1,0,0.2c-0.3,0.3-0.8,0.7-1.2,0.9c-0.2,0.1-0.4,0.1-0.5,0c-2.1-1.1-4.2-2.5-5.8-3.7c-0.1-0.1-0.1-0.2,0-0.3
		c0.3-0.2,0.7-0.5,1.1-0.7C49,17.6,49.1,17.6,49.2,17.7z"/>
	<path class="st0" d="M68.3,23.1c-0.5,0-1.1,0-1.6,0c-0.2,0-0.3-0.1-0.3-0.3c0.1-4.7,0.1-10.3,0.1-13.8c-1.1,1.7-2.3,3.3-3.5,4.8
		c-0.2,0.2-0.3,0.2-0.5,0c-0.2-0.2-0.3-0.5-1-1.1c-0.1-0.1-0.1-0.1,0-0.2c3.1-3.5,6.1-8.6,7.4-12.3c0.1-0.2,0.2-0.2,0.3-0.2
		c0.5,0.2,1.1,0.4,1.6,0.6c0.2,0.1,0.2,0.2,0.1,0.4c-0.1,0.1-0.1,0.2-0.1,0.3c-0.1,0.2-0.2,0.3-0.3,0.5c-0.6,1.4-1.5,3.1-2.5,4.8
		l0.5,0.2c0.2,0.1,0.3,0.3,0.3,0.5c-0.1,0.4-0.2,0.7-0.2,1c-0.1,3.1-0.1,9.1,0,14.6C68.5,23,68.4,23.1,68.3,23.1z M84.7,3
		c-1.5,0.3-3.1,0.6-4.9,0.9v0.1c-0.1,0.3-0.1,0.6-0.1,1c-0.1,1.5-0.1,3.6-0.1,5.9c3,0,6.2,0,7.6-0.1c0.2,0,0.3,0.1,0.3,0.2
		c0,0.4,0,1,0,1.4c0,0.2-0.1,0.2-0.3,0.2l-7.6,0l0.1,7.9l6.9-0.1c0.2,0,0.3,0.1,0.3,0.2c0,0.4,0,1,0,1.4c0,0.2-0.1,0.3-0.3,0.2
		c-1.5,0-4.9,0-7.9,0c-3.1,0-5.3,0-7.8,0.1c-0.2,0-0.3-0.1-0.3-0.2c0-0.4,0-1.1,0-1.6c0-0.2,0.1-0.2,0.3-0.2
		c2.2,0.1,4.2,0.1,6.8,0.1l0.1-7.9c-2.9,0-5.1,0-7.5,0.1c-0.2,0-0.3-0.1-0.3-0.2c-0.1-0.4-0.1-1.2-0.1-1.6c0-0.2,0.1-0.2,0.3-0.2
		c2.4,0.2,4.7,0.1,7.6,0.1c0-2.3,0-4.4-0.1-5.9l-0.1-0.7c-2.1,0.3-4.2,0.5-6.1,0.7c-0.3,0-0.4-0.1-0.5-0.3c-0.1-0.3-0.2-0.5-0.6-1.2
		c-0.1-0.1,0-0.2,0.1-0.2C74.5,3,81.2,2,84.9,1c0.2-0.1,0.3,0,0.4,0.1c0.3,0.4,0.7,0.8,1,1.3c0.1,0.2,0.1,0.3-0.3,0.3
		c-0.2,0.1-0.4,0.1-0.6,0.1C85.2,2.8,85,2.9,84.7,3z"/>
	<path class="st0" d="M115.2,5.7c-0.7,1.2-1.7,2.3-2.8,3.3c1.8,1.2,3.9,2.2,6.1,2.7c0.1,0.1,0.1,0.1,0.1,0.2
		c-0.5,0.6-0.6,0.9-0.9,1.2c-0.1,0.1-0.3,0.2-0.5,0.1c-2.2-0.7-4.3-1.7-6.1-3c-1.8,1.4-3.9,2.5-6.3,3.4c-0.2,0.1-0.4,0-0.6-0.2
		c-0.1-0.2-0.3-0.4-0.8-1c-0.3,0.7-0.6,1.3-1,1.9c-0.1,0.2-0.3,0.2-0.4,0.2c-0.3-0.1-0.5-0.2-1.1-0.4c-0.1-0.1-0.1-0.1-0.1-0.2
		c0.6-1,1.2-2.2,1.8-3.5h-2.5v0.1c-0.1,2.2-0.1,6.4,0,10.7c0,1.3-0.6,1.9-1.9,1.9c-0.9,0-1.7,0-2.3,0c-0.3-0.1-0.5-0.2-0.6-0.5
		c-0.1-0.4-0.2-0.8-0.3-1.1c-0.1-0.2,0-0.2,0.2-0.2c0.7,0.1,1.5,0.1,2.3,0.1c0.5,0,0.7-0.2,0.7-0.7v-7.9c-1.1,2.1-2.7,4.4-4.5,6.2
		c-0.2,0.2-0.3,0.2-0.5,0c-0.2-0.2-0.4-0.4-1-0.9c-0.1,0-0.1-0.1,0-0.2c2.2-2,4.3-5,5.5-7.6c-1.5,0-3.2,0-4.7,0.1
		c-0.2,0-0.3-0.1-0.3-0.2c0-0.4,0-1,0-1.4c0-0.2,0.1-0.2,0.3-0.2c1.9,0.1,3.7,0.1,5.4,0.1h2.3c-2-1.4-3.8-2.6-5.7-3.6
		c-0.1-0.1-0.2-0.2-0.1-0.3c0.3-0.3,0.5-0.6,0.8-0.8c0.1-0.1,0.3-0.1,0.4,0c0.9,0.5,1.8,1,2.7,1.6c0.8-0.7,1.8-1.6,2.6-2.5h-3.1
		c-1.6,0-3.4,0-5,0.1c-0.2,0-0.3-0.1-0.3-0.2c0-0.4-0.1-0.9,0-1.3c0-0.2,0.1-0.2,0.3-0.2c1.7,0.1,3.4,0.1,5.1,0.1h4.5l0.5-0.6
		c0.1-0.1,0.2-0.2,0.3-0.1c0.4,0.2,1,0.4,1.4,0.6c0.2,0.1,0.2,0.2,0,0.4c-0.1,0.1-0.2,0.2-0.3,0.2c-0.2,0.2-0.3,0.3-0.5,0.5
		c-1,1.1-2.6,2.8-4,4l1.7,1.1c0.1,0.1,0.2,0.2,0,0.3c-0.3,0.3-0.6,0.6-1,0.9h2.1l0.2-0.6c0-0.2,0.1-0.2,0.3-0.2
		c0.4,0.1,0.9,0.2,1.3,0.4c0.2,0.1,0.3,0.2,0.1,0.4c0,0.2-0.1,0.2-0.1,0.3c-0.1,0.2-0.2,0.4-0.3,0.6l-1.1,2.5c2.4-0.8,4.5-1.8,6.2-3
		c-1-0.9-1.8-1.8-2.5-2.7c-0.1-0.2-0.1-0.2,0.1-0.3c0.3-0.2,0.7-0.5,1.1-0.7c0.1-0.1,0.3-0.1,0.3,0.1c0.6,0.9,1.5,1.8,2.4,2.6
		c1.3-1.1,2.2-2.4,3-3.7h-1h-5c-0.8,1.2-1.8,2.3-2.7,3.2c-0.2,0.2-0.4,0.2-0.6,0.1c-0.2-0.2-0.4-0.4-1.2-0.7c-0.1,0-0.1-0.1,0-0.2
		c2-1.7,3.8-4.3,4.7-6.5c0.1-0.1,0.2-0.2,0.3-0.2c0.4,0.1,1,0.3,1.4,0.5c0.3,0.1,0.3,0.2,0.1,0.4c-0.1,0.1-0.1,0.2-0.2,0.2
		c-0.1,0.2-0.1,0.3-0.3,0.5L109,2.7h4c1.6,0,3.6,0,4.6,0c0.2,0,0.3,0.1,0.3,0.2c0,0.4,0,0.8,0,1.2c0,0.2-0.1,0.2-0.3,0.2l-2.4,0
		l0.5,0.2c0.2,0.1,0.2,0.2,0.1,0.4c-0.1,0.1-0.2,0.2-0.3,0.3C115.5,5.3,115.4,5.5,115.2,5.7z M116.7,13.9c0,0.2-0.1,0.4-0.1,0.6
		c0,0.3,0,0.5-0.1,0.8c-0.1,1.3-0.3,4.1-0.7,5.9c-0.3,1.2-1,1.7-2.5,1.8c-1,0-1.9-0.1-2.6-0.3c-0.3,0-0.4-0.2-0.5-0.5
		c0-0.2,0-0.5-0.2-1.2c0-0.1,0-0.2,0.2-0.2c0.8,0.2,1.8,0.3,2.7,0.4c0.6,0,1-0.3,1.2-0.9c0.3-1.1,0.4-2.7,0.5-4.2h-4.4
		c-0.8,3.4-2.9,5.3-6.9,7c-0.3,0.1-0.5,0.1-0.7-0.1c-0.2-0.2-0.3-0.4-1-1c-0.1-0.1-0.1-0.2,0.1-0.2c3.9-1.4,5.9-3.2,6.6-5.7
		c-1.6,0-3.2,0.1-4.6,0.1c-0.2,0-0.3-0.1-0.3-0.3c0-0.4-0.1-1-0.1-1.3c0-0.2,0.1-0.2,0.3-0.2c1.7,0.1,3.3,0.1,5,0.1
		c0.1-0.6,0.1-1.3,0.1-2c0-0.2,0.1-0.2,0.3-0.2c0.5,0,1.1,0,1.6,0c0.2,0.1,0.3,0.1,0.2,0.4c-0.1,0.2-0.1,0.3-0.1,0.5
		c0,0.3-0.1,0.5-0.1,0.8l-0.1,0.7h4.1v-0.7c0-0.2,0.1-0.2,0.3-0.3c0.4,0,1,0,1.5,0.1C116.7,13.7,116.8,13.8,116.7,13.9z"/>
	<path class="st0" d="M127.7,5.2c0-0.9,0.6-1.5,1.5-1.5c1.1,0,1.7,0.4,1.7,1.2c0,0.9-0.6,1.5-1.6,1.5C128.3,6.5,127.7,6,127.7,5.2z
		 M127.7,18.5c0-0.9,0.6-1.5,1.5-1.5c1.1,0,1.7,0.4,1.7,1.2c0,0.9-0.6,1.5-1.6,1.5C128.3,19.7,127.7,19.2,127.7,18.5z"/>
	<path class="st0" d="M165.6,16.5c0,0.4,0,0.9,0,1.2c0,0.2-0.1,0.2-0.3,0.2h-6.2v3.2c0,1.4-0.6,2-2.2,2.1c-1,0.1-1.8,0-2.5-0.1
		c-0.3,0-0.5-0.2-0.6-0.5c-0.1-0.4-0.2-0.7-0.3-1c-0.1-0.2,0-0.2,0.2-0.2c0.8,0.1,1.7,0.2,2.7,0.1c0.6,0,0.8-0.2,0.8-0.8v-2.8h-4.1
		c-5,0-8.5-0.1-12.2,0.1c-0.2,0-0.3-0.1-0.3-0.2c-0.1-0.4-0.1-1-0.1-1.4c0-0.2,0.1-0.2,0.3-0.2c3.7,0.2,7.3,0.2,12.3,0.2h4.1v0v-0.5
		c0-0.4-0.1-0.6-0.1-0.8c0-0.2,0.1-0.2,0.2-0.2c0.5,0,1.1,0,1.8,0c0.2,0,0.3,0.1,0.2,0.3c-0.1,0.4-0.1,0.7-0.1,0.9v0.3
		c2.6,0,4.9-0.1,6.2-0.1C165.5,16.2,165.6,16.3,165.6,16.5z M141.9,15.3c-0.2,0-0.4,0.1-0.5,0.1c-0.3,0.1-0.4,0-0.5-0.2
		c-0.1-0.4-0.2-0.9-0.2-1.3c0-0.1,0-0.2,0.2-0.2c1.4,0,3.2-0.1,5-0.3v-2.6c-1.5,0-2.9,0-4.1,0.1c-0.2,0-0.3-0.1-0.3-0.2
		c0-0.4-0.1-0.8-0.1-1.1c0-0.2,0.1-0.2,0.3-0.2c1.6,0.1,3.2,0.1,5.2,0.1c1.8,0,4,0,5.2-0.1c0.2,0,0.3,0.1,0.3,0.2c0,0.3,0,0.7,0,1.1
		c0,0.2-0.1,0.2-0.3,0.2l-4.2,0v2.3c1.7-0.2,3.3-0.5,4.7-0.7c0.1,0,0.1,0,0.1,0.1c0,0.5,0,0.8,0,1c0,0.2-0.1,0.3-0.3,0.3
		c-3,0.6-6.7,1-10,1.3C142.1,15.2,142,15.2,141.9,15.3z M161.2,8.9c-0.4,0.1-1.1,0.1-1.5,0c-0.2,0-0.3-0.1-0.3-0.3V8.1h-7.3
		c-2.7,0-5.7,0-8.3,0.1c-0.2,0-0.3-0.1-0.3-0.2c0-0.4-0.1-0.9-0.1-1.2c0-0.2,0.1-0.2,0.3-0.2c2.7,0.2,5.6,0.1,8.4,0.1h7.3V5.2h-6.7
		c-2.5,0-5.4,0-7.8,0.1c-0.2,0-0.3-0.1-0.3-0.2c0-0.4-0.1-0.8-0.1-1.1c0-0.2,0.1-0.2,0.3-0.2c2.6,0.2,5.2,0.1,7.9,0.1h6.7V2.5h-7
		c-2.6,0-5.6,0-8.1,0.1c-0.2,0-0.3-0.1-0.3-0.2c0-0.4-0.1-0.8,0-1.2c0-0.2,0.1-0.2,0.3-0.2c2.7,0.2,5.4,0.1,8.1,0.1h6.9l0-0.5
		c0-0.2,0.1-0.2,0.2-0.3c0.5,0,1.2,0,1.7,0c0.2,0,0.3,0.1,0.2,0.3c0,0.3-0.1,0.5-0.1,0.9c0,1.9,0,5,0,7.1
		C161.5,8.8,161.4,8.9,161.2,8.9z M150.8,22c-1.5-1.1-3-1.9-4.5-2.7c-0.1-0.1-0.2-0.2-0.1-0.3c0.3-0.3,0.6-0.6,0.9-0.9
		c0.1-0.1,0.3-0.1,0.4-0.1c1.5,0.8,2.9,1.6,4.6,2.6c0.1,0.1,0.2,0.2,0.1,0.3c-0.3,0.4-0.7,0.7-1,1C151,22.1,150.9,22.1,150.8,22z
		 M155.3,15.2c-0.4,0-0.8,0-1.3,0c-0.2,0-0.3-0.1-0.3-0.2V9.2c0-0.2,0.1-0.2,0.3-0.2c0.4,0,0.9,0,1.3,0c0.2,0,0.3,0.1,0.3,0.2v0.4
		h6.6V9.2c0-0.2,0.1-0.2,0.3-0.2c0.4,0,0.9,0,1.3,0c0.2,0,0.3,0.1,0.3,0.2c0,0.3-0.1,0.8-0.1,1.1v3.1c0,0.4,0,1,0,1.4
		c0,0.2-0.1,0.2-0.3,0.2h-1.3c-0.2,0-0.3-0.1-0.3-0.2v-0.6h-6.6v0.7C155.5,15.1,155.5,15.2,155.3,15.2z M155.5,10.9v1.9h6.6v-1.9
		H155.5z"/>
	<path class="st0" d="M172.2,15.8c-0.2,0.1-0.3,0.2-0.5,0.2c-0.2,0.1-0.3,0.1-0.4-0.2c-0.1-0.5-0.3-1.1-0.4-1.5c0-0.2,0-0.2,0.2-0.3
		c1.3-0.3,2.9-0.7,4.5-1.2V7.5c-1.4,0-2.6,0-3.9,0.1c-0.2,0-0.3-0.1-0.3-0.2c0-0.4,0-1.1,0-1.5c0-0.2,0.1-0.2,0.3-0.2
		c1.3,0.1,2.5,0.1,4,0.1l0-3.1c0-0.3,0-0.6-0.1-0.8c0-0.6,0-1-0.1-1.4c0-0.1,0-0.2,0.2-0.2c0.5,0,1.2,0,1.8,0c0.2,0,0.2,0.1,0.2,0.3
		c-0.1,0.5-0.1,0.8-0.1,1.2l-0.1,4c1.2,0,2.5,0,3.2-0.1c0.2,0,0.3,0,0.3,0.2c0,0.4,0,1,0,1.4c0,0.1,0,0.1,0,0.1
		c1.4-0.1,2.7-0.1,4.2-0.3c-0.1-1.3-0.3-2.7-0.3-4.1c0-0.3,0-0.6,0-0.9l-0.2-1.7c0-0.2,0.1-0.2,0.2-0.2c0.5-0.1,1.3-0.1,1.8,0
		c0.2,0,0.2,0.1,0.2,0.3c0,0.6-0.1,1-0.1,1.5c0,0.3,0,0.5,0,0.8c0.1,1.5,0.1,2.8,0.3,4.2l1.1-0.1c2.9-0.3,6.2-0.6,7.7-0.8
		c0.2,0,0.3,0.1,0.3,0.2c0.1,0.4,0.1,1,0.1,1.4c0,0.2-0.1,0.3-0.3,0.3c-1.5,0.1-4.7,0.4-7.7,0.6l-1.1,0.1c0.4,2.4,0.9,4.5,1.5,6.2
		c1.8-1.7,3.3-3.6,4.4-5.5c0.1-0.2,0.2-0.2,0.4-0.1c0.4,0.2,1,0.4,1.4,0.7c0.2,0.1,0.2,0.3,0,0.4c-0.1,0.1-0.2,0.3-0.3,0.4
		c-0.1,0.2-0.2,0.3-0.3,0.5c-1.3,1.9-2.9,3.8-4.8,5.5c1.3,2.8,2.7,4.2,3.8,4.2c1.3,0,1.9-2.8,1.9-4.9c0-0.2,0.1-0.2,0.2-0.1
		c0.4,0.3,0.8,0.4,1.3,0.7c0.3,0.1,0.3,0.3,0.3,0.6c-0.3,2.5-1.1,6-3.5,6c-2,0-3.9-1.8-5.5-5c-2.3,1.8-4.8,3.4-7.7,4.5
		c-0.3,0.1-0.5,0.1-0.6-0.1c-0.2-0.2-0.4-0.5-1.1-1.1c-0.1-0.1-0.1-0.2,0.1-0.2c3.2-1.1,6.1-2.8,8.6-4.9c-0.8-2.1-1.5-4.6-1.9-7.5
		c-1.6,0.2-3.1,0.3-4.5,0.5c-0.2,0-0.3,0-0.3-0.2c-0.1-0.4-0.2-1.1-0.2-1.5c0,0,0-0.1,0.1-0.1l-3-0.1v4.7c1.2-0.4,2.3-0.8,3.3-1.2
		c0.1,0,0.2,0,0.2,0.1c0.1,0.7,0.2,1,0.3,1.4c0,0.2-0.1,0.4-0.3,0.4c-1,0.4-2.2,0.8-3.4,1.2l0,7.1c0,1.3-0.6,1.8-1.9,1.9
		c-0.9,0-1.6,0-2.2,0c-0.3,0-0.5-0.2-0.6-0.4c-0.1-0.4-0.1-0.9-0.3-1.2c0-0.2,0-0.2,0.2-0.2c0.6,0.1,1.3,0.1,2.1,0.1
		c0.5,0,0.7-0.2,0.7-0.7v-5.9l-3,0.9C172.4,15.7,172.3,15.7,172.2,15.8z M190.1,0.7c1.2,1.1,2.7,2.3,4.3,3.3c0.1,0.1,0.1,0.2,0,0.3
		c-0.3,0.3-0.7,0.6-1.1,0.9c-0.2,0.1-0.4,0.1-0.5,0c-1.5-1-3-2.2-4.1-3.4c-0.1-0.1-0.1-0.2,0-0.3c0.3-0.3,0.7-0.5,1-0.8
		C189.9,0.6,190,0.6,190.1,0.7z"/>
	<path class="st0" d="M212.3,12.7c-0.6,5.9-3.3,8.5-8.7,10.5c-0.3,0.1-0.5,0.1-0.7-0.1c-0.2-0.2-0.4-0.5-1.2-1.1
		c-0.1-0.1-0.1-0.1,0-0.2c5.9-1.7,8.4-4.7,8.6-9.9c-2.8,0-5.1,0-7.6,0.2c-0.2,0-0.3-0.1-0.3-0.2c0-0.5-0.1-1.2-0.1-1.7
		c0-0.2,0.1-0.2,0.3-0.2c3.4,0.2,6.6,0.2,10.9,0.2c0-3.3,0.1-6.9,0-8.9c0-0.3,0-0.5-0.1-0.8c0-0.2,0.1-0.3,0.2-0.3
		c0.6,0,1.4,0,2,0.1c0.2,0,0.2,0.1,0.2,0.3c-0.1,0.3-0.1,0.4-0.1,0.7c-0.1,2-0.1,5.6,0,8.9c4.4,0,9.1-0.1,11.1-0.1
		c0.2,0,0.3,0,0.3,0.2c0,0.4,0,1,0,1.5c0,0.2-0.1,0.2-0.3,0.2c-1.6,0-5,0-8.5,0l0,0.2c-0.1,0.3-0.1,0.5-0.1,0.7
		c-0.1,2-0.1,4.6-0.1,7.2c0,0.5,0.3,0.8,0.9,0.8c1.5,0.2,3.2,0.1,4.6,0c1-0.1,1.5-0.5,1.7-1.3c0.2-0.8,0.3-1.6,0.3-2.3
		c0-0.1,0.1-0.1,0.2-0.1c0.8,0.3,1.1,0.4,1.4,0.5c0.3,0.1,0.4,0.3,0.4,0.5c-0.1,0.7-0.2,1.5-0.4,2.3c-0.4,1.5-1.3,2.2-3.2,2.3
		c-1.8,0.1-3.9,0.1-5.8,0c-1.5-0.2-2.1-0.8-2.1-2.2c-0.1-3,0-6.2-0.1-7.7l0-0.9h-1.3h-2.4v0C212.3,12.2,212.3,12.4,212.3,12.7z
		 M208.5,8.4c-1.1-2-2.2-3.7-3.5-5.4c-0.1-0.1-0.1-0.2,0.1-0.3c0.4-0.3,0.9-0.5,1.3-0.7c0.2-0.1,0.3-0.1,0.4,0.1
		c1.3,1.7,2.5,3.5,3.7,5.4c0.1,0.2,0.1,0.3-0.1,0.4c-0.5,0.3-1,0.5-1.5,0.7C208.7,8.6,208.6,8.6,208.5,8.4z M223.7,3.7
		c-0.9,1.4-2.3,3.5-3.6,5c-0.1,0.2-0.3,0.2-0.5,0.1c-0.3-0.1-0.6-0.3-1.4-0.6c-0.1,0-0.1-0.1-0.1-0.2c1.5-1.6,3.3-4.2,4.2-6.2
		c0-0.1,0.1-0.2,0.3-0.1c0.5,0.1,1.1,0.4,1.6,0.6c0.2,0.1,0.2,0.2,0.1,0.4c-0.1,0.2-0.2,0.3-0.3,0.4C224,3.4,223.9,3.5,223.7,3.7z"
		/>
	<path class="st0" d="M234.8,22.2c-0.1,0.2-0.1,0.3-0.2,0.4c-0.1,0.2-0.3,0.3-0.5,0.1c-0.4-0.2-1.1-0.6-1.5-0.9
		c-0.1-0.1-0.1-0.2,0-0.3c1.8-2.1,4.1-5.7,5.2-8.3c0.1-0.1,0.1-0.1,0.3-0.1c0.6,0.3,1,0.4,1.3,0.6c0.2,0.1,0.2,0.3,0.1,0.5l-0.5,1.1
		c0.3,0.6,0.6,1.1,1,1.6c4.3-2.7,8.9-6.5,12.1-10.1h-7.6c-3.4,0-6.6,0-9.8,0.2c-0.2,0-0.3-0.1-0.3-0.2c-0.1-0.5-0.1-1.3-0.1-1.7
		c0-0.2,0.1-0.2,0.3-0.2c3.1,0.2,6.3,0.1,9.6,0.1c0-1.5,0-3.1,0-4c0-0.2,0-0.4-0.1-0.6c0-0.2,0-0.2,0.2-0.3c0.5,0,1.4,0,2,0.1
		c0.2,0,0.2,0.1,0.2,0.3c0,0.2-0.1,0.3-0.1,0.5c-0.1,0.9-0.1,2.5-0.1,4h7.4l1-1.3c0.1-0.2,0.2-0.2,0.4-0.1c0.5,0.2,1.1,0.5,1.6,0.7
		c0.2,0.1,0.2,0.2,0.1,0.4c-0.1,0.1-0.2,0.2-0.3,0.3c-0.1,0.2-0.2,0.3-0.4,0.5c-3.5,4.2-9.2,9.3-14.6,12.8c3.6,2.5,9.5,2.5,16.8,2.1
		c0.1,0,0.2,0.1,0.1,0.2c-0.3,0.8-0.4,1.1-0.5,1.4c-0.1,0.4-0.3,0.4-0.7,0.5c-9,0.3-16.1,0-19.3-5.1c-0.9,1.6-2,3.2-2.9,4.6
		C235,22,234.9,22.1,234.8,22.2z"/>
	<path class="st0" d="M267.3,22c-0.4,0.1-0.8,0.1-1.2,0c-0.2,0-0.3-0.1-0.3-0.2v-8.3c-0.4,0.9-0.9,1.8-1.5,2.6
		c-0.1,0.2-0.3,0.2-0.5,0.1c-0.2-0.2-0.4-0.4-1-0.9c-0.1-0.1-0.1-0.1,0-0.2c2.1-3.2,3.7-7.8,4.3-11.6c-1.1,0-2,0-3.1,0.1
		c-0.2,0-0.3-0.1-0.3-0.2c0-0.4-0.1-1.1-0.1-1.5c0-0.2,0.1-0.3,0.3-0.2c1.5,0.1,2.9,0.1,4.6,0.1c1.7,0,3.6,0,4.6-0.1
		c0.2,0,0.3,0.1,0.3,0.2v1.4c0,0.2-0.1,0.2-0.3,0.2l-4,0l0,0.1c-0.3,1.6-0.8,3.6-1.5,5.5h3.3l0-0.9c0-0.2,0.1-0.3,0.2-0.3
		c0.4,0,0.9,0,1.3,0c0.2,0,0.3,0.1,0.3,0.3c0,0.5,0,1.3,0,1.8v11.3c0,0.2-0.1,0.3-0.3,0.3H271c-0.2,0-0.3-0.1-0.3-0.3V20h-3.2v1.8
		C267.6,22,267.5,22,267.3,22z M267.6,10.8l0,1.2v6.4h3.2v-7.5H267.6z M278.7,7.2l-0.4,1c0.7,1,1.7,1.9,2.6,2.7
		c0.1,0.1,0.1,0.2,0,0.3c-0.3,0.3-0.6,0.6-0.9,0.9c-0.2,0.1-0.3,0.1-0.4,0c-0.7-0.7-1.4-1.4-2-2.1c-0.7,1.4-1.7,2.9-2.8,4.1
		c-0.2,0.2-0.4,0.2-0.6,0.1c-0.2-0.2-0.4-0.3-1.1-0.7c-0.1-0.1-0.1-0.1,0-0.2c2.2-2,3.6-4.7,4.1-7.2c0-0.2,0.1-0.2,0.3-0.2
		c0.4,0,1,0.1,1.4,0.2c0.3,0.1,0.3,0.2,0.2,0.4c-0.1,0.1-0.1,0.2-0.2,0.3C278.8,6.8,278.7,7,278.7,7.2z M281.9,23.1
		c-0.5,0-1.1,0-1.5,0c-0.2,0-0.3-0.1-0.3-0.3c0-1.9,0.1-3.9,0-5.6c-2.5,0-4.5,0-6.6,0.1c-0.2,0-0.3,0-0.3-0.2
		c-0.1-0.4-0.1-1-0.1-1.4c0-0.2,0.1-0.2,0.3-0.2c2.1,0.1,4.1,0.1,6.6,0.1l0-1.1c0-0.2-0.1-0.4-0.1-0.7c0-0.2,0.1-0.2,0.3-0.3
		c0.5,0,1.2,0,1.7,0.1c0.2,0,0.2,0.1,0.2,0.3c-0.1,0.2-0.1,0.4-0.1,0.6l0,1.1c2.6,0,5.4,0,6.7-0.1c0.2,0,0.3,0,0.3,0.2
		c0,0.4,0,0.9,0,1.3c0,0.2-0.1,0.3-0.3,0.3l-6.7,0c0,1.7,0,3.7,0.1,5.6C282.1,23,282,23.1,281.9,23.1z M288.6,3.4c0,0.4,0,0.9,0,1.3
		c0,0.2-0.1,0.2-0.3,0.2c-1.4,0-4.4,0-7.2,0c-2.7,0-4.9,0-7.1,0.1c-0.2,0-0.3-0.1-0.3-0.2c-0.1-0.4-0.1-1-0.1-1.4
		c0-0.2,0.1-0.2,0.3-0.2c2,0.1,3.8,0.1,6.1,0.1c0-0.9,0-1.8-0.1-2.4c0-0.2,0-0.3-0.1-0.5c0-0.2,0.1-0.2,0.2-0.2c0.5,0,1.2,0,1.7,0
		c0.2,0,0.3,0.1,0.2,0.3c-0.1,0.2-0.1,0.3-0.1,0.5C282,1.5,282,2.4,282,3.3c2.5,0,5,0,6.3-0.1C288.5,3.2,288.6,3.3,288.6,3.4z
		 M285.9,7.2c-0.2,0.5-0.4,0.9-0.6,1.4c1.1,1.3,2.4,2.7,3.8,3.8c0.1,0.1,0.1,0.2,0,0.3c-0.3,0.3-0.7,0.6-1,0.8
		c-0.2,0.1-0.3,0.1-0.5,0c-1.1-1-2.2-2.2-3.2-3.4c-0.7,1.1-1.5,2.1-2.4,3c-0.2,0.2-0.3,0.2-0.5,0.1c-0.2-0.1-0.4-0.3-1.1-0.7
		c-0.1-0.1-0.1-0.1,0-0.2c2.1-1.7,3.4-4,4.1-6.4c0.1-0.2,0.1-0.2,0.3-0.2c0.4,0,1,0.2,1.4,0.3c0.3,0.1,0.3,0.2,0.1,0.4
		c-0.1,0.1-0.1,0.2-0.1,0.3C286,6.9,285.9,7,285.9,7.2z"/>
	<path class="st0" d="M312.5,23.1c-0.5,0.1-1.3,0.1-1.8,0c-0.2,0-0.3-0.1-0.3-0.3c0.1-2.9,0.1-6,0-8.5H300c-0.5,2.9-1.7,5.9-3.8,8
		c-0.2,0.2-0.4,0.3-0.7,0.1c-0.3-0.2-0.5-0.4-1.3-0.8c-0.1-0.1-0.1-0.2,0-0.2c3.1-2.6,4-7.3,4.2-10.7c0.1-2.1,0-6.2-0.1-8
		c0-0.5-0.1-1.1-0.1-1.6c0-0.2,0.1-0.2,0.3-0.2c0.5,0,1.3,0,1.9,0c0.2,0,0.3,0.1,0.3,0.3c-0.1,0.6-0.1,0.9-0.1,1.4v3.8h7.6
		c0-2,0-4.1,0-5.3c0-0.2,0-0.4-0.1-0.7c0-0.1,0.1-0.2,0.2-0.2c0.6,0,1.4,0,2,0.1c0.2,0,0.2,0.1,0.2,0.2c0,0.2-0.1,0.4-0.1,0.6
		c-0.1,1.2-0.1,3.3,0,5.3h0.2c3.2,0,7.1,0,8.9-0.1c0.2,0,0.3,0.1,0.3,0.2c0,0.5,0,1.1,0,1.5c0,0.2-0.1,0.2-0.3,0.2
		c-1.8,0-5.7,0-8.9,0h-10l0,2.5c0,0.6-0.1,1.2-0.1,1.9h10.2l0-0.8c0-0.2-0.1-0.5-0.1-0.8c0-0.2,0.1-0.2,0.2-0.2c0.6-0.1,1.4,0,2,0
		c0.2,0,0.3,0.1,0.2,0.3c-0.1,0.3-0.1,0.5-0.1,0.7c-0.1,2.4-0.1,7.1,0,11.2C312.7,23,312.6,23.1,312.5,23.1z"/>
	<path class="st0" d="M1.4,67.2V42.2h15.8v4.3h-11v6.1h10.2v4.3H6.2v10.4H1.4z"/>
	<path class="st0" d="M20.6,67.2V42.2h4.7v25.1H20.6z"/>
	<path class="st0" d="M30,67.2V42.2h9L44,64h0.6V42.2h4.7v25.1h-9l-5-21.9h-0.6v21.9H30z"/>
	<path class="st0" d="M53.3,67.2v-4.2h3.3V46.3h-3.3v-4.2h10.3c3.4,0,5.9,0.9,7.7,2.6c1.8,1.7,2.6,4.2,2.6,7.6v4.7
		c0,3.4-0.9,5.9-2.6,7.6c-1.8,1.7-4.3,2.6-7.7,2.6H53.3z M61.3,62.9h2.4c1.9,0,3.3-0.5,4.2-1.5c0.9-1,1.3-2.4,1.3-4.2v-5
		c0-1.8-0.4-3.3-1.3-4.2c-0.9-1-2.3-1.5-4.2-1.5h-2.4V62.9z"/>
	<path class="st0" d="M92.9,67.2v-8.6l-8.5-16.4h5.3L95,52.9h0.6l5.3-10.7h5.3l-8.5,16.4v8.6H92.9z"/>
	<path class="st0" d="M117.6,67.7c-3.2,0-5.7-0.9-7.5-2.6c-1.9-1.7-2.8-4.2-2.8-7.4v-6c0-3.2,0.9-5.7,2.8-7.4
		c1.9-1.7,4.4-2.6,7.5-2.6s5.7,0.9,7.5,2.6c1.9,1.7,2.8,4.2,2.8,7.4v6c0,3.2-0.9,5.7-2.8,7.4C123.3,66.9,120.8,67.7,117.6,67.7z
		 M117.6,63.5c1.8,0,3.1-0.5,4.1-1.5c1-1,1.5-2.4,1.5-4.1v-6.3c0-1.7-0.5-3.1-1.5-4.1c-1-1-2.4-1.5-4.1-1.5c-1.7,0-3.1,0.5-4.1,1.5
		c-1,1-1.5,2.4-1.5,4.1v6.3c0,1.7,0.5,3.1,1.5,4.1C114.5,63,115.9,63.5,117.6,63.5z"/>
	<path class="st0" d="M141.8,67.7c-2.1,0-3.8-0.4-5.3-1.1s-2.6-1.8-3.4-3.2c-0.8-1.4-1.2-3.1-1.2-5V42.2h4.7v16.4
		c0,1.5,0.4,2.7,1.3,3.6c0.9,0.9,2.1,1.3,3.8,1.3c1.6,0,2.9-0.4,3.8-1.3c0.9-0.9,1.3-2.1,1.3-3.6V42.2h4.7v16.3c0,1.9-0.4,3.6-1.2,5
		c-0.8,1.4-1.9,2.5-3.4,3.2S143.8,67.7,141.8,67.7z"/>
	<path class="st0" d="M156.2,67.2V42.2h10.9c1.6,0,2.9,0.3,4.1,0.8c1.2,0.5,2.1,1.3,2.7,2.3c0.6,1,1,2.2,1,3.5v0.4
		c0,1.5-0.4,2.7-1.1,3.7s-1.6,1.6-2.7,2v0.6c1,0,1.7,0.4,2.2,1c0.5,0.6,0.8,1.4,0.8,2.4v8.2h-4.7v-7.5c0-0.6-0.1-1-0.4-1.4
		c-0.3-0.4-0.8-0.5-1.5-0.5h-6.6v9.5H156.2z M160.9,53.5h5.7c1.1,0,2-0.3,2.6-0.9s0.9-1.4,0.9-2.4v-0.4c0-1-0.3-1.8-0.9-2.4
		c-0.6-0.6-1.5-0.9-2.7-0.9h-5.7V53.5z"/>
	<path class="st0" d="M187.9,67.2V42.2h4.7v20.8h11.5v4.3H187.9z"/>
	<path class="st0" d="M207.3,67.2V42.2h4.7v25.1H207.3z"/>
	<path class="st0" d="M225.5,67.7c-1.7,0-3.3-0.4-4.7-1.2c-1.4-0.8-2.5-1.9-3.3-3.4c-0.8-1.5-1.2-3.3-1.2-5.5v-6
		c0-3.2,0.9-5.7,2.7-7.4c1.8-1.7,4.3-2.6,7.4-2.6c3.1,0,5.5,0.8,7.1,2.5c1.7,1.6,2.5,3.9,2.5,6.6v0.1h-4.7v-0.3
		c0-0.9-0.2-1.7-0.6-2.4c-0.4-0.7-0.9-1.3-1.7-1.7c-0.7-0.4-1.7-0.6-2.8-0.6c-1.7,0-3,0.5-3.9,1.5c-1,1-1.4,2.4-1.4,4.2v6.2
		c0,1.7,0.5,3.1,1.4,4.2c1,1.1,2.3,1.6,4,1.6c1.7,0,3-0.5,3.8-1.4c0.8-0.9,1.2-2.1,1.2-3.4v-0.4h-5.9v-4H236v12.8h-4.4v-2.4H231
		c-0.2,0.4-0.4,0.8-0.8,1.3c-0.4,0.5-0.9,0.8-1.7,1.1C227.8,67.6,226.7,67.7,225.5,67.7z"/>
	<path class="st0" d="M240.5,67.2V42.2h4.7v10.4h9.3V42.2h4.7v25.1h-4.7V56.8h-9.3v10.4H240.5z"/>
	<path class="st0" d="M269.8,67.2V46.5h-7.3v-4.3h19.3v4.3h-7.3v20.8H269.8z"/>
</g>
</svg>
