<?xml version="1.0" encoding="utf-8"?>
<!-- Generator: Adobe Illustrator 27.0.1, SVG Export Plug-In . SVG Version: 6.00 Build 0)  -->
<svg version="1.1" id="圖層_1" xmlns="http://www.w3.org/2000/svg" xmlns:xlink="http://www.w3.org/1999/xlink" x="0px" y="0px"
	 viewBox="0 0 698.2 306.2" style="enable-background:new 0 0 698.2 306.2;" xml:space="preserve">
<style type="text/css">
	.st0{fill:#DCFF37;}
	.st1{fill:#007DFF;}
	.st2{fill:#D9E020;}
	.st3{fill:#FF9BB4;}
</style>
<g>
	<g>
		<g>
			<polygon class="st0" points="64,86.3 0,194.8 53.5,183.9 103.4,225.4 153.8,161.3 195.4,183.9 210.2,99.1 161.2,111 135.5,63.6 
				95.5,108 			"/>
			<polygon class="st1" points="55.6,175.2 16.2,183.3 66.6,97.9 96.8,118.7 133.9,77.5 157.1,120.3 200.2,109.9 189.4,171.4 
				151.7,150.9 102.2,213.8 			"/>
		</g>
		<g>
			<g>
				<path class="st2" d="M54.7,166.4l10-11.4l4.3,3.8l-6.3,12.1l0.3,0.3l8.7-10L74,163l-10,11.4l-4.3-3.8l6.3-12.1l-0.3-0.3l-8.7,10
					L54.7,166.4z"/>
				<path class="st2" d="M70.8,180.7c-1.5-1.3-2.4-2.8-2.6-4.3c-0.2-1.6,0.3-3.1,1.6-4.6l2.4-2.7c1.3-1.5,2.7-2.2,4.3-2.2
					c1.6,0,3.1,0.6,4.6,2c1.5,1.3,2.4,2.8,2.6,4.3c0.2,1.6-0.3,3.1-1.6,4.6l-2.4,2.7c-1.3,1.5-2.7,2.2-4.3,2.2
					C73.8,182.7,72.3,182.1,70.8,180.7z M72.4,178.8c0.8,0.7,1.7,1.1,2.6,1c0.9-0.1,1.7-0.5,2.3-1.3l2.5-2.9c0.7-0.8,1-1.6,0.9-2.5
					c-0.1-0.9-0.5-1.7-1.4-2.4c-0.8-0.7-1.7-1.1-2.6-1c-0.9,0.1-1.7,0.5-2.3,1.3l-2.5,2.9c-0.7,0.8-1,1.6-0.9,2.5
					C71.2,177.3,71.6,178.1,72.4,178.8z"/>
				<path class="st2" d="M80.2,188.5l6.9-14.1l2.3,2l-6.2,12.3l0.2,0.2l11.3-7.8l2.3,2l-13,8.8L80.2,188.5z"/>
				<path class="st2" d="M87.7,195.1l13.1-8.7l4,3.4L98,204.1l-2.3-2l1.5-3.1l-4.3-3.7l-2.8,1.9L87.7,195.1z M95.2,193.7l3.2,2.8
					l3.4-6.8l-0.3-0.3L95.2,193.7z"/>
			</g>
		</g>
		<g>
			<g>
				<path class="st2" d="M129.1,90.6l11.1,10.3l-3.9,4.2l-11.9-6.7l-0.3,0.3l9.7,9l-2,2.2l-11.1-10.3l3.9-4.2l11.9,6.7l0.3-0.3
					l-9.7-9L129.1,90.6z"/>
				<path class="st2" d="M114.3,106.1c1.4-1.5,2.8-2.3,4.4-2.4c1.6-0.2,3.1,0.4,4.5,1.8l2.7,2.5c1.4,1.3,2.1,2.8,2.1,4.4
					c0,1.6-0.7,3.1-2.1,4.6c-1.4,1.5-2.8,2.3-4.4,2.4c-1.6,0.2-3.1-0.4-4.5-1.8l-2.7-2.5c-1.4-1.3-2.1-2.8-2.1-4.4
					S112.9,107.6,114.3,106.1z M116.2,107.9c-0.8,0.8-1.1,1.7-1.1,2.6c0,0.9,0.4,1.7,1.2,2.4l2.8,2.6c0.8,0.7,1.6,1,2.5,1
					c0.9,0,1.7-0.5,2.5-1.3c0.8-0.8,1.1-1.7,1.1-2.5c0-0.9-0.4-1.7-1.2-2.4l-2.8-2.6c-0.8-0.7-1.6-1-2.5-1
					C117.8,106.6,116.9,107.1,116.2,107.9z"/>
				<path class="st2" d="M106.2,115.3l13.9,7.3l-2.1,2.3l-12.1-6.6l-0.2,0.2l7.5,11.5l-2.1,2.3l-8.4-13.3L106.2,115.3z"/>
				<path class="st2" d="M99.4,122.7l8.3,13.4l-3.6,3.9l-14-7.2l2.1-2.3l3,1.6l3.9-4.2l-1.9-2.9L99.4,122.7z M100.6,130.1l-2.9,3.1
					l6.7,3.6l0.3-0.3L100.6,130.1z"/>
			</g>
		</g>
	</g>
	<g>
		<g>
			<path class="st3" d="M399,156.9l-60.1,33.3l-55.2-53.8l-3.3,54.9c0,0-93.6,41.6-90,41.1c3.6-0.5,44.4,16.7,44.4,16.7l-62.2,49
				l96.3-28l128.6,21l-62.8-49.6L399,156.9z"/>
			<path class="st0" d="M250.6,247l-12.6-5.3c-11.2-4.7-19.7-8.2-26.2-10.7c19.2-8.8,50.2-22.7,71.9-32.4l4.5-2l2.5-42.1l46.8,45.7
				l31.8-17.6L323.4,243l44.5,35.1l-99.5-16.3l-58,16.9L250.6,247z"/>
		</g>
		<g>
			<g>
				<path class="st1" d="M278.8,260.4l2.4-15l5.7,0.9l1,13.6l0.4,0.1l2.1-13.1l2.9,0.5l-2.4,15l-5.7-0.9l-1-13.6l-0.4-0.1l-2.1,13.1
					L278.8,260.4z"/>
				<path class="st1" d="M300,264.2c-2-0.3-3.5-1.1-4.5-2.3c-1-1.2-1.4-2.8-1-4.7l0.6-3.6c0.3-1.9,1.1-3.3,2.5-4.2
					c1.3-0.8,3-1.1,5-0.8c2,0.3,3.5,1.1,4.5,2.3c1,1.2,1.3,2.8,1,4.7l-0.6,3.6c-0.3,1.9-1.1,3.3-2.5,4.2
					C303.6,264.2,301.9,264.5,300,264.2z M300.4,261.7c1.1,0.2,2,0,2.7-0.5c0.7-0.5,1.2-1.3,1.3-2.3l0.6-3.8c0.2-1,0-1.9-0.5-2.6
					c-0.5-0.7-1.3-1.2-2.4-1.3c-1.1-0.2-2,0-2.7,0.5c-0.7,0.5-1.2,1.3-1.3,2.3l-0.6,3.8c-0.2,1,0,1.9,0.5,2.6
					C298.5,261,299.3,261.5,300.4,261.7z"/>
				<path class="st1" d="M312,265.8l-1.6-15.6l3.1,0.5l1.2,13.7l0.3,0.1l5.5-12.6l3.1,0.5l-6.4,14.3L312,265.8z"/>
				<path class="st1" d="M321.9,267.5l6.6-14.3l5.2,0.8l1.7,15.7l-3.1-0.5l-0.3-3.4l-5.6-0.9L325,268L321.9,267.5z M327.5,262.3
					l4.2,0.7l-0.7-7.6l-0.4-0.1L327.5,262.3z"/>
			</g>
		</g>
		<g>
			<g>
				<path class="st1" d="M283.1,202.9l6.2,13.8l-5.2,2.4l-8.3-10.7l-0.4,0.2l5.4,12.1l-2.7,1.2l-6.2-13.8l5.2-2.4l8.3,10.7l0.4-0.2
					l-5.4-12.1L283.1,202.9z"/>
				<path class="st1" d="M263.4,211.4c1.8-0.8,3.5-1,5-0.5c1.5,0.5,2.7,1.6,3.5,3.4l1.5,3.3c0.8,1.8,0.9,3.4,0.2,4.8
					c-0.7,1.4-1.9,2.6-3.7,3.4c-1.8,0.8-3.5,1-5,0.5c-1.5-0.5-2.7-1.6-3.5-3.4l-1.5-3.3c-0.8-1.8-0.9-3.4-0.2-4.8
					C260.4,213.4,261.6,212.2,263.4,211.4z M264.5,213.8c-1,0.5-1.7,1.1-2,1.9c-0.3,0.8-0.3,1.7,0.2,2.7l1.6,3.5
					c0.4,0.9,1.1,1.6,1.9,1.9c0.8,0.3,1.8,0.2,2.8-0.2c1-0.5,1.7-1.1,2-1.9c0.3-0.8,0.3-1.7-0.2-2.7l-1.6-3.5
					c-0.4-0.9-1.1-1.6-1.9-1.9C266.4,213.2,265.5,213.3,264.5,213.8z"/>
				<path class="st1" d="M252.4,216.7l9.9,12.2l-2.8,1.3l-8.6-10.8l-0.3,0.1l2.4,13.5l-2.8,1.3l-2.5-15.5L252.4,216.7z"/>
				<path class="st1" d="M243.3,220.8l2.4,15.6l-4.8,2.2l-10.1-12.1l2.8-1.3l2.2,2.7l5.2-2.3l-0.6-3.4L243.3,220.8z M241.5,228.2
					l-3.9,1.8l4.8,5.9l0.4-0.2L241.5,228.2z"/>
			</g>
		</g>
	</g>
	<g>
		<g>
			<polygon class="st1" points="428.2,0 347.6,145.5 424.1,106.5 574,145.5 			"/>
			<polygon class="st0" points="423.2,97.9 367.5,126.3 430.1,13.3 547.2,130.2 			"/>
		</g>
		<g>
			<g>
				<path class="st1" d="M458.8,102.7l3.8-14.7l5.6,1.4l-0.2,13.6l0.4,0.1l3.3-12.8l2.9,0.7l-3.8,14.7l-5.6-1.4l0.2-13.6l-0.4-0.1
					l-3.3,12.8L458.8,102.7z"/>
				<path class="st1" d="M479.6,108.4c-1.9-0.5-3.4-1.4-4.3-2.7c-0.9-1.3-1.1-2.9-0.6-4.8l0.9-3.5c0.5-1.9,1.4-3.2,2.8-3.9
					c1.4-0.7,3.1-0.8,5-0.3c1.9,0.5,3.4,1.4,4.3,2.7c0.9,1.3,1.1,2.9,0.6,4.8l-0.9,3.5c-0.5,1.9-1.4,3.2-2.8,3.9
					C483.2,108.7,481.5,108.9,479.6,108.4z M480.2,105.9c1.1,0.3,2,0.2,2.8-0.3c0.8-0.4,1.3-1.2,1.5-2.2l0.9-3.7
					c0.3-1,0.2-1.9-0.3-2.6c-0.5-0.8-1.2-1.3-2.3-1.6c-1.1-0.3-2-0.2-2.8,0.3c-0.8,0.4-1.3,1.2-1.5,2.2l-0.9,3.7
					c-0.3,1-0.2,1.9,0.3,2.6C478.3,105.1,479.1,105.6,480.2,105.9z"/>
				<path class="st1" d="M491.4,111.1l-0.2-15.7l3,0.8l0,13.8l0.3,0.1l6.6-12.1l3,0.8l-7.7,13.7L491.4,111.1z"/>
				<path class="st1" d="M501.2,113.6l7.8-13.7l5.1,1.3l0.3,15.7l-3-0.8l0-3.5l-5.5-1.4l-1.7,3L501.2,113.6z M507.2,108.9l4.2,1.1
					l0-7.6l-0.4-0.1L507.2,108.9z"/>
			</g>
		</g>
		<g>
			<g>
				<path class="st1" d="M427.9,26.9l13.3,7.3l-2.8,5l-13.1-3.6l-0.2,0.4l11.6,6.4l-1.4,2.6L422,37.7l2.8-5l13.1,3.6l0.2-0.4
					l-11.6-6.4L427.9,26.9z"/>
				<path class="st1" d="M417.3,45.6c1-1.8,2.2-2.9,3.7-3.4c1.5-0.5,3.1-0.3,4.8,0.6l3.2,1.8c1.7,0.9,2.7,2.2,3.1,3.7
					c0.3,1.5,0,3.2-0.9,5s-2.2,2.9-3.7,3.4c-1.5,0.5-3.1,0.3-4.8-0.6l-3.2-1.8c-1.7-0.9-2.7-2.2-3.1-3.7
					C416,49,416.3,47.4,417.3,45.6z M419.5,46.9c-0.5,1-0.7,1.9-0.4,2.8c0.2,0.8,0.8,1.5,1.7,2l3.3,1.8c0.9,0.5,1.8,0.6,2.6,0.4
					c0.8-0.2,1.5-0.9,2.1-1.8c0.5-1,0.7-1.9,0.4-2.7c-0.2-0.9-0.8-1.5-1.7-2l-3.3-1.8c-0.9-0.5-1.8-0.6-2.6-0.4
					C420.7,45.3,420.1,45.9,419.5,46.9z"/>
				<path class="st1" d="M411.7,56.4l15.3,3.8l-1.5,2.7l-13.3-3.5l-0.2,0.3l10.1,9.4l-1.5,2.7L409.2,61L411.7,56.4z"/>
				<path class="st1" d="M406.8,65.2l11.3,11l-2.5,4.6l-15.3-3.6l1.5-2.7l3.3,0.8l2.7-5l-2.5-2.4L406.8,65.2z M409.8,72.2l-2.1,3.8
					l7.4,1.9l0.2-0.4L409.8,72.2z"/>
			</g>
		</g>
	</g>
	<g>
		<g>
			<polygon class="st0" points="556.7,207.3 523.8,158.9 504.1,298.4 605.8,230.1 672,306.2 698.2,128.3 			"/>
			<polygon class="st3" points="607.3,219.4 514.6,281.6 528.9,180.8 554.2,218 687.8,143.4 666.5,287.6 			"/>
		</g>
		<g>
			<g>
				<path class="st1" d="M541.3,260.1l-8.4-12.6l4.8-3.2l10,9.2l0.3-0.2l-7.3-11l2.5-1.6l8.4,12.6l-4.8,3.2l-10-9.2l-0.3,0.2l7.3,11
					L541.3,260.1z"/>
				<path class="st1" d="M559.4,248.4c-1.7,1.1-3.3,1.6-4.9,1.4c-1.6-0.2-2.9-1.1-4-2.8l-2-3c-1.1-1.6-1.4-3.2-1-4.7
					c0.4-1.5,1.4-2.9,3.1-4c1.7-1.1,3.3-1.6,4.9-1.4s2.9,1.1,4,2.8l2,3c1.1,1.6,1.4,3.2,1,4.7C562.1,246,561,247.3,559.4,248.4z
					 M557.9,246.3c0.9-0.6,1.5-1.4,1.7-2.2c0.2-0.9,0-1.7-0.6-2.6l-2.1-3.2c-0.6-0.9-1.3-1.4-2.2-1.6s-1.8,0.1-2.7,0.7
					c-0.9,0.6-1.5,1.4-1.7,2.2c-0.2,0.9,0,1.7,0.6,2.6l2.1,3.2c0.6,0.9,1.3,1.4,2.2,1.5S557,246.9,557.9,246.3z"/>
				<path class="st1" d="M569.3,241.4l-11.8-10.4l2.6-1.7l10.2,9.2l0.3-0.2l-4.6-13l2.6-1.7l5,14.9L569.3,241.4z"/>
				<path class="st1" d="M577.7,235.9l-4.9-15l4.4-2.9l11.9,10.3l-2.6,1.7l-2.6-2.3l-4.7,3.2l1.1,3.3L577.7,235.9z M578.2,228.3
					l3.6-2.4l-5.7-5.1l-0.3,0.2L578.2,228.3z"/>
			</g>
		</g>
		<g>
			<g>
				<path class="st1" d="M663.3,161.2l7.4,13.3l-5,2.8l-9.2-10l-0.4,0.2l6.4,11.6l-2.6,1.4l-7.4-13.3l5-2.8l9.2,10l0.4-0.2
					l-6.4-11.6L663.3,161.2z"/>
				<path class="st1" d="M644.3,171.4c1.8-1,3.4-1.3,5-1c1.5,0.3,2.8,1.4,3.7,3.1l1.8,3.2c0.9,1.7,1.2,3.3,0.6,4.8
					c-0.5,1.5-1.7,2.7-3.4,3.7c-1.8,1-3.4,1.3-5,1c-1.5-0.3-2.8-1.4-3.7-3.1l-1.8-3.2c-1-1.7-1.2-3.3-0.6-4.8
					C641.4,173.6,642.6,172.4,644.3,171.4z M645.6,173.7c-1,0.5-1.6,1.2-1.8,2.1c-0.2,0.8-0.1,1.7,0.4,2.6l1.9,3.3
					c0.5,0.9,1.2,1.5,2,1.7c0.8,0.2,1.8,0.1,2.7-0.5c1-0.5,1.6-1.2,1.8-2.1c0.2-0.9,0.1-1.7-0.4-2.6l-1.9-3.3
					c-0.5-0.9-1.2-1.5-2-1.7C647.5,173,646.6,173.1,645.6,173.7z"/>
				<path class="st1" d="M633.8,177.6l10.9,11.3l-2.7,1.5l-9.4-10l-0.3,0.2l3.5,13.3l-2.7,1.5l-3.8-15.2L633.8,177.6z"/>
				<path class="st1" d="M625.1,182.5l3.7,15.3l-4.6,2.6l-11.1-11.2l2.7-1.5l2.4,2.5l5-2.8l-0.9-3.3L625.1,182.5z M623.9,190
					l-3.7,2.1l5.3,5.5l0.4-0.2L623.9,190z"/>
			</g>
		</g>
	</g>
</g>
</svg>
